<svg width="20" height="30" viewBox="0 0 20 30" fill="none" xmlns="http://www.w3.org/2000/svg">
<path d="M16.9143 0C15.2008 0 13.7971 1.62123 13.7971 3.60029C13.7971 5.57935 15.2008 7.16406 16.9143 7.16406C18.6279 7.16406 20 5.57935 20 3.60029C20 1.62123 18.6279 0 16.9143 0ZM4.16062 7.982C3.64211 7.982 3.22479 8.46398 3.22479 9.06282C3.22479 9.66166 3.64211 10.1436 4.16062 10.1436H14.3282C14.6759 10.1217 15.6877 10.2167 16.1429 10.8958C16.6235 11.6188 16.4022 12.8822 16.1429 13.8097C16.1429 13.8097 13.19 24.742 12.9687 25.5599C12.5008 27.3053 11.0339 28.4007 9.62379 27.685C8.46032 27.0935 8.38447 25.8155 8.77649 24.574C8.82707 24.4206 8.89029 24.3111 8.94723 24.1797C8.94723 24.1797 11.4765 18.6806 12.0329 17.1471C12.4439 16.0224 11.9128 15.2483 10.6418 15.2483H4.86246C4.344 15.2483 3.92666 15.7303 3.92666 16.3291C3.92666 16.928 4.344 17.4099 4.86246 17.4099H6.50648C6.85424 17.388 7.89124 17.4391 8.28962 18.1621C9.03572 19.5059 8.52358 19.944 7.41069 24.4134C7.34115 24.647 7.27789 24.888 7.23999 25.1363C7.23999 25.1363 6.47485 28.2619 8.90928 29.5546C11.1603 30.7449 13.7717 29.4742 14.5495 26.6407C15.0933 24.647 17.9197 14.4669 17.9197 14.4669C18.4951 12.3929 18.4003 10.7351 17.6099 9.55942C16.516 7.93817 14.5621 7.97471 14.265 7.98929H4.16062V7.982ZM0.93582 11.5531C0.417326 11.5531 0 12.0351 0 12.6339C0 13.2327 0.417326 13.7439 0.93582 13.7439H12.8928C13.4113 13.7439 13.8286 13.2327 13.8286 12.6339C13.8286 12.0351 13.4113 11.5531 12.8928 11.5531H0.93582Z" fill="#009EFF"/>
</svg>
