<svg width="41" height="26" viewBox="0 0 41 26" fill="none" xmlns="http://www.w3.org/2000/svg">
<g clip-path="url(#clip0_405_6495)">
<path opacity="0.07" d="M36.8917 0H3.16215C1.37026 0 0 1.37026 0 3.16215V22.135C0 23.9269 1.47567 25.2972 3.16215 25.2972H36.8917C38.6836 25.2972 40.0539 23.9269 40.0539 22.135V3.16215C40.0539 1.37026 38.5782 0 36.8917 0Z" fill="black"/>
<path d="M36.8918 1.05408C38.0513 1.05408 38.9999 2.00272 38.9999 3.16218V22.1351C38.9999 23.2945 38.0513 24.2432 36.8918 24.2432H3.16224C2.00278 24.2432 1.05414 23.2945 1.05414 22.1351V3.16218C1.05414 2.00272 2.00278 1.05408 3.16224 1.05408H36.8918Z" fill="#006FCF"/>
<path d="M9.45525 10.823L10.2711 12.8004H8.64574L9.45525 10.823ZM26.3991 10.9052H23.2612V11.7769H26.3485V13.0828H23.2675V14.0547H26.4054V14.8336L28.5947 12.4673L26.4054 10.0008L26.3991 10.9052ZM11.576 8.4387H15.7869L16.7219 10.4783L17.5883 8.43237H28.5188L29.6551 9.68669L30.8303 8.43237H35.8508L32.1416 12.4926L35.8128 16.5275H30.7175L29.5813 15.2732L28.3955 16.5275H10.5715L10.0508 15.2732H8.85972L8.33796 16.5275H4.21558L7.67918 8.43237H11.2946L11.576 8.4387ZM20.7072 9.57496H18.3472L16.7661 13.3021L15.0533 9.57496H12.7112V14.6449L10.5399 9.57496H8.43915L5.92841 15.3849H7.56745L8.08815 14.1306H10.8245L11.3452 15.3849H14.2122V11.2372L16.0578 15.3912H17.3121L19.1462 11.2498V15.3923H20.683L20.7083 9.57391L20.7072 9.57496ZM30.552 12.4926L33.2198 9.57496H31.2994L29.6118 11.3943L27.9802 9.57496H21.7676V15.3912H27.8916L29.5929 13.5593L31.2245 15.3912H33.2009L30.5531 12.4926H30.552Z" fill="white"/>
</g>
<defs>
<clipPath id="clip0_405_6495">
<rect width="40.0539" height="25.2972" fill="white"/>
</clipPath>
</defs>
</svg>
