<svg width="41" height="26" viewBox="0 0 41 26" fill="none" xmlns="http://www.w3.org/2000/svg">
<g clip-path="url(#clip0_405_6521)">
<path opacity="0.07" d="M37.0035 6.10352e-05H3.2739C1.48202 6.10352e-05 0.111755 1.37032 0.111755 3.16221V22.1351C0.111755 23.927 1.58742 25.2972 3.2739 25.2972H37.0035C38.7954 25.2972 40.1656 23.927 40.1656 22.1351V3.16221C40.1656 1.37032 38.69 6.10352e-05 37.0035 6.10352e-05Z" fill="black"/>
<path d="M37.004 1.05408C38.1634 1.05408 39.1121 2.00272 39.1121 3.16217V22.1351C39.1121 23.2945 38.1634 24.2432 37.004 24.2432H3.27442C2.11497 24.2432 1.16632 23.2945 1.16632 22.1351V3.16217C1.16632 2.00272 2.11497 1.05408 3.27442 1.05408H37.004Z" fill="white"/>
<path d="M20.1392 21.2919C24.9127 21.2919 28.7824 17.4222 28.7824 12.6487C28.7824 7.87519 24.9127 4.00549 20.1392 4.00549C15.3657 4.00549 11.496 7.87519 11.496 12.6487C11.496 17.4222 15.3657 21.2919 20.1392 21.2919Z" fill="#F5AC37"/>
<path d="M15.9251 17.3517V17.3201V16.0869V14.4246C15.9251 14.3551 15.9251 14.3445 15.8408 14.3445H14.6918C14.6286 14.3445 14.6012 14.3445 14.6012 14.2602V13.2547H15.8292C15.8987 13.2547 15.924 13.2547 15.924 13.164V12.169C15.924 12.1057 15.924 12.0899 15.8397 12.0899H14.6908C14.6275 12.0899 14.6012 12.0899 14.6012 12.0056V11.0728C14.6012 11.0148 14.6012 10.999 14.6855 10.999H15.8239C15.904 10.999 15.9251 10.999 15.9251 10.8989V8.04449C15.9251 7.96017 15.9251 7.93909 16.0305 7.93909H20.0011C20.289 7.94973 20.5758 7.98143 20.8591 8.03395C21.4425 8.14232 22.003 8.35018 22.516 8.64846C22.8555 8.84853 23.1686 9.09039 23.4478 9.36838C23.6567 9.58607 23.8461 9.82167 24.0139 10.0725C24.1808 10.3268 24.3193 10.5986 24.427 10.883C24.4335 10.9186 24.4537 10.9502 24.4833 10.9709C24.5129 10.9917 24.5495 10.9999 24.5851 10.9937H25.5338C25.655 10.9937 25.655 10.9937 25.6603 11.1097V11.9782C25.6603 12.0625 25.6287 12.0836 25.5443 12.0836H24.8139C24.7401 12.0836 24.719 12.0836 24.7232 12.1795C24.7524 12.5021 24.7524 12.8267 24.7232 13.1493C24.7232 13.2388 24.7232 13.2494 24.8244 13.2494H25.6603C25.6972 13.2968 25.6603 13.3442 25.6603 13.3917C25.6657 13.4534 25.6657 13.5155 25.6603 13.5772V14.2181C25.6603 14.3077 25.6339 14.334 25.5549 14.334H24.5535C24.5199 14.328 24.4853 14.3352 24.4569 14.354C24.4284 14.3728 24.4083 14.4019 24.4007 14.4352C24.1622 15.0549 23.7812 15.6099 23.2887 16.0553C23.1087 16.2175 22.9197 16.3696 22.7226 16.5106C22.5108 16.6318 22.3042 16.7594 22.0871 16.8595C21.6873 17.0394 21.2682 17.1727 20.838 17.2569C20.429 17.3299 20.0139 17.3634 19.5984 17.357H15.9251V17.3517ZM23.236 14.3551C23.1463 14.3445 23.0558 14.3445 22.9661 14.3551H17.0951C17.015 14.3551 16.9897 14.3551 16.9897 14.4605V16.2987C16.9897 16.3831 16.9897 16.4042 17.0951 16.4042H19.805C19.9346 16.4139 20.0648 16.405 20.1919 16.3778C20.5851 16.3494 20.9722 16.2638 21.3408 16.1238C21.4754 16.0772 21.605 16.0172 21.7276 15.9446H21.7645C22.3996 15.6141 22.9158 15.0939 23.2412 14.4563C23.2412 14.4563 23.2781 14.3719 23.236 14.3509V14.3551ZM23.236 10.9885C23.2454 10.9648 23.2454 10.9384 23.236 10.9147C23.1831 10.7977 23.1196 10.6858 23.0462 10.5805C22.9347 10.4018 22.8028 10.2366 22.6531 10.0883C22.5831 9.99859 22.5016 9.9185 22.4106 9.85008C21.9523 9.46002 21.4079 9.18438 20.8222 9.04584C20.527 8.97765 20.225 8.9437 19.922 8.94465H17.0793C16.9992 8.94465 16.9886 8.97627 16.9886 9.04584V10.9252C16.9886 11.0043 16.9886 11.0253 17.0898 11.0253H23.1991C23.1991 11.0253 23.2518 11.0148 23.2623 10.9832L23.236 10.9885ZM20.2709 13.2547H23.49C23.5585 13.2547 23.5901 13.2547 23.5954 13.164C23.6219 12.8364 23.6219 12.5072 23.5954 12.1795C23.5954 12.1163 23.5638 12.0899 23.4953 12.0899H17.0898C17.0097 12.0899 16.9886 12.1163 16.9886 12.1901V13.1282C16.9886 13.2494 16.9886 13.2494 17.1151 13.2494L20.2709 13.2547Z" fill="white"/>
</g>
<defs>
<clipPath id="clip0_405_6521">
<rect width="40.0539" height="25.2972" fill="white" transform="translate(0.111755 6.10352e-05)"/>
</clipPath>
</defs>
</svg>
