<svg width="41" height="26" viewBox="0 0 41 26" fill="none" xmlns="http://www.w3.org/2000/svg">
<g clip-path="url(#clip0_405_6539)">
<path d="M38.5935 25.2414H3.64437C3.10423 25.2397 2.58669 25.0244 2.20475 24.6425C1.82281 24.2605 1.6075 23.743 1.60583 23.2029V2.99568C1.6075 2.45554 1.82281 1.938 2.20475 1.55607C2.58669 1.17413 3.10423 0.958821 3.64437 0.957153H38.5935C39.1336 0.958821 39.6511 1.17413 40.0331 1.55607C40.415 1.938 40.6303 2.45554 40.632 2.99568V23.2029C40.6303 23.743 40.415 24.2605 40.0331 24.6425C39.6511 25.0244 39.1336 25.2397 38.5935 25.2414Z" fill="white"/>
<path opacity="0.25" d="M38.5779 25.7464H3.65934C2.2427 25.7464 1.09167 24.6112 1.09167 23.2167V2.97894C1.09167 1.58443 2.2427 0.449219 3.65934 0.449219H38.5779C39.9945 0.449219 41.1455 1.58443 41.1455 2.97894V23.2167C41.1455 24.6112 39.9945 25.7464 38.5779 25.7464ZM3.65934 1.4611C2.80978 1.4611 2.11832 2.14202 2.11832 2.97894V23.2167C2.11832 24.0536 2.80978 24.7345 3.65934 24.7345H38.5779C39.4274 24.7345 40.1189 24.0536 40.1189 23.2167V2.97894C40.1189 2.14202 39.4274 1.4611 38.5779 1.4611H3.65934Z" fill="#A7A8AB"/>
<path d="M20.9736 20.7321C25.438 20.7321 29.0571 17.113 29.0571 12.6486C29.0571 8.18417 25.438 4.56506 20.9736 4.56506C16.5092 4.56506 12.8901 8.18417 12.8901 12.6486C12.8901 17.113 16.5092 20.7321 20.9736 20.7321Z" fill="#CBA747"/>
<path d="M25.6255 11.5988C25.3145 9.75105 23.8336 8.80768 23.0841 8.56525C22.3347 8.32598 17.3786 8.42506 17.3786 8.42506C17.2669 8.56208 17.3354 10.4256 17.3354 10.4256L18.4643 10.4193L18.4864 11.8507H17.5124C17.4977 11.8506 17.4831 11.8534 17.4695 11.8589C17.4559 11.8645 17.4435 11.8727 17.4331 11.8831C17.4227 11.8935 17.4145 11.9059 17.4089 11.9195C17.4034 11.9331 17.4006 11.9477 17.4007 11.9624V13.3749C17.4007 13.4371 17.4503 13.4866 17.5124 13.4866H18.5022C18.5054 14.2487 18.4959 14.859 18.4653 14.8706C18.381 14.9043 17.464 14.8242 17.3733 14.8864C17.2858 14.9454 17.3333 16.05 17.3333 16.4727C17.3301 16.8954 17.445 16.8775 17.445 16.8775C22.6994 16.7436 22.5719 17.2264 24.0528 16.3389C25.5338 15.4524 25.9417 13.4487 25.6265 11.5977L25.6255 11.5988ZM20.0306 14.8653V13.4687L21.7181 13.4866C21.7481 13.4869 21.777 13.4753 21.7985 13.4544C21.8201 13.4335 21.8324 13.4049 21.833 13.3749V11.9624C21.8324 11.9324 21.8201 11.9039 21.7985 11.8829C21.777 11.862 21.7481 11.8504 21.7181 11.8507L20.0306 11.8539V10.2949C20.0306 10.2949 23.8947 9.867 23.8947 12.7646C23.8947 15.5494 20.0306 14.8653 20.0306 14.8653Z" fill="white"/>
</g>
<defs>
<clipPath id="clip0_405_6539">
<rect width="40.0539" height="25.2972" fill="white" transform="translate(0.946533 6.10352e-05)"/>
</clipPath>
</defs>
</svg>
