<svg width="41" height="26" viewBox="0 0 41 26" fill="none" xmlns="http://www.w3.org/2000/svg">
<g clip-path="url(#clip0_405_6530)">
<path opacity="0.07" d="M37.5593 6.10352e-05H3.82975C2.03787 6.10352e-05 0.667603 1.37032 0.667603 3.16221V22.1351C0.667603 23.927 2.14327 25.2972 3.82975 25.2972H37.5593C39.3512 25.2972 40.7215 23.927 40.7215 22.1351V3.16221C40.7215 1.37032 39.2458 6.10352e-05 37.5593 6.10352e-05Z" fill="black"/>
<path d="M37.5591 1.05408C38.7186 1.05408 39.6672 2.00272 39.6672 3.16218V22.1351C39.6672 23.2945 38.7186 24.2432 37.5591 24.2432H3.82953C2.67008 24.2432 1.72144 23.2945 1.72144 22.1351V3.16218C1.72144 2.00272 2.67008 1.05408 3.82953 1.05408H37.5591Z" fill="white"/>
<path d="M4.43037 7.54708H2.77551V13.3443H4.43037C5.30523 13.3443 5.93766 13.1335 6.49631 12.6803C7.16036 12.1322 7.55036 11.31 7.55036 10.4563C7.53981 8.73815 6.26442 7.54708 4.43037 7.54708ZM5.75847 11.9108C5.40009 12.2271 4.94685 12.3746 4.20902 12.3746H3.90335V8.53789H4.20902C4.93631 8.53789 5.37901 8.66437 5.75847 9.00167C6.14847 9.3495 6.38036 9.88707 6.38036 10.4457C6.38036 11.0044 6.14847 11.563 5.75847 11.9108ZM8.06684 7.54708H9.19467V13.3443H8.06684V7.54708ZM11.9563 9.77112C11.2817 9.51815 11.0814 9.3495 11.0814 9.04383C11.0814 8.67491 11.4398 8.40086 11.9247 8.40086C12.262 8.40086 12.5465 8.53789 12.8311 8.87518L13.4214 8.10573C12.9365 7.68411 12.3568 7.46276 11.7138 7.46276C10.6914 7.46276 9.90089 8.17951 9.90089 9.12815C9.90089 9.92923 10.2698 10.3403 11.3239 10.7198C11.7666 10.8779 11.9879 10.9833 12.1038 11.0465C12.3252 11.1941 12.4411 11.4049 12.4411 11.6473C12.4411 12.1217 12.0722 12.4695 11.5663 12.4695C11.0287 12.4695 10.5966 12.1954 10.333 11.7L9.60575 12.4062C10.1222 13.1757 10.7547 13.513 11.6084 13.513C12.7784 13.513 13.6111 12.733 13.6111 11.6052C13.6322 10.6671 13.2422 10.2454 11.9563 9.77112ZM13.9801 10.4563C13.9801 12.1638 15.3187 13.4814 17.0368 13.4814C17.5217 13.4814 17.9433 13.3865 18.4492 13.1441V11.816C17.996 12.2692 17.5954 12.4484 17.0895 12.4484C15.9511 12.4484 15.1395 11.6262 15.1395 10.4457C15.1395 9.32842 15.9722 8.45356 17.0368 8.45356C17.5744 8.45356 17.9854 8.64329 18.4492 9.10707V7.77897C17.9538 7.526 17.5427 7.42059 17.0579 7.42059C15.3609 7.42059 13.9801 8.76978 13.9801 10.4563ZM27.4297 11.4471L25.8803 7.54708H24.647L27.103 13.4919H27.7143L30.2124 7.54708H28.9897L27.4297 11.4471ZM30.7289 13.3443H33.9332V12.3641H31.8567V10.8041H33.8594V9.82383H31.8567V8.53789H33.9332V7.54708H30.7289V13.3443ZM38.4129 9.26518C38.4129 8.17951 37.6645 7.55762 36.3575 7.55762H34.6816V13.3549H35.8094V11.0254H35.957L37.517 13.3549H38.9083L37.0848 10.9095C37.9386 10.7303 38.4129 10.1506 38.4129 9.26518ZM36.1362 10.2244H35.8094V8.4641H36.1572C36.8635 8.4641 37.2429 8.75924 37.2429 9.32842C37.2429 9.90815 36.8635 10.2244 36.1362 10.2244Z" fill="#231F20"/>
<path d="M21.9174 13.5551C22.7368 13.5551 23.5226 13.2296 24.102 12.6502C24.6813 12.0709 25.0068 11.2851 25.0068 10.4657C25.0068 9.64633 24.6813 8.86053 24.102 8.28115C23.5226 7.70177 22.7368 7.37628 21.9174 7.37628C21.0981 7.37628 20.3122 7.70177 19.7329 8.28115C19.1535 8.86053 18.828 9.64633 18.828 10.4657C18.828 11.2851 19.1535 12.0709 19.7329 12.6502C20.3122 13.2296 21.0981 13.5551 21.9174 13.5551Z" fill="url(#paint0_linear_405_6530)"/>
<path opacity="0.65" d="M21.9174 13.5551C22.7368 13.5551 23.5226 13.2296 24.102 12.6502C24.6813 12.0709 25.0068 11.2851 25.0068 10.4657C25.0068 9.64633 24.6813 8.86053 24.102 8.28115C23.5226 7.70177 22.7368 7.37628 21.9174 7.37628C21.0981 7.37628 20.3122 7.70177 19.7329 8.28115C19.1535 8.86053 18.828 9.64633 18.828 10.4657C18.828 11.2851 19.1535 12.0709 19.7329 12.6502C20.3122 13.2296 21.0981 13.5551 21.9174 13.5551Z" fill="url(#paint1_linear_405_6530)"/>
<path d="M39.2134 7.91145C39.2134 7.80626 39.1397 7.75366 39.024 7.75366H38.8557V8.25857H38.9819V8.05871L39.1292 8.25857H39.2765L39.1082 8.04819C39.1713 8.03767 39.2134 7.98508 39.2134 7.91145ZM39.003 7.98508H38.9819V7.84833H39.003C39.0661 7.84833 39.0976 7.86937 39.0976 7.91145C39.0976 7.96404 39.0661 7.98508 39.003 7.98508Z" fill="#231F20"/>
<path d="M39.0452 7.56378C38.8028 7.56378 38.6025 7.76405 38.6025 8.00648C38.6025 8.24891 38.8028 8.44918 39.0452 8.44918C39.2877 8.44918 39.4879 8.24891 39.4879 8.00648C39.4879 7.76405 39.2877 7.56378 39.0452 7.56378ZM39.0452 8.3754C38.8555 8.3754 38.6869 8.21729 38.6869 8.00648C38.6869 7.80621 38.845 7.63756 39.0452 7.63756C39.235 7.63756 39.3931 7.80621 39.3931 8.00648C39.3931 8.20675 39.235 8.3754 39.0452 8.3754Z" fill="#231F20"/>
<path d="M39.6676 13.6858C39.6676 13.6858 29.222 20.9471 10.1289 24.2431H37.5584C38.1146 24.2432 38.6483 24.0234 39.0431 23.6317C39.438 23.24 39.6621 22.7081 39.6665 22.1519L39.6918 18.9687L39.6676 13.6868V13.6858Z" fill="#F48120"/>
</g>
<defs>
<linearGradient id="paint0_linear_405_6530" x1="23.4953" y1="12.9385" x2="21.3609" y2="9.59611" gradientUnits="userSpaceOnUse">
<stop stop-color="#F89F20"/>
<stop offset="0.25" stop-color="#F79A20"/>
<stop offset="0.533" stop-color="#F68D20"/>
<stop offset="0.62" stop-color="#F58720"/>
<stop offset="0.723" stop-color="#F48120"/>
<stop offset="1" stop-color="#F37521"/>
</linearGradient>
<linearGradient id="paint1_linear_405_6530" x1="23.1591" y1="12.8932" x2="20.0391" y2="6.79445" gradientUnits="userSpaceOnUse">
<stop stop-color="#F58720"/>
<stop offset="0.359" stop-color="#E16F27"/>
<stop offset="0.703" stop-color="#D4602C"/>
<stop offset="0.982" stop-color="#D05B2E"/>
</linearGradient>
<clipPath id="clip0_405_6530">
<rect width="40.0539" height="25.2972" fill="white" transform="translate(0.667603 6.10352e-05)"/>
</clipPath>
</defs>
</svg>
