<svg width="41" height="27" viewBox="0 0 41 27" fill="none" xmlns="http://www.w3.org/2000/svg">
<g clip-path="url(#clip0_405_6555)">
<path opacity="0.07" d="M37.1697 0.959045H3.4401C1.64822 0.959045 0.277954 2.32931 0.277954 4.12119V23.0941C0.277954 24.886 1.75362 26.2562 3.4401 26.2562H37.1697C38.9616 26.2562 40.3318 24.886 40.3318 23.0941V4.12119C40.3318 2.32931 38.8562 0.959045 37.1697 0.959045Z" fill="black"/>
<path d="M37.1694 2.01306C38.3288 2.01306 39.2775 2.96171 39.2775 4.12116V23.094C39.2775 24.2535 38.3288 25.2021 37.1694 25.2021H3.43982C2.28037 25.2021 1.33173 24.2535 1.33173 23.094V4.12116C1.33173 2.96171 2.28037 2.01306 3.43982 2.01306H37.1694Z" fill="white"/>
<path fill-rule="evenodd" clip-rule="evenodd" d="M12.399 6.22937H16.0882V18.3509C16.0882 19.0498 15.8105 19.7201 15.3163 20.2142C14.8222 20.7084 14.1519 20.9861 13.453 20.9861H9.76385V8.86449C9.76385 8.16562 10.0415 7.49536 10.5357 7.00118C11.0298 6.507 11.7001 6.22937 12.399 6.22937Z" fill="#006EBC"/>
<path fill-rule="evenodd" clip-rule="evenodd" d="M19.778 6.22937H23.4672V18.3509C23.4672 19.0498 23.1895 19.7201 22.6954 20.2142C22.2012 20.7084 21.5309 20.9861 20.8321 20.9861H17.1429V8.86449C17.1429 8.16562 17.4205 7.49536 17.9147 7.00118C18.4089 6.507 19.0791 6.22937 19.778 6.22937Z" fill="#F00036"/>
<path fill-rule="evenodd" clip-rule="evenodd" d="M27.156 6.22937H30.8452V18.3509C30.8452 19.0498 30.5675 19.7201 30.0734 20.2142C29.5792 20.7084 28.9089 20.9861 28.21 20.9861H24.5209V8.86449C24.5209 8.16562 24.7985 7.49536 25.2927 7.00118C25.7869 6.507 26.4571 6.22937 27.156 6.22937Z" fill="#2AB419"/>
<path d="M11.6137 16.2428C10.4964 16.2428 9.37701 15.9224 8.81415 15.2025L9.63631 14.4899C9.70798 15.6842 13.3729 15.7969 13.3729 14.2897V10.9726H15.2723V14.2897C15.2723 15.057 14.6673 15.6831 13.6143 16.0099C13.1231 16.1616 12.1755 16.2428 11.6137 16.2428ZM20.1684 16.2428C19.4579 16.2428 18.7053 16.13 18.0972 15.857C17.0979 15.4091 16.7142 14.5858 16.7269 13.5392C16.7395 12.4704 17.1865 11.6609 18.2742 11.2572C19.6645 10.7407 21.7979 10.9821 22.4124 11.5418V12.5663C21.8095 12.0171 20.3486 11.6198 19.3357 12.0814C18.815 12.3196 18.5588 13.048 18.5515 13.6077C18.5451 14.198 18.8097 14.9274 19.3357 15.1856C20.3402 15.6778 21.8548 15.2278 22.4124 14.7208V15.7854C22.0351 16.0541 21.0917 16.2428 20.1684 16.2428ZM29.3165 13.516C29.7065 13.2683 29.9299 12.9183 29.9299 12.4567C29.9299 11.995 29.8077 11.7325 29.5631 11.4669C29.346 11.2487 28.9518 10.9726 28.2582 10.9726H24.5205V16.2428H28.2582C28.9918 16.2428 29.4145 16.0004 29.6443 15.8054C29.9426 15.5419 30.0933 15.2467 30.0933 14.7935C30.0933 14.3392 29.9299 13.8364 29.3165 13.516ZM27.3074 13.2198H25.8023V11.6978H27.3781C28.3857 11.6978 28.3731 13.2198 27.3074 13.2198ZM27.611 15.4934H25.8023V13.8986H27.611C28.6503 13.8986 28.7525 15.4934 27.611 15.4934Z" fill="white"/>
</g>
<defs>
<clipPath id="clip0_405_6555">
<rect width="40.0539" height="25.2972" fill="white" transform="translate(0.277954 0.959045)"/>
</clipPath>
</defs>
</svg>
