<svg width="41" height="27" viewBox="0 0 41 27" fill="none" xmlns="http://www.w3.org/2000/svg">
<g clip-path="url(#clip0_405_6564)">
<path d="M38.0801 26.2562H3.08563C1.71536 26.2562 0.555908 25.0968 0.555908 23.7265V3.48876C0.555908 2.1185 1.71536 0.959045 3.08563 0.959045H38.0801C39.4503 0.959045 40.6098 2.1185 40.6098 3.48876V23.7265C40.6098 25.0968 39.4503 26.2562 38.0801 26.2562Z" fill="white"/>
<path opacity="0.25" d="M38.0801 26.2562H3.08563C1.71536 26.2562 0.555908 25.0968 0.555908 23.7265V3.48876C0.555908 2.1185 1.71536 0.959045 3.08563 0.959045H37.9747C39.4503 0.959045 40.6098 2.1185 40.6098 3.48876V23.7265C40.6098 25.0968 39.4503 26.2562 38.0801 26.2562ZM3.08563 2.01309C2.24239 2.01309 1.60996 2.64552 1.60996 3.48876V23.7265C1.60996 24.5697 2.24239 25.2022 3.08563 25.2022H37.9747C38.8179 25.2022 39.5557 24.5697 39.5557 23.7265V3.48876C39.5557 2.64552 38.9233 2.01309 38.0801 2.01309H3.08563Z" fill="#A8AAAD"/>
<path d="M20.5831 22.2509C25.3566 22.2509 29.2263 18.3812 29.2263 13.6077C29.2263 8.83417 25.3566 4.96448 20.5831 4.96448C15.8096 4.96448 11.9399 8.83417 11.9399 13.6077C11.9399 18.3812 15.8096 22.2509 20.5831 22.2509Z" fill="#58595B"/>
<path d="M19.7403 8.86444L18.4754 13.6077L17.4214 14.0293L17.1052 15.1887L18.1592 14.7671L17.4214 17.613H24.6943L25.1159 15.9266H20.5835L21.216 13.6077L22.4808 13.186L22.797 12.0266L21.5322 12.5536L22.4808 8.86444H19.7403Z" fill="white"/>
</g>
<defs>
<clipPath id="clip0_405_6564">
<rect width="40.0539" height="25.2972" fill="white" transform="translate(0.555908 0.959045)"/>
</clipPath>
</defs>
</svg>
