<svg width="41" height="27" viewBox="0 0 41 27" fill="none" xmlns="http://www.w3.org/2000/svg">
<g clip-path="url(#clip0_405_6575)">
<path opacity="0.07" d="M37.0035 0.959045H3.2739C1.48202 0.959045 0.111755 2.32931 0.111755 4.12119V23.0941C0.111755 24.886 1.58742 26.2562 3.2739 26.2562H37.0035C38.7954 26.2562 40.1656 24.886 40.1656 23.0941V4.12119C40.1656 2.32931 38.69 0.959045 37.0035 0.959045Z" fill="black"/>
<path d="M37.004 2.01306C38.1634 2.01306 39.1121 2.96171 39.1121 4.12116V23.094C39.1121 24.2535 38.1634 25.2021 37.004 25.2021H3.27442C2.11497 25.2021 1.16632 24.2535 1.16632 23.094V4.12116C1.16632 2.96171 2.11497 2.01306 3.27442 2.01306H37.004Z" fill="white"/>
<path d="M25.3042 9.70773C25.515 8.65368 25.3042 7.91585 24.6718 7.28342C24.0394 6.54558 22.8799 6.22937 21.4042 6.22937H17.0826C16.7664 6.22937 16.5556 6.44018 16.4502 6.75639L14.8691 17.4023C14.8691 17.6131 14.9745 17.8239 15.1854 17.8239H18.0313L18.4529 14.2401L20.3502 11.9212L25.3042 9.70773Z" fill="#003087"/>
<path d="M25.3045 9.7077L25.0937 9.91851C24.5667 12.8698 22.7748 13.9239 20.2451 13.9239H19.0857C18.7694 13.9239 18.5586 14.1347 18.4532 14.4509L17.8208 18.5617L17.61 19.6158C17.61 19.8266 17.7154 20.0374 17.9262 20.0374H20.1397C20.4559 20.0374 20.6667 19.8266 20.6667 19.6158V19.5104L21.0883 16.9806V16.8752C21.0883 16.6644 21.4046 16.4536 21.6154 16.4536H21.9316C24.1451 16.4536 25.8316 15.6104 26.2532 13.0807C26.464 12.0266 26.3586 11.1834 25.8316 10.5509C25.7262 10.0239 25.5154 9.81311 25.3045 9.7077Z" fill="#3086C8"/>
<path d="M24.6721 9.49694C24.5667 9.39154 24.4613 9.39153 24.3559 9.39153C24.2505 9.39153 24.1451 9.39153 24.0397 9.28613C23.7235 9.18072 23.3019 9.18073 22.8803 9.18073H19.7181C19.6127 9.18073 19.5073 9.18072 19.5073 9.28613C19.2965 9.39153 19.1911 9.49694 19.1911 9.70775L18.4532 14.3456V14.451C18.4532 14.1348 18.7695 13.9239 19.0857 13.9239H20.4559C23.0911 13.9239 24.7775 12.8699 25.3046 9.91856V9.70775C25.1992 9.60234 24.9884 9.49694 24.7775 9.49694H24.6721Z" fill="#012169"/>
</g>
<defs>
<clipPath id="clip0_405_6575">
<rect width="40.0539" height="25.2972" fill="white" transform="translate(0.111755 0.959045)"/>
</clipPath>
</defs>
</svg>
