<svg width="41" height="26" viewBox="0 0 41 26" fill="none" xmlns="http://www.w3.org/2000/svg">
<g clip-path="url(#clip0_405_6500)">
<path d="M36.5229 6.10352e-05H4.08523C3.9501 6.10352e-05 3.81474 6.10352e-05 3.67986 0.000777229C3.56598 0.00173216 3.45235 0.00292581 3.33847 0.00602932C3.09043 0.0127138 2.84024 0.0275152 2.5953 0.0714417C2.34966 0.113528 2.11166 0.191976 1.88913 0.304205C1.44179 0.531735 1.07818 0.895343 0.850653 1.34269C0.738224 1.56529 0.659766 1.80348 0.617889 2.04933C0.573485 2.29451 0.558923 2.54446 0.552238 2.79226C0.549329 2.90604 0.547578 3.01984 0.546986 3.13365C0.546509 3.26829 0.546509 3.40342 0.546509 3.53878V21.7583C0.546509 21.8936 0.546509 22.0285 0.546986 22.1639C0.547702 22.2775 0.549135 22.3914 0.552238 22.5053C0.558923 22.7526 0.573724 23.0028 0.617889 23.2477C0.65968 23.4936 0.738058 23.7318 0.850414 23.9544C0.963378 24.1767 1.11083 24.3798 1.28729 24.556C1.46345 24.7325 1.66651 24.88 1.8889 24.9929C2.11497 25.1082 2.34654 25.1815 2.59554 25.2261C2.84024 25.2698 3.09043 25.2846 3.33847 25.2913C3.45235 25.2939 3.56598 25.2953 3.67986 25.296C3.81474 25.297 3.9501 25.297 4.08523 25.297H36.5229C36.6577 25.297 36.7931 25.297 36.928 25.296C37.0416 25.2956 37.1553 25.2939 37.2696 25.2913C37.5172 25.2846 37.7674 25.2698 38.0128 25.2261C38.2585 25.184 38.4965 25.1054 38.719 24.9929C39.1661 24.765 39.5296 24.4015 39.7574 23.9544C39.8727 23.7283 39.9458 23.4967 39.99 23.2477C40.0344 23.0028 40.0487 22.7526 40.0554 22.5053C40.0585 22.3914 40.0601 22.2775 40.0606 22.1639C40.0616 22.0285 40.0616 21.8936 40.0616 21.7583V3.53902C40.0616 3.40366 40.0616 3.26853 40.0606 3.13341C40.0602 3.01968 40.0584 2.90596 40.0554 2.79226C40.0487 2.54446 40.0344 2.29451 39.99 2.04933C39.9484 1.80344 39.87 1.56522 39.7574 1.34269C39.5298 0.895422 39.1662 0.531843 38.719 0.304205C38.4964 0.192092 38.2584 0.113725 38.0128 0.0716805C37.7674 0.0275152 37.5172 0.0129525 37.2696 0.00626805C37.1558 0.00337637 37.0419 0.00162558 36.928 0.00101596C36.7931 6.10352e-05 36.6577 6.10352e-05 36.5229 6.10352e-05Z" fill="black"/>
<path d="M36.524 0.843201L36.9231 0.843917C37.031 0.844633 37.1392 0.845827 37.2478 0.848692C37.4371 0.853944 37.6582 0.864209 37.8644 0.901212C38.0435 0.933441 38.1939 0.982381 38.3381 1.05591C38.6266 1.20262 38.8611 1.43731 39.0075 1.72603C39.0805 1.86927 39.1292 2.01871 39.1615 2.19943C39.1982 2.40331 39.2085 2.62509 39.2135 2.81536C39.2166 2.92279 39.218 3.03022 39.2183 3.14004C39.2195 3.27301 39.2195 3.40574 39.2195 3.53896V21.7585C39.2195 21.8917 39.2195 22.0244 39.2185 22.16C39.218 22.2674 39.2166 22.3749 39.2137 22.4823C39.2085 22.6723 39.1982 22.8941 39.161 23.1004C39.1339 23.2644 39.082 23.4234 39.007 23.5719C38.8603 23.8607 38.6255 24.0954 38.3367 24.242C38.1934 24.315 38.0435 24.364 37.8661 24.396C37.6558 24.4334 37.4252 24.4437 37.2516 24.4485C37.1425 24.4509 37.0339 24.4525 36.9224 24.453C36.7899 24.454 36.6567 24.454 36.524 24.454H4.08107C3.94977 24.454 3.81847 24.454 3.68478 24.453C3.57734 24.4526 3.46991 24.4511 3.36249 24.4487C3.18488 24.444 2.95426 24.4334 2.74561 24.3962C2.58064 24.3687 2.42079 24.3164 2.27149 24.241C2.12828 24.1683 1.99757 24.0732 1.88427 23.9593C1.77061 23.8459 1.67568 23.7151 1.60304 23.5719C1.52802 23.4226 1.47602 23.2628 1.44882 23.098C1.41158 22.892 1.40107 22.6711 1.3963 22.4825C1.3936 22.3747 1.39201 22.2669 1.39152 22.1591L1.39081 21.8423V3.4554L1.39129 3.13908C1.39178 3.03108 1.39337 2.92309 1.39606 2.81512C1.40131 2.62605 1.41158 2.40522 1.44906 2.19752C1.47632 2.033 1.52831 1.87356 1.60328 1.7246C1.67585 1.58184 1.77039 1.45149 1.88498 1.33714C1.99856 1.22338 2.12941 1.12831 2.27268 1.05543C2.42162 0.980609 2.58096 0.92862 2.74537 0.901212C2.95187 0.864209 3.17318 0.853944 3.36273 0.848692C3.47064 0.845827 3.57878 0.844633 3.68597 0.843917L4.08633 0.843201H36.524Z" fill="white"/>
<path d="M10.9329 8.5395C11.2681 8.12053 11.4954 7.55784 11.4355 6.98297C10.9451 7.00732 10.3469 7.30645 10.0002 7.7259C9.68916 8.08496 9.4139 8.67104 9.48552 9.22179C10.036 9.26954 10.5861 8.94678 10.9329 8.5395Z" fill="black"/>
<path d="M11.4298 9.3295C10.63 9.28175 9.95059 9.78309 9.56886 9.78309C9.18689 9.78309 8.60224 9.35337 7.96984 9.36507C7.14693 9.37701 6.38347 9.84253 5.96569 10.5826C5.10673 12.0627 5.73889 14.2591 6.57445 15.4647C6.98006 16.0615 7.46898 16.718 8.11307 16.6944C8.72184 16.6705 8.96033 16.3005 9.69992 16.3005C10.4393 16.3005 10.6541 16.6944 11.2985 16.6824C11.9664 16.6705 12.3842 16.0856 12.7898 15.4888C13.2554 14.8084 13.4456 14.1519 13.4576 14.1161C13.4456 14.1041 12.1694 13.6145 12.1574 12.1463C12.1455 10.9168 13.1596 10.3319 13.2074 10.2959C12.6346 9.44887 11.7399 9.35337 11.4295 9.3295" fill="black"/>
<path d="M19.4003 7.66577C21.1378 7.66577 22.3479 8.86349 22.3479 10.6072C22.3479 12.3571 21.113 13.561 19.3569 13.561H17.4332V16.6206H16.0433V7.66577H19.4003ZM17.4332 12.3943H19.0279C20.2383 12.3943 20.9268 11.7428 20.9268 10.6134C20.9268 9.48419 20.238 8.83866 19.0341 8.83866H17.4332V12.3943Z" fill="black"/>
<path d="M22.6921 14.7649C22.6921 13.6169 23.567 12.9592 25.1804 12.8599L26.9117 12.7544V12.2578C26.9117 11.532 26.434 11.1348 25.5838 11.1348C24.8824 11.1348 24.3735 11.4946 24.2684 12.0468H23.0146C23.0521 10.8865 24.144 10.0426 25.6211 10.0426C27.2096 10.0426 28.2459 10.8741 28.2459 12.1649V16.6204H26.9616V15.5468H26.9305C26.5643 16.2479 25.7574 16.6884 24.8824 16.6884C23.5919 16.6884 22.6921 15.9192 22.6921 14.7649ZM26.9117 14.1879V13.6852L25.3666 13.7845C24.4976 13.8403 24.045 14.1629 24.045 14.7275C24.045 15.2737 24.5165 15.6275 25.2549 15.6275C26.1978 15.6275 26.9117 15.0254 26.9117 14.1879Z" fill="black"/>
<path d="M29.427 19.0155V17.9422C29.5139 17.9543 29.7247 17.9668 29.8364 17.9668C30.4506 17.9668 30.7982 17.7065 31.0093 17.0359L31.1334 16.6389L28.7814 10.1232H30.2334L31.8718 15.4102H31.9028L33.541 10.1232H34.956L32.5171 16.9677C31.9585 18.5378 31.3194 19.053 29.9667 19.053C29.8612 19.053 29.5198 19.0406 29.427 19.0155Z" fill="black"/>
</g>
<defs>
<clipPath id="clip0_405_6500">
<rect width="40.0539" height="25.2972" fill="white" transform="translate(0.277954 6.10352e-05)"/>
</clipPath>
</defs>
</svg>
