<svg width="41" height="27" viewBox="0 0 41 27" fill="none" xmlns="http://www.w3.org/2000/svg">
<g clip-path="url(#clip0_405_6581)">
<path opacity="0.07" d="M37.2814 0.959045H3.5518C1.75991 0.959045 0.389648 2.32931 0.389648 4.12119V23.0941C0.389648 24.886 1.86532 26.2562 3.5518 26.2562H37.2814C39.0732 26.2562 40.4435 24.886 40.4435 23.0941V4.12119C40.4435 2.32931 38.9678 0.959045 37.2814 0.959045Z" fill="black"/>
<path d="M37.2815 2.01306C38.441 2.01306 39.3896 2.96171 39.3896 4.12116V23.094C39.3896 24.2535 38.441 25.2021 37.2815 25.2021H3.55195C2.39249 25.2021 1.44385 24.2535 1.44385 23.094V4.12116C1.44385 2.96171 2.39249 2.01306 3.55195 2.01306H37.2815Z" fill="white"/>
<path d="M20.4166 22.2509C25.1901 22.2509 29.0598 18.3812 29.0598 13.6077C29.0598 8.83417 25.1901 4.96448 20.4166 4.96448C15.6431 4.96448 11.7734 8.83417 11.7734 13.6077C11.7734 18.3812 15.6431 22.2509 20.4166 22.2509Z" fill="#1652F0"/>
<path d="M22.5038 14.7187C22.5038 13.6277 21.8408 13.2599 20.5569 13.0828C19.6083 12.9458 19.4238 12.7244 19.4238 12.2817C19.4238 11.839 19.7453 11.5628 20.3598 11.5628C20.9185 11.5628 21.2421 11.7568 21.3749 12.2079C21.3889 12.2571 21.4184 12.3005 21.4591 12.3317C21.4997 12.3628 21.5493 12.38 21.6004 12.3808H22.0916C22.1237 12.3812 22.1555 12.3746 22.1847 12.3614C22.214 12.3482 22.2399 12.3288 22.2609 12.3045C22.2818 12.2802 22.2971 12.2515 22.3057 12.2206C22.3144 12.1898 22.3161 12.1574 22.3109 12.1257C22.1549 11.4142 21.6753 10.9852 20.9227 10.8514V10.1009C20.9227 10.039 20.8982 9.97964 20.8545 9.93579C20.8109 9.89194 20.7516 9.86716 20.6897 9.86688H20.2207C20.1586 9.86688 20.0991 9.89154 20.0552 9.93542C20.0114 9.9793 19.9867 10.0388 19.9867 10.1009V10.825C19.0528 10.9568 18.4615 11.5734 18.4615 12.366C18.4615 13.3885 19.0855 13.7869 20.3883 13.9629C21.2737 14.1084 21.5267 14.3002 21.5267 14.803C21.5267 15.3068 21.0987 15.6441 20.4937 15.6441C19.6789 15.6441 19.4028 15.2879 19.3111 14.8251C19.3004 14.7719 19.2717 14.724 19.2299 14.6894C19.188 14.6549 19.1355 14.6358 19.0813 14.6354H18.549C18.5172 14.635 18.4857 14.6415 18.4567 14.6546C18.4277 14.6677 18.4019 14.687 18.3812 14.7111C18.3605 14.7352 18.3454 14.7636 18.3368 14.7942C18.3283 14.8249 18.3266 14.857 18.3318 14.8884C18.4689 15.6684 18.9685 16.2376 19.9867 16.3746V17.1145C19.9867 17.1766 20.0114 17.2361 20.0552 17.28C20.0991 17.3239 20.1586 17.3485 20.2207 17.3485H20.6897C20.7516 17.3482 20.8109 17.3235 20.8545 17.2796C20.8982 17.2358 20.9227 17.1764 20.9227 17.1145V16.3767C21.8893 16.2228 22.5038 15.5556 22.5038 14.7187Z" fill="white"/>
<path d="M18.6459 18.4532C17.653 18.0896 16.7957 17.4298 16.1901 16.5631C15.5844 15.6964 15.2597 14.6645 15.2597 13.6072C15.2597 12.5498 15.5844 11.518 16.1901 10.6512C16.7957 9.78451 17.653 9.12474 18.6459 8.76118C18.7095 8.73317 18.7641 8.68792 18.8034 8.63056C18.8427 8.5732 18.8652 8.506 18.8683 8.43654V7.95378C18.8726 7.91114 18.8655 7.86814 18.8478 7.82911C18.8301 7.79008 18.8025 7.75641 18.7676 7.73149C18.7327 7.70658 18.6919 7.6913 18.6493 7.68721C18.6066 7.68312 18.5636 7.69035 18.5247 7.70819C17.2733 8.1071 16.1813 8.89361 15.4063 9.95402C14.6314 11.0144 14.2137 12.2938 14.2137 13.6072C14.2137 14.9206 14.6314 16.1999 15.4063 17.2603C16.1813 18.3207 17.2733 19.1072 18.5247 19.5062C18.5636 19.524 18.6066 19.5312 18.6493 19.5271C18.6919 19.523 18.7327 19.5078 18.7676 19.4829C18.8025 19.4579 18.8301 19.4243 18.8478 19.3852C18.8655 19.3462 18.8726 19.3032 18.8683 19.2606V18.7799C18.8655 18.7104 18.8432 18.643 18.8041 18.5855C18.765 18.5279 18.7106 18.4825 18.647 18.4542L18.6459 18.4532ZM22.3077 7.70924C22.2687 7.69175 22.2258 7.68478 22.1833 7.68901C22.1408 7.69325 22.1001 7.70856 22.0654 7.7334C22.0306 7.75824 22.003 7.79176 21.9852 7.83061C21.9674 7.86946 21.9601 7.91229 21.964 7.95484V8.43654C21.9669 8.50606 21.9893 8.57337 22.0287 8.63077C22.068 8.68818 22.1227 8.73337 22.1865 8.76118C23.1797 9.12453 24.0373 9.78428 24.6433 10.6511C25.2492 11.518 25.5741 12.5501 25.5741 13.6077C25.5741 14.6653 25.2492 15.6974 24.6433 16.5643C24.0373 17.4311 23.1797 18.0909 22.1865 18.4542C22.1206 18.4793 22.0641 18.524 22.0245 18.5822C21.9849 18.6405 21.9642 18.7095 21.9651 18.7799V19.2616C21.9612 19.3042 21.9685 19.347 21.9862 19.3858C22.004 19.4247 22.0317 19.4582 22.0664 19.4831C22.1012 19.5079 22.1418 19.5232 22.1843 19.5274C22.2269 19.5317 22.2697 19.5247 22.3087 19.5072C23.5601 19.1083 24.6521 18.3218 25.4271 17.2614C26.202 16.201 26.6197 14.9216 26.6197 13.6082C26.6197 12.2948 26.202 11.0155 25.4271 9.95507C24.6521 8.89466 23.5601 8.10816 22.3087 7.70924H22.3077Z" fill="white"/>
</g>
<defs>
<clipPath id="clip0_405_6581">
<rect width="40.0539" height="25.2972" fill="white" transform="translate(0.389648 0.959045)"/>
</clipPath>
</defs>
</svg>
