<svg width="41" height="27" viewBox="0 0 41 27" fill="none" xmlns="http://www.w3.org/2000/svg">
<g clip-path="url(#clip0_405_6587)">
<path d="M37.5593 0.959045H3.82975C2.08334 0.959045 0.667603 2.37479 0.667603 4.12119V23.0941C0.667603 24.8405 2.08334 26.2562 3.82975 26.2562H37.5593C39.3057 26.2562 40.7215 24.8405 40.7215 23.0941V4.12119C40.7215 2.37479 39.3057 0.959045 37.5593 0.959045Z" fill="black" fill-opacity="0.07"/>
<path fill-rule="evenodd" clip-rule="evenodd" d="M37.5591 2.01306C38.7186 2.01306 39.6672 2.96171 39.6672 4.12116V23.094C39.6672 24.2535 38.7186 25.2021 37.5591 25.2021H3.82953C2.67008 25.2021 1.72144 24.2535 1.72144 23.094V4.12116C1.72144 2.96171 2.67008 2.01306 3.82953 2.01306H37.5591Z" fill="#3D95CE"/>
<path d="M26.6762 9.77094C26.6762 13.0005 23.9809 17.1967 21.7927 20.1428H16.7966L14.7917 7.88419L19.1671 7.46046L20.2264 16.1827C21.2172 14.5321 22.4389 11.9402 22.4389 10.1725C22.4389 9.20492 22.2766 8.54613 22.0236 8.0033L26.0079 7.17798C26.4685 7.95587 26.6762 8.758 26.6762 9.77094Z" fill="white"/>
</g>
<defs>
<clipPath id="clip0_405_6587">
<rect width="40.0539" height="25.2972" fill="white" transform="translate(0.667603 0.959045)"/>
</clipPath>
</defs>
</svg>
