<svg width="98" height="140" viewBox="0 0 98 140" fill="none" xmlns="http://www.w3.org/2000/svg">
<path d="M30.1724 120L26.6754 111.329H25.3364L21.8524 120H23.0874L23.8544 118.076H28.1704L28.9374 120H30.1724ZM27.8454 117.114H24.1664L26.0124 112.447L27.8454 117.114ZM36.48 120V115.593C36.48 114.228 35.791 113.565 34.478 113.565C33.542 113.565 32.684 114.111 32.242 114.631V113.721H31.267V120H32.242V115.411C32.606 114.904 33.334 114.436 34.101 114.436C34.946 114.436 35.505 114.787 35.505 115.892V120H36.48ZM40.0131 120.156C40.5851 120.156 40.9361 119.987 41.1831 119.753L40.8971 119.025C40.7671 119.168 40.5071 119.285 40.2341 119.285C39.8051 119.285 39.5971 118.947 39.5971 118.479V114.579H40.8711V113.721H39.5971V112.005H38.6221V113.721H37.5821V114.579H38.6221V118.687C38.6221 119.623 39.0901 120.156 40.0131 120.156ZM42.7294 112.824C43.0934 112.824 43.3924 112.538 43.3924 112.174C43.3924 111.81 43.0934 111.511 42.7294 111.511C42.3784 111.511 42.0794 111.81 42.0794 112.174C42.0794 112.538 42.3784 112.824 42.7294 112.824ZM43.2234 120V113.721H42.2484V120H43.2234ZM47.7034 117.283V116.425H44.5834V117.283H47.7034ZM50.6518 120.156C51.2238 120.156 51.5748 119.987 51.8218 119.753L51.5358 119.025C51.4058 119.168 51.1458 119.285 50.8728 119.285C50.4438 119.285 50.2358 118.947 50.2358 118.479V114.579H51.5098V113.721H50.2358V112.005H49.2608V113.721H48.2208V114.579H49.2608V118.687C49.2608 119.623 49.7288 120.156 50.6518 120.156ZM58.1131 120V115.567C58.1131 114.202 57.4241 113.565 56.1111 113.565C55.1621 113.565 54.3041 114.111 53.8621 114.631V111.329H52.8871V120H53.8621V115.411C54.2391 114.904 54.9671 114.436 55.7211 114.436C56.5661 114.436 57.1381 114.761 57.1381 115.866V120H58.1131ZM62.894 120.156C63.921 120.156 64.766 119.818 65.39 119.194L64.922 118.557C64.428 119.064 63.7 119.35 62.985 119.35C61.633 119.35 60.801 118.362 60.723 117.179H65.806V116.932C65.806 115.047 64.688 113.565 62.79 113.565C60.996 113.565 59.696 115.034 59.696 116.854C59.696 118.817 61.035 120.156 62.894 120.156ZM64.844 116.464H60.723C60.775 115.502 61.438 114.371 62.777 114.371C64.207 114.371 64.831 115.528 64.844 116.464ZM68.6332 120V114.579H69.9072V113.721H68.6332V113.24C68.6332 112.447 68.9842 112.005 69.6212 112.005C69.9462 112.005 70.1932 112.135 70.4012 112.317L70.8042 111.68C70.4142 111.316 69.9722 111.199 69.4782 111.199C68.3602 111.199 67.6582 111.953 67.6582 113.24V113.721H66.6182V114.579H67.6582V120H68.6332ZM72.6528 120.156C73.2248 120.156 73.5758 119.987 73.8228 119.753L73.5368 119.025C73.4068 119.168 73.1468 119.285 72.8738 119.285C72.4448 119.285 72.2368 118.947 72.2368 118.479V114.579H73.5108V113.721H72.2368V112.005H71.2618V113.721H70.2218V114.579H71.2618V118.687C71.2618 119.623 71.7298 120.156 72.6528 120.156ZM24.5221 136.156C26.1731 136.156 27.3171 134.882 27.3171 132.854C27.3171 130.813 26.1731 129.565 24.5221 129.565C23.6381 129.565 22.8581 130.02 22.4031 130.657V129.721H21.4281V138.392H22.4031V135.051C22.9101 135.753 23.6641 136.156 24.5221 136.156ZM24.2751 135.285C23.5081 135.285 22.7411 134.817 22.4031 134.271V131.437C22.7411 130.891 23.5081 130.436 24.2751 130.436C25.5361 130.436 26.2901 131.463 26.2901 132.854C26.2901 134.245 25.5361 135.285 24.2751 135.285ZM29.8426 136V131.554C30.1286 131.047 30.9476 130.553 31.5456 130.553C31.7016 130.553 31.8186 130.566 31.9356 130.592V129.591C31.0776 129.591 30.3496 130.072 29.8426 130.735V129.721H28.8676V136H29.8426ZM35.9016 136.156C37.8126 136.156 39.0086 134.674 39.0086 132.854C39.0086 131.034 37.8126 129.565 35.9016 129.565C33.9906 129.565 32.7946 131.034 32.7946 132.854C32.7946 134.674 33.9906 136.156 35.9016 136.156ZM35.9016 135.285C34.5626 135.285 33.8086 134.141 33.8086 132.854C33.8086 131.58 34.5626 130.436 35.9016 130.436C37.2406 130.436 37.9816 131.58 37.9816 132.854C37.9816 134.141 37.2406 135.285 35.9016 135.285ZM42.184 136.156C42.756 136.156 43.107 135.987 43.354 135.753L43.068 135.025C42.938 135.168 42.678 135.285 42.405 135.285C41.976 135.285 41.768 134.947 41.768 134.479V130.579H43.042V129.721H41.768V128.005H40.793V129.721H39.753V130.579H40.793V134.687C40.793 135.623 41.261 136.156 42.184 136.156ZM47.2533 136.156C48.2803 136.156 49.1253 135.818 49.7493 135.194L49.2813 134.557C48.7873 135.064 48.0593 135.35 47.3443 135.35C45.9923 135.35 45.1603 134.362 45.0823 133.179H50.1653V132.932C50.1653 131.047 49.0473 129.565 47.1493 129.565C45.3553 129.565 44.0553 131.034 44.0553 132.854C44.0553 134.817 45.3943 136.156 47.2533 136.156ZM49.2033 132.464H45.0823C45.1343 131.502 45.7973 130.371 47.1363 130.371C48.5663 130.371 49.1903 131.528 49.2033 132.464ZM54.5135 136.156C55.6575 136.156 56.3335 135.688 56.8145 135.064L56.1645 134.466C55.7485 135.025 55.2155 135.285 54.5655 135.285C53.2265 135.285 52.3945 134.245 52.3945 132.854C52.3945 131.463 53.2265 130.436 54.5655 130.436C55.2155 130.436 55.7485 130.683 56.1645 131.255L56.8145 130.657C56.3335 130.033 55.6575 129.565 54.5135 129.565C52.6415 129.565 51.3805 130.995 51.3805 132.854C51.3805 134.726 52.6415 136.156 54.5135 136.156ZM59.7671 136.156C60.3391 136.156 60.6901 135.987 60.9371 135.753L60.6511 135.025C60.5211 135.168 60.2611 135.285 59.9881 135.285C59.5591 135.285 59.3511 134.947 59.3511 134.479V130.579H60.6251V129.721H59.3511V128.005H58.3761V129.721H57.3361V130.579H58.3761V134.687C58.3761 135.623 58.8441 136.156 59.7671 136.156ZM62.4833 128.824C62.8473 128.824 63.1463 128.538 63.1463 128.174C63.1463 127.81 62.8473 127.511 62.4833 127.511C62.1323 127.511 61.8333 127.81 61.8333 128.174C61.8333 128.538 62.1323 128.824 62.4833 128.824ZM62.9773 136V129.721H62.0023V136H62.9773ZM67.6653 136.156C69.5763 136.156 70.7723 134.674 70.7723 132.854C70.7723 131.034 69.5763 129.565 67.6653 129.565C65.7543 129.565 64.5583 131.034 64.5583 132.854C64.5583 134.674 65.7543 136.156 67.6653 136.156ZM67.6653 135.285C66.3263 135.285 65.5723 134.141 65.5723 132.854C65.5723 131.58 66.3263 130.436 67.6653 130.436C69.0043 130.436 69.7453 131.58 69.7453 132.854C69.7453 134.141 69.0043 135.285 67.6653 135.285ZM77.5747 136V131.593C77.5747 130.228 76.8857 129.565 75.5727 129.565C74.6367 129.565 73.7787 130.111 73.3367 130.631V129.721H72.3617V136H73.3367V131.411C73.7007 130.904 74.4287 130.436 75.1957 130.436C76.0407 130.436 76.5997 130.787 76.5997 131.892V136H77.5747Z" fill="#CCCCCC"/>
<g clip-path="url(#clip0_125_1279)">
<path d="M41.2476 46.9984H42.748C42.748 43.2754 45.7769 40.2465 49.4999 40.2465V38.7461C44.9498 38.7461 41.2476 42.4483 41.2476 46.9984Z" fill="#CCCCCC"/>
<path d="M62.5041 59.7527H61.7539V46.9983C61.7539 40.2424 56.2566 34.7451 49.4999 34.7451C42.7432 34.7451 37.2459 40.2424 37.2459 46.9983V59.7519H36.4957C34.9792 59.7519 33.7446 60.9857 33.7446 62.503V68.2549H65.2543V62.503C65.2543 60.9865 64.0205 59.7527 62.5041 59.7527ZM38.7463 46.9983C38.7463 41.0687 43.5702 36.2455 49.4999 36.2455C55.4295 36.2455 60.2535 41.0695 60.2535 46.9983V59.7519H38.7463V46.9983ZM63.7539 63.254H56.2014V64.7544H63.7539V66.7552H35.2459V64.7544H43.298V63.254H35.2459V62.5038C35.2459 61.8144 35.8063 61.2532 36.4965 61.2532H62.5041C63.1935 61.2532 63.7547 61.8136 63.7547 62.5038V63.254H63.7539Z" fill="#CCCCCC"/>
<path d="M69.3929 39.1816L68.332 40.2425C73.8894 45.8006 73.8894 54.8432 68.332 60.4014L69.3929 61.4622C75.5355 55.3188 75.5355 45.3243 69.3929 39.1816Z" fill="#CCCCCC"/>
<path d="M66.4456 42.1279L65.3848 43.1888C69.3176 47.1216 69.3176 53.5204 65.3848 57.4532L66.4456 58.5141C70.9629 53.9968 70.9629 46.646 66.4456 42.1279Z" fill="#CCCCCC"/>
<path d="M30.6678 40.2423L29.607 39.1807C23.4643 45.3233 23.4643 55.3186 29.607 61.4613L30.6678 60.4004C25.1105 54.843 25.1105 45.7997 30.6678 40.2423Z" fill="#CCCCCC"/>
<path d="M33.6148 43.1896L32.554 42.1279C28.0367 46.6452 28.0367 53.9968 32.554 58.5141L33.6148 57.4532C29.682 53.5212 29.682 47.1216 33.6148 43.1896Z" fill="#CCCCCC"/>
<path d="M51.7505 57.5731V54.0198C52.6609 53.3345 53.251 52.2456 53.251 51.0206C53.251 48.9525 51.568 47.2695 49.4999 47.2695C47.4318 47.2695 45.7488 48.9525 45.7488 51.0206C45.7488 52.2448 46.3389 53.3345 47.2493 54.0198V57.5731H45.499V59.0736H53.5016V57.5731H51.7505ZM50.2501 57.5731H48.7497V54.6972C48.9923 54.7468 49.2429 54.7725 49.4999 54.7725C49.7569 54.7725 50.0075 54.746 50.2501 54.6972V57.5731ZM49.4999 53.272C48.2589 53.272 47.2493 52.2624 47.2493 51.0214C47.2493 49.7804 48.2589 48.7708 49.4999 48.7708C50.7409 48.7708 51.7505 49.7804 51.7505 51.0214C51.7505 52.2624 50.7409 53.272 49.4999 53.272Z" fill="#CCCCCC"/>
<path d="M46.9994 63.2539H45.499V64.7543H46.9994V63.2539Z" fill="#CCCCCC"/>
<path d="M54.0014 63.2539H52.501V64.7543H54.0014V63.2539Z" fill="#CCCCCC"/>
<path d="M50.5009 63.2539H49.0005V64.7543H50.5009V63.2539Z" fill="#CCCCCC"/>
</g>
<path d="M72.9227 7.56475L96.8453 49L72.9226 90.4353L25.0774 90.4353L1.15471 49L25.0774 7.56475L72.9227 7.56475Z" stroke="#CCCCCC" stroke-width="2"/>
<defs>
<clipPath id="clip0_125_1279">
<rect width="49" height="33.5098" fill="white" transform="translate(25 34.7451)"/>
</clipPath>
</defs>
</svg>
