<svg width="98" height="140" viewBox="0 0 98 140" fill="none" xmlns="http://www.w3.org/2000/svg">
<path d="M23.4792 120V116.048H27.9902V115.086H23.4792V112.291H28.0812V111.329H22.4002V120H23.4792ZM29.9897 112.824C30.3537 112.824 30.6527 112.538 30.6527 112.174C30.6527 111.81 30.3537 111.511 29.9897 111.511C29.6387 111.511 29.3397 111.81 29.3397 112.174C29.3397 112.538 29.6387 112.824 29.9897 112.824ZM30.4837 120V113.721H29.5087V120H30.4837ZM33.4036 120V115.554C33.6896 115.047 34.5086 114.553 35.1066 114.553C35.2626 114.553 35.3796 114.566 35.4966 114.592V113.591C34.6386 113.591 33.9106 114.072 33.4036 114.735V113.721H32.4286V120H33.4036ZM45.2736 120V115.463C45.2736 114.202 44.6626 113.565 43.5186 113.565C42.6086 113.565 41.7636 114.163 41.4126 114.735C41.2306 114.085 40.6846 113.565 39.7226 113.565C38.7996 113.565 37.9546 114.228 37.6946 114.631V113.721H36.7196V120H37.6946V115.411C38.0326 114.904 38.7086 114.436 39.3456 114.436C40.1646 114.436 40.5026 114.943 40.5026 115.736V120H41.4776V115.398C41.8026 114.904 42.4916 114.436 43.1416 114.436C43.9476 114.436 44.2986 114.943 44.2986 115.736V120H45.2736ZM53.6277 120L55.6297 113.721H54.6157L53.0817 118.726L51.4307 113.721H50.5987L48.9477 118.726L47.4137 113.721H46.3997L48.4017 120H49.3767L51.0147 114.956L52.6527 120H53.6277ZM61.6665 120V115.684C61.6665 114.163 60.5615 113.565 59.2355 113.565C58.2085 113.565 57.4025 113.903 56.7265 114.605L57.1815 115.281C57.7405 114.683 58.3515 114.41 59.1055 114.41C60.0155 114.41 60.6915 114.891 60.6915 115.736V116.867C60.1845 116.282 59.4695 116.009 58.6115 116.009C57.5455 116.009 56.4145 116.672 56.4145 118.076C56.4145 119.441 57.5455 120.156 58.6115 120.156C59.4565 120.156 60.1715 119.857 60.6915 119.285V120H61.6665ZM58.9625 119.454C58.0525 119.454 57.4155 118.882 57.4155 118.089C57.4155 117.283 58.0525 116.711 58.9625 116.711C59.6515 116.711 60.3145 116.971 60.6915 117.491V118.674C60.3145 119.194 59.6515 119.454 58.9625 119.454ZM64.596 120V115.554C64.882 115.047 65.701 114.553 66.299 114.553C66.455 114.553 66.572 114.566 66.689 114.592V113.591C65.831 113.591 65.103 114.072 64.596 114.735V113.721H63.621V120H64.596ZM70.746 120.156C71.773 120.156 72.618 119.818 73.242 119.194L72.774 118.557C72.28 119.064 71.552 119.35 70.837 119.35C69.485 119.35 68.653 118.362 68.575 117.179H73.658V116.932C73.658 115.047 72.54 113.565 70.642 113.565C68.848 113.565 67.548 115.034 67.548 116.854C67.548 118.817 68.887 120.156 70.746 120.156ZM72.696 116.464H68.575C68.627 115.502 69.29 114.371 70.629 114.371C72.059 114.371 72.683 115.528 72.696 116.464ZM31.6812 136V129.721H30.7062V134.336C30.3422 134.843 29.6142 135.285 28.8472 135.285C28.0022 135.285 27.4432 134.96 27.4432 133.855V129.721H26.4682V134.154C26.4682 135.519 27.1572 136.156 28.4702 136.156C29.4062 136.156 30.2252 135.662 30.7062 135.116V136H31.6812ZM36.7223 136.156C38.3733 136.156 39.5173 134.882 39.5173 132.854C39.5173 130.813 38.3733 129.565 36.7223 129.565C35.8383 129.565 35.0583 130.02 34.6033 130.657V129.721H33.6283V138.392H34.6033V135.051C35.1103 135.753 35.8643 136.156 36.7223 136.156ZM36.4753 135.285C35.7083 135.285 34.9413 134.817 34.6033 134.271V131.437C34.9413 130.891 35.7083 130.436 36.4753 130.436C37.7363 130.436 38.4903 131.463 38.4903 132.854C38.4903 134.245 37.7363 135.285 36.4753 135.285ZM43.5898 138.548C45.1238 138.548 46.5798 137.898 46.5798 135.818V129.721H45.6048V130.67C45.0978 129.981 44.3438 129.565 43.4988 129.565C41.8478 129.565 40.7038 130.813 40.7038 132.828C40.7038 134.856 41.8608 136.078 43.4988 136.078C44.3828 136.078 45.1498 135.597 45.6048 134.96V135.857C45.6048 137.235 44.6298 137.742 43.5898 137.742C42.6928 137.742 42.0688 137.508 41.5488 136.884L41.0548 137.612C41.7958 138.34 42.5238 138.548 43.5898 138.548ZM43.7328 135.22C42.4718 135.22 41.7178 134.206 41.7178 132.828C41.7178 131.437 42.4718 130.436 43.7328 130.436C44.5128 130.436 45.2668 130.904 45.6048 131.45V134.193C45.2668 134.739 44.5128 135.22 43.7328 135.22ZM49.5076 136V131.554C49.7936 131.047 50.6126 130.553 51.2106 130.553C51.3666 130.553 51.4836 130.566 51.6006 130.592V129.591C50.7426 129.591 50.0146 130.072 49.5076 130.735V129.721H48.5326V136H49.5076ZM57.7246 136V131.684C57.7246 130.163 56.6196 129.565 55.2936 129.565C54.2666 129.565 53.4606 129.903 52.7846 130.605L53.2396 131.281C53.7986 130.683 54.4096 130.41 55.1636 130.41C56.0736 130.41 56.7496 130.891 56.7496 131.736V132.867C56.2426 132.282 55.5276 132.009 54.6696 132.009C53.6036 132.009 52.4726 132.672 52.4726 134.076C52.4726 135.441 53.6036 136.156 54.6696 136.156C55.5146 136.156 56.2296 135.857 56.7496 135.285V136H57.7246ZM55.0206 135.454C54.1106 135.454 53.4736 134.882 53.4736 134.089C53.4736 133.283 54.1106 132.711 55.0206 132.711C55.7096 132.711 56.3726 132.971 56.7496 133.491V134.674C56.3726 135.194 55.7096 135.454 55.0206 135.454ZM65.2041 136V127.329H64.2291V130.67C63.7221 129.981 62.9551 129.565 62.1101 129.565C60.4591 129.565 59.3151 130.865 59.3151 132.867C59.3151 134.908 60.4721 136.156 62.1101 136.156C62.9941 136.156 63.7611 135.701 64.2291 135.064V136H65.2041ZM62.3441 135.285C61.0831 135.285 60.3291 134.258 60.3291 132.867C60.3291 131.476 61.0831 130.436 62.3441 130.436C63.1241 130.436 63.8781 130.904 64.2291 131.45V134.297C63.8781 134.843 63.1241 135.285 62.3441 135.285ZM69.9906 136.156C71.0176 136.156 71.8626 135.818 72.4866 135.194L72.0186 134.557C71.5246 135.064 70.7966 135.35 70.0816 135.35C68.7296 135.35 67.8976 134.362 67.8196 133.179H72.9026V132.932C72.9026 131.047 71.7846 129.565 69.8866 129.565C68.0926 129.565 66.7926 131.034 66.7926 132.854C66.7926 134.817 68.1316 136.156 69.9906 136.156ZM71.9406 132.464H67.8196C67.8716 131.502 68.5346 130.371 69.8736 130.371C71.3036 130.371 71.9276 131.528 71.9406 132.464Z" fill="#CCCCCC"/>
<path d="M72.9227 7.56475L96.8453 49L72.9226 90.4353L25.0774 90.4353L1.15471 49L25.0774 7.56475L72.9227 7.56475Z" stroke="#CCCCCC" stroke-width="2"/>
<g clip-path="url(#clip0_125_1338)">
<path d="M57.7757 59.0358C58.1058 58.6917 58.1058 58.137 57.7757 57.8057C57.4341 57.4616 56.8835 57.4616 56.554 57.8057L50.3616 64.0326V43.4561C50.3616 42.9765 49.9831 42.5823 49.5064 42.5823C49.0303 42.5823 48.639 42.9759 48.639 43.4561V64.0313L42.4587 57.8044C42.1172 57.4603 41.5793 57.4603 41.2377 57.8044C40.9076 58.137 40.9076 58.6904 41.2377 59.0352L48.8965 66.7509C49.2266 67.0835 49.7759 67.0835 50.1175 66.7509L57.7757 59.0358ZM46.8929 52.8455C47.3568 52.8455 47.7481 53.2269 47.7481 53.7071C47.7481 54.1867 47.3575 54.5809 46.8929 54.5809H38.6478C36.2657 54.5809 34.1041 53.6089 32.5408 52.0218C30.9648 50.4463 30 48.2686 30 45.8688C30 43.4689 30.9648 41.2906 32.5402 39.7164C34.1041 38.1409 36.2657 37.1567 38.6478 37.1567C39.222 37.1567 39.7962 37.2176 40.3576 37.3409C40.6756 37.4019 40.9803 37.4764 41.2734 37.5752C42.1892 35.9875 43.4969 34.6586 45.048 33.6866C46.7578 32.6157 48.7735 32 50.9351 32C53.8908 32 56.591 33.1691 58.5939 35.0637C60.4019 36.774 61.635 39.0634 62.0142 41.6475C62.1971 41.6225 62.3927 41.6225 62.5763 41.6225C64.3472 41.6225 65.9602 42.348 67.1194 43.5171C68.292 44.6862 69 46.3105 69 48.0953C69 49.8916 68.2913 51.5044 67.1194 52.685C65.9589 53.8541 64.3466 54.5796 62.5763 54.5796H52.1205C51.6444 54.5796 51.2653 54.1861 51.2653 53.7058C51.2653 53.2256 51.6438 52.8442 52.1205 52.8442H62.5763C63.8706 52.8442 65.0559 52.3146 65.8984 51.4536C66.7536 50.5921 67.2787 49.4108 67.2787 48.094C67.2787 46.7901 66.753 45.5959 65.8984 44.7472C65.0559 43.8856 63.8706 43.3566 62.5763 43.3566C62.3806 43.3566 62.1856 43.3688 62.0142 43.3938C61.8313 43.406 61.6477 43.4426 61.4884 43.4798C61.4279 43.492 61.3661 43.5049 61.3055 43.5171C60.8288 43.5421 60.4261 43.173 60.3898 42.6927C60.2432 40.1947 59.1318 37.9425 57.4213 36.331C55.7236 34.7189 53.4396 33.7347 50.9351 33.7347C49.103 33.7347 47.3932 34.2644 45.9516 35.1619C44.4496 36.0845 43.24 37.4263 42.4466 39.0262C42.2389 39.4326 41.7622 39.6168 41.3352 39.4448C40.9197 39.2605 40.48 39.1244 40.0288 39.0262C39.5891 38.9402 39.1366 38.8907 38.6485 38.8907C36.7309 38.8907 35.0083 39.6785 33.7504 40.9336C32.5045 42.201 31.7226 43.9485 31.7226 45.8681C31.7226 47.7999 32.5045 49.5353 33.7504 50.8026C35.0083 52.0578 36.7309 52.8455 38.6485 52.8455H46.8929Z" fill="#CCCCCC"/>
</g>
<defs>
<clipPath id="clip0_125_1338">
<rect width="39" height="35" fill="white" transform="translate(30 32)"/>
</clipPath>
</defs>
</svg>
