<svg width="98" height="140" viewBox="0 0 98 140" fill="none" xmlns="http://www.w3.org/2000/svg">
<path d="M16.1374 120.156C18.4774 120.156 19.3354 118.869 19.3354 117.608C19.3354 114.371 14.2004 115.489 14.2004 113.539C14.2004 112.72 14.9414 112.161 15.9814 112.161C16.9304 112.161 17.8404 112.486 18.4904 113.201L19.1404 112.408C18.4124 111.641 17.3854 111.199 16.0594 111.199C14.3564 111.199 13.0824 112.174 13.0824 113.604C13.0824 116.698 18.2174 115.463 18.2174 117.699C18.2174 118.362 17.7234 119.194 16.1764 119.194C14.9544 119.194 14.0184 118.596 13.4464 117.959L12.8094 118.778C13.5244 119.584 14.6294 120.156 16.1374 120.156ZM23.7416 120.156C24.7686 120.156 25.6136 119.818 26.2376 119.194L25.7696 118.557C25.2756 119.064 24.5476 119.35 23.8326 119.35C22.4806 119.35 21.6486 118.362 21.5706 117.179H26.6536V116.932C26.6536 115.047 25.5356 113.565 23.6376 113.565C21.8436 113.565 20.5436 115.034 20.5436 116.854C20.5436 118.817 21.8826 120.156 23.7416 120.156ZM25.6916 116.464H21.5706C21.6226 115.502 22.2856 114.371 23.6246 114.371C25.0546 114.371 25.6786 115.528 25.6916 116.464ZM29.8188 120.156C30.3908 120.156 30.7418 119.987 30.9888 119.753L30.7028 119.025C30.5728 119.168 30.3128 119.285 30.0398 119.285C29.6108 119.285 29.4028 118.947 29.4028 118.479V114.579H30.6768V113.721H29.4028V112.005H28.4278V113.721H27.3878V114.579H28.4278V118.687C28.4278 119.623 28.8958 120.156 29.8188 120.156ZM33.6401 120.156C34.2121 120.156 34.5631 119.987 34.8101 119.753L34.5241 119.025C34.3941 119.168 34.1341 119.285 33.8611 119.285C33.4321 119.285 33.2241 118.947 33.2241 118.479V114.579H34.4981V113.721H33.2241V112.005H32.2491V113.721H31.2091V114.579H32.2491V118.687C32.2491 119.623 32.7171 120.156 33.6401 120.156ZM36.3564 112.824C36.7204 112.824 37.0194 112.538 37.0194 112.174C37.0194 111.81 36.7204 111.511 36.3564 111.511C36.0054 111.511 35.7064 111.81 35.7064 112.174C35.7064 112.538 36.0054 112.824 36.3564 112.824ZM36.8504 120V113.721H35.8754V120H36.8504ZM44.0083 120V115.593C44.0083 114.228 43.3193 113.565 42.0063 113.565C41.0703 113.565 40.2123 114.111 39.7703 114.631V113.721H38.7953V120H39.7703V115.411C40.1343 114.904 40.8623 114.436 41.6293 114.436C42.4743 114.436 43.0333 114.787 43.0333 115.892V120H44.0083ZM48.4775 122.548C50.0115 122.548 51.4675 121.898 51.4675 119.818V113.721H50.4925V114.67C49.9855 113.981 49.2315 113.565 48.3865 113.565C46.7355 113.565 45.5915 114.813 45.5915 116.828C45.5915 118.856 46.7485 120.078 48.3865 120.078C49.2705 120.078 50.0375 119.597 50.4925 118.96V119.857C50.4925 121.235 49.5175 121.742 48.4775 121.742C47.5805 121.742 46.9565 121.508 46.4365 120.884L45.9425 121.612C46.6835 122.34 47.4115 122.548 48.4775 122.548ZM48.6205 119.22C47.3595 119.22 46.6055 118.206 46.6055 116.828C46.6055 115.437 47.3595 114.436 48.6205 114.436C49.4005 114.436 50.1545 114.904 50.4925 115.45V118.193C50.1545 118.739 49.4005 119.22 48.6205 119.22ZM55.4093 120.156C57.0343 120.156 57.8793 119.311 57.8793 118.258C57.8793 115.814 53.9923 116.724 53.9923 115.346C53.9923 114.787 54.5253 114.358 55.3833 114.358C56.1893 114.358 56.8783 114.696 57.2553 115.151L57.7103 114.475C57.2033 113.968 56.4493 113.565 55.3833 113.565C53.8883 113.565 53.0433 114.397 53.0433 115.372C53.0433 117.699 56.9303 116.763 56.9303 118.284C56.9303 118.908 56.4103 119.363 55.4483 119.363C54.5903 119.363 53.7973 118.947 53.3813 118.466L52.8743 119.168C53.5113 119.844 54.3823 120.156 55.4093 120.156ZM67.7158 120V115.684C67.7158 114.163 66.6108 113.565 65.2848 113.565C64.2578 113.565 63.4518 113.903 62.7758 114.605L63.2308 115.281C63.7898 114.683 64.4008 114.41 65.1548 114.41C66.0648 114.41 66.7408 114.891 66.7408 115.736V116.867C66.2338 116.282 65.5188 116.009 64.6608 116.009C63.5948 116.009 62.4638 116.672 62.4638 118.076C62.4638 119.441 63.5948 120.156 64.6608 120.156C65.5058 120.156 66.2208 119.857 66.7408 119.285V120H67.7158ZM65.0118 119.454C64.1018 119.454 63.4648 118.882 63.4648 118.089C63.4648 117.283 64.1018 116.711 65.0118 116.711C65.7008 116.711 66.3638 116.971 66.7408 117.491V118.674C66.3638 119.194 65.7008 119.454 65.0118 119.454ZM74.8833 120V115.593C74.8833 114.228 74.1943 113.565 72.8813 113.565C71.9453 113.565 71.0873 114.111 70.6453 114.631V113.721H69.6703V120H70.6453V115.411C71.0093 114.904 71.7373 114.436 72.5043 114.436C73.3493 114.436 73.9083 114.787 73.9083 115.892V120H74.8833ZM82.3555 120V111.329H81.3805V114.67C80.8735 113.981 80.1065 113.565 79.2615 113.565C77.6105 113.565 76.4665 114.865 76.4665 116.867C76.4665 118.908 77.6235 120.156 79.2615 120.156C80.1455 120.156 80.9125 119.701 81.3805 119.064V120H82.3555ZM79.4955 119.285C78.2345 119.285 77.4805 118.258 77.4805 116.867C77.4805 115.476 78.2345 114.436 79.4955 114.436C80.2755 114.436 81.0295 114.904 81.3805 115.45V118.297C81.0295 118.843 80.2755 119.285 79.4955 119.285ZM20.1941 136V131.554C20.4801 131.047 21.2991 130.553 21.8971 130.553C22.0531 130.553 22.1701 130.566 22.2871 130.592V129.591C21.4291 129.591 20.7011 130.072 20.1941 130.735V129.721H19.2191V136H20.1941ZM26.3442 136.156C27.3712 136.156 28.2162 135.818 28.8402 135.194L28.3722 134.557C27.8782 135.064 27.1502 135.35 26.4352 135.35C25.0832 135.35 24.2512 134.362 24.1732 133.179H29.2562V132.932C29.2562 131.047 28.1382 129.565 26.2402 129.565C24.4462 129.565 23.1462 131.034 23.1462 132.854C23.1462 134.817 24.4852 136.156 26.3442 136.156ZM28.2942 132.464H24.1732C24.2252 131.502 24.8882 130.371 26.2272 130.371C27.6572 130.371 28.2812 131.528 28.2942 132.464ZM32.8244 136.156C34.4494 136.156 35.2944 135.311 35.2944 134.258C35.2944 131.814 31.4074 132.724 31.4074 131.346C31.4074 130.787 31.9404 130.358 32.7984 130.358C33.6044 130.358 34.2934 130.696 34.6704 131.151L35.1254 130.475C34.6184 129.968 33.8644 129.565 32.7984 129.565C31.3034 129.565 30.4584 130.397 30.4584 131.372C30.4584 133.699 34.3454 132.763 34.3454 134.284C34.3454 134.908 33.8254 135.363 32.8634 135.363C32.0054 135.363 31.2124 134.947 30.7964 134.466L30.2894 135.168C30.9264 135.844 31.7974 136.156 32.8244 136.156ZM38.4643 136.156C39.0363 136.156 39.3873 135.987 39.6343 135.753L39.3483 135.025C39.2183 135.168 38.9583 135.285 38.6853 135.285C38.2563 135.285 38.0483 134.947 38.0483 134.479V130.579H39.3223V129.721H38.0483V128.005H37.0733V129.721H36.0333V130.579H37.0733V134.687C37.0733 135.623 37.5413 136.156 38.4643 136.156ZM41.6746 136V131.554C41.9606 131.047 42.7796 130.553 43.3776 130.553C43.5336 130.553 43.6506 130.566 43.7676 130.592V129.591C42.9096 129.591 42.1816 130.072 41.6746 130.735V129.721H40.6996V136H41.6746ZM45.4716 128.824C45.8356 128.824 46.1346 128.538 46.1346 128.174C46.1346 127.81 45.8356 127.511 45.4716 127.511C45.1206 127.511 44.8216 127.81 44.8216 128.174C44.8216 128.538 45.1206 128.824 45.4716 128.824ZM45.9656 136V129.721H44.9906V136H45.9656ZM50.6795 136.156C51.8235 136.156 52.4995 135.688 52.9805 135.064L52.3305 134.466C51.9145 135.025 51.3815 135.285 50.7315 135.285C49.3925 135.285 48.5605 134.245 48.5605 132.854C48.5605 131.463 49.3925 130.436 50.7315 130.436C51.3815 130.436 51.9145 130.683 52.3305 131.255L52.9805 130.657C52.4995 130.033 51.8235 129.565 50.6795 129.565C48.8075 129.565 47.5465 130.995 47.5465 132.854C47.5465 134.726 48.8075 136.156 50.6795 136.156ZM55.9331 136.156C56.5051 136.156 56.8561 135.987 57.1031 135.753L56.8171 135.025C56.6871 135.168 56.4271 135.285 56.1541 135.285C55.7251 135.285 55.5171 134.947 55.5171 134.479V130.579H56.7911V129.721H55.5171V128.005H54.5421V129.721H53.5021V130.579H54.5421V134.687C54.5421 135.623 55.0101 136.156 55.9331 136.156ZM58.6494 128.824C59.0134 128.824 59.3124 128.538 59.3124 128.174C59.3124 127.81 59.0134 127.511 58.6494 127.511C58.2984 127.511 57.9994 127.81 57.9994 128.174C57.9994 128.538 58.2984 128.824 58.6494 128.824ZM59.1434 136V129.721H58.1684V136H59.1434ZM63.8313 136.156C65.7423 136.156 66.9383 134.674 66.9383 132.854C66.9383 131.034 65.7423 129.565 63.8313 129.565C61.9203 129.565 60.7243 131.034 60.7243 132.854C60.7243 134.674 61.9203 136.156 63.8313 136.156ZM63.8313 135.285C62.4923 135.285 61.7383 134.141 61.7383 132.854C61.7383 131.58 62.4923 130.436 63.8313 130.436C65.1703 130.436 65.9113 131.58 65.9113 132.854C65.9113 134.141 65.1703 135.285 63.8313 135.285ZM73.7407 136V131.593C73.7407 130.228 73.0517 129.565 71.7387 129.565C70.8027 129.565 69.9447 130.111 69.5027 130.631V129.721H68.5277V136H69.5027V131.411C69.8667 130.904 70.5947 130.436 71.3617 130.436C72.2067 130.436 72.7657 130.787 72.7657 131.892V136H73.7407ZM77.6769 136.156C79.3019 136.156 80.1469 135.311 80.1469 134.258C80.1469 131.814 76.2599 132.724 76.2599 131.346C76.2599 130.787 76.7929 130.358 77.6509 130.358C78.4569 130.358 79.1459 130.696 79.5229 131.151L79.9779 130.475C79.4709 129.968 78.7169 129.565 77.6509 129.565C76.1559 129.565 75.3109 130.397 75.3109 131.372C75.3109 133.699 79.1979 132.763 79.1979 134.284C79.1979 134.908 78.6779 135.363 77.7159 135.363C76.8579 135.363 76.0649 134.947 75.6489 134.466L75.1419 135.168C75.7789 135.844 76.6499 136.156 77.6769 136.156Z" fill="#009EFF"/>
<path d="M72.9227 7.56475L96.8453 49L72.9226 90.4353L25.0774 90.4353L1.15471 49L25.0774 7.56475L72.9227 7.56475Z" fill="#009EFF" stroke="#009EFF" stroke-width="2"/>
<g clip-path="url(#clip0_125_1331)">
<path d="M48.9999 39.666C43.8535 39.666 39.6665 43.8524 39.6665 48.9994C39.6665 54.1458 43.8529 58.3328 48.9999 58.3328C54.1469 58.3328 58.3333 54.1458 58.3333 48.9994C58.3333 43.853 54.1463 39.666 48.9999 39.666ZM48.9999 56.9992C44.5888 56.9992 41 53.4105 41 48.9994C41 44.5883 44.5888 40.9995 48.9999 40.9995C53.411 40.9995 56.9997 44.5883 56.9997 48.9994C56.9997 53.4105 53.411 56.9992 48.9999 56.9992Z" fill="white"/>
<path d="M65.1459 44.9998H63.8006C63.4571 43.7251 62.9524 42.5051 62.2942 41.3616L63.2448 40.411C63.5948 40.061 63.7877 39.5952 63.7877 39.1005C63.7877 38.6052 63.5948 38.1399 63.2448 37.7893L60.2095 34.7541C59.5095 34.0547 58.289 34.0535 57.5878 34.7541L56.6372 35.7046C55.4931 35.0464 54.2737 34.5417 53.0002 34.1988V32.8535C52.9996 31.8312 52.1685 31 51.1461 31H46.8527C45.8309 31 44.9998 31.8312 44.9998 32.8535V34.1988C43.7257 34.5423 42.5063 35.047 41.3616 35.7052L40.411 34.7546C39.7104 34.0535 38.4893 34.0547 37.7893 34.7546L34.7541 37.7899C34.4041 38.1399 34.2117 38.6058 34.2117 39.101C34.2117 39.5957 34.4046 40.061 34.7541 40.4116L35.7046 41.3622C35.0464 42.5051 34.5411 43.7251 34.1988 44.9998H32.8535C31.8312 44.9998 31 45.8309 31 46.8533V51.1461C31 52.1685 31.8312 52.9996 32.8535 52.9996H34.1988C34.5423 54.2737 35.047 55.4931 35.7052 56.6378L34.7546 57.5884C34.4047 57.9384 34.2117 58.4043 34.2117 58.899C34.2117 59.3942 34.4047 59.8595 34.7546 60.2101L37.7899 63.2454C38.4899 63.9459 39.711 63.9465 40.4116 63.2454L41.3622 62.2948C42.5069 62.953 43.7263 63.4583 45.0004 63.8012V65.1465C45.0004 66.1682 45.8315 67 46.8539 67H51.1467C52.1685 67 53.0002 66.1688 53.0002 65.1465V63.8012C54.2743 63.4577 55.4937 62.953 56.6384 62.2948L57.589 63.2454C58.2901 63.9465 59.5101 63.9453 60.2107 63.2454L63.2459 60.2101C63.5959 59.8601 63.7889 59.3942 63.7889 58.899C63.7889 58.4043 63.5959 57.939 63.2459 57.5884L62.2954 56.6378C62.9536 55.4931 63.4589 54.2737 63.8018 52.9996H65.1471C66.1688 52.9996 67.0006 52.1685 67.0006 51.1461V46.8527C66.9994 45.8309 66.1682 44.9998 65.1459 44.9998ZM65.6659 51.1461C65.6659 51.4326 65.4324 51.6661 65.1459 51.6661H62.7512L62.6312 52.1814C62.2842 53.6726 61.6989 55.0878 60.8895 56.3884L60.6095 56.8378L62.3024 58.5307C62.506 58.7343 62.506 59.0642 62.3024 59.2666L59.2672 62.3018C59.0642 62.5048 58.7348 62.506 58.5313 62.3018L56.8384 60.6089L56.389 60.8889C55.089 61.6983 53.6737 62.2842 52.182 62.6307L51.6667 62.7507V65.1453C51.6667 65.4318 51.4332 65.6653 51.1467 65.6653H46.8533C46.5668 65.6653 46.3333 65.4318 46.3333 65.1453V62.7507L45.818 62.6307C44.3268 62.2836 42.9116 61.6983 41.611 60.8889L41.1616 60.6089L39.4687 62.3018C39.2646 62.506 38.9346 62.5048 38.7328 62.3018L35.6976 59.2666C35.494 59.0631 35.494 58.7331 35.6976 58.5307L37.3905 56.8378L37.1105 56.3884C36.3011 55.0884 35.7152 53.6732 35.3688 52.1814L35.2488 51.6661H32.8535C32.567 51.6661 32.3335 51.4326 32.3335 51.1461V46.8527C32.3335 46.5662 32.567 46.3327 32.8535 46.3327H35.2482L35.3682 45.8174C35.7152 44.3257 36.3011 42.9104 37.1099 41.6104L37.3899 41.161L35.697 39.4681C35.4935 39.2646 35.4935 38.9346 35.697 38.7322L38.7322 35.697C38.9352 35.494 39.2652 35.4929 39.4681 35.697L41.161 37.3899L41.6104 37.1099C42.9104 36.3005 44.3257 35.7146 45.8174 35.3682L46.3327 35.2482V32.8535C46.3327 32.567 46.5662 32.3335 46.8527 32.3335H51.145C51.432 32.3335 51.6655 32.567 51.6655 32.8535V35.2482L52.1808 35.3682C53.672 35.7158 55.0873 36.3011 56.3878 37.1099L56.8372 37.3899L58.5301 35.697C58.7343 35.4929 59.0642 35.494 59.266 35.697L62.3013 38.7322C62.5048 38.9358 62.5048 39.2657 62.3013 39.4681L60.6083 41.161L60.8883 41.6104C61.6977 42.9098 62.2836 44.3251 62.6301 45.8174L62.7501 46.3327H65.1447C65.4312 46.3327 65.6647 46.5662 65.6647 46.8527V51.1461H65.6659Z" fill="white"/>
<path d="M48.9999 42.333C45.324 42.333 42.3335 45.3235 42.3335 48.9994C42.3335 52.6752 45.324 55.6657 48.9999 55.6657C52.6757 55.6657 55.6662 52.6752 55.6662 48.9994C55.6662 45.3235 52.6757 42.333 48.9999 42.333ZM48.9999 54.3328C46.0593 54.3328 43.6664 51.9405 43.6664 48.9994C43.6664 46.0588 46.0593 43.6659 48.9999 43.6659C51.9404 43.6659 54.3333 46.0582 54.3333 48.9994C54.3333 51.9399 51.9404 54.3328 48.9999 54.3328Z" fill="white"/>
</g>
<defs>
<clipPath id="clip0_125_1331">
<rect width="36" height="36" fill="white" transform="translate(31 31)"/>
</clipPath>
</defs>
</svg>
