<svg width="112" height="125" viewBox="0 0 112 125" fill="none" xmlns="http://www.w3.org/2000/svg">
<path d="M77.8975 6.80438L98.7951 43L77.8975 79.1956L36.1024 79.1956L15.2049 43L36.1025 6.80438L77.8975 6.80438Z" fill="white" stroke="#CCCCCC" stroke-width="2.08696"/>
<g clip-path="url(#clip0_330_9188)">
<path d="M55.9997 33.666C50.8533 33.666 46.6663 37.8524 46.6663 42.9994C46.6663 48.1458 50.8527 52.3328 55.9997 52.3328C61.1467 52.3328 65.3331 48.1458 65.3331 42.9994C65.3331 37.853 61.1461 33.666 55.9997 33.666ZM55.9997 50.9992C51.5886 50.9992 47.9998 47.4105 47.9998 42.9994C47.9998 38.5883 51.5886 34.9995 55.9997 34.9995C60.4108 34.9995 63.9996 38.5883 63.9996 42.9994C63.9996 47.4105 60.4108 50.9992 55.9997 50.9992Z" fill="#CCCCCC"/>
<path d="M72.1459 38.9998H70.8006C70.4571 37.7251 69.9524 36.5051 69.2942 35.3616L70.2448 34.411C70.5948 34.061 70.7877 33.5952 70.7877 33.1005C70.7877 32.6052 70.5948 32.1399 70.2448 31.7893L67.2095 28.7541C66.5095 28.0547 65.289 28.0535 64.5878 28.7541L63.6372 29.7046C62.4931 29.0464 61.2737 28.5417 60.0002 28.1988V26.8535C59.9996 25.8312 59.1685 25 58.1461 25H53.8527C52.8309 25 51.9998 25.8312 51.9998 26.8535V28.1988C50.7257 28.5423 49.5063 29.047 48.3616 29.7052L47.411 28.7546C46.7104 28.0535 45.4893 28.0547 44.7893 28.7546L41.7541 31.7899C41.4041 32.1399 41.2117 32.6058 41.2117 33.101C41.2117 33.5957 41.4046 34.061 41.7541 34.4116L42.7046 35.3622C42.0464 36.5051 41.5411 37.7251 41.1988 38.9998H39.8535C38.8312 38.9998 38 39.8309 38 40.8533V45.1461C38 46.1685 38.8312 46.9996 39.8535 46.9996H41.1988C41.5423 48.2737 42.047 49.4931 42.7052 50.6378L41.7546 51.5884C41.4047 51.9384 41.2117 52.4043 41.2117 52.899C41.2117 53.3942 41.4047 53.8595 41.7546 54.2101L44.7899 57.2454C45.4899 57.9459 46.711 57.9465 47.4116 57.2454L48.3622 56.2948C49.5069 56.953 50.7263 57.4583 52.0004 57.8012V59.1465C52.0004 60.1682 52.8315 61 53.8539 61H58.1467C59.1685 61 60.0002 60.1688 60.0002 59.1465V57.8012C61.2743 57.4577 62.4937 56.953 63.6384 56.2948L64.589 57.2454C65.2901 57.9465 66.5101 57.9453 67.2107 57.2454L70.2459 54.2101C70.5959 53.8601 70.7889 53.3942 70.7889 52.899C70.7889 52.4043 70.5959 51.939 70.2459 51.5884L69.2954 50.6378C69.9536 49.4931 70.4589 48.2737 70.8018 46.9996H72.1471C73.1688 46.9996 74.0006 46.1685 74.0006 45.1461V40.8527C73.9994 39.8309 73.1682 38.9998 72.1459 38.9998ZM72.6659 45.1461C72.6659 45.4326 72.4324 45.6661 72.1459 45.6661H69.7512L69.6312 46.1814C69.2842 47.6726 68.6989 49.0878 67.8895 50.3884L67.6095 50.8378L69.3024 52.5307C69.506 52.7343 69.506 53.0642 69.3024 53.2666L66.2672 56.3018C66.0642 56.5048 65.7348 56.506 65.5313 56.3018L63.8384 54.6089L63.389 54.8889C62.089 55.6983 60.6737 56.2842 59.182 56.6307L58.6667 56.7507V59.1453C58.6667 59.4318 58.4332 59.6653 58.1467 59.6653H53.8533C53.5668 59.6653 53.3333 59.4318 53.3333 59.1453V56.7507L52.818 56.6307C51.3268 56.2836 49.9116 55.6983 48.611 54.8889L48.1616 54.6089L46.4687 56.3018C46.2646 56.506 45.9346 56.5048 45.7328 56.3018L42.6976 53.2666C42.494 53.0631 42.494 52.7331 42.6976 52.5307L44.3905 50.8378L44.1105 50.3884C43.3011 49.0884 42.7152 47.6732 42.3688 46.1814L42.2488 45.6661H39.8535C39.567 45.6661 39.3335 45.4326 39.3335 45.1461V40.8527C39.3335 40.5662 39.567 40.3327 39.8535 40.3327H42.2482L42.3682 39.8174C42.7152 38.3257 43.3011 36.9104 44.1099 35.6104L44.3899 35.161L42.697 33.4681C42.4935 33.2646 42.4935 32.9346 42.697 32.7322L45.7322 29.697C45.9352 29.494 46.2652 29.4929 46.4681 29.697L48.161 31.3899L48.6104 31.1099C49.9104 30.3005 51.3257 29.7146 52.8174 29.3682L53.3327 29.2482V26.8535C53.3327 26.567 53.5662 26.3335 53.8527 26.3335H58.145C58.432 26.3335 58.6655 26.567 58.6655 26.8535V29.2482L59.1808 29.3682C60.672 29.7158 62.0873 30.3011 63.3878 31.1099L63.8372 31.3899L65.5301 29.697C65.7343 29.4929 66.0642 29.494 66.266 29.697L69.3013 32.7322C69.5048 32.9358 69.5048 33.2657 69.3013 33.4681L67.6083 35.161L67.8883 35.6104C68.6977 36.9098 69.2836 38.3251 69.6301 39.8174L69.7501 40.3327H72.1447C72.4312 40.3327 72.6647 40.5662 72.6647 40.8527V45.1461H72.6659Z" fill="#CCCCCC"/>
<path d="M55.9997 36.333C52.3239 36.333 49.3333 39.3235 49.3333 42.9994C49.3333 46.6752 52.3239 49.6657 55.9997 49.6657C59.6755 49.6657 62.666 46.6752 62.666 42.9994C62.666 39.3235 59.6755 36.333 55.9997 36.333ZM55.9997 48.3328C53.0591 48.3328 50.6662 45.9405 50.6662 42.9994C50.6662 40.0588 53.0591 37.6659 55.9997 37.6659C58.9402 37.6659 61.3331 40.0582 61.3331 42.9994C61.3331 45.9399 58.9402 48.3328 55.9997 48.3328Z" fill="#CCCCCC"/>
</g>
<path d="M18.9503 107.168C21.4703 107.168 22.2683 105.726 22.2683 104.522C22.2683 101.036 16.6683 102.352 16.6683 99.958C16.6683 98.95 17.6063 98.236 18.8523 98.236C19.9023 98.236 20.8543 98.6 21.5263 99.412L22.0583 98.824C21.3303 97.998 20.2943 97.508 18.8943 97.508C17.2003 97.508 15.8283 98.474 15.8283 100C15.8283 103.262 21.4283 101.834 21.4283 104.578C21.4283 105.376 20.8823 106.44 18.9643 106.44C17.6343 106.44 16.6543 105.782 16.0523 105.082L15.5343 105.684C16.2483 106.552 17.4103 107.168 18.9503 107.168ZM27.4351 107.168C28.5551 107.168 29.4091 106.776 30.0811 106.076L29.7031 105.6C29.1291 106.216 28.3451 106.538 27.4911 106.538C25.8951 106.538 24.9151 105.32 24.8451 103.85H30.5011V103.654C30.5011 101.708 29.3671 100.07 27.3091 100.07C25.4331 100.07 24.0471 101.652 24.0471 103.612C24.0471 105.698 25.4611 107.168 27.4351 107.168ZM29.7591 103.276H24.8451C24.9011 102.1 25.6991 100.7 27.2951 100.7C28.9891 100.7 29.7451 102.128 29.7591 103.276ZM34.1324 107.168C34.6924 107.168 35.0144 107 35.2804 106.748L35.0004 106.188C34.8464 106.356 34.5664 106.51 34.2444 106.51C33.7684 106.51 33.5444 106.132 33.5444 105.586V100.882H34.9164V100.238H33.5444V98.39H32.8024V100.238H31.6824V100.882H32.8024V105.698C32.8024 106.622 33.2364 107.168 34.1324 107.168ZM38.2679 107.168C38.8279 107.168 39.1499 107 39.4159 106.748L39.1359 106.188C38.9819 106.356 38.7019 106.51 38.3799 106.51C37.9039 106.51 37.6799 106.132 37.6799 105.586V100.882H39.0519V100.238H37.6799V98.39H36.9379V100.238H35.8179V100.882H36.9379V105.698C36.9379 106.622 37.3719 107.168 38.2679 107.168ZM41.2974 99.174C41.6054 99.174 41.8574 98.922 41.8574 98.614C41.8574 98.306 41.6054 98.068 41.2974 98.068C41.0034 98.068 40.7374 98.306 40.7374 98.614C40.7374 98.922 41.0034 99.174 41.2974 99.174ZM41.6614 107V100.238H40.9334V107H41.6614ZM49.4995 107V102.268C49.4995 100.742 48.7435 100.07 47.3715 100.07C46.3915 100.07 45.4255 100.672 44.9355 101.26V100.238H44.2075V107H44.9355V101.89C45.3695 101.274 46.2655 100.728 47.1335 100.728C48.1135 100.728 48.7715 101.12 48.7715 102.422V107H49.4995ZM54.7221 109.744C56.3741 109.744 57.7741 109.002 57.7741 106.93V100.238H57.0321V101.33C56.4861 100.56 55.6461 100.07 54.6801 100.07C52.8881 100.07 51.6561 101.47 51.6561 103.612C51.6561 105.782 52.8881 107.14 54.6801 107.14C55.6881 107.14 56.5561 106.566 57.0321 105.88V106.944C57.0321 108.498 55.9541 109.114 54.7221 109.114C53.7141 109.114 53.0701 108.862 52.4821 108.162L52.0621 108.722C52.8601 109.534 53.5881 109.744 54.7221 109.744ZM54.8061 106.482C53.3081 106.482 52.4401 105.25 52.4401 103.612C52.4401 101.974 53.3081 100.728 54.8061 100.728C55.7441 100.728 56.6401 101.302 57.0321 101.96V105.25C56.6401 105.908 55.7441 106.482 54.8061 106.482ZM62.3284 107.168C64.0224 107.168 64.8624 106.272 64.8624 105.18C64.8624 102.576 60.5924 103.612 60.5924 101.918C60.5924 101.218 61.2364 100.686 62.2864 100.686C63.1824 100.686 63.9104 101.05 64.3024 101.582L64.7084 101.064C64.2184 100.518 63.4484 100.07 62.2864 100.07C60.7604 100.07 59.8784 100.91 59.8784 101.946C59.8784 104.368 64.1484 103.332 64.1484 105.18C64.1484 105.964 63.4764 106.552 62.3424 106.552C61.3904 106.552 60.5924 106.104 60.1584 105.558L59.7244 106.104C60.3964 106.846 61.2364 107.168 62.3284 107.168ZM75.9473 107V102.24C75.9473 100.728 74.8553 100.07 73.4833 100.07C72.3633 100.07 71.5793 100.448 70.8793 101.204L71.2853 101.708C71.9013 101.008 72.5593 100.714 73.3993 100.714C74.4073 100.714 75.2193 101.26 75.2193 102.268V103.64C74.6313 102.982 73.8613 102.674 72.9233 102.674C71.7473 102.674 70.5573 103.444 70.5573 104.914C70.5573 106.37 71.7613 107.168 72.9233 107.168C73.8613 107.168 74.6173 106.86 75.2193 106.202V107H75.9473ZM73.1753 106.594C72.0553 106.594 71.3273 105.88 71.3273 104.928C71.3273 103.962 72.0553 103.248 73.1753 103.248C73.9873 103.248 74.7433 103.57 75.2193 104.186V105.67C74.7433 106.286 73.9873 106.594 73.1753 106.594ZM83.794 107V102.268C83.794 100.742 83.038 100.07 81.666 100.07C80.686 100.07 79.72 100.672 79.23 101.26V100.238H78.502V107H79.23V101.89C79.664 101.274 80.56 100.728 81.428 100.728C82.408 100.728 83.066 101.12 83.066 102.422V107H83.794ZM92.0686 107V97.662H91.3266V101.33C90.7806 100.56 89.9406 100.07 88.9746 100.07C87.1826 100.07 85.9506 101.484 85.9506 103.626C85.9506 105.796 87.1826 107.168 88.9746 107.168C89.9826 107.168 90.8506 106.622 91.3266 105.922V107H92.0686ZM89.1006 106.51C87.6026 106.51 86.7346 105.264 86.7346 103.626C86.7346 101.988 87.6026 100.728 89.1006 100.728C90.0526 100.728 90.9346 101.302 91.3266 101.96V105.306C90.9346 105.95 90.0526 106.51 89.1006 106.51ZM23.3933 124V119.072C23.7013 118.484 24.6253 117.868 25.3113 117.868C25.4513 117.868 25.5493 117.868 25.6753 117.896V117.098C24.7373 117.098 23.9673 117.644 23.3933 118.4V117.238H22.6653V124H23.3933ZM30.3846 124.168C31.5046 124.168 32.3586 123.776 33.0306 123.076L32.6526 122.6C32.0786 123.216 31.2946 123.538 30.4406 123.538C28.8446 123.538 27.8646 122.32 27.7946 120.85H33.4506V120.654C33.4506 118.708 32.3166 117.07 30.2586 117.07C28.3826 117.07 26.9966 118.652 26.9966 120.612C26.9966 122.698 28.4106 124.168 30.3846 124.168ZM32.7086 120.276H27.7946C27.8506 119.1 28.6486 117.7 30.2446 117.7C31.9386 117.7 32.6946 119.128 32.7086 120.276ZM37.628 124.168C39.322 124.168 40.162 123.272 40.162 122.18C40.162 119.576 35.892 120.612 35.892 118.918C35.892 118.218 36.536 117.686 37.586 117.686C38.482 117.686 39.21 118.05 39.602 118.582L40.008 118.064C39.518 117.518 38.748 117.07 37.586 117.07C36.06 117.07 35.178 117.91 35.178 118.946C35.178 121.368 39.448 120.332 39.448 122.18C39.448 122.964 38.776 123.552 37.642 123.552C36.69 123.552 35.892 123.104 35.458 122.558L35.024 123.104C35.696 123.846 36.536 124.168 37.628 124.168ZM43.7878 124.168C44.3478 124.168 44.6698 124 44.9358 123.748L44.6558 123.188C44.5018 123.356 44.2218 123.51 43.8998 123.51C43.4238 123.51 43.1998 123.132 43.1998 122.586V117.882H44.5718V117.238H43.1998V115.39H42.4578V117.238H41.3378V117.882H42.4578V122.698C42.4578 123.622 42.8918 124.168 43.7878 124.168ZM47.1813 124V119.072C47.4893 118.484 48.4133 117.868 49.0993 117.868C49.2393 117.868 49.3373 117.868 49.4633 117.896V117.098C48.5253 117.098 47.7553 117.644 47.1813 118.4V117.238H46.4533V124H47.1813ZM51.5406 116.174C51.8486 116.174 52.1006 115.922 52.1006 115.614C52.1006 115.306 51.8486 115.068 51.5406 115.068C51.2466 115.068 50.9806 115.306 50.9806 115.614C50.9806 115.922 51.2466 116.174 51.5406 116.174ZM51.9046 124V117.238H51.1766V124H51.9046ZM57.3488 124.168C58.5248 124.168 59.1968 123.706 59.7428 123.006L59.2388 122.558C58.7488 123.23 58.1328 123.51 57.3908 123.51C55.8088 123.51 54.8428 122.236 54.8428 120.612C54.8428 118.988 55.8088 117.728 57.3908 117.728C58.1328 117.728 58.7488 117.994 59.2388 118.666L59.7428 118.218C59.1968 117.532 58.5248 117.07 57.3488 117.07C55.3608 117.07 54.0588 118.638 54.0588 120.612C54.0588 122.586 55.3608 124.168 57.3488 124.168ZM63.1187 124.168C63.6787 124.168 64.0007 124 64.2667 123.748L63.9867 123.188C63.8327 123.356 63.5527 123.51 63.2307 123.51C62.7547 123.51 62.5307 123.132 62.5307 122.586V117.882H63.9027V117.238H62.5307V115.39H61.7887V117.238H60.6687V117.882H61.7887V122.698C61.7887 123.622 62.2227 124.168 63.1187 124.168ZM66.1482 116.174C66.4562 116.174 66.7082 115.922 66.7082 115.614C66.7082 115.306 66.4562 115.068 66.1482 115.068C65.8542 115.068 65.5882 115.306 65.5882 115.614C65.5882 115.922 65.8542 116.174 66.1482 116.174ZM66.5122 124V117.238H65.7842V124H66.5122ZM71.9143 124.168C73.9163 124.168 75.1763 122.586 75.1763 120.612C75.1763 118.638 73.9163 117.07 71.9143 117.07C69.9403 117.07 68.6663 118.638 68.6663 120.612C68.6663 122.586 69.9403 124.168 71.9143 124.168ZM71.9143 123.51C70.3463 123.51 69.4503 122.124 69.4503 120.612C69.4503 119.114 70.3463 117.728 71.9143 117.728C73.5103 117.728 74.3923 119.114 74.3923 120.612C74.3923 122.124 73.5103 123.51 71.9143 123.51ZM82.6284 124V119.268C82.6284 117.742 81.8724 117.07 80.5004 117.07C79.5204 117.07 78.5544 117.672 78.0644 118.26V117.238H77.3364V124H78.0644V118.89C78.4984 118.274 79.3944 117.728 80.2624 117.728C81.2424 117.728 81.9004 118.12 81.9004 119.422V124H82.6284ZM87.1929 124.168C88.8869 124.168 89.7269 123.272 89.7269 122.18C89.7269 119.576 85.4569 120.612 85.4569 118.918C85.4569 118.218 86.1009 117.686 87.1509 117.686C88.0469 117.686 88.7749 118.05 89.1669 118.582L89.5729 118.064C89.0829 117.518 88.3129 117.07 87.1509 117.07C85.6249 117.07 84.7429 117.91 84.7429 118.946C84.7429 121.368 89.0129 120.332 89.0129 122.18C89.0129 122.964 88.3409 123.552 87.2069 123.552C86.2549 123.552 85.4569 123.104 85.0229 122.558L84.5889 123.104C85.2609 123.846 86.1009 124.168 87.1929 124.168Z" fill="#999999"/>
<defs>
<clipPath id="clip0_330_9188">
<rect width="36" height="36" fill="white" transform="translate(38 25)"/>
</clipPath>
</defs>
</svg>
