<svg width="98" height="140" viewBox="0 0 98 140" fill="none" xmlns="http://www.w3.org/2000/svg">
<path d="M29.5217 120V112.291H32.2777V111.329H25.6997V112.291H28.4427V120H29.5217ZM33.5433 120V115.554C33.8293 115.047 34.6483 114.553 35.2463 114.553C35.4023 114.553 35.5193 114.566 35.6363 114.592V113.591C34.7783 113.591 34.0503 114.072 33.5433 114.735V113.721H32.5683V120H33.5433ZM41.7603 120V115.684C41.7603 114.163 40.6553 113.565 39.3293 113.565C38.3023 113.565 37.4963 113.903 36.8203 114.605L37.2753 115.281C37.8343 114.683 38.4453 114.41 39.1993 114.41C40.1093 114.41 40.7853 114.891 40.7853 115.736V116.867C40.2783 116.282 39.5633 116.009 38.7053 116.009C37.6393 116.009 36.5083 116.672 36.5083 118.076C36.5083 119.441 37.6393 120.156 38.7053 120.156C39.5503 120.156 40.2653 119.857 40.7853 119.285V120H41.7603ZM39.0563 119.454C38.1463 119.454 37.5093 118.882 37.5093 118.089C37.5093 117.283 38.1463 116.711 39.0563 116.711C39.7453 116.711 40.4083 116.971 40.7853 117.491V118.674C40.4083 119.194 39.7453 119.454 39.0563 119.454ZM44.1957 112.824C44.5597 112.824 44.8587 112.538 44.8587 112.174C44.8587 111.81 44.5597 111.511 44.1957 111.511C43.8447 111.511 43.5457 111.81 43.5457 112.174C43.5457 112.538 43.8447 112.824 44.1957 112.824ZM44.6897 120V113.721H43.7147V120H44.6897ZM51.8477 120V115.593C51.8477 114.228 51.1587 113.565 49.8457 113.565C48.9097 113.565 48.0517 114.111 47.6097 114.631V113.721H46.6347V120H47.6097V115.411C47.9737 114.904 48.7017 114.436 49.4687 114.436C50.3137 114.436 50.8727 114.787 50.8727 115.892V120H51.8477ZM54.2758 112.824C54.6398 112.824 54.9388 112.538 54.9388 112.174C54.9388 111.81 54.6398 111.511 54.2758 111.511C53.9248 111.511 53.6258 111.81 53.6258 112.174C53.6258 112.538 53.9248 112.824 54.2758 112.824ZM54.7698 120V113.721H53.7948V120H54.7698ZM61.9277 120V115.593C61.9277 114.228 61.2387 113.565 59.9257 113.565C58.9897 113.565 58.1317 114.111 57.6897 114.631V113.721H56.7147V120H57.6897V115.411C58.0537 114.904 58.7817 114.436 59.5487 114.436C60.3937 114.436 60.9527 114.787 60.9527 115.892V120H61.9277ZM66.3969 122.548C67.9309 122.548 69.3869 121.898 69.3869 119.818V113.721H68.4119V114.67C67.9049 113.981 67.1509 113.565 66.3059 113.565C64.6549 113.565 63.5109 114.813 63.5109 116.828C63.5109 118.856 64.6679 120.078 66.3059 120.078C67.1899 120.078 67.9569 119.597 68.4119 118.96V119.857C68.4119 121.235 67.4369 121.742 66.3969 121.742C65.4999 121.742 64.8759 121.508 64.3559 120.884L63.8619 121.612C64.6029 122.34 65.3309 122.548 66.3969 122.548ZM66.5399 119.22C65.2789 119.22 64.5249 118.206 64.5249 116.828C64.5249 115.437 65.2789 114.436 66.5399 114.436C67.3199 114.436 68.0739 114.904 68.4119 115.45V118.193C68.0739 118.739 67.3199 119.22 66.5399 119.22ZM29.4289 136.156C31.0799 136.156 32.2239 134.882 32.2239 132.854C32.2239 130.813 31.0799 129.565 29.4289 129.565C28.5449 129.565 27.7649 130.02 27.3099 130.657V129.721H26.3349V138.392H27.3099V135.051C27.8169 135.753 28.5709 136.156 29.4289 136.156ZM29.1819 135.285C28.4149 135.285 27.6479 134.817 27.3099 134.271V131.437C27.6479 130.891 28.4149 130.436 29.1819 130.436C30.4429 130.436 31.1969 131.463 31.1969 132.854C31.1969 134.245 30.4429 135.285 29.1819 135.285ZM34.7493 136V131.554C35.0353 131.047 35.8543 130.553 36.4523 130.553C36.6083 130.553 36.7253 130.566 36.8423 130.592V129.591C35.9843 129.591 35.2563 130.072 34.7493 130.735V129.721H33.7743V136H34.7493ZM40.8083 136.156C42.7193 136.156 43.9153 134.674 43.9153 132.854C43.9153 131.034 42.7193 129.565 40.8083 129.565C38.8973 129.565 37.7013 131.034 37.7013 132.854C37.7013 134.674 38.8973 136.156 40.8083 136.156ZM40.8083 135.285C39.4693 135.285 38.7153 134.141 38.7153 132.854C38.7153 131.58 39.4693 130.436 40.8083 130.436C42.1473 130.436 42.8883 131.58 42.8883 132.854C42.8883 134.141 42.1473 135.285 40.8083 135.285ZM48.0268 138.548C49.5608 138.548 51.0168 137.898 51.0168 135.818V129.721H50.0418V130.67C49.5348 129.981 48.7808 129.565 47.9358 129.565C46.2848 129.565 45.1408 130.813 45.1408 132.828C45.1408 134.856 46.2978 136.078 47.9358 136.078C48.8198 136.078 49.5868 135.597 50.0418 134.96V135.857C50.0418 137.235 49.0668 137.742 48.0268 137.742C47.1298 137.742 46.5058 137.508 45.9858 136.884L45.4918 137.612C46.2328 138.34 46.9608 138.548 48.0268 138.548ZM48.1698 135.22C46.9088 135.22 46.1548 134.206 46.1548 132.828C46.1548 131.437 46.9088 130.436 48.1698 130.436C48.9498 130.436 49.7038 130.904 50.0418 131.45V134.193C49.7038 134.739 48.9498 135.22 48.1698 135.22ZM53.9446 136V131.554C54.2306 131.047 55.0496 130.553 55.6476 130.553C55.8036 130.553 55.9206 130.566 56.0376 130.592V129.591C55.1796 129.591 54.4516 130.072 53.9446 130.735V129.721H52.9696V136H53.9446ZM62.1616 136V131.684C62.1616 130.163 61.0566 129.565 59.7306 129.565C58.7036 129.565 57.8976 129.903 57.2216 130.605L57.6766 131.281C58.2356 130.683 58.8466 130.41 59.6006 130.41C60.5106 130.41 61.1866 130.891 61.1866 131.736V132.867C60.6796 132.282 59.9646 132.009 59.1066 132.009C58.0406 132.009 56.9096 132.672 56.9096 134.076C56.9096 135.441 58.0406 136.156 59.1066 136.156C59.9516 136.156 60.6666 135.857 61.1866 135.285V136H62.1616ZM59.4576 135.454C58.5476 135.454 57.9106 134.882 57.9106 134.089C57.9106 133.283 58.5476 132.711 59.4576 132.711C60.1466 132.711 60.8096 132.971 61.1866 133.491V134.674C60.8096 135.194 60.1466 135.454 59.4576 135.454ZM72.6701 136V131.463C72.6701 130.202 72.0591 129.565 70.9151 129.565C70.0051 129.565 69.1601 130.163 68.8091 130.735C68.6271 130.085 68.0811 129.565 67.1191 129.565C66.1961 129.565 65.3511 130.228 65.0911 130.631V129.721H64.1161V136H65.0911V131.411C65.4291 130.904 66.1051 130.436 66.7421 130.436C67.5611 130.436 67.8991 130.943 67.8991 131.736V136H68.8741V131.398C69.1991 130.904 69.8881 130.436 70.5381 130.436C71.3441 130.436 71.6951 130.943 71.6951 131.736V136H72.6701Z" fill="#CCCCCC"/>
<path d="M72.9227 7.56475L96.8453 49L72.9226 90.4353L25.0774 90.4353L1.15471 49L25.0774 7.56475L72.9227 7.56475Z" stroke="#CCCCCC" stroke-width="2"/>
<g clip-path="url(#clip0_125_1343)">
<path d="M56.3454 62.3752C56.0236 62.2924 55.6977 62.4918 55.6183 62.8168L55.0183 65.2454C54.9371 65.5716 55.1336 65.9008 55.4548 65.9817C55.5036 65.9942 55.5524 66.0002 55.6007 66.0002C55.8695 66.0002 56.1136 65.8162 56.1818 65.5406L56.7818 63.1121C56.8624 62.7865 56.6665 62.4567 56.3454 62.3752Z" fill="#CCCCCC"/>
<path d="M49 50.2142C49.0782 50.2142 49.1559 50.1993 49.2294 50.1684L55.8294 47.4047C56.1353 47.2767 56.2806 46.9213 56.1541 46.6118C56.0276 46.3017 55.6753 46.1559 55.37 46.2826L49 48.9499L32.2 41.9154V41.7136C32.2 41.3785 31.9312 41.1064 31.6 41.1064C31.2688 41.107 31 41.3791 31 41.7142V42.3213C31 42.5672 31.1465 42.7886 31.3706 42.882L48.7706 50.1678C48.8441 50.1987 48.9218 50.2142 49 50.2142Z" fill="#CCCCCC"/>
<path d="M56.1377 56.4347C55.9912 56.1341 55.6324 56.0103 55.3341 56.1591C54.1947 56.7293 52.2918 57.3924 49.6 57.4829V52.0364C49.6 51.7013 49.3312 51.4293 49 51.4293C48.6688 51.4293 48.4 51.7013 48.4 52.0364V57.4775C40.95 57.237 38.5459 52.6704 38.2 51.9103V47.7859C38.2 47.4507 37.9312 47.1787 37.6 47.1787C37.2688 47.1787 37 47.4507 37 47.7859V52.0359C37 52.1126 37.0147 52.1894 37.0424 52.2614C37.1471 52.5245 39.7006 58.7144 49 58.7144C52.25 58.7144 54.5277 57.9168 55.8659 57.2478C56.1635 57.0989 56.2853 56.7353 56.1377 56.4347Z" fill="#CCCCCC"/>
<path d="M57.9999 62.9648C57.6681 62.9648 57.3999 63.2369 57.3999 63.572V65.3934C57.3999 65.7285 57.6681 66.0006 57.9999 66.0006C58.3317 66.0006 58.5999 65.7285 58.5999 65.3934V63.572C58.5999 63.2369 58.3317 62.9648 57.9999 62.9648Z" fill="#CCCCCC"/>
<path d="M66.4 41.1073C66.0682 41.1073 65.8 41.3793 65.8 41.7144V41.915L58.6 44.9138V43.8168L66.6294 40.4543C66.8535 40.3609 67 40.1394 67 39.8936C67 39.6478 66.8535 39.4269 66.63 39.3329L49.2294 32.046C49.0824 31.9847 48.9182 31.9847 48.7712 32.046L31.3706 39.3317C31.1459 39.4257 31 39.6466 31 39.8924C31 40.1382 31.1465 40.3597 31.3706 40.4531L48.7706 47.7388C48.8441 47.7698 48.9218 47.7853 49 47.7853C49.0782 47.7853 49.1559 47.7704 49.2294 47.7388L55.5212 45.1043C55.8276 44.9769 55.9729 44.6216 55.8465 44.3115C55.72 44.0019 55.3688 43.8555 55.0629 43.9829L49 46.5216L33.1688 39.893L49 33.2638L64.8312 39.893L57.9424 42.7775L51.3441 40.2847C51.3788 40.1585 51.4 40.0287 51.4 39.893C51.4 38.8716 50.3459 38.0716 49 38.0716C47.6541 38.0716 46.6 38.8716 46.6 39.893C46.6 40.9144 47.6541 41.7144 49 41.7144C49.6006 41.7144 50.1365 41.549 50.5529 41.2817L57.4 43.8686V45.8138V45.8144V58.8263C56.7035 59.0781 56.2 59.7454 56.2 60.5359C56.2 61.54 57.0076 62.3573 58 62.3573C58.9924 62.3573 59.8 61.54 59.8 60.5359C59.8 59.7454 59.2965 59.0781 58.6 58.8263V55.3799C60.3224 54.0644 60.94 52.3121 60.9671 52.2341C60.9888 52.1704 61 52.1031 61 52.0359V47.7859C61 47.4507 60.7318 47.1787 60.4 47.1787C60.0682 47.1787 59.8 47.4507 59.8 47.7859V51.9234C59.6965 52.1805 59.3353 52.9746 58.6 53.7573V46.2269L66.6288 42.8835C66.8541 42.79 67 42.568 67 42.3222V41.715C67 41.3793 66.7318 41.1073 66.4 41.1073ZM49 40.5001C48.2676 40.5001 47.8 40.1406 47.8 39.893C47.8 39.6454 48.2676 39.2859 49 39.2859C49.7329 39.2859 50.2 39.6454 50.2 39.893C50.2 40.1406 49.7324 40.5001 49 40.5001ZM58 61.143C57.6688 61.143 57.4 60.8704 57.4 60.5359C57.4 60.2013 57.6688 59.9287 58 59.9287C58.3312 59.9287 58.6 60.2013 58.6 60.5359C58.6 60.8704 58.3312 61.143 58 61.143Z" fill="#CCCCCC"/>
<path d="M60.3819 62.8174C60.3013 62.4924 59.9748 62.2942 59.6548 62.3758C59.3331 62.4573 59.1378 62.7871 59.2183 63.1121L59.8184 65.5406C59.8866 65.8162 60.1307 66.0002 60.3995 66.0002C60.4478 66.0002 60.4966 65.9948 60.5454 65.9817C60.8672 65.9002 61.0625 65.571 60.9825 65.2454L60.3819 62.8174Z" fill="#CCCCCC"/>
</g>
<defs>
<clipPath id="clip0_125_1343">
<rect width="36" height="34" fill="white" transform="translate(31 32)"/>
</clipPath>
</defs>
</svg>
