<svg width="134" height="165" viewBox="0 0 134 165" fill="none" xmlns="http://www.w3.org/2000/svg">
<path d="M35.1941 160V147.994H33.0521L29.3081 157.03L25.5821 147.994H23.4401V160H24.9341V150.118L29.0021 160H29.6141L33.7001 150.118V160H35.1941ZM44.7268 160V154.024C44.7268 151.918 43.1968 151.09 41.3608 151.09C39.9388 151.09 38.8228 151.558 37.8868 152.53L38.5168 153.466C39.2908 152.638 40.1368 152.26 41.1808 152.26C42.4408 152.26 43.3768 152.926 43.3768 154.096V155.662C42.6748 154.852 41.6848 154.474 40.4968 154.474C39.0208 154.474 37.4548 155.392 37.4548 157.336C37.4548 159.226 39.0208 160.216 40.4968 160.216C41.6668 160.216 42.6568 159.802 43.3768 159.01V160H44.7268ZM40.9828 159.244C39.7228 159.244 38.8408 158.452 38.8408 157.354C38.8408 156.238 39.7228 155.446 40.9828 155.446C41.9368 155.446 42.8548 155.806 43.3768 156.526V158.164C42.8548 158.884 41.9368 159.244 40.9828 159.244ZM54.633 160L51.285 155.536L54.435 151.306H52.869L50.457 154.618L48.045 151.306H46.479L49.629 155.536L46.299 160H47.847L50.457 156.436L53.067 160H54.633ZM64.7695 160.216C68.0095 160.216 69.1975 158.434 69.1975 156.688C69.1975 152.206 62.0875 153.754 62.0875 151.054C62.0875 149.92 63.1135 149.146 64.5535 149.146C65.8675 149.146 67.1275 149.596 68.0275 150.586L68.9275 149.488C67.9195 148.426 66.4975 147.814 64.6615 147.814C62.3035 147.814 60.5395 149.164 60.5395 151.144C60.5395 155.428 67.6495 153.718 67.6495 156.814C67.6495 157.732 66.9655 158.884 64.8235 158.884C63.1315 158.884 61.8355 158.056 61.0435 157.174L60.1615 158.308C61.1515 159.424 62.6815 160.216 64.7695 160.216ZM75.6584 160.216C77.9444 160.216 79.5284 158.452 79.5284 155.644C79.5284 152.818 77.9444 151.09 75.6584 151.09C74.4344 151.09 73.3544 151.72 72.7244 152.602V151.306H71.3744V163.312H72.7244V158.686C73.4264 159.658 74.4704 160.216 75.6584 160.216ZM75.3164 159.01C74.2544 159.01 73.1924 158.362 72.7244 157.606V153.682C73.1924 152.926 74.2544 152.296 75.3164 152.296C77.0624 152.296 78.1064 153.718 78.1064 155.644C78.1064 157.57 77.0624 159.01 75.3164 159.01ZM85.5992 160.216C87.0212 160.216 88.1912 159.748 89.0552 158.884L88.4072 158.002C87.7232 158.704 86.7152 159.1 85.7252 159.1C83.8532 159.1 82.7012 157.732 82.5932 156.094H89.6312V155.752C89.6312 153.142 88.0832 151.09 85.4552 151.09C82.9712 151.09 81.1712 153.124 81.1712 155.644C81.1712 158.362 83.0252 160.216 85.5992 160.216ZM88.2992 155.104H82.5932C82.6652 153.772 83.5832 152.206 85.4372 152.206C87.4172 152.206 88.2812 153.808 88.2992 155.104ZM95.7418 160.216C97.1638 160.216 98.3338 159.748 99.1978 158.884L98.5498 158.002C97.8658 158.704 96.8578 159.1 95.8678 159.1C93.9958 159.1 92.8438 157.732 92.7358 156.094H99.7738V155.752C99.7738 153.142 98.2258 151.09 95.5978 151.09C93.1138 151.09 91.3138 153.124 91.3138 155.644C91.3138 158.362 93.1678 160.216 95.7418 160.216ZM98.4418 155.104H92.7358C92.8078 153.772 93.7258 152.206 95.5798 152.206C97.5598 152.206 98.4238 153.808 98.4418 155.104ZM109.61 160V147.994H108.26V152.62C107.558 151.666 106.496 151.09 105.326 151.09C103.04 151.09 101.456 152.89 101.456 155.662C101.456 158.488 103.058 160.216 105.326 160.216C106.55 160.216 107.612 159.586 108.26 158.704V160H109.61ZM105.65 159.01C103.904 159.01 102.86 157.588 102.86 155.662C102.86 153.736 103.904 152.296 105.65 152.296C106.73 152.296 107.774 152.944 108.26 153.7V157.642C107.774 158.398 106.73 159.01 105.65 159.01Z" fill="#999999"/>
<path d="M8.36133 132V108.655H6.54133L1.39633 114.08L2.62133 115.375L6.36633 111.385V132H8.36133ZM21.2629 132.42C25.7429 132.42 29.1729 129.935 29.1729 126.155C29.1729 122.9 26.3729 120.765 23.3979 119.96C26.1629 119.225 28.8229 117.44 28.8229 114.325C28.8229 110.195 24.9029 108.305 21.2629 108.305C17.5529 108.305 13.7029 110.195 13.7029 114.325C13.7029 117.44 16.3629 119.225 19.1279 119.96C16.1529 120.765 13.3179 122.9 13.3179 126.155C13.3179 129.97 16.7479 132.42 21.2629 132.42ZM21.2629 119.12C19.8629 118.84 15.7329 117.79 15.7329 114.535C15.7329 111.735 18.1829 110.125 21.2629 110.125C24.3079 110.125 26.7929 111.735 26.7929 114.535C26.7929 117.79 22.6979 118.84 21.2629 119.12ZM21.2629 130.6C18.1479 130.6 15.3479 128.85 15.3479 126.015C15.3479 122.445 19.8279 121.045 21.2629 120.87C22.6629 121.045 27.1779 122.445 27.1779 126.015C27.1779 128.85 24.3079 130.6 21.2629 130.6ZM35.063 132.35C35.903 132.35 36.638 131.615 36.638 130.775C36.638 129.97 35.903 129.27 35.063 129.27C34.223 129.27 33.523 129.97 33.523 130.775C33.523 131.615 34.223 132.35 35.063 132.35ZM48.2446 132.42C53.2146 132.42 56.0846 128.78 56.0846 124.965C56.0846 119.995 52.7596 117.58 48.5596 117.58C45.4096 117.58 42.7146 119.855 41.7346 121.465C41.6996 121.115 41.6996 120.73 41.6996 120.38C41.6996 115.41 43.5546 110.125 48.5946 110.125C51.1496 110.125 52.5846 111.21 53.7046 112.75L54.8946 111.28C53.4946 109.53 51.6396 108.305 48.5946 108.305C42.1546 108.305 39.6696 114.36 39.6696 120.345C39.6696 126.61 41.9446 132.42 48.2446 132.42ZM48.1746 130.6C43.7996 130.6 42.1196 126.54 41.8396 123.355C43.1696 121.01 45.6546 119.365 48.2096 119.365C51.5696 119.365 54.0546 121.185 54.0546 125C54.0546 127.52 52.1646 130.6 48.1746 130.6ZM91.9167 132V119.82C91.9167 116.425 90.4117 114.675 87.2967 114.675C84.9167 114.675 82.6417 116.285 81.6967 117.86C81.2767 116.215 79.8767 114.675 77.2517 114.675C74.8017 114.675 72.4917 116.565 71.7917 117.65V115.095H69.9717V132H71.7917V119.225C72.8067 117.685 74.8367 116.32 76.6217 116.32C79.0367 116.32 80.0167 117.79 80.0167 120.17V132H81.8717V119.19C82.8167 117.65 84.8817 116.32 86.7017 116.32C89.0817 116.32 90.0967 117.79 90.0967 120.17V132H91.9167ZM105.289 132.42C109.804 132.42 112.849 128.92 112.849 123.53C112.849 118.105 109.804 114.675 105.289 114.675C102.769 114.675 100.599 116.04 99.4089 117.755V115.095H97.5889V138.44H99.4089V129.27C100.774 131.195 102.909 132.42 105.289 132.42ZM104.974 130.775C102.629 130.775 100.389 129.305 99.4089 127.695V119.33C100.389 117.72 102.629 116.32 104.974 116.32C108.754 116.32 110.889 119.435 110.889 123.53C110.889 127.625 108.754 130.775 104.974 130.775ZM130.677 132V120.1C130.677 116.285 128.787 114.675 125.357 114.675C122.907 114.675 120.492 116.18 119.267 117.65V108.655H117.447V132H119.267V119.225C120.352 117.685 122.592 116.32 124.762 116.32C127.212 116.32 128.857 117.23 128.857 120.485V132H130.677Z" fill="url(#paint0_linear_125_891)"/>
<g clip-path="url(#clip0_125_891)">
<path d="M66 48C61.578 48 58 51.584 58 56C58 60.416 61.578 64 66 64C70.422 64 74 60.416 74 56C74 51.582 70.422 48 66 48Z" stroke="#009EFF" stroke-width="2" stroke-miterlimit="10" stroke-linecap="round" stroke-linejoin="round"/>
<path d="M105.918 82.676C108.631 78.6201 110.744 74.129 112.127 69.328C113.347 65.0974 114 60.6261 114 56C114 54.8796 113.962 53.7682 113.886 52.667C113.65 49.2206 113.051 45.8746 112.127 42.667C111.635 40.9592 111.051 39.2906 110.38 37.667C110.031 36.8212 109.658 35.9876 109.263 35.167C108.602 33.7961 107.878 32.4615 107.094 31.167C98.6881 17.2761 83.4362 8 66 8C39.472 8 18 29.472 18 56C18 65.872 20.976 75.042 26.074 82.664" stroke="#999999" stroke-width="2" stroke-miterlimit="10" stroke-linecap="round" stroke-linejoin="round"/>
<path d="M102 78.6386C102.347 78.1269 102.682 77.607 103.005 77.0792C103.59 76.124 104.136 75.1431 104.641 74.1386C105.293 72.8431 105.877 71.5083 106.387 70.1386C106.725 69.2331 107.031 68.3123 107.304 67.3776C107.567 66.4771 107.799 65.5637 107.999 64.6386C108.177 63.8143 108.33 62.9807 108.456 62.1386C108.614 61.0866 108.732 60.0214 108.806 58.9444C108.871 58.0158 108.903 57.0785 108.903 56.1335M105.812 40.667C106.384 42.0368 106.883 43.4444 107.304 44.8852C107.567 45.786 107.799 46.6997 107.999 47.6252C108.213 48.6166 108.39 49.6216 108.53 50.6386" stroke="#009EFF" stroke-width="2" stroke-miterlimit="10" stroke-linecap="round" stroke-linejoin="round"/>
<path d="M96.6216 26.6035C97.6246 27.6982 98.5709 28.8537 99.4544 30.0669C100.007 30.8254 100.535 31.6065 101.036 32.4095C101.574 33.2698 102.081 34.1552 102.557 35.0648" stroke="#009EFF" stroke-width="2" stroke-miterlimit="10" stroke-linecap="round" stroke-linejoin="round"/>
<path d="M61.3804 49.4567L93.9891 33.6958L71.7065 61.6849" stroke="#009EFF" stroke-width="2"/>
</g>
<defs>
<linearGradient id="paint0_linear_125_891" x1="67" y1="100" x2="67" y2="143" gradientUnits="userSpaceOnUse">
<stop stop-color="#009EFF"/>
<stop offset="1" stop-color="#007BCD"/>
</linearGradient>
<clipPath id="clip0_125_891">
<rect width="100" height="100" fill="white" transform="translate(16)"/>
</clipPath>
</defs>
</svg>
