<svg width="100" height="171" viewBox="0 0 100 171" fill="none" xmlns="http://www.w3.org/2000/svg">
<path d="M22.7391 166V153.994H21.2451V159.16H14.2251V153.994H12.7311V166H14.2251V160.492H21.2451V166H22.7391ZM26.1576 156.064C26.6616 156.064 27.0756 155.668 27.0756 155.164C27.0756 154.66 26.6616 154.246 26.1576 154.246C25.6716 154.246 25.2576 154.66 25.2576 155.164C25.2576 155.668 25.6716 156.064 26.1576 156.064ZM26.8416 166V157.306H25.4916V166H26.8416ZM30.8846 166V153.994H29.5346V166H30.8846ZM34.9275 166V153.994H33.5775V166H34.9275ZM48.0031 166.234C49.9651 166.234 51.6031 165.406 52.7191 164.164V159.826H47.1031V161.158H51.2251V163.606C50.6311 164.2 49.4431 164.902 48.0031 164.902C45.3751 164.902 43.3771 162.85 43.3771 160.006C43.3771 157.144 45.3751 155.128 48.0031 155.128C49.4431 155.128 50.7211 155.812 51.4771 156.784L52.6651 156.046C51.6031 154.732 50.1271 153.796 48.0031 153.796C44.5831 153.796 41.8291 156.28 41.8291 160.006C41.8291 163.732 44.5831 166.234 48.0031 166.234ZM56.4432 166V159.844C56.8392 159.142 57.9732 158.458 58.8012 158.458C59.0172 158.458 59.1792 158.476 59.3412 158.512V157.126C58.1532 157.126 57.1452 157.792 56.4432 158.71V157.306H55.0932V166H56.4432ZM67.8206 166V160.024C67.8206 157.918 66.2906 157.09 64.4546 157.09C63.0326 157.09 61.9166 157.558 60.9806 158.53L61.6106 159.466C62.3846 158.638 63.2306 158.26 64.2746 158.26C65.5346 158.26 66.4706 158.926 66.4706 160.096V161.662C65.7686 160.852 64.7786 160.474 63.5906 160.474C62.1146 160.474 60.5486 161.392 60.5486 163.336C60.5486 165.226 62.1146 166.216 63.5906 166.216C64.7606 166.216 65.7506 165.802 66.4706 165.01V166H67.8206ZM64.0766 165.244C62.8166 165.244 61.9346 164.452 61.9346 163.354C61.9346 162.238 62.8166 161.446 64.0766 161.446C65.0306 161.446 65.9486 161.806 66.4706 162.526V164.164C65.9486 164.884 65.0306 165.244 64.0766 165.244ZM78.1768 166V153.994H76.8268V158.62C76.1248 157.666 75.0628 157.09 73.8928 157.09C71.6068 157.09 70.0228 158.89 70.0228 161.662C70.0228 164.488 71.6248 166.216 73.8928 166.216C75.1168 166.216 76.1788 165.586 76.8268 164.704V166H78.1768ZM74.2168 165.01C72.4708 165.01 71.4268 163.588 71.4268 161.662C71.4268 159.736 72.4708 158.296 74.2168 158.296C75.2968 158.296 76.3408 158.944 76.8268 159.7V163.642C76.3408 164.398 75.2968 165.01 74.2168 165.01ZM84.8043 166.216C86.2263 166.216 87.3963 165.748 88.2603 164.884L87.6123 164.002C86.9283 164.704 85.9203 165.1 84.9303 165.1C83.0583 165.1 81.9063 163.732 81.7983 162.094H88.8363V161.752C88.8363 159.142 87.2883 157.09 84.6603 157.09C82.1763 157.09 80.3763 159.124 80.3763 161.644C80.3763 164.362 82.2303 166.216 84.8043 166.216ZM87.5043 161.104H81.7983C81.8703 159.772 82.7883 158.206 84.6423 158.206C86.6223 158.206 87.4863 159.808 87.5043 161.104Z" fill="#999999"/>
<path d="M35.4323 138V136.18H23.1473C29.9023 130.72 35.3273 126.03 35.3273 120.885C35.3273 116.265 31.4073 114.305 27.9773 114.305C24.6873 114.305 21.8523 115.67 20.2073 117.91L21.5723 119.17C22.8323 117.385 25.0723 116.125 27.9773 116.125C30.5323 116.125 33.2973 117.525 33.2973 120.885C33.2973 125.4 27.9773 129.95 20.0323 136.355V138H35.4323ZM49.1184 138.42C55.3484 138.42 57.7284 131.875 57.7284 126.345C57.7284 120.78 55.3484 114.305 49.1184 114.305C42.8184 114.305 40.4734 120.78 40.4734 126.345C40.4734 131.875 42.8184 138.42 49.1184 138.42ZM49.1184 136.6C44.1834 136.6 42.5734 131.14 42.5734 126.345C42.5734 121.515 44.1834 116.125 49.1184 116.125C54.0184 116.125 55.5934 121.515 55.5934 126.345C55.5934 131.14 53.9834 136.6 49.1184 136.6ZM66.3873 125.75C69.6423 125.75 71.8823 123.335 71.8823 120.08C71.8823 116.79 69.6423 114.305 66.3873 114.305C63.1673 114.305 60.9273 116.79 60.9273 120.08C60.9273 123.335 63.1673 125.75 66.3873 125.75ZM65.7923 138L80.7373 114.655H79.1273L64.2173 138H65.7923ZM78.2873 138.42C81.5073 138.42 83.7823 135.97 83.7823 132.715C83.7823 129.425 81.5073 126.94 78.2873 126.94C75.0673 126.94 72.7923 129.425 72.7923 132.715C72.7923 135.97 75.0673 138.42 78.2873 138.42ZM66.3873 124.42C64.1123 124.42 62.5373 122.425 62.5373 120.08C62.5373 117.63 64.1123 115.67 66.3873 115.67C68.6973 115.67 70.2723 117.63 70.2723 120.08C70.2723 122.425 68.6973 124.42 66.3873 124.42ZM78.2873 137.055C75.9773 137.055 74.4023 135.095 74.4023 132.715C74.4023 130.3 75.9773 128.305 78.2873 128.305C80.5973 128.305 82.1373 130.3 82.1373 132.715C82.1373 135.095 80.5973 137.055 78.2873 137.055Z" fill="url(#paint0_linear_125_904)"/>
<g clip-path="url(#clip0_125_904)">
<path d="M31.2189 60.6477C35.4361 64.4563 38.8104 69.1045 41.1252 74.294C43.44 79.4836 44.6442 85.0998 44.6604 90.7822" stroke="#009EFF" stroke-width="2"/>
<path d="M90 91H3.5L90 -1" stroke="#999999" stroke-width="2" stroke-linecap="round"/>
<path d="M60 38.5L90 8" stroke="#009EFF" stroke-width="2" stroke-linecap="round"/>
<path d="M48.5 50.5L56 43" stroke="#009EFF" stroke-width="2" stroke-linecap="round"/>
</g>
<defs>
<linearGradient id="paint0_linear_125_904" x1="51.5" y1="106" x2="51.5" y2="149" gradientUnits="userSpaceOnUse">
<stop stop-color="#009EFF"/>
<stop offset="1" stop-color="#007BCD"/>
</linearGradient>
<clipPath id="clip0_125_904">
<rect width="100" height="100" fill="white"/>
</clipPath>
</defs>
</svg>
