<svg width="154" height="165" viewBox="0 0 154 165" fill="none" xmlns="http://www.w3.org/2000/svg">
<path d="M45.1951 160V147.994H43.0531L39.3091 157.03L35.5831 147.994H33.4411V160H34.9351V150.118L39.0031 160H39.6151L43.7011 150.118V160H45.1951ZM54.7278 160V154.024C54.7278 151.918 53.1978 151.09 51.3618 151.09C49.9398 151.09 48.8238 151.558 47.8878 152.53L48.5178 153.466C49.2918 152.638 50.1378 152.26 51.1818 152.26C52.4418 152.26 53.3778 152.926 53.3778 154.096V155.662C52.6758 154.852 51.6858 154.474 50.4978 154.474C49.0218 154.474 47.4558 155.392 47.4558 157.336C47.4558 159.226 49.0218 160.216 50.4978 160.216C51.6678 160.216 52.6578 159.802 53.3778 159.01V160H54.7278ZM50.9838 159.244C49.7238 159.244 48.8418 158.452 48.8418 157.354C48.8418 156.238 49.7238 155.446 50.9838 155.446C51.9378 155.446 52.8558 155.806 53.3778 156.526V158.164C52.8558 158.884 51.9378 159.244 50.9838 159.244ZM64.634 160L61.286 155.536L64.436 151.306H62.87L60.458 154.618L58.046 151.306H56.48L59.63 155.536L56.3 160H57.848L60.458 156.436L63.068 160H64.634ZM79.5945 160L76.3545 155.104C77.9925 154.96 79.4685 153.772 79.4685 151.612C79.4685 149.398 77.9025 147.994 75.7065 147.994H70.8825V160H72.3765V155.23H74.7705L77.8305 160H79.5945ZM75.5265 153.916H72.3765V149.326H75.5265C76.9485 149.326 77.9205 150.262 77.9205 151.612C77.9205 152.962 76.9485 153.916 75.5265 153.916ZM88.2141 160V154.024C88.2141 151.918 86.6841 151.09 84.8481 151.09C83.4261 151.09 82.3101 151.558 81.3741 152.53L82.0041 153.466C82.7781 152.638 83.6241 152.26 84.6681 152.26C85.9281 152.26 86.8641 152.926 86.8641 154.096V155.662C86.1621 154.852 85.1721 154.474 83.9841 154.474C82.5081 154.474 80.9421 155.392 80.9421 157.336C80.9421 159.226 82.5081 160.216 83.9841 160.216C85.1541 160.216 86.1441 159.802 86.8641 159.01V160H88.2141ZM84.4701 159.244C83.2101 159.244 82.3281 158.452 82.3281 157.354C82.3281 156.238 83.2101 155.446 84.4701 155.446C85.4241 155.446 86.3421 155.806 86.8641 156.526V158.164C86.3421 158.884 85.4241 159.244 84.4701 159.244ZM98.1383 160V153.898C98.1383 152.008 97.1843 151.09 95.3663 151.09C94.0703 151.09 92.8823 151.846 92.2703 152.566V151.306H90.9203V160H92.2703V153.646C92.7743 152.944 93.7823 152.296 94.8443 152.296C96.0143 152.296 96.7883 152.782 96.7883 154.312V160H98.1383ZM104.326 163.528C106.45 163.528 108.466 162.628 108.466 159.748V151.306H107.116V152.62C106.414 151.666 105.37 151.09 104.2 151.09C101.914 151.09 100.33 152.818 100.33 155.608C100.33 158.416 101.932 160.108 104.2 160.108C105.424 160.108 106.486 159.442 107.116 158.56V159.802C107.116 161.71 105.766 162.412 104.326 162.412C103.084 162.412 102.22 162.088 101.5 161.224L100.816 162.232C101.842 163.24 102.85 163.528 104.326 163.528ZM104.524 158.92C102.778 158.92 101.734 157.516 101.734 155.608C101.734 153.682 102.778 152.296 104.524 152.296C105.604 152.296 106.648 152.944 107.116 153.7V157.498C106.648 158.254 105.604 158.92 104.524 158.92ZM115.094 160.216C116.516 160.216 117.686 159.748 118.55 158.884L117.902 158.002C117.218 158.704 116.21 159.1 115.22 159.1C113.348 159.1 112.196 157.732 112.088 156.094H119.126V155.752C119.126 153.142 117.578 151.09 114.95 151.09C112.466 151.09 110.666 153.124 110.666 155.644C110.666 158.362 112.52 160.216 115.094 160.216ZM117.794 155.104H112.088C112.16 153.772 113.078 152.206 114.932 152.206C116.912 152.206 117.776 153.808 117.794 155.104Z" fill="#999999"/>
<path d="M14.7004 132V125.63H18.1304V123.81H14.7004V108.655H12.0054L1.64541 123.845V125.63H12.7054V132H14.7004ZM12.7054 123.81H3.71041L12.7054 110.65V123.81ZM30.031 132.42C36.261 132.42 38.641 125.875 38.641 120.345C38.641 114.78 36.261 108.305 30.031 108.305C23.731 108.305 21.386 114.78 21.386 120.345C21.386 125.875 23.731 132.42 30.031 132.42ZM30.031 130.6C25.096 130.6 23.486 125.14 23.486 120.345C23.486 115.515 25.096 110.125 30.031 110.125C34.931 110.125 36.506 115.515 36.506 120.345C36.506 125.14 34.896 130.6 30.031 130.6ZM43.2003 132.35C44.0403 132.35 44.7753 131.615 44.7753 130.775C44.7753 129.97 44.0403 129.27 43.2003 129.27C42.3603 129.27 41.6603 129.97 41.6603 130.775C41.6603 131.615 42.3603 132.35 43.2003 132.35ZM61.3215 132V125.63H64.7515V123.81H61.3215V108.655H58.6265L48.2665 123.845V125.63H59.3265V132H61.3215ZM59.3265 123.81H50.3315L59.3265 110.65V123.81ZM99.7797 132V108.655H96.7697L88.8597 127.905L80.9147 108.655H77.9397V132H79.9347V111.385L88.4747 132H89.2447L97.7497 111.385V132H99.7797ZM106.431 112.435C107.201 112.435 107.831 111.805 107.831 111.035C107.831 110.265 107.201 109.67 106.431 109.67C105.696 109.67 105.031 110.265 105.031 111.035C105.031 111.805 105.696 112.435 106.431 112.435ZM107.341 132V115.095H105.521V132H107.341ZM114.826 132V108.655H113.006V132H114.826ZM127.982 132.42C130.782 132.42 132.917 131.44 134.597 129.69L133.652 128.5C132.217 130.04 130.257 130.845 128.122 130.845C124.132 130.845 121.682 127.8 121.507 124.125H135.647V123.635C135.647 118.77 132.812 114.675 127.667 114.675C122.977 114.675 119.512 118.63 119.512 123.53C119.512 128.745 123.047 132.42 127.982 132.42ZM133.792 122.69H121.507C121.647 119.75 123.642 116.25 127.632 116.25C131.867 116.25 133.757 119.82 133.792 122.69ZM145.39 132.42C149.625 132.42 151.725 130.18 151.725 127.45C151.725 120.94 141.05 123.53 141.05 119.295C141.05 117.545 142.66 116.215 145.285 116.215C147.525 116.215 149.345 117.125 150.325 118.455L151.34 117.16C150.115 115.795 148.19 114.675 145.285 114.675C141.47 114.675 139.265 116.775 139.265 119.365C139.265 125.42 149.94 122.83 149.94 127.45C149.94 129.41 148.26 130.88 145.425 130.88C143.045 130.88 141.05 129.76 139.965 128.395L138.88 129.76C140.56 131.615 142.66 132.42 145.39 132.42Z" fill="url(#paint0_linear_125_913)"/>
<path d="M76 12.5H62.2955C53.3208 12.5 46.0455 19.7754 46.0455 28.75V28.75C46.0455 37.7246 53.3208 45 62.2955 45H97.25C106.225 45 113.5 52.2754 113.5 61.25V61.25C113.5 70.2246 106.225 77.5 97.25 77.5H80.5M75 77.5H64.5M82.5 12.5H94" stroke="#999999" stroke-width="2" stroke-linecap="round"/>
<path d="M75 77.5H64.5M82.5 12.5H94" stroke="#009EFF" stroke-width="2" stroke-linecap="round"/>
<circle r="10.25" transform="matrix(-1 0 0 1 109.75 11.25)" fill="#F5F5F5" stroke="#009EFF" stroke-width="2"/>
<circle r="10.25" transform="matrix(-1 0 0 1 49.75 78.75)" fill="#F5F5F5" stroke="#009EFF" stroke-width="2"/>
<defs>
<linearGradient id="paint0_linear_125_913" x1="77" y1="100" x2="77" y2="143" gradientUnits="userSpaceOnUse">
<stop stop-color="#009EFF"/>
<stop offset="1" stop-color="#007BCD"/>
</linearGradient>
</defs>
</svg>
