<svg width="110" height="171" viewBox="0 0 110 171" fill="none" xmlns="http://www.w3.org/2000/svg">
<path d="M2.97515 166V160.528H9.22115V159.196H2.97515V155.326H9.34715V153.994H1.48115V166H2.97515ZM18.1096 166V160.024C18.1096 157.918 16.5796 157.09 14.7436 157.09C13.3216 157.09 12.2056 157.558 11.2696 158.53L11.8996 159.466C12.6736 158.638 13.5196 158.26 14.5636 158.26C15.8236 158.26 16.7596 158.926 16.7596 160.096V161.662C16.0576 160.852 15.0676 160.474 13.8796 160.474C12.4036 160.474 10.8376 161.392 10.8376 163.336C10.8376 165.226 12.4036 166.216 13.8796 166.216C15.0496 166.216 16.0396 165.802 16.7596 165.01V166H18.1096ZM14.3656 165.244C13.1056 165.244 12.2236 164.452 12.2236 163.354C12.2236 162.238 13.1056 161.446 14.3656 161.446C15.3196 161.446 16.2376 161.806 16.7596 162.526V164.164C16.2376 164.884 15.3196 165.244 14.3656 165.244ZM23.5698 166.216C25.8198 166.216 26.9898 165.046 26.9898 163.588C26.9898 160.204 21.6078 161.464 21.6078 159.556C21.6078 158.782 22.3458 158.188 23.5338 158.188C24.6498 158.188 25.6038 158.656 26.1258 159.286L26.7558 158.35C26.0538 157.648 25.0098 157.09 23.5338 157.09C21.4638 157.09 20.2938 158.242 20.2938 159.592C20.2938 162.814 25.6758 161.518 25.6758 163.624C25.6758 164.488 24.9558 165.118 23.6238 165.118C22.4358 165.118 21.3378 164.542 20.7618 163.876L20.0598 164.848C20.9418 165.784 22.1478 166.216 23.5698 166.216ZM31.379 166.216C32.171 166.216 32.657 165.982 32.999 165.658L32.603 164.65C32.423 164.848 32.063 165.01 31.685 165.01C31.091 165.01 30.803 164.542 30.803 163.894V158.494H32.567V157.306H30.803V154.93H29.453V157.306H28.013V158.494H29.453V164.182C29.453 165.478 30.101 166.216 31.379 166.216ZM44.8566 166.216C46.9806 166.216 48.4206 165.208 49.4286 163.84L48.1506 163.138C47.4666 164.164 46.2246 164.884 44.8566 164.884C42.2286 164.884 40.2306 162.85 40.2306 160.006C40.2306 157.144 42.2286 155.128 44.8566 155.128C46.2246 155.128 47.4666 155.866 48.1506 156.874L49.4106 156.172C48.4566 154.822 46.9806 153.796 44.8566 153.796C41.4006 153.796 38.6826 156.316 38.6826 160.006C38.6826 163.696 41.4006 166.216 44.8566 166.216ZM58.5147 166V159.862C58.5147 157.972 57.5607 157.09 55.7427 157.09C54.4287 157.09 53.2407 157.846 52.6287 158.566V153.994H51.2787V166H52.6287V159.646C53.1507 158.944 54.1587 158.296 55.2027 158.296C56.3727 158.296 57.1647 158.746 57.1647 160.276V166H58.5147ZM67.9964 166V160.024C67.9964 157.918 66.4664 157.09 64.6304 157.09C63.2084 157.09 62.0924 157.558 61.1564 158.53L61.7864 159.466C62.5604 158.638 63.4064 158.26 64.4504 158.26C65.7104 158.26 66.6464 158.926 66.6464 160.096V161.662C65.9444 160.852 64.9544 160.474 63.7664 160.474C62.2904 160.474 60.7244 161.392 60.7244 163.336C60.7244 165.226 62.2904 166.216 63.7664 166.216C64.9364 166.216 65.9264 165.802 66.6464 165.01V166H67.9964ZM64.2524 165.244C62.9924 165.244 62.1104 164.452 62.1104 163.354C62.1104 162.238 62.9924 161.446 64.2524 161.446C65.2064 161.446 66.1244 161.806 66.6464 162.526V164.164C66.1244 164.884 65.2064 165.244 64.2524 165.244ZM72.0525 166V159.844C72.4485 159.142 73.5825 158.458 74.4105 158.458C74.6265 158.458 74.7885 158.476 74.9505 158.512V157.126C73.7625 157.126 72.7545 157.792 72.0525 158.71V157.306H70.7025V166H72.0525ZM80.1359 169.528C82.2599 169.528 84.2759 168.628 84.2759 165.748V157.306H82.9259V158.62C82.2239 157.666 81.1799 157.09 80.0099 157.09C77.7239 157.09 76.1399 158.818 76.1399 161.608C76.1399 164.416 77.7419 166.108 80.0099 166.108C81.2339 166.108 82.2959 165.442 82.9259 164.56V165.802C82.9259 167.71 81.5759 168.412 80.1359 168.412C78.8939 168.412 78.0299 168.088 77.3099 167.224L76.6259 168.232C77.6519 169.24 78.6599 169.528 80.1359 169.528ZM80.3339 164.92C78.5879 164.92 77.5439 163.516 77.5439 161.608C77.5439 159.682 78.5879 158.296 80.3339 158.296C81.4139 158.296 82.4579 158.944 82.9259 159.7V163.498C82.4579 164.254 81.4139 164.92 80.3339 164.92ZM87.6459 156.064C88.1499 156.064 88.5639 155.668 88.5639 155.164C88.5639 154.66 88.1499 154.246 87.6459 154.246C87.1599 154.246 86.7459 154.66 86.7459 155.164C86.7459 155.668 87.1599 156.064 87.6459 156.064ZM88.3299 166V157.306H86.9799V166H88.3299ZM98.2409 166V159.898C98.2409 158.008 97.2869 157.09 95.4689 157.09C94.1729 157.09 92.9849 157.846 92.3729 158.566V157.306H91.0229V166H92.3729V159.646C92.8769 158.944 93.8849 158.296 94.9469 158.296C96.1169 158.296 96.8909 158.782 96.8909 160.312V166H98.2409ZM104.429 169.528C106.553 169.528 108.569 168.628 108.569 165.748V157.306H107.219V158.62C106.517 157.666 105.473 157.09 104.303 157.09C102.017 157.09 100.433 158.818 100.433 161.608C100.433 164.416 102.035 166.108 104.303 166.108C105.527 166.108 106.589 165.442 107.219 164.56V165.802C107.219 167.71 105.869 168.412 104.429 168.412C103.187 168.412 102.323 168.088 101.603 167.224L100.919 168.232C101.945 169.24 102.953 169.528 104.429 169.528ZM104.627 164.92C102.881 164.92 101.837 163.516 101.837 161.608C101.837 159.682 102.881 158.296 104.627 158.296C105.707 158.296 106.751 158.944 107.219 159.7V163.498C106.751 164.254 105.707 164.92 104.627 164.92Z" fill="#999999"/>
<path d="M43.0806 138.42C48.0506 138.42 50.9206 134.78 50.9206 130.965C50.9206 125.995 47.5956 123.58 43.3956 123.58C40.2456 123.58 37.5506 125.855 36.5706 127.465C36.5356 127.115 36.5356 126.73 36.5356 126.38C36.5356 121.41 38.3906 116.125 43.4306 116.125C45.9856 116.125 47.4206 117.21 48.5406 118.75L49.7306 117.28C48.3306 115.53 46.4756 114.305 43.4306 114.305C36.9906 114.305 34.5056 120.36 34.5056 126.345C34.5056 132.61 36.7806 138.42 43.0806 138.42ZM43.0106 136.6C38.6356 136.6 36.9556 132.54 36.6756 129.355C38.0056 127.01 40.4906 125.365 43.0456 125.365C46.4056 125.365 48.8906 127.185 48.8906 131C48.8906 133.52 47.0006 136.6 43.0106 136.6ZM74.65 138V114.655H72.62V125.085H57.815V114.655H55.82V138H57.815V126.905H72.62V138H74.65Z" fill="url(#paint0_linear_125_965)"/>
<g clip-path="url(#clip0_125_965)">
<path d="M81.7928 23.2071C87.092 28.5063 90.7007 35.2578 92.1627 42.6079C93.6248 49.958 92.8744 57.5766 90.0065 64.5003C87.1387 71.424 82.2821 77.3417 76.0509 81.5052C69.8198 85.6687 62.494 87.891 54.9999 87.891" stroke="#009EFF" stroke-width="2" stroke-linecap="round"/>
<path d="M55.0001 12.1091C61.6514 12.1091 68.1854 13.8599 73.9456 17.1855" stroke="#009EFF" stroke-width="2" stroke-linecap="round"/>
<circle cx="55" cy="50" r="44" stroke="#999999" stroke-width="2"/>
<circle cx="55" cy="50" r="4" fill="#999999"/>
<rect x="54" y="18" width="2" height="32" rx="1" fill="#999999"/>
<rect x="54" y="50.7319" width="2" height="24.9611" rx="1" transform="rotate(-60 54 50.7319)" fill="#999999"/>
</g>
<defs>
<linearGradient id="paint0_linear_125_965" x1="55" y1="106" x2="55" y2="149" gradientUnits="userSpaceOnUse">
<stop stop-color="#009EFF"/>
<stop offset="1" stop-color="#007BCD"/>
</linearGradient>
<clipPath id="clip0_125_965">
<rect width="100" height="100" fill="white" transform="translate(5)"/>
</clipPath>
</defs>
</svg>
