<svg width="123" height="163" viewBox="0 0 123 163" fill="none" xmlns="http://www.w3.org/2000/svg">
<path d="M12.33 158L15.75 145.994H14.094L11.448 156.002L8.69398 145.994H7.45198L4.69798 156.002L2.03398 145.994H0.377977L3.79798 158H5.41798L8.06398 148.316L10.71 158H12.33ZM23.4319 158V152.024C23.4319 149.918 21.9019 149.09 20.0659 149.09C18.6439 149.09 17.5279 149.558 16.5919 150.53L17.2219 151.466C17.9959 150.638 18.8419 150.26 19.8859 150.26C21.1459 150.26 22.0819 150.926 22.0819 152.096V153.662C21.3799 152.852 20.3899 152.474 19.2019 152.474C17.7259 152.474 16.1599 153.392 16.1599 155.336C16.1599 157.226 17.7259 158.216 19.2019 158.216C20.3719 158.216 21.3619 157.802 22.0819 157.01V158H23.4319ZM19.6879 157.244C18.4279 157.244 17.5459 156.452 17.5459 155.354C17.5459 154.238 18.4279 153.446 19.6879 153.446C20.6419 153.446 21.5599 153.806 22.0819 154.526V156.164C21.5599 156.884 20.6419 157.244 19.6879 157.244ZM28.3341 158.216C29.1261 158.216 29.6121 157.982 29.9541 157.658L29.5581 156.65C29.3781 156.848 29.0181 157.01 28.6401 157.01C28.0461 157.01 27.7581 156.542 27.7581 155.894V150.494H29.5221V149.306H27.7581V146.93H26.4081V149.306H24.9681V150.494H26.4081V156.182C26.4081 157.478 27.0561 158.216 28.3341 158.216ZM35.3531 158.216C36.7751 158.216 37.9451 157.748 38.8091 156.884L38.1611 156.002C37.4771 156.704 36.4691 157.1 35.4791 157.1C33.6071 157.1 32.4551 155.732 32.3471 154.094H39.3851V153.752C39.3851 151.142 37.8371 149.09 35.2091 149.09C32.7251 149.09 30.9251 151.124 30.9251 153.644C30.9251 156.362 32.7791 158.216 35.3531 158.216ZM38.0531 153.104H32.3471C32.4191 151.772 33.3371 150.206 35.1911 150.206C37.1711 150.206 38.0351 151.808 38.0531 153.104ZM42.9217 158V151.844C43.3177 151.142 44.4517 150.458 45.2797 150.458C45.4957 150.458 45.6577 150.476 45.8197 150.512V149.126C44.6317 149.126 43.6237 149.792 42.9217 150.71V149.306H41.5717V158H42.9217ZM51.0231 154.238V153.05H46.7031V154.238H51.0231ZM61.6756 158L58.4356 153.104C60.0736 152.96 61.5496 151.772 61.5496 149.612C61.5496 147.398 59.9836 145.994 57.7876 145.994H52.9636V158H54.4576V153.23H56.8516L59.9116 158H61.6756ZM57.6076 151.916H54.4576V147.326H57.6076C59.0296 147.326 60.0016 148.262 60.0016 149.612C60.0016 150.962 59.0296 151.916 57.6076 151.916ZM67.2398 158.216C68.6618 158.216 69.8318 157.748 70.6958 156.884L70.0478 156.002C69.3638 156.704 68.3558 157.1 67.3658 157.1C65.4938 157.1 64.3418 155.732 64.2338 154.094H71.2718V153.752C71.2718 151.142 69.7238 149.09 67.0958 149.09C64.6118 149.09 62.8118 151.124 62.8118 153.644C62.8118 156.362 64.6658 158.216 67.2398 158.216ZM69.9398 153.104H64.2338C64.3058 151.772 65.2238 150.206 67.0778 150.206C69.0578 150.206 69.9218 151.808 69.9398 153.104ZM76.2124 158.216C78.4624 158.216 79.6324 157.046 79.6324 155.588C79.6324 152.204 74.2504 153.464 74.2504 151.556C74.2504 150.782 74.9884 150.188 76.1764 150.188C77.2924 150.188 78.2464 150.656 78.7684 151.286L79.3984 150.35C78.6964 149.648 77.6524 149.09 76.1764 149.09C74.1064 149.09 72.9364 150.242 72.9364 151.592C72.9364 154.814 78.3184 153.518 78.3184 155.624C78.3184 156.488 77.5984 157.118 76.2664 157.118C75.0784 157.118 73.9804 156.542 73.4044 155.876L72.7024 156.848C73.5844 157.784 74.7904 158.216 76.2124 158.216ZM82.4916 148.064C82.9956 148.064 83.4096 147.668 83.4096 147.164C83.4096 146.66 82.9956 146.246 82.4916 146.246C82.0056 146.246 81.5916 146.66 81.5916 147.164C81.5916 147.668 82.0056 148.064 82.4916 148.064ZM83.1756 158V149.306H81.8256V158H83.1756ZM88.6226 158.216C90.8726 158.216 92.0426 157.046 92.0426 155.588C92.0426 152.204 86.6606 153.464 86.6606 151.556C86.6606 150.782 87.3986 150.188 88.5866 150.188C89.7026 150.188 90.6566 150.656 91.1786 151.286L91.8086 150.35C91.1066 149.648 90.0626 149.09 88.5866 149.09C86.5166 149.09 85.3466 150.242 85.3466 151.592C85.3466 154.814 90.7286 153.518 90.7286 155.624C90.7286 156.488 90.0086 157.118 88.6766 157.118C87.4886 157.118 86.3906 156.542 85.8146 155.876L85.1126 156.848C85.9946 157.784 87.2006 158.216 88.6226 158.216ZM96.4317 158.216C97.2237 158.216 97.7097 157.982 98.0517 157.658L97.6557 156.65C97.4757 156.848 97.1157 157.01 96.7377 157.01C96.1437 157.01 95.8557 156.542 95.8557 155.894V150.494H97.6197V149.306H95.8557V146.93H94.5057V149.306H93.0657V150.494H94.5057V156.182C94.5057 157.478 95.1537 158.216 96.4317 158.216ZM106.313 158V152.024C106.313 149.918 104.783 149.09 102.947 149.09C101.525 149.09 100.409 149.558 99.4728 150.53L100.103 151.466C100.877 150.638 101.723 150.26 102.767 150.26C104.027 150.26 104.963 150.926 104.963 152.096V153.662C104.261 152.852 103.271 152.474 102.083 152.474C100.607 152.474 99.0408 153.392 99.0408 155.336C99.0408 157.226 100.607 158.216 102.083 158.216C103.253 158.216 104.243 157.802 104.963 157.01V158H106.313ZM102.569 157.244C101.309 157.244 100.427 156.452 100.427 155.354C100.427 154.238 101.309 153.446 102.569 153.446C103.523 153.446 104.441 153.806 104.963 154.526V156.164C104.441 156.884 103.523 157.244 102.569 157.244ZM116.237 158V151.898C116.237 150.008 115.283 149.09 113.465 149.09C112.169 149.09 110.981 149.846 110.369 150.566V149.306H109.019V158H110.369V151.646C110.873 150.944 111.881 150.296 112.943 150.296C114.113 150.296 114.887 150.782 114.887 152.312V158H116.237ZM121.129 158.216C121.921 158.216 122.407 157.982 122.749 157.658L122.353 156.65C122.173 156.848 121.813 157.01 121.435 157.01C120.841 157.01 120.553 156.542 120.553 155.894V150.494H122.317V149.306H120.553V146.93H119.203V149.306H117.763V150.494H119.203V156.182C119.203 157.478 119.851 158.216 121.129 158.216Z" fill="#999999"/>
<path d="M31.1266 130V106.655H29.1316V130H31.1266ZM38.9195 130V120.305H45.6745C50.1195 120.305 52.7095 117.155 52.7095 113.48C52.7095 109.805 50.1545 106.655 45.6745 106.655H36.9245V130H38.9195ZM45.4645 118.485H38.9195V108.475H45.4645C48.5445 108.475 50.6095 110.54 50.6095 113.48C50.6095 116.42 48.5445 118.485 45.4645 118.485ZM75.7538 130L66.3738 117.995L75.2288 106.655H72.7088L65.1138 116.56L57.5538 106.655H54.9987L63.8888 118.03L54.4738 130H56.9938L65.1138 119.465L73.2688 130H75.7538ZM86.8673 130.42C91.1723 130.42 94.7423 127.55 94.7423 122.895C94.7423 118.03 91.2073 115.44 87.2873 115.44C84.8723 115.44 82.8773 116.49 81.7223 117.61V108.475H93.2023V106.655H79.7273V118.905L81.2323 119.535C82.9473 117.96 84.7673 117.26 86.9023 117.26C90.2623 117.26 92.7123 119.43 92.7123 122.965C92.7123 126.15 90.2273 128.6 86.8673 128.6C83.8573 128.6 81.8273 127.41 80.3223 125.275L78.9923 126.605C80.6023 128.915 82.9823 130.42 86.8673 130.42Z" fill="url(#paint0_linear_125_945)"/>
<path d="M85.9766 61.8555C85.9766 68.4797 83.3451 74.8326 78.6611 79.5166C73.9771 84.2006 67.6242 86.832 61 86.832C54.3758 86.832 48.0229 84.2006 43.3389 79.5166C38.6549 74.8326 36.0234 68.4797 36.0234 61.8555C36.0234 48.0627 61 5.16406 61 5.16406C61 5.16406 85.9766 48.0627 85.9766 61.8555Z" stroke="#999999" stroke-width="2" stroke-linecap="round" stroke-linejoin="round"/>
<path d="M46.6824 72.0726C45.1161 69.8845 44.0757 67.3647 43.6421 64.709" stroke="#009EFF" stroke-width="2" stroke-linecap="round" stroke-linejoin="round"/>
<path d="M50.8261 76.1875L50.5781 76.0078" stroke="#009EFF" stroke-width="2" stroke-linecap="round" stroke-linejoin="round"/>
<defs>
<linearGradient id="paint0_linear_125_945" x1="61.5" y1="98" x2="61.5" y2="141" gradientUnits="userSpaceOnUse">
<stop stop-color="#009EFF"/>
<stop offset="1" stop-color="#007BCD"/>
</linearGradient>
</defs>
</svg>
