<svg width="130" height="165" viewBox="0 0 130 165" fill="none" xmlns="http://www.w3.org/2000/svg">
<path d="M2.99956 160V154.528H9.24556V153.196H2.99956V149.326H9.37156V147.994H1.50556V160H2.99956ZM12.698 160V153.844C13.094 153.142 14.228 152.458 15.056 152.458C15.272 152.458 15.434 152.476 15.596 152.512V151.126C14.408 151.126 13.4 151.792 12.698 152.71V151.306H11.348V160H12.698ZM21.0875 160.216C23.7335 160.216 25.3895 158.164 25.3895 155.644C25.3895 153.124 23.7335 151.09 21.0875 151.09C18.4415 151.09 16.7855 153.124 16.7855 155.644C16.7855 158.164 18.4415 160.216 21.0875 160.216ZM21.0875 159.01C19.2335 159.01 18.1895 157.426 18.1895 155.644C18.1895 153.88 19.2335 152.296 21.0875 152.296C22.9415 152.296 23.9675 153.88 23.9675 155.644C23.9675 157.426 22.9415 159.01 21.0875 159.01ZM34.8082 160V153.898C34.8082 152.008 33.8542 151.09 32.0362 151.09C30.7402 151.09 29.5522 151.846 28.9402 152.566V151.306H27.5902V160H28.9402V153.646C29.4442 152.944 30.4522 152.296 31.5142 152.296C32.6842 152.296 33.4582 152.782 33.4582 154.312V160H34.8082ZM39.7003 160.216C40.4923 160.216 40.9783 159.982 41.3203 159.658L40.9243 158.65C40.7443 158.848 40.3843 159.01 40.0063 159.01C39.4123 159.01 39.1243 158.542 39.1243 157.894V152.494H40.8883V151.306H39.1243V148.93H37.7743V151.306H36.3343V152.494H37.7743V158.182C37.7743 159.478 38.4223 160.216 39.7003 160.216ZM54.5639 160V158.668H48.9839V147.994H47.4899V160H54.5639ZM64.5317 160V158.668H58.1597V154.528H64.4057V153.196H58.1597V149.326H64.5317V147.994H56.6657V160H64.5317ZM71.0178 160C74.7438 160 77.1738 157.426 77.1738 154.006C77.1738 150.604 74.7438 147.994 71.0178 147.994H66.9138V160H71.0178ZM71.0178 158.668H68.4078V149.326H71.0178C73.9878 149.326 75.6258 151.414 75.6258 154.006C75.6258 156.58 73.9338 158.668 71.0178 158.668ZM91.2319 160V158.668H85.6519V147.994H84.1579V160H91.2319ZM93.9457 150.064C94.4497 150.064 94.8637 149.668 94.8637 149.164C94.8637 148.66 94.4497 148.246 93.9457 148.246C93.4597 148.246 93.0457 148.66 93.0457 149.164C93.0457 149.668 93.4597 150.064 93.9457 150.064ZM94.6297 160V151.306H93.2797V160H94.6297ZM100.815 163.528C102.939 163.528 104.955 162.628 104.955 159.748V151.306H103.605V152.62C102.903 151.666 101.859 151.09 100.689 151.09C98.4027 151.09 96.8187 152.818 96.8187 155.608C96.8187 158.416 98.4207 160.108 100.689 160.108C101.913 160.108 102.975 159.442 103.605 158.56V159.802C103.605 161.71 102.255 162.412 100.815 162.412C99.5727 162.412 98.7087 162.088 97.9887 161.224L97.3047 162.232C98.3307 163.24 99.3387 163.528 100.815 163.528ZM101.013 158.92C99.2667 158.92 98.2227 157.516 98.2227 155.608C98.2227 153.682 99.2667 152.296 101.013 152.296C102.093 152.296 103.137 152.944 103.605 153.7V157.498C103.137 158.254 102.093 158.92 101.013 158.92ZM114.895 160V153.862C114.895 151.972 113.941 151.09 112.123 151.09C110.809 151.09 109.621 151.846 109.009 152.566V147.994H107.659V160H109.009V153.646C109.531 152.944 110.539 152.296 111.583 152.296C112.753 152.296 113.545 152.746 113.545 154.276V160H114.895ZM119.786 160.216C120.578 160.216 121.064 159.982 121.406 159.658L121.01 158.65C120.83 158.848 120.47 159.01 120.092 159.01C119.498 159.01 119.21 158.542 119.21 157.894V152.494H120.974V151.306H119.21V148.93H117.86V151.306H116.42V152.494H117.86V158.182C117.86 159.478 118.508 160.216 119.786 160.216ZM125.635 160.216C127.885 160.216 129.055 159.046 129.055 157.588C129.055 154.204 123.673 155.464 123.673 153.556C123.673 152.782 124.411 152.188 125.599 152.188C126.715 152.188 127.669 152.656 128.191 153.286L128.821 152.35C128.119 151.648 127.075 151.09 125.599 151.09C123.529 151.09 122.359 152.242 122.359 153.592C122.359 156.814 127.741 155.518 127.741 157.624C127.741 158.488 127.021 159.118 125.689 159.118C124.501 159.118 123.403 158.542 122.827 157.876L122.125 158.848C123.007 159.784 124.213 160.216 125.635 160.216Z" fill="#999999"/>
<path d="M51.392 132V130.18H40.087V108.655H38.092V132H51.392ZM70.5337 132V130.18H57.7237V120.94H70.2887V119.12H57.7237V110.475H70.5337V108.655H55.7287V132H70.5337ZM82.9396 132C90.1846 132 94.7346 126.82 94.7346 120.345C94.7346 113.94 90.1846 108.655 82.9396 108.655H75.4846V132H82.9396ZM82.9396 130.18H77.4796V110.475H82.9396C89.1346 110.475 92.6346 114.885 92.6346 120.345C92.6346 125.805 89.0996 130.18 82.9396 130.18Z" fill="url(#paint0_linear_125_922)"/>
<g clip-path="url(#clip0_125_922)">
<path d="M81.6922 57.417C80.4699 58.3442 79.4724 59.535 78.7737 60.9008C78.0749 62.2666 77.693 63.7723 77.6562 65.3061" stroke="#009EFF" stroke-width="2" stroke-linecap="round" stroke-linejoin="round"/>
<path d="M69.2188 76.5845V80.1563C69.2188 80.9023 68.9224 81.6176 68.395 82.1451C67.8675 82.6725 67.1522 82.9688 66.4062 82.9688H63.5938C62.8478 82.9688 62.1325 82.6725 61.605 82.1451C61.0776 81.6176 60.7812 80.9023 60.7812 80.1563V76.5845C61.6358 77.0802 62.6058 77.3421 63.5938 77.3438H66.4062C67.3942 77.3421 68.3642 77.0802 69.2188 76.5845V76.5845Z" stroke="#999999" stroke-width="2" stroke-linecap="round" stroke-linejoin="round"/>
<path d="M72.0312 66.0938V71.7188C72.0312 73.2106 71.4386 74.6413 70.3837 75.6962C69.3288 76.7511 67.8981 77.3438 66.4062 77.3438H63.5938C62.1019 77.3438 60.6712 76.7511 59.6163 75.6962C58.5614 74.6413 57.9688 73.2106 57.9688 71.7188V66.0938H72.0312Z" stroke="#999999" stroke-width="2" stroke-linecap="round" stroke-linejoin="round"/>
<path d="M86.0937 36.3093C86.1312 39.5147 85.4378 42.6865 84.0659 45.5837C82.694 48.481 80.6799 51.0274 78.1765 53.0296C76.295 54.4822 74.7654 56.3404 73.7014 58.4659C72.6374 60.5914 72.0665 62.9295 72.0312 65.3062V66.0937H57.9687V65.3062C57.9941 63.0071 57.4897 60.733 56.4947 58.6601C55.4998 56.5873 54.0409 54.7714 52.2312 53.3531C49.3828 51.1865 47.1325 48.3308 45.692 45.0548C44.2515 41.7788 43.6682 38.1902 43.9969 34.6266C44.3256 31.063 45.5556 27.6416 47.5711 24.6844C49.5866 21.7272 52.3214 19.3314 55.518 17.7225C58.7147 16.1135 62.2681 15.3444 65.844 15.4873C69.4198 15.6302 72.9006 16.6806 75.9586 18.5396C79.0166 20.3985 81.5514 23.005 83.3244 26.1136C85.0975 29.2222 86.0504 32.7309 86.0937 36.3093V36.3093Z" stroke="#999999" stroke-width="2" stroke-linecap="round" stroke-linejoin="round"/>
<path d="M62.1875 66.0938V49.2188" stroke="#999999" stroke-width="2" stroke-linecap="round" stroke-linejoin="round"/>
<path d="M67.8125 66.0938V49.2188" stroke="#999999" stroke-width="2" stroke-linecap="round" stroke-linejoin="round"/>
<path d="M62.1875 49.2188L53.75 40.7812" stroke="#999999" stroke-width="2" stroke-linecap="round" stroke-linejoin="round"/>
<path d="M67.8125 49.2188L76.25 40.7812" stroke="#999999" stroke-width="2" stroke-linecap="round" stroke-linejoin="round"/>
<path d="M56.5625 21.9516C59.126 20.4656 62.037 19.6845 65 19.6875" stroke="#009EFF" stroke-width="2" stroke-linecap="round" stroke-linejoin="round"/>
<path d="M48.125 36.5623C48.1254 32.7773 49.3983 29.1023 51.7391 26.1279" stroke="#009EFF" stroke-width="2" stroke-linecap="round" stroke-linejoin="round"/>
<path d="M65 11.25V5.625" stroke="#009EFF" stroke-width="2" stroke-linecap="round" stroke-linejoin="round"/>
<path d="M47.0983 18.6608L43.1187 14.6812" stroke="#009EFF" stroke-width="2" stroke-linecap="round" stroke-linejoin="round"/>
<path d="M39.6875 36.5625H34.0625" stroke="#009EFF" stroke-width="2" stroke-linecap="round" stroke-linejoin="round"/>
<path d="M90.3125 36.5625H95.9375" stroke="#009EFF" stroke-width="2" stroke-linecap="round" stroke-linejoin="round"/>
<path d="M82.9014 18.6608L86.8811 14.6812" stroke="#009EFF" stroke-width="2" stroke-linecap="round" stroke-linejoin="round"/>
<path d="M57.9688 70.3125H72.0312" stroke="#999999" stroke-width="2" stroke-linecap="round" stroke-linejoin="round"/>
</g>
<defs>
<linearGradient id="paint0_linear_125_922" x1="66" y1="100" x2="66" y2="143" gradientUnits="userSpaceOnUse">
<stop stop-color="#009EFF"/>
<stop offset="1" stop-color="#007BCD"/>
</linearGradient>
<clipPath id="clip0_125_922">
<rect width="90" height="90" fill="white" transform="translate(20)"/>
</clipPath>
</defs>
</svg>
