<svg width="127" height="166" viewBox="0 0 127 166" fill="none" xmlns="http://www.w3.org/2000/svg">
<g clip-path="url(#clip0_125_977)">
<circle cx="64" cy="50" r="23" stroke="#999999" stroke-width="2"/>
<path d="M78.6174 14.9239C81.6828 16.2013 84.5674 17.8751 87.1977 19.9023" stroke="#009EFF" stroke-width="2" stroke-linecap="round"/>
<path d="M90.8702 23.13C95.5868 27.8467 98.9788 33.7219 100.705 40.165C102.432 46.6081 102.432 53.3921 100.705 59.8352" stroke="#009EFF" stroke-width="2" stroke-linecap="round"/>
<path d="M44.4819 82.6047C35.8346 77.4283 29.5979 69.0287 27.1437 59.2539" stroke="#009EFF" stroke-width="2" stroke-linecap="round"/>
<circle cx="64" cy="50" r="44" stroke="#999999" stroke-width="2"/>
</g>
<path d="M3.29253 161V156.23H6.62253C8.99853 156.23 10.3845 154.574 10.3845 152.612C10.3845 150.65 9.03453 148.994 6.62253 148.994H1.79853V161H3.29253ZM6.44253 154.898H3.29253V150.326H6.44253C7.86453 150.326 8.83653 151.262 8.83653 152.612C8.83653 153.962 7.86453 154.898 6.44253 154.898ZM19.527 161V154.898C19.527 153.008 18.573 152.09 16.755 152.09C15.459 152.09 14.271 152.846 13.659 153.566V152.306H12.309V161H13.659V154.646C14.163 153.944 15.171 153.296 16.233 153.296C17.403 153.296 18.177 153.782 18.177 155.312V161H19.527ZM26.147 161.216C27.569 161.216 28.739 160.748 29.603 159.884L28.955 159.002C28.271 159.704 27.263 160.1 26.273 160.1C24.401 160.1 23.249 158.732 23.141 157.094H30.179V156.752C30.179 154.142 28.631 152.09 26.003 152.09C23.519 152.09 21.719 154.124 21.719 156.644C21.719 159.362 23.573 161.216 26.147 161.216ZM28.847 156.104H23.141C23.213 154.772 24.131 153.206 25.985 153.206C27.965 153.206 28.829 154.808 28.847 156.104ZM39.5836 161V152.306H38.2336V158.696C37.7296 159.398 36.7216 160.01 35.6596 160.01C34.4896 160.01 33.7156 159.56 33.7156 158.03V152.306H32.3656V158.444C32.3656 160.334 33.3196 161.216 35.1376 161.216C36.4336 161.216 37.5676 160.532 38.2336 159.776V161H39.5836ZM54.1237 161V154.718C54.1237 152.972 53.2777 152.09 51.6937 152.09C50.4337 152.09 49.2637 152.918 48.7777 153.71C48.5257 152.81 47.7697 152.09 46.4377 152.09C45.1597 152.09 43.9897 153.008 43.6297 153.566V152.306H42.2797V161H43.6297V154.646C44.0977 153.944 45.0337 153.296 45.9157 153.296C47.0497 153.296 47.5177 153.998 47.5177 155.096V161H48.8677V154.628C49.3177 153.944 50.2717 153.296 51.1717 153.296C52.2877 153.296 52.7737 153.998 52.7737 155.096V161H54.1237ZM63.6028 161V155.024C63.6028 152.918 62.0728 152.09 60.2368 152.09C58.8148 152.09 57.6988 152.558 56.7628 153.53L57.3928 154.466C58.1668 153.638 59.0128 153.26 60.0568 153.26C61.3168 153.26 62.2528 153.926 62.2528 155.096V156.662C61.5508 155.852 60.5608 155.474 59.3728 155.474C57.8968 155.474 56.3308 156.392 56.3308 158.336C56.3308 160.226 57.8968 161.216 59.3728 161.216C60.5428 161.216 61.5328 160.802 62.2528 160.01V161H63.6028ZM59.8588 160.244C58.5988 160.244 57.7168 159.452 57.7168 158.354C57.7168 157.238 58.5988 156.446 59.8588 156.446C60.8128 156.446 61.7308 156.806 62.2528 157.526V159.164C61.7308 159.884 60.8128 160.244 59.8588 160.244ZM68.505 161.216C69.297 161.216 69.783 160.982 70.125 160.658L69.729 159.65C69.549 159.848 69.189 160.01 68.811 160.01C68.217 160.01 67.929 159.542 67.929 158.894V153.494H69.693V152.306H67.929V149.93H66.579V152.306H65.139V153.494H66.579V159.182C66.579 160.478 67.227 161.216 68.505 161.216ZM72.266 151.064C72.77 151.064 73.184 150.668 73.184 150.164C73.184 149.66 72.77 149.246 72.266 149.246C71.78 149.246 71.366 149.66 71.366 150.164C71.366 150.668 71.78 151.064 72.266 151.064ZM72.95 161V152.306H71.6V161H72.95ZM79.477 161.216C81.061 161.216 81.997 160.568 82.663 159.704L81.763 158.876C81.187 159.65 80.449 160.01 79.549 160.01C77.695 160.01 76.543 158.57 76.543 156.644C76.543 154.718 77.695 153.296 79.549 153.296C80.449 153.296 81.187 153.638 81.763 154.43L82.663 153.602C81.997 152.738 81.061 152.09 79.477 152.09C76.885 152.09 75.139 154.07 75.139 156.644C75.139 159.236 76.885 161.216 79.477 161.216ZM93.7137 161V150.326H97.5297V148.994H88.4217V150.326H92.2197V161H93.7137ZM100.127 151.064C100.631 151.064 101.045 150.668 101.045 150.164C101.045 149.66 100.631 149.246 100.127 149.246C99.6413 149.246 99.2273 149.66 99.2273 150.164C99.2273 150.668 99.6413 151.064 100.127 151.064ZM100.811 161V152.306H99.4613V161H100.811ZM104.854 161V154.844C105.25 154.142 106.384 153.458 107.212 153.458C107.428 153.458 107.59 153.476 107.752 153.512V152.126C106.564 152.126 105.556 152.792 104.854 153.71V152.306H103.504V161H104.854ZM113.37 161.216C114.792 161.216 115.962 160.748 116.826 159.884L116.178 159.002C115.494 159.704 114.486 160.1 113.496 160.1C111.624 160.1 110.472 158.732 110.364 157.094H117.402V156.752C117.402 154.142 115.854 152.09 113.226 152.09C110.742 152.09 108.942 154.124 108.942 156.644C108.942 159.362 110.796 161.216 113.37 161.216ZM116.07 156.104H110.364C110.436 154.772 111.354 153.206 113.208 153.206C115.188 153.206 116.052 154.808 116.07 156.104ZM122.342 161.216C124.592 161.216 125.762 160.046 125.762 158.588C125.762 155.204 120.38 156.464 120.38 154.556C120.38 153.782 121.118 153.188 122.306 153.188C123.422 153.188 124.376 153.656 124.898 154.286L125.528 153.35C124.826 152.648 123.782 152.09 122.306 152.09C120.236 152.09 119.066 153.242 119.066 154.592C119.066 157.814 124.448 156.518 124.448 158.624C124.448 159.488 123.728 160.118 122.396 160.118C121.208 160.118 120.11 159.542 119.534 158.876L118.832 159.848C119.714 160.784 120.92 161.216 122.342 161.216Z" fill="#999999"/>
<path d="M49.0386 133V109.655H47.2186L42.0736 115.08L43.2986 116.375L47.0436 112.385V133H49.0386ZM62.6052 133.42C68.8352 133.42 71.2152 126.875 71.2152 121.345C71.2152 115.78 68.8352 109.305 62.6052 109.305C56.3052 109.305 53.9602 115.78 53.9602 121.345C53.9602 126.875 56.3052 133.42 62.6052 133.42ZM62.6052 131.6C57.6702 131.6 56.0602 126.14 56.0602 121.345C56.0602 116.515 57.6702 111.125 62.6052 111.125C67.5052 111.125 69.0802 116.515 69.0802 121.345C69.0802 126.14 67.4702 131.6 62.6052 131.6ZM83.7241 111.545C83.7241 110.11 82.9191 109.305 81.9741 109.305C81.0991 109.305 80.4691 110.005 80.4691 110.81C80.4691 111.65 81.0641 112.28 81.8691 112.28C82.0091 112.28 82.2191 112.245 82.2541 112.21C82.1841 113.33 81.3091 114.695 80.1891 115.465L81.2391 116.305C82.6041 115.36 83.7241 113.505 83.7241 111.545ZM78.7891 111.545C78.7891 110.11 77.9491 109.305 77.0041 109.305C76.1641 109.305 75.4991 110.005 75.4991 110.81C75.4991 111.65 76.0941 112.28 76.9341 112.28C77.0391 112.28 77.2841 112.245 77.2841 112.21C77.2141 113.33 76.3741 114.695 75.2541 115.465L76.2691 116.305C77.6341 115.36 78.7891 113.505 78.7891 111.545Z" fill="url(#paint0_linear_125_977)"/>
<defs>
<linearGradient id="paint0_linear_125_977" x1="63.5" y1="101" x2="63.5" y2="144" gradientUnits="userSpaceOnUse">
<stop stop-color="#009EFF"/>
<stop offset="1" stop-color="#007BCD"/>
</linearGradient>
<clipPath id="clip0_125_977">
<rect width="100" height="100" fill="white" transform="translate(14)"/>
</clipPath>
</defs>
</svg>
