<svg width="169" height="24" viewBox="0 0 169 24" fill="none" xmlns="http://www.w3.org/2000/svg">
<path d="M32.64 18C35.08 18 36.5 16.54 36.5 14.4C36.5 12.8 35.32 11.34 33.9 11.12C35.12 10.86 36.24 9.74 36.24 8.06C36.24 6.06 34.82 4.66 32.5 4.66H26.56V18H32.64ZM32.22 10.44H28.22V6.14H32.22C33.72 6.14 34.52 7.1 34.52 8.3C34.52 9.52 33.72 10.44 32.22 10.44ZM32.3 16.52H28.22V11.92H32.3C33.94 11.92 34.78 13 34.78 14.22C34.78 15.64 33.86 16.52 32.3 16.52ZM46.6181 18V11.36C46.6181 9.02 44.9181 8.1 42.8781 8.1C41.2981 8.1 40.0581 8.62 39.0181 9.7L39.7181 10.74C40.5781 9.82 41.5181 9.4 42.6781 9.4C44.0781 9.4 45.1181 10.14 45.1181 11.44V13.18C44.3381 12.28 43.2381 11.86 41.9181 11.86C40.2781 11.86 38.5381 12.88 38.5381 15.04C38.5381 17.14 40.2781 18.24 41.9181 18.24C43.2181 18.24 44.3181 17.78 45.1181 16.9V18H46.6181ZM42.4581 17.16C41.0581 17.16 40.0781 16.28 40.0781 15.06C40.0781 13.82 41.0581 12.94 42.4581 12.94C43.5181 12.94 44.5381 13.34 45.1181 14.14V15.96C44.5381 16.76 43.5181 17.16 42.4581 17.16ZM52.065 18.24C52.945 18.24 53.485 17.98 53.865 17.62L53.425 16.5C53.225 16.72 52.825 16.9 52.405 16.9C51.745 16.9 51.425 16.38 51.425 15.66V9.66H53.385V8.34H51.425V5.7H49.925V8.34H48.325V9.66H49.925V15.98C49.925 17.42 50.645 18.24 52.065 18.24ZM57.9439 18.24C58.8239 18.24 59.3639 17.98 59.7439 17.62L59.3039 16.5C59.1039 16.72 58.7039 16.9 58.2839 16.9C57.6239 16.9 57.3039 16.38 57.3039 15.66V9.66H59.2639V8.34H57.3039V5.7H55.8039V8.34H54.2039V9.66H55.8039V15.98C55.8039 17.42 56.5239 18.24 57.9439 18.24ZM65.7428 18.24C67.3228 18.24 68.6228 17.72 69.5828 16.76L68.8628 15.78C68.1028 16.56 66.9828 17 65.8828 17C63.8028 17 62.5228 15.48 62.4028 13.66H70.2228V13.28C70.2228 10.38 68.5028 8.1 65.5828 8.1C62.8228 8.1 60.8228 10.36 60.8228 13.16C60.8228 16.18 62.8828 18.24 65.7428 18.24ZM68.7428 12.56H62.4028C62.4828 11.08 63.5028 9.34 65.5628 9.34C67.7628 9.34 68.7228 11.12 68.7428 12.56ZM74.1523 18V11.16C74.5923 10.38 75.8523 9.62 76.7723 9.62C77.0123 9.62 77.1923 9.64 77.3723 9.68V8.14C76.0523 8.14 74.9323 8.88 74.1523 9.9V8.34H72.6523V18H74.1523ZM78.7139 21.78C78.9939 21.86 79.4939 21.92 79.8139 21.92C81.0939 21.9 82.0739 21.36 82.6539 19.96L87.4939 8.34H85.8539L82.6539 16.26L79.4339 8.34H77.8139L81.8539 18.1L81.2139 19.56C80.8739 20.36 80.4339 20.58 79.7739 20.58C79.5339 20.58 79.1739 20.52 78.9539 20.42L78.7139 21.78ZM100.595 18.24C102.955 18.24 104.555 17.12 105.675 15.6L104.255 14.82C103.495 15.96 102.115 16.76 100.595 16.76C97.6748 16.76 95.4548 14.5 95.4548 11.34C95.4548 8.16 97.6748 5.92 100.595 5.92C102.115 5.92 103.495 6.74 104.255 7.86L105.655 7.08C104.595 5.58 102.955 4.44 100.595 4.44C96.7548 4.44 93.7348 7.24 93.7348 11.34C93.7348 15.44 96.7548 18.24 100.595 18.24ZM115.27 18V11.36C115.27 9.02 113.57 8.1 111.53 8.1C109.95 8.1 108.71 8.62 107.67 9.7L108.37 10.74C109.23 9.82 110.17 9.4 111.33 9.4C112.73 9.4 113.77 10.14 113.77 11.44V13.18C112.99 12.28 111.89 11.86 110.57 11.86C108.93 11.86 107.19 12.88 107.19 15.04C107.19 17.14 108.93 18.24 110.57 18.24C111.87 18.24 112.97 17.78 113.77 16.9V18H115.27ZM111.11 17.16C109.71 17.16 108.73 16.28 108.73 15.06C108.73 13.82 109.71 12.94 111.11 12.94C112.17 12.94 113.19 13.34 113.77 14.14V15.96C113.19 16.76 112.17 17.16 111.11 17.16ZM123.037 18.24C125.577 18.24 127.337 16.28 127.337 13.16C127.337 10.02 125.577 8.1 123.037 8.1C121.677 8.1 120.477 8.8 119.777 9.78V8.34H118.277V21.68H119.777V16.54C120.557 17.62 121.717 18.24 123.037 18.24ZM122.657 16.9C121.477 16.9 120.297 16.18 119.777 15.34V10.98C120.297 10.14 121.477 9.44 122.657 9.44C124.597 9.44 125.757 11.02 125.757 13.16C125.757 15.3 124.597 16.9 122.657 16.9ZM137.263 18V11.36C137.263 9.02 135.563 8.1 133.523 8.1C131.943 8.1 130.703 8.62 129.663 9.7L130.363 10.74C131.223 9.82 132.163 9.4 133.323 9.4C134.723 9.4 135.763 10.14 135.763 11.44V13.18C134.983 12.28 133.883 11.86 132.563 11.86C130.923 11.86 129.183 12.88 129.183 15.04C129.183 17.14 130.923 18.24 132.563 18.24C133.863 18.24 134.963 17.78 135.763 16.9V18H137.263ZM133.103 17.16C131.703 17.16 130.723 16.28 130.723 15.06C130.723 13.82 131.703 12.94 133.103 12.94C134.163 12.94 135.183 13.34 135.763 14.14V15.96C135.183 16.76 134.163 17.16 133.103 17.16ZM144.53 18.24C146.29 18.24 147.33 17.52 148.07 16.56L147.07 15.64C146.43 16.5 145.61 16.9 144.61 16.9C142.55 16.9 141.27 15.3 141.27 13.16C141.27 11.02 142.55 9.44 144.61 9.44C145.61 9.44 146.43 9.82 147.07 10.7L148.07 9.78C147.33 8.82 146.29 8.1 144.53 8.1C141.65 8.1 139.71 10.3 139.71 13.16C139.71 16.04 141.65 18.24 144.53 18.24ZM150.912 6.96C151.472 6.96 151.932 6.52 151.932 5.96C151.932 5.4 151.472 4.94 150.912 4.94C150.372 4.94 149.912 5.4 149.912 5.96C149.912 6.52 150.372 6.96 150.912 6.96ZM151.672 18V8.34H150.172V18H151.672ZM157.104 18.24C157.984 18.24 158.524 17.98 158.904 17.62L158.464 16.5C158.264 16.72 157.864 16.9 157.444 16.9C156.784 16.9 156.464 16.38 156.464 15.66V9.66H158.424V8.34H156.464V5.7H154.964V8.34H153.364V9.66H154.964V15.98C154.964 17.42 155.684 18.24 157.104 18.24ZM160.003 21.78C160.283 21.86 160.783 21.92 161.103 21.92C162.383 21.9 163.363 21.36 163.943 19.96L168.783 8.34H167.143L163.943 16.26L160.723 8.34H159.103L163.143 18.1L162.503 19.56C162.163 20.36 161.723 20.58 161.063 20.58C160.823 20.58 160.463 20.52 160.243 20.42L160.003 21.78Z" fill="#009EFF"/>
<path d="M6.84984 3.90045L6.84984 4.90471L5.50036 4.90471C4.75511 4.90471 4.15088 5.50426 4.15088 6.24373L4.15088 16.9559C4.15088 17.6954 4.75511 18.2949 5.50036 18.2949L10.8983 18.2949C11.6435 18.2949 12.2478 17.6954 12.2478 16.9559L12.2478 6.24373C12.2478 5.50426 11.6435 4.90471 10.8983 4.90471L9.54881 4.90471L9.54881 3.90045L6.84984 3.90045Z" stroke="#009EFF" stroke-miterlimit="10" stroke-linecap="round" stroke-linejoin="round"/>
<rect x="6.40002" y="15.1461" width="3.59862" height="0.899655" rx="0.449827" fill="white" stroke="#009EFF" stroke-width="0.899655"/>
<rect x="6.40002" y="11.5475" width="3.59862" height="0.899655" rx="0.449827" fill="white" stroke="#009EFF" stroke-width="0.899655"/>
<rect x="6.40002" y="7.94885" width="3.59862" height="0.899655" rx="0.449827" fill="white" stroke="#009EFF" stroke-width="0.899655"/>
</svg>
