<svg width="117" height="22" viewBox="0 0 117 22" fill="none" xmlns="http://www.w3.org/2000/svg">
<path d="M37.158 17V4.994H35.016L31.272 14.03L27.546 4.994H25.404V17H26.898V7.118L30.966 17H31.578L35.664 7.118V17H37.158ZM46.6907 17V11.024C46.6907 8.918 45.1607 8.09 43.3247 8.09C41.9027 8.09 40.7867 8.558 39.8507 9.53L40.4807 10.466C41.2547 9.638 42.1007 9.26 43.1447 9.26C44.4047 9.26 45.3407 9.926 45.3407 11.096V12.662C44.6387 11.852 43.6487 11.474 42.4607 11.474C40.9847 11.474 39.4187 12.392 39.4187 14.336C39.4187 16.226 40.9847 17.216 42.4607 17.216C43.6307 17.216 44.6207 16.802 45.3407 16.01V17H46.6907ZM42.9467 16.244C41.6867 16.244 40.8047 15.452 40.8047 14.354C40.8047 13.238 41.6867 12.446 42.9467 12.446C43.9007 12.446 44.8187 12.806 45.3407 13.526V15.164C44.8187 15.884 43.9007 16.244 42.9467 16.244ZM56.5969 17L53.2489 12.536L56.3989 8.306H54.8329L52.4209 11.618L50.0089 8.306H48.4429L51.5929 12.536L48.2629 17H49.8109L52.4209 13.436L55.0309 17H56.5969ZM58.8708 17.18C59.4108 17.18 59.8608 16.73 59.8608 16.19C59.8608 15.65 59.4108 15.2 58.8708 15.2C58.3308 15.2 57.8808 15.65 57.8808 16.19C57.8808 16.73 58.3308 17.18 58.8708 17.18ZM68.4878 17V4.994H66.9938V17H68.4878ZM78.4645 17V10.898C78.4645 9.008 77.5105 8.09 75.6925 8.09C74.3965 8.09 73.2085 8.846 72.5965 9.566V8.306H71.2465V17H72.5965V10.646C73.1005 9.944 74.1085 9.296 75.1705 9.296C76.3405 9.296 77.1145 9.782 77.1145 11.312V17H78.4645ZM84.9945 17.216C86.5785 17.216 87.5145 16.568 88.1805 15.704L87.2805 14.876C86.7045 15.65 85.9665 16.01 85.0665 16.01C83.2125 16.01 82.0605 14.57 82.0605 12.644C82.0605 10.718 83.2125 9.296 85.0665 9.296C85.9665 9.296 86.7045 9.638 87.2805 10.43L88.1805 9.602C87.5145 8.738 86.5785 8.09 84.9945 8.09C82.4025 8.09 80.6565 10.07 80.6565 12.644C80.6565 15.236 82.4025 17.216 84.9945 17.216ZM91.4227 17V4.994H90.0727V17H91.4227ZM94.7816 7.064C95.2856 7.064 95.6996 6.668 95.6996 6.164C95.6996 5.66 95.2856 5.246 94.7816 5.246C94.2956 5.246 93.8816 5.66 93.8816 6.164C93.8816 6.668 94.2956 7.064 94.7816 7.064ZM95.4656 17V8.306H94.1156V17H95.4656ZM105.377 17V10.898C105.377 9.008 104.423 8.09 102.605 8.09C101.309 8.09 100.121 8.846 99.5086 9.566V8.306H98.1586V17H99.5086V10.646C100.013 9.944 101.021 9.296 102.083 9.296C103.253 9.296 104.027 9.782 104.027 11.312V17H105.377ZM111.997 17.216C113.419 17.216 114.589 16.748 115.453 15.884L114.805 15.002C114.121 15.704 113.113 16.1 112.123 16.1C110.251 16.1 109.099 14.732 108.991 13.094H116.029V12.752C116.029 10.142 114.481 8.09 111.853 8.09C109.369 8.09 107.569 10.124 107.569 12.644C107.569 15.362 109.423 17.216 111.997 17.216ZM114.697 12.104H108.991C109.063 10.772 109.981 9.206 111.835 9.206C113.815 9.206 114.679 10.808 114.697 12.104Z" fill="#009EFF"/>
<path d="M13 17H1L9 9" stroke="#009EFF" stroke-linecap="round" stroke-linejoin="round"/>
<path d="M5.24219 12.7578C5.80876 13.3054 6.26194 13.9592 6.57584 14.6819C6.88974 15.4046 7.05823 16.182 7.07167 16.9699" stroke="#009EFF"/>
</svg>
