<svg width="111" height="107" viewBox="0 0 111 107" fill="none" xmlns="http://www.w3.org/2000/svg">
<path d="M19.9759 69L16.1539 59.662H15.1599L11.3379 69H12.2619L13.1859 66.704H18.1279L19.0519 69H19.9759ZM17.8619 65.976H13.4519L15.6499 60.516L17.8619 65.976ZM23.3424 69.168C25.0364 69.168 25.8764 68.272 25.8764 67.18C25.8764 64.576 21.6064 65.612 21.6064 63.918C21.6064 63.218 22.2504 62.686 23.3004 62.686C24.1964 62.686 24.9244 63.05 25.3164 63.582L25.7224 63.064C25.2324 62.518 24.4624 62.07 23.3004 62.07C21.7744 62.07 20.8924 62.91 20.8924 63.946C20.8924 66.368 25.1624 65.332 25.1624 67.18C25.1624 67.964 24.4904 68.552 23.3564 68.552C22.4044 68.552 21.6064 68.104 21.1724 67.558L20.7384 68.104C21.4104 68.846 22.2504 69.168 23.3424 69.168ZM29.7682 69.168C31.4622 69.168 32.3022 68.272 32.3022 67.18C32.3022 64.576 28.0322 65.612 28.0322 63.918C28.0322 63.218 28.6762 62.686 29.7262 62.686C30.6222 62.686 31.3502 63.05 31.7422 63.582L32.1482 63.064C31.6582 62.518 30.8882 62.07 29.7262 62.07C28.2002 62.07 27.3182 62.91 27.3182 63.946C27.3182 66.368 31.5882 65.332 31.5882 67.18C31.5882 67.964 30.9162 68.552 29.7822 68.552C28.8302 68.552 28.0322 68.104 27.5982 67.558L27.1642 68.104C27.8362 68.846 28.6762 69.168 29.7682 69.168ZM37.1739 69.168C38.2939 69.168 39.1479 68.776 39.8199 68.076L39.4419 67.6C38.8679 68.216 38.0839 68.538 37.2299 68.538C35.6339 68.538 34.6539 67.32 34.5839 65.85H40.2399V65.654C40.2399 63.708 39.1059 62.07 37.0479 62.07C35.1719 62.07 33.7859 63.652 33.7859 65.612C33.7859 67.698 35.1999 69.168 37.1739 69.168ZM39.4979 65.276H34.5839C34.6399 64.1 35.4379 62.7 37.0339 62.7C38.7279 62.7 39.4839 64.128 39.4979 65.276ZM50.8993 69V64.128C50.8993 62.77 50.2973 62.07 49.0513 62.07C48.0993 62.07 47.1893 62.714 46.8113 63.344C46.6433 62.686 46.0833 62.07 45.0333 62.07C44.0533 62.07 43.1293 62.826 42.8493 63.26V62.238H42.1213V69H42.8493V63.89C43.2553 63.274 44.0673 62.728 44.7813 62.728C45.7473 62.728 46.1393 63.316 46.1393 64.268V69H46.8813V63.876C47.2593 63.26 48.0853 62.728 48.8133 62.728C49.7653 62.728 50.1713 63.316 50.1713 64.268V69H50.8993ZM53.8962 67.306V63.96C54.2882 63.316 55.1842 62.728 56.1222 62.728C57.6342 62.728 58.4882 63.988 58.4882 65.626C58.4882 67.264 57.6342 68.51 56.1222 68.51C55.1842 68.51 54.2882 67.95 53.8962 67.306ZM53.8962 69V67.922C54.3722 68.622 55.2402 69.168 56.2482 69.168C58.0402 69.168 59.2722 67.796 59.2722 65.626C59.2722 63.484 58.0542 62.07 56.2482 62.07C55.2962 62.07 54.4422 62.56 53.8962 63.33V59.662H53.1682V69H53.8962ZM61.8942 69V59.662H61.1662V69H61.8942ZM63.7124 71.646C63.8944 71.702 64.2024 71.744 64.4264 71.744C65.2244 71.744 65.7984 71.338 66.1624 70.484L69.6624 62.238H68.8364L66.4004 68.146L63.9364 62.238H63.1244L65.9804 69.056L65.4484 70.26C65.1824 70.904 64.8744 71.086 64.4264 71.086C64.2584 71.086 63.9924 71.044 63.8384 70.974L63.7124 71.646ZM79.5496 69V64.24C79.5496 62.728 78.4576 62.07 77.0856 62.07C75.9656 62.07 75.1816 62.448 74.4816 63.204L74.8876 63.708C75.5036 63.008 76.1616 62.714 77.0016 62.714C78.0096 62.714 78.8216 63.26 78.8216 64.268V65.64C78.2336 64.982 77.4636 64.674 76.5256 64.674C75.3496 64.674 74.1596 65.444 74.1596 66.914C74.1596 68.37 75.3636 69.168 76.5256 69.168C77.4636 69.168 78.2196 68.86 78.8216 68.202V69H79.5496ZM76.7776 68.594C75.6576 68.594 74.9296 67.88 74.9296 66.928C74.9296 65.962 75.6576 65.248 76.7776 65.248C77.5896 65.248 78.3456 65.57 78.8216 66.186V67.67C78.3456 68.286 77.5896 68.594 76.7776 68.594ZM87.1164 69V64.268C87.1164 62.742 86.3604 62.07 84.9884 62.07C84.0084 62.07 83.0424 62.672 82.5524 63.26V62.238H81.8244V69H82.5524V63.89C82.9864 63.274 83.8824 62.728 84.7504 62.728C85.7304 62.728 86.3884 63.12 86.3884 64.422V69H87.1164ZM95.111 69V59.662H94.369V63.33C93.823 62.56 92.983 62.07 92.017 62.07C90.225 62.07 88.993 63.484 88.993 65.626C88.993 67.796 90.225 69.168 92.017 69.168C93.025 69.168 93.893 68.622 94.369 67.922V69H95.111ZM92.143 68.51C90.645 68.51 89.777 67.264 89.777 65.626C89.777 63.988 90.645 62.728 92.143 62.728C93.095 62.728 93.977 63.302 94.369 63.96V67.306C93.977 67.95 93.095 68.51 92.143 68.51ZM24.8507 86.168C26.6567 86.168 27.8747 84.768 27.8747 82.612C27.8747 80.442 26.6567 79.07 24.8507 79.07C23.8427 79.07 22.9747 79.616 22.4987 80.302V79.238H21.7707V88.576H22.4987V84.908C23.0447 85.678 23.8987 86.168 24.8507 86.168ZM24.7247 85.51C23.7867 85.51 22.8907 84.922 22.4987 84.278V80.932C22.8907 80.288 23.7867 79.728 24.7247 79.728C26.2367 79.728 27.0907 80.974 27.0907 82.612C27.0907 84.25 26.2367 85.51 24.7247 85.51ZM30.4421 86V81.072C30.7501 80.484 31.6741 79.868 32.3601 79.868C32.5001 79.868 32.5981 79.868 32.7241 79.896V79.098C31.7861 79.098 31.0161 79.644 30.4421 80.4V79.238H29.7141V86H30.4421ZM37.1534 86.168C38.2734 86.168 39.1274 85.776 39.7994 85.076L39.4214 84.6C38.8474 85.216 38.0634 85.538 37.2094 85.538C35.6134 85.538 34.6334 84.32 34.5634 82.85H40.2194V82.654C40.2194 80.708 39.0854 79.07 37.0274 79.07C35.1514 79.07 33.7654 80.652 33.7654 82.612C33.7654 84.698 35.1794 86.168 37.1534 86.168ZM39.4774 82.276H34.5634C34.6194 81.1 35.4174 79.7 37.0134 79.7C38.7074 79.7 39.4634 81.128 39.4774 82.276ZM45.1808 86.168C46.9868 86.168 48.2048 84.768 48.2048 82.612C48.2048 80.442 46.9868 79.07 45.1808 79.07C44.1728 79.07 43.3048 79.616 42.8288 80.302V79.238H42.1008V88.576H42.8288V84.908C43.3748 85.678 44.2288 86.168 45.1808 86.168ZM45.0548 85.51C44.1168 85.51 43.2208 84.922 42.8288 84.278V80.932C43.2208 80.288 44.1168 79.728 45.0548 79.728C46.5668 79.728 47.4208 80.974 47.4208 82.612C47.4208 84.25 46.5668 85.51 45.0548 85.51ZM55.0702 86V81.24C55.0702 79.728 53.9782 79.07 52.6062 79.07C51.4862 79.07 50.7022 79.448 50.0022 80.204L50.4082 80.708C51.0242 80.008 51.6822 79.714 52.5222 79.714C53.5302 79.714 54.3422 80.26 54.3422 81.268V82.64C53.7542 81.982 52.9842 81.674 52.0462 81.674C50.8702 81.674 49.6802 82.444 49.6802 83.914C49.6802 85.37 50.8842 86.168 52.0462 86.168C52.9842 86.168 53.7402 85.86 54.3422 85.202V86H55.0702ZM52.2982 85.594C51.1782 85.594 50.4502 84.88 50.4502 83.928C50.4502 82.962 51.1782 82.248 52.2982 82.248C53.1102 82.248 53.8662 82.57 54.3422 83.186V84.67C53.8662 85.286 53.1102 85.594 52.2982 85.594ZM58.0729 86V81.072C58.3809 80.484 59.3049 79.868 59.9909 79.868C60.1309 79.868 60.2289 79.868 60.3549 79.896V79.098C59.4169 79.098 58.6469 79.644 58.0729 80.4V79.238H57.3449V86H58.0729ZM66.8143 86V81.24C66.8143 79.728 65.7223 79.07 64.3503 79.07C63.2303 79.07 62.4463 79.448 61.7463 80.204L62.1523 80.708C62.7683 80.008 63.4263 79.714 64.2663 79.714C65.2743 79.714 66.0863 80.26 66.0863 81.268V82.64C65.4983 81.982 64.7283 81.674 63.7903 81.674C62.6143 81.674 61.4243 82.444 61.4243 83.914C61.4243 85.37 62.6283 86.168 63.7903 86.168C64.7283 86.168 65.4843 85.86 66.0863 85.202V86H66.8143ZM64.0423 85.594C62.9223 85.594 62.1943 84.88 62.1943 83.928C62.1943 82.962 62.9223 82.248 64.0423 82.248C64.8543 82.248 65.6103 82.57 66.0863 83.186V84.67C65.6103 85.286 64.8543 85.594 64.0423 85.594ZM70.5591 86.168C71.1191 86.168 71.4411 86 71.7071 85.748L71.4271 85.188C71.2731 85.356 70.9931 85.51 70.6711 85.51C70.1951 85.51 69.9711 85.132 69.9711 84.586V79.882H71.3431V79.238H69.9711V77.39H69.2291V79.238H68.1091V79.882H69.2291V84.698C69.2291 85.622 69.6631 86.168 70.5591 86.168ZM73.3085 78.174C73.6165 78.174 73.8685 77.922 73.8685 77.614C73.8685 77.306 73.6165 77.068 73.3085 77.068C73.0145 77.068 72.7485 77.306 72.7485 77.614C72.7485 77.922 73.0145 78.174 73.3085 78.174ZM73.6725 86V79.238H72.9445V86H73.6725ZM78.7947 86.168C80.7967 86.168 82.0567 84.586 82.0567 82.612C82.0567 80.638 80.7967 79.07 78.7947 79.07C76.8207 79.07 75.5467 80.638 75.5467 82.612C75.5467 84.586 76.8207 86.168 78.7947 86.168ZM78.7947 85.51C77.2267 85.51 76.3307 84.124 76.3307 82.612C76.3307 81.114 77.2267 79.728 78.7947 79.728C80.3907 79.728 81.2727 81.114 81.2727 82.612C81.2727 84.124 80.3907 85.51 78.7947 85.51ZM89.2287 86V81.268C89.2287 79.742 88.4727 79.07 87.1007 79.07C86.1207 79.07 85.1547 79.672 84.6647 80.26V79.238H83.9367V86H84.6647V80.89C85.0987 80.274 85.9947 79.728 86.8627 79.728C87.8427 79.728 88.5007 80.12 88.5007 81.422V86H89.2287ZM26.6059 103V96.882H27.9779V96.238H26.6059V95.622C26.6059 94.684 27.0119 94.152 27.7819 94.152C28.1459 94.152 28.4259 94.292 28.6499 94.502L28.9999 93.998C28.5659 93.62 28.1879 93.522 27.7119 93.522C26.5779 93.522 25.8779 94.306 25.8779 95.622V96.238H24.7579V96.882H25.8779V103H26.6059ZM32.2009 103.168C34.2029 103.168 35.4629 101.586 35.4629 99.612C35.4629 97.638 34.2029 96.07 32.2009 96.07C30.2269 96.07 28.9529 97.638 28.9529 99.612C28.9529 101.586 30.2269 103.168 32.2009 103.168ZM32.2009 102.51C30.6329 102.51 29.7369 101.124 29.7369 99.612C29.7369 98.114 30.6329 96.728 32.2009 96.728C33.7969 96.728 34.6789 98.114 34.6789 99.612C34.6789 101.124 33.7969 102.51 32.2009 102.51ZM38.071 103V98.072C38.379 97.484 39.303 96.868 39.989 96.868C40.129 96.868 40.227 96.868 40.353 96.896V96.098C39.415 96.098 38.645 96.644 38.071 97.4V96.238H37.343V103H38.071ZM46.8794 103.168C47.4394 103.168 47.7614 103 48.0274 102.748L47.7474 102.188C47.5934 102.356 47.3134 102.51 46.9914 102.51C46.5154 102.51 46.2914 102.132 46.2914 101.586V96.882H47.6634V96.238H46.2914V94.39H45.5494V96.238H44.4294V96.882H45.5494V101.698C45.5494 102.622 45.9834 103.168 46.8794 103.168ZM54.5569 103V98.24C54.5569 96.714 53.8009 96.07 52.4289 96.07C51.4489 96.07 50.4829 96.672 49.9929 97.26V93.662H49.2649V103H49.9929V97.89C50.4269 97.274 51.3229 96.728 52.1909 96.728C53.1709 96.728 53.8289 97.092 53.8289 98.394V103H54.5569ZM59.8214 103.168C60.9414 103.168 61.7954 102.776 62.4674 102.076L62.0894 101.6C61.5154 102.216 60.7314 102.538 59.8774 102.538C58.2814 102.538 57.3014 101.32 57.2314 99.85H62.8874V99.654C62.8874 97.708 61.7534 96.07 59.6954 96.07C57.8194 96.07 56.4334 97.652 56.4334 99.612C56.4334 101.698 57.8474 103.168 59.8214 103.168ZM62.1454 99.276H57.2314C57.2874 98.1 58.0854 96.7 59.6814 96.7C61.3754 96.7 62.1314 98.128 62.1454 99.276ZM69.8618 103.168C70.4218 103.168 70.7438 103 71.0098 102.748L70.7298 102.188C70.5758 102.356 70.2958 102.51 69.9738 102.51C69.4978 102.51 69.2738 102.132 69.2738 101.586V96.882H70.6458V96.238H69.2738V94.39H68.5318V96.238H67.4118V96.882H68.5318V101.698C68.5318 102.622 68.9658 103.168 69.8618 103.168ZM72.9753 103V98.072C73.2833 97.484 74.2073 96.868 74.8933 96.868C75.0333 96.868 75.1313 96.868 75.2573 96.896V96.098C74.3193 96.098 73.5493 96.644 72.9753 97.4V96.238H72.2473V103H72.9753ZM77.0546 95.174C77.3626 95.174 77.6146 94.922 77.6146 94.614C77.6146 94.306 77.3626 94.068 77.0546 94.068C76.7606 94.068 76.4946 94.306 76.4946 94.614C76.4946 94.922 76.7606 95.174 77.0546 95.174ZM77.4186 103V96.238H76.6906V103H77.4186ZM82.7648 103.168C84.5708 103.168 85.7888 101.768 85.7888 99.612C85.7888 97.442 84.5708 96.07 82.7648 96.07C81.7568 96.07 80.8888 96.616 80.4128 97.302V96.238H79.6848V105.576H80.4128V101.908C80.9588 102.678 81.8128 103.168 82.7648 103.168ZM82.6388 102.51C81.7008 102.51 80.8048 101.922 80.4128 101.278V97.932C80.8048 97.288 81.7008 96.728 82.6388 96.728C84.1508 96.728 85.0048 97.974 85.0048 99.612C85.0048 101.25 84.1508 102.51 82.6388 102.51Z" fill="#323941"/>
<g clip-path="url(#clip0_12750_5958)">
<path d="M73.7493 3.64165L71.3288 1.23775C69.7508 -0.329439 67.0913 -0.420845 65.4 1.03462L61.1475 4.69634C61.0932 4.74322 61.046 4.79868 61.0091 4.85962L56.8683 11.7096L54.2095 12.5893C53.9845 12.6635 53.8154 12.8487 53.7603 13.0768C53.7052 13.3049 53.7744 13.5463 53.942 13.7127L61.1876 20.9081C61.3174 21.037 61.4913 21.1065 61.6706 21.1065C61.7233 21.1065 61.7752 21.1002 61.8271 21.0885C62.0576 21.0346 62.2433 20.8659 62.318 20.6424L63.2045 18.001L70.2024 13.8042C70.2637 13.7674 70.3196 13.7206 70.366 13.6666L73.9656 9.52368C75.4248 7.8479 75.3272 5.20884 73.7493 3.64165ZM72.9335 8.63853L69.4047 12.6995L62.2842 16.9698C62.1449 17.0534 62.0403 17.1831 61.9892 17.3362L61.3725 19.1729L59.7394 17.551L59.7387 17.5502L57.3237 15.1518L57.3229 15.151L55.6899 13.5292L57.5392 12.9167C57.6942 12.8651 57.8248 12.7612 57.909 12.6221L62.1237 5.65025L66.2952 2.05962C67.4555 1.0604 69.2804 1.12212 70.3628 2.19712L72.7833 4.60103C73.8665 5.67681 73.9333 7.48775 72.9335 8.63853Z" fill="#323941"/>
<path d="M71.8126 27.2595C69.8067 25.2681 66.8552 24.5751 64.1807 25.4368L49.6635 11.0189C50.5303 8.3626 49.8334 5.43057 47.8283 3.43916C45.7154 1.34073 42.5524 0.683694 39.7693 1.76729C39.5545 1.85088 39.3972 2.03604 39.35 2.26026C39.3028 2.48448 39.3728 2.71651 39.5357 2.87901L43.881 7.19463L40.9831 10.0728L36.6377 5.75635C36.4749 5.59463 36.2405 5.5251 36.0147 5.57198C35.7889 5.61885 35.6025 5.7751 35.5183 5.98838C34.4281 8.75167 35.0889 11.8931 37.2017 13.9923C39.2076 15.9837 42.1591 16.6767 44.8336 15.8157L50.2621 21.2071L43.5018 27.9212L39.2021 30.3087C39.0826 30.3751 38.9858 30.4759 38.9244 30.5978L36.9925 34.4353C36.8611 34.6962 36.9123 35.0118 37.1207 35.2181L39.5357 37.6165C39.667 37.747 39.8417 37.815 40.0186 37.815C40.1225 37.815 40.2271 37.7915 40.3239 37.7431L44.1878 35.8243C44.3105 35.7634 44.412 35.6673 44.4788 35.5486L46.8828 31.2782L53.643 24.565L59.3508 30.2337C58.4839 32.89 59.1809 35.8212 61.1868 37.8134C62.6232 39.24 64.5457 40.0001 66.5036 40.0001C67.4255 40.0001 68.3553 39.8314 69.2458 39.4853C69.4605 39.4017 69.6179 39.2165 69.6651 38.9923C69.7123 38.7681 69.6423 38.5361 69.4794 38.3736L65.1341 34.0579L68.032 31.1798L72.3774 35.4954C72.5402 35.6571 72.7746 35.7267 73.0004 35.6798C73.2261 35.6329 73.4126 35.4767 73.4967 35.2634C74.5862 32.4993 73.9254 29.3579 71.8126 27.2595ZM45.8499 30.3853C45.8051 30.4298 45.7673 30.479 45.7366 30.5337L43.3893 34.704L40.1539 36.3111L38.4352 34.604L40.0533 31.3907L44.2523 29.0595C44.3073 29.029 44.3577 28.9915 44.4017 28.947L51.2289 22.1665L52.6778 23.6056L45.8499 30.3853ZM72.5307 33.729L68.515 29.7407C68.2483 29.4759 67.8157 29.4759 67.549 29.7407L63.6851 33.5782C63.5569 33.7056 63.4853 33.8782 63.4853 34.0579C63.4853 34.2376 63.5577 34.4103 63.6851 34.5376L67.7009 38.5259C65.7099 38.9189 63.6214 38.3118 62.1528 36.854C60.4238 35.1368 59.8834 32.5665 60.7754 30.3048C60.8745 30.054 60.8147 29.7681 60.6228 29.5775L45.4944 14.5524C45.3638 14.4228 45.1891 14.354 45.0114 14.354C44.928 14.354 44.843 14.3696 44.762 14.4009C42.4855 15.2868 39.8967 14.7501 38.1677 13.0329C36.6991 11.5743 36.0879 9.5001 36.4843 7.52276L40.5001 11.511C40.7667 11.7759 41.1994 11.7759 41.466 11.511L45.33 7.67354C45.5966 7.4087 45.5966 6.97901 45.33 6.71417L41.3142 2.72588C43.3052 2.33213 45.3937 2.93994 46.8623 4.39776C48.5913 6.11495 49.1317 8.68526 48.2397 10.947C48.1406 11.1978 48.2004 11.4837 48.3923 11.6743L63.5207 26.6993C63.7127 26.89 64.0006 26.9493 64.2531 26.8509C66.5304 25.965 69.1184 26.5017 70.8474 28.2189C72.3152 29.6775 72.9264 31.7517 72.5307 33.729Z" fill="#323941"/>
</g>
<defs>
<clipPath id="clip0_12750_5958">
<rect width="40" height="40" fill="white" transform="translate(35)"/>
</clipPath>
</defs>
</svg>
