<svg width="111" height="87" viewBox="0 0 111 87" fill="none" xmlns="http://www.w3.org/2000/svg">
<path d="M27.1911 66V56.662H26.3791V60.834H20.4571V56.662H19.6591V66H20.4571V61.562H26.3791V66H27.1911ZM32.3308 66.168C34.3328 66.168 35.5928 64.586 35.5928 62.612C35.5928 60.638 34.3328 59.07 32.3308 59.07C30.3568 59.07 29.0828 60.638 29.0828 62.612C29.0828 64.586 30.3568 66.168 32.3308 66.168ZM32.3308 65.51C30.7628 65.51 29.8668 64.124 29.8668 62.612C29.8668 61.114 30.7628 59.728 32.3308 59.728C33.9268 59.728 34.8088 61.114 34.8088 62.612C34.8088 64.124 33.9268 65.51 32.3308 65.51ZM43.9689 66L46.1669 59.238H45.3829L43.5909 64.978L41.6869 59.238H41.0569L39.1529 64.978L37.3609 59.238H36.5769L38.7749 66H39.4749L41.3789 60.218L43.2689 66H43.9689ZM52.6284 66.168C53.1884 66.168 53.5104 66 53.7764 65.748L53.4964 65.188C53.3424 65.356 53.0624 65.51 52.7404 65.51C52.2644 65.51 52.0404 65.132 52.0404 64.586V59.882H53.4124V59.238H52.0404V57.39H51.2984V59.238H50.1784V59.882H51.2984V64.698C51.2984 65.622 51.7324 66.168 52.6284 66.168ZM57.8699 66.168C59.8719 66.168 61.1319 64.586 61.1319 62.612C61.1319 60.638 59.8719 59.07 57.8699 59.07C55.8959 59.07 54.6219 60.638 54.6219 62.612C54.6219 64.586 55.8959 66.168 57.8699 66.168ZM57.8699 65.51C56.3019 65.51 55.4059 64.124 55.4059 62.612C55.4059 61.114 56.3019 59.728 57.8699 59.728C59.4659 59.728 60.3479 61.114 60.3479 62.612C60.3479 64.124 59.4659 65.51 57.8699 65.51ZM67.363 66V61.072C67.671 60.484 68.595 59.868 69.281 59.868C69.421 59.868 69.519 59.868 69.645 59.896V59.098C68.707 59.098 67.937 59.644 67.363 60.4V59.238H66.635V66H67.363ZM71.4423 58.174C71.7503 58.174 72.0023 57.922 72.0023 57.614C72.0023 57.306 71.7503 57.068 71.4423 57.068C71.1483 57.068 70.8823 57.306 70.8823 57.614C70.8823 57.922 71.1483 58.174 71.4423 58.174ZM71.8063 66V59.238H71.0783V66H71.8063ZM79.7985 66V56.662H79.0565V60.33C78.5105 59.56 77.6705 59.07 76.7045 59.07C74.9125 59.07 73.6805 60.484 73.6805 62.626C73.6805 64.796 74.9125 66.168 76.7045 66.168C77.7125 66.168 78.5805 65.622 79.0565 64.922V66H79.7985ZM76.8305 65.51C75.3325 65.51 74.4645 64.264 74.4645 62.626C74.4645 60.988 75.3325 59.728 76.8305 59.728C77.7825 59.728 78.6645 60.302 79.0565 60.96V64.306C78.6645 64.95 77.7825 65.51 76.8305 65.51ZM85.0665 66.168C86.1865 66.168 87.0405 65.776 87.7125 65.076L87.3345 64.6C86.7605 65.216 85.9765 65.538 85.1225 65.538C83.5265 65.538 82.5465 64.32 82.4765 62.85H88.1325V62.654C88.1325 60.708 86.9985 59.07 84.9405 59.07C83.0645 59.07 81.6785 60.652 81.6785 62.612C81.6785 64.698 83.0925 66.168 85.0665 66.168ZM87.3905 62.276H82.4765C82.5325 61.1 83.3305 59.7 84.9265 59.7C86.6205 59.7 87.3765 61.128 87.3905 62.276ZM34.4894 83.168C36.2954 83.168 37.5134 81.768 37.5134 79.612C37.5134 77.442 36.2954 76.07 34.4894 76.07C33.4814 76.07 32.6134 76.616 32.1374 77.302V76.238H31.4094V85.576H32.1374V81.908C32.6834 82.678 33.5374 83.168 34.4894 83.168ZM34.3634 82.51C33.4254 82.51 32.5294 81.922 32.1374 81.278V77.932C32.5294 77.288 33.4254 76.728 34.3634 76.728C35.8754 76.728 36.7294 77.974 36.7294 79.612C36.7294 81.25 35.8754 82.51 34.3634 82.51ZM40.0808 83V78.072C40.3888 77.484 41.3128 76.868 41.9988 76.868C42.1388 76.868 42.2368 76.868 42.3628 76.896V76.098C41.4248 76.098 40.6548 76.644 40.0808 77.4V76.238H39.3528V83H40.0808ZM46.6521 83.168C48.6541 83.168 49.9141 81.586 49.9141 79.612C49.9141 77.638 48.6541 76.07 46.6521 76.07C44.6781 76.07 43.4041 77.638 43.4041 79.612C43.4041 81.586 44.6781 83.168 46.6521 83.168ZM46.6521 82.51C45.0841 82.51 44.1881 81.124 44.1881 79.612C44.1881 78.114 45.0841 76.728 46.6521 76.728C48.2481 76.728 49.1301 78.114 49.1301 79.612C49.1301 81.124 48.2481 82.51 46.6521 82.51ZM54.8742 83.168C56.6802 83.168 57.8982 81.768 57.8982 79.612C57.8982 77.442 56.6802 76.07 54.8742 76.07C53.8662 76.07 52.9982 76.616 52.5222 77.302V76.238H51.7942V85.576H52.5222V81.908C53.0682 82.678 53.9222 83.168 54.8742 83.168ZM54.7482 82.51C53.8102 82.51 52.9142 81.922 52.5222 81.278V77.932C52.9142 77.288 53.8102 76.728 54.7482 76.728C56.2602 76.728 57.1142 77.974 57.1142 79.612C57.1142 81.25 56.2602 82.51 54.7482 82.51ZM62.7335 83.168C63.8535 83.168 64.7075 82.776 65.3795 82.076L65.0015 81.6C64.4275 82.216 63.6435 82.538 62.7895 82.538C61.1935 82.538 60.2135 81.32 60.1435 79.85H65.7995V79.654C65.7995 77.708 64.6655 76.07 62.6075 76.07C60.7315 76.07 59.3455 77.652 59.3455 79.612C59.3455 81.698 60.7595 83.168 62.7335 83.168ZM65.0575 79.276H60.1435C60.1995 78.1 60.9975 76.7 62.5935 76.7C64.2875 76.7 65.0435 78.128 65.0575 79.276ZM68.4089 83V78.072C68.7169 77.484 69.6409 76.868 70.3269 76.868C70.4669 76.868 70.5649 76.868 70.6909 76.896V76.098C69.7529 76.098 68.9829 76.644 68.4089 77.4V76.238H67.6809V83H68.4089ZM72.8522 83V73.662H72.1242V83H72.8522ZM74.6704 85.646C74.8524 85.702 75.1604 85.744 75.3844 85.744C76.1824 85.744 76.7564 85.338 77.1204 84.484L80.6204 76.238H79.7944L77.3584 82.146L74.8944 76.238H74.0824L76.9384 83.056L76.4064 84.26C76.1404 84.904 75.8324 85.086 75.3844 85.086C75.2164 85.086 74.9504 85.044 74.7964 84.974L74.6704 85.646Z" fill="#323941"/>
<g clip-path="url(#clip0_12750_5959)">
<path d="M69.1421 5.85782C65.3646 2.08032 60.3421 0 55 0C49.6579 0 44.6354 2.08032 40.8578 5.85782C37.0803 9.63532 35 14.6578 35 20C35 25.3422 37.0803 30.3646 40.8578 34.1422C44.6353 37.9197 49.6577 40 54.9999 40C60.3421 40 65.3645 37.9197 69.1421 34.1422C72.9196 30.3647 74.9999 25.3422 74.9999 20C74.9999 14.6578 72.9196 9.63532 69.1421 5.85782ZM55 38.4167C44.8449 38.4167 36.5833 30.155 36.5833 20C36.5833 9.84502 44.8449 1.58327 55 1.58327C65.1551 1.58327 73.4167 9.84502 73.4167 20C73.4166 30.155 65.155 38.4167 55 38.4167Z" fill="#323941"/>
<path d="M55 5.00781C46.7334 5.00781 40.0079 11.7332 40.0079 19.9999C40.0079 28.2665 46.7333 34.9919 55 34.9919C63.2667 34.9919 69.992 28.2665 69.992 19.9999C69.992 11.7332 63.2666 5.00781 55 5.00781ZM55 33.4086C47.6064 33.4086 41.5912 27.3934 41.5912 19.9999C41.5912 12.6063 47.6063 6.59108 55 6.59108C62.3937 6.59108 68.4088 12.6062 68.4088 19.9999C68.4088 27.3935 62.3936 33.4086 55 33.4086Z" fill="#323941"/>
<path d="M57.7825 19.9996C57.7825 18.4651 56.5342 17.2168 54.9997 17.2168C53.4652 17.2168 52.2169 18.4651 52.2169 19.9996C52.2169 21.534 53.4652 22.7823 54.9997 22.7823C56.5342 22.7823 57.7825 21.534 57.7825 19.9996ZM53.8002 19.9996C53.8002 19.3381 54.3383 18.8001 54.9997 18.8001C55.6611 18.8001 56.1993 19.3382 56.1993 19.9996C56.1993 20.661 55.6611 21.1991 54.9997 21.1991C54.3383 21.1991 53.8002 20.6609 53.8002 19.9996Z" fill="#323941"/>
<path d="M54.9999 7.73047C48.2344 7.73047 42.7303 13.2345 42.7303 20C42.7303 26.7655 48.2345 32.2695 54.9999 32.2695C61.7653 32.2695 67.2695 26.7655 67.2695 20C67.2695 13.2345 61.7653 7.73047 54.9999 7.73047ZM65.6861 20.0001C65.6861 21.1531 65.5018 22.2639 65.1623 23.3052L60.8333 20.4593C60.6097 20.3123 60.5856 20.0892 60.5856 20.0001C60.5856 19.911 60.6097 19.6877 60.8333 19.5408L65.1622 16.695C65.5019 17.7362 65.6861 18.8469 65.6861 20.0001ZM62.9382 12.854L58.314 15.1769C58.0748 15.2971 57.8696 15.2063 57.7924 15.1618C57.7153 15.1172 57.534 14.9847 57.5185 14.7176L57.2185 9.54604C59.4656 10.0224 61.4539 11.2067 62.9382 12.854ZM52.7807 9.54612L52.4807 14.7184C52.4652 14.9854 52.284 15.118 52.2069 15.1625C52.1297 15.2071 51.9243 15.2977 51.6853 15.1776L47.0614 12.8542C48.5456 11.2069 50.5339 10.0226 52.7807 9.54612ZM44.3135 20.0001C44.3135 18.847 44.4979 17.7364 44.8373 16.6951L49.166 19.5408C49.3896 19.6877 49.4137 19.9109 49.4137 20C49.4137 20.0891 49.3896 20.3123 49.166 20.4592L44.8373 23.3049C44.4979 22.2637 44.3135 21.1531 44.3135 20.0001ZM47.0615 27.1462L51.6853 24.8231C51.9245 24.703 52.1297 24.7937 52.2069 24.8382C52.284 24.8828 52.4653 25.0153 52.4808 25.2823L52.7808 30.454C50.534 29.9776 48.5459 28.7934 47.0615 27.1462ZM54.3791 30.6679L54.0614 25.1906C54.0197 24.4716 53.6223 23.8273 52.9986 23.4671C52.3748 23.1069 51.6181 23.085 50.9746 23.4083L46.0748 25.87C45.8473 25.5252 45.6391 25.1666 45.452 24.7956L50.0357 21.7822C50.6376 21.3866 50.9969 20.7203 50.9969 20C50.9969 19.2797 50.6376 18.6134 50.0357 18.2177L45.452 15.2044C45.6391 14.8334 45.8472 14.475 46.0746 14.1303L50.9743 16.5924C51.2772 16.7445 51.605 16.8203 51.9323 16.8203C52.3007 16.8203 52.6682 16.7244 52.9984 16.5337C53.6223 16.1735 54.0196 15.5292 54.0613 14.8101L54.379 9.33229C54.5844 9.32051 54.7913 9.31382 54.9997 9.31382C55.208 9.31382 55.4148 9.32051 55.6202 9.33229L55.9379 14.8094C55.9797 15.5285 56.3769 16.1728 57.0007 16.533C57.331 16.7237 57.6986 16.8197 58.0669 16.8197C58.3941 16.8197 58.722 16.744 59.0247 16.5918L63.9249 14.1302C64.1524 14.4749 64.3605 14.8334 64.5476 15.2043L59.9636 18.2178C59.3617 18.6135 59.0024 19.2797 59.0024 20C59.0024 20.7203 59.3617 21.3866 59.9636 21.7822L64.5477 24.7958C64.3606 25.1667 64.1525 25.5252 63.9251 25.8698L59.025 23.4075C58.3814 23.0841 57.6247 23.1061 57.0009 23.4662C56.3771 23.8263 55.9797 24.4707 55.938 25.1899L55.6202 30.6679C55.4149 30.6797 55.2082 30.6863 54.9999 30.6863C54.7914 30.6863 54.5846 30.6797 54.3791 30.6679ZM57.2186 30.454L57.5186 25.2816C57.5341 25.0145 57.7153 24.882 57.7925 24.8374C57.8696 24.7929 58.075 24.7021 58.3141 24.8223L62.9384 27.1459C61.454 28.7933 59.4656 29.9777 57.2186 30.454Z" fill="#323941"/>
</g>
<defs>
<clipPath id="clip0_12750_5959">
<rect width="40" height="40" fill="white" transform="translate(35)"/>
</clipPath>
</defs>
</svg>
