<svg width="167" height="22" viewBox="0 0 167 22" fill="none" xmlns="http://www.w3.org/2000/svg">
<path d="M37.682 17L32.84 4.994H30.986L26.162 17H27.872L28.934 14.336H34.91L35.972 17H37.682ZM34.46 13.004H29.366L31.922 6.542L34.46 13.004ZM41.2003 17.216C41.9923 17.216 42.4783 16.982 42.8203 16.658L42.4243 15.65C42.2443 15.848 41.8843 16.01 41.5063 16.01C40.9123 16.01 40.6243 15.542 40.6243 14.894V9.494H42.3883V8.306H40.6243V5.93H39.2743V8.306H37.8343V9.494H39.2743V15.182C39.2743 16.478 39.9223 17.216 41.2003 17.216ZM56.1393 17V10.718C56.1393 8.972 55.2933 8.09 53.7093 8.09C52.4493 8.09 51.2793 8.918 50.7933 9.71C50.5413 8.81 49.7853 8.09 48.4533 8.09C47.1753 8.09 46.0053 9.008 45.6453 9.566V8.306H44.2953V17H45.6453V10.646C46.1133 9.944 47.0493 9.296 47.9313 9.296C49.0653 9.296 49.5333 9.998 49.5333 11.096V17H50.8833V10.628C51.3333 9.944 52.2873 9.296 53.1873 9.296C54.3033 9.296 54.7893 9.998 54.7893 11.096V17H56.1393ZM62.6304 17.216C65.2764 17.216 66.9324 15.164 66.9324 12.644C66.9324 10.124 65.2764 8.09 62.6304 8.09C59.9844 8.09 58.3284 10.124 58.3284 12.644C58.3284 15.164 59.9844 17.216 62.6304 17.216ZM62.6304 16.01C60.7764 16.01 59.7324 14.426 59.7324 12.644C59.7324 10.88 60.7764 9.296 62.6304 9.296C64.4844 9.296 65.5104 10.88 65.5104 12.644C65.5104 14.426 64.4844 16.01 62.6304 16.01ZM71.8872 17.216C74.1372 17.216 75.3072 16.046 75.3072 14.588C75.3072 11.204 69.9252 12.464 69.9252 10.556C69.9252 9.782 70.6632 9.188 71.8512 9.188C72.9672 9.188 73.9212 9.656 74.4432 10.286L75.0732 9.35C74.3712 8.648 73.3272 8.09 71.8512 8.09C69.7812 8.09 68.6112 9.242 68.6112 10.592C68.6112 13.814 73.9932 12.518 73.9932 14.624C73.9932 15.488 73.2732 16.118 71.9412 16.118C70.7532 16.118 69.6552 15.542 69.0792 14.876L68.3772 15.848C69.2592 16.784 70.4652 17.216 71.8872 17.216ZM81.7844 17.216C84.0704 17.216 85.6544 15.452 85.6544 12.644C85.6544 9.818 84.0704 8.09 81.7844 8.09C80.5604 8.09 79.4804 8.72 78.8504 9.602V8.306H77.5004V20.312H78.8504V15.686C79.5524 16.658 80.5964 17.216 81.7844 17.216ZM81.4424 16.01C80.3804 16.01 79.3184 15.362 78.8504 14.606V10.682C79.3184 9.926 80.3804 9.296 81.4424 9.296C83.1884 9.296 84.2324 10.718 84.2324 12.644C84.2324 14.57 83.1884 16.01 81.4424 16.01ZM95.0372 17V10.862C95.0372 8.972 94.0832 8.09 92.2652 8.09C90.9512 8.09 89.7632 8.846 89.1512 9.566V4.994H87.8012V17H89.1512V10.646C89.6732 9.944 90.6812 9.296 91.7252 9.296C92.8952 9.296 93.6872 9.746 93.6872 11.276V17H95.0372ZM101.657 17.216C103.079 17.216 104.249 16.748 105.113 15.884L104.465 15.002C103.781 15.704 102.773 16.1 101.783 16.1C99.9108 16.1 98.7588 14.732 98.6508 13.094H105.689V12.752C105.689 10.142 104.141 8.09 101.513 8.09C99.0288 8.09 97.2288 10.124 97.2288 12.644C97.2288 15.362 99.0828 17.216 101.657 17.216ZM104.357 12.104H98.6508C98.7228 10.772 99.6408 9.206 101.495 9.206C103.475 9.206 104.339 10.808 104.357 12.104ZM109.225 17V10.844C109.621 10.142 110.755 9.458 111.583 9.458C111.799 9.458 111.961 9.476 112.123 9.512V8.126C110.935 8.126 109.927 8.792 109.225 9.71V8.306H107.875V17H109.225ZM117.741 17.216C119.163 17.216 120.333 16.748 121.197 15.884L120.549 15.002C119.865 15.704 118.857 16.1 117.867 16.1C115.995 16.1 114.843 14.732 114.735 13.094H121.773V12.752C121.773 10.142 120.225 8.09 117.597 8.09C115.113 8.09 113.313 10.124 113.313 12.644C113.313 15.362 115.167 17.216 117.741 17.216ZM120.441 12.104H114.735C114.807 10.772 115.725 9.206 117.579 9.206C119.559 9.206 120.423 10.808 120.441 12.104ZM135.728 17V15.668H130.148V4.994H128.654V17H135.728ZM138.442 7.064C138.946 7.064 139.36 6.668 139.36 6.164C139.36 5.66 138.946 5.246 138.442 5.246C137.956 5.246 137.542 5.66 137.542 6.164C137.542 6.668 137.956 7.064 138.442 7.064ZM139.126 17V8.306H137.776V17H139.126ZM145.311 20.528C147.435 20.528 149.451 19.628 149.451 16.748V8.306H148.101V9.62C147.399 8.666 146.355 8.09 145.185 8.09C142.899 8.09 141.315 9.818 141.315 12.608C141.315 15.416 142.917 17.108 145.185 17.108C146.409 17.108 147.471 16.442 148.101 15.56V16.802C148.101 18.71 146.751 19.412 145.311 19.412C144.069 19.412 143.205 19.088 142.485 18.224L141.801 19.232C142.827 20.24 143.835 20.528 145.311 20.528ZM145.509 15.92C143.763 15.92 142.719 14.516 142.719 12.608C142.719 10.682 143.763 9.296 145.509 9.296C146.589 9.296 147.633 9.944 148.101 10.7V14.498C147.633 15.254 146.589 15.92 145.509 15.92ZM159.391 17V10.862C159.391 8.972 158.437 8.09 156.619 8.09C155.305 8.09 154.117 8.846 153.505 9.566V4.994H152.155V17H153.505V10.646C154.027 9.944 155.035 9.296 156.079 9.296C157.249 9.296 158.041 9.746 158.041 11.276V17H159.391ZM164.282 17.216C165.074 17.216 165.56 16.982 165.902 16.658L165.506 15.65C165.326 15.848 164.966 16.01 164.588 16.01C163.994 16.01 163.706 15.542 163.706 14.894V9.494H165.47V8.306H163.706V5.93H162.356V8.306H160.916V9.494H162.356V15.182C162.356 16.478 163.004 17.216 164.282 17.216Z" fill="#009EFF"/>
<path d="M4.42043 6.42043L3.19663 5.19663M8.5 3V4.73077V3ZM8.5 16.2692V18V16.2692ZM13.8034 5.19663L12.5796 6.42043L13.8034 5.19663ZM4.42043 14.5796L3.19663 15.8034L4.42043 14.5796ZM16 10.5H14.2692H16ZM2.73077 10.5H1H2.73077ZM13.8034 15.8034L12.5796 14.5796L13.8034 15.8034Z" stroke="#009EFF" stroke-miterlimit="10" stroke-linecap="round" stroke-linejoin="round"/>
<path d="M8.50022 13.227C10.0065 13.227 11.2275 12.006 11.2275 10.4997C11.2275 8.9935 10.0065 7.77246 8.50022 7.77246C6.99399 7.77246 5.77295 8.9935 5.77295 10.4997C5.77295 12.006 6.99399 13.227 8.50022 13.227Z" stroke="#009EFF" stroke-miterlimit="10" stroke-linecap="round" stroke-linejoin="round"/>
</svg>
