<svg width="128" height="24" viewBox="0 0 128 24" fill="none" xmlns="http://www.w3.org/2000/svg">
<path d="M41.62 18V4.66H39.24L35.08 14.7L30.94 4.66H28.56V18H30.22V7.02L34.74 18H35.42L39.96 7.02V18H41.62ZM52.2119 18V11.36C52.2119 9.02 50.5119 8.1 48.4719 8.1C46.8919 8.1 45.6519 8.62 44.6119 9.7L45.3119 10.74C46.1719 9.82 47.1119 9.4 48.2719 9.4C49.6719 9.4 50.7119 10.14 50.7119 11.44V13.18C49.9319 12.28 48.8319 11.86 47.5119 11.86C45.8719 11.86 44.1319 12.88 44.1319 15.04C44.1319 17.14 45.8719 18.24 47.5119 18.24C48.8119 18.24 49.9119 17.78 50.7119 16.9V18H52.2119ZM48.0519 17.16C46.6519 17.16 45.6719 16.28 45.6719 15.06C45.6719 13.82 46.6519 12.94 48.0519 12.94C49.1119 12.94 50.1319 13.34 50.7119 14.14V15.96C50.1319 16.76 49.1119 17.16 48.0519 17.16ZM63.2188 18L59.4988 13.04L62.9988 8.34H61.2588L58.5788 12.02L55.8988 8.34H54.1588L57.6588 13.04L53.9588 18H55.6788L58.5788 14.04L61.4788 18H63.2188ZM65.7453 18.2C66.3453 18.2 66.8453 17.7 66.8453 17.1C66.8453 16.5 66.3453 16 65.7453 16C65.1453 16 64.6453 16.5 64.6453 17.1C64.6453 17.7 65.1453 18.2 65.7453 18.2ZM77.7709 18.24C80.2709 18.24 81.5709 16.94 81.5709 15.32C81.5709 11.56 75.5909 12.96 75.5909 10.84C75.5909 9.98 76.4109 9.32 77.7309 9.32C78.9709 9.32 80.0309 9.84 80.6109 10.54L81.3109 9.5C80.5309 8.72 79.3709 8.1 77.7309 8.1C75.4309 8.1 74.1309 9.38 74.1309 10.88C74.1309 14.46 80.1109 13.02 80.1109 15.36C80.1109 16.32 79.3109 17.02 77.8309 17.02C76.5109 17.02 75.2909 16.38 74.6509 15.64L73.8709 16.72C74.8509 17.76 76.1909 18.24 77.7709 18.24ZM88.7678 18.24C91.3078 18.24 93.0678 16.28 93.0678 13.16C93.0678 10.02 91.3078 8.1 88.7678 8.1C87.4078 8.1 86.2078 8.8 85.5078 9.78V8.34H84.0078V21.68H85.5078V16.54C86.2878 17.62 87.4478 18.24 88.7678 18.24ZM88.3878 16.9C87.2078 16.9 86.0278 16.18 85.5078 15.34V10.98C86.0278 10.14 87.2078 9.44 88.3878 9.44C90.3278 9.44 91.4878 11.02 91.4878 13.16C91.4878 15.3 90.3278 16.9 88.3878 16.9ZM99.8131 18.24C101.393 18.24 102.693 17.72 103.653 16.76L102.933 15.78C102.173 16.56 101.053 17 99.9531 17C97.8731 17 96.5931 15.48 96.4731 13.66H104.293V13.28C104.293 10.38 102.573 8.1 99.6531 8.1C96.8931 8.1 94.8931 10.36 94.8931 13.16C94.8931 16.18 96.9531 18.24 99.8131 18.24ZM102.813 12.56H96.4731C96.5531 11.08 97.5731 9.34 99.6331 9.34C101.833 9.34 102.793 11.12 102.813 12.56ZM111.083 18.24C112.663 18.24 113.963 17.72 114.923 16.76L114.203 15.78C113.443 16.56 112.323 17 111.223 17C109.143 17 107.863 15.48 107.743 13.66H115.563V13.28C115.563 10.38 113.843 8.1 110.923 8.1C108.163 8.1 106.163 10.36 106.163 13.16C106.163 16.18 108.223 18.24 111.083 18.24ZM114.083 12.56H107.743C107.823 11.08 108.843 9.34 110.903 9.34C113.103 9.34 114.063 11.12 114.083 12.56ZM126.492 18V4.66H124.992V9.8C124.212 8.74 123.032 8.1 121.732 8.1C119.192 8.1 117.432 10.1 117.432 13.18C117.432 16.32 119.212 18.24 121.732 18.24C123.092 18.24 124.272 17.54 124.992 16.56V18H126.492ZM122.092 16.9C120.152 16.9 118.992 15.32 118.992 13.18C118.992 11.04 120.152 9.44 122.092 9.44C123.292 9.44 124.452 10.16 124.992 11V15.38C124.452 16.22 123.292 16.9 122.092 16.9Z" fill="#009EFF"/>
<path d="M9.5 11C8.67088 11 8 11.672 8 12.5C8 13.328 8.67088 14 9.5 14C10.3291 14 11 13.328 11 12.5C11 11.6716 10.3291 11 9.5 11Z" fill="#009EFF" stroke="#009EFF" stroke-miterlimit="10" stroke-linecap="round" stroke-linejoin="round"/>
<path d="M17.4846 18C17.9933 17.2396 18.3894 16.3976 18.6489 15.4976C18.8775 14.7044 19 13.8662 19 12.9989C19 12.7888 18.9928 12.5805 18.9787 12.374C18.9345 11.7279 18.8221 11.1006 18.6489 10.4992C18.5566 10.1791 18.4471 9.86626 18.3213 9.56187C18.2558 9.4033 18.1859 9.24702 18.1117 9.09317C17.9878 8.83616 17.8521 8.58596 17.7052 8.34327C16.129 5.73905 13.2693 4 10 4C5.026 4 1 8.0255 1 12.9989C1 14.8496 1.558 16.5688 2.51388 17.9978" stroke="#009EFF" stroke-miterlimit="10" stroke-linecap="round" stroke-linejoin="round"/>
<path d="M14.3123 9.39043C14.528 9.21793 14.5629 8.90328 14.3904 8.68765C14.2179 8.47202 13.9033 8.43706 13.6877 8.60957L14.3123 9.39043ZM9.31235 13.3904L14.3123 9.39043L13.6877 8.60957L8.68765 12.6096L9.31235 13.3904Z" fill="#009EFF"/>
</svg>
