<svg width="184" height="22" viewBox="0 0 184 22" fill="none" xmlns="http://www.w3.org/2000/svg">
<path d="M36.34 17V4.994H34.846V14.372L27.934 4.994H26.404V17H27.898V7.424L34.9 17H36.34ZM46.3121 17V8.306H44.9621V14.696C44.4581 15.398 43.4501 16.01 42.3881 16.01C41.2181 16.01 40.4441 15.56 40.4441 14.03V8.306H39.0941V14.444C39.0941 16.334 40.0481 17.216 41.8661 17.216C43.1621 17.216 44.2961 16.532 44.9621 15.776V17H46.3121ZM60.8522 17V10.718C60.8522 8.972 60.0062 8.09 58.4222 8.09C57.1622 8.09 55.9922 8.918 55.5062 9.71C55.2542 8.81 54.4982 8.09 53.1662 8.09C51.8882 8.09 50.7182 9.008 50.3582 9.566V8.306H49.0082V17H50.3582V10.646C50.8262 9.944 51.7622 9.296 52.6442 9.296C53.7782 9.296 54.2462 9.998 54.2462 11.096V17H55.5962V10.628C56.0462 9.944 57.0002 9.296 57.9002 9.296C59.0162 9.296 59.5022 9.998 59.5022 11.096V17H60.8522ZM64.8953 14.642V10.7C65.3633 9.944 66.4253 9.296 67.4873 9.296C69.2513 9.296 70.2953 10.736 70.2953 12.662C70.2953 14.588 69.2513 16.01 67.4873 16.01C66.4253 16.01 65.3633 15.398 64.8953 14.642ZM64.8953 17V15.704C65.5433 16.586 66.6053 17.216 67.8293 17.216C70.0973 17.216 71.6993 15.488 71.6993 12.662C71.6993 9.89 70.0973 8.09 67.8293 8.09C66.6413 8.09 65.5973 8.666 64.8953 9.62V4.994H63.5453V17H64.8953ZM77.8228 17.216C79.2448 17.216 80.4148 16.748 81.2788 15.884L80.6308 15.002C79.9468 15.704 78.9388 16.1 77.9488 16.1C76.0768 16.1 74.9248 14.732 74.8168 13.094H81.8548V12.752C81.8548 10.142 80.3068 8.09 77.6788 8.09C75.1948 8.09 73.3948 10.124 73.3948 12.644C73.3948 15.362 75.2488 17.216 77.8228 17.216ZM80.5228 12.104H74.8168C74.8888 10.772 75.8068 9.206 77.6608 9.206C79.6408 9.206 80.5048 10.808 80.5228 12.104ZM85.3914 17V10.844C85.7874 10.142 86.9214 9.458 87.7494 9.458C87.9654 9.458 88.1274 9.476 88.2894 9.512V8.126C87.1014 8.126 86.0934 8.792 85.3914 9.71V8.306H84.0414V17H85.3914ZM98.4214 17.216C101.067 17.216 102.723 15.164 102.723 12.644C102.723 10.124 101.067 8.09 98.4214 8.09C95.7754 8.09 94.1194 10.124 94.1194 12.644C94.1194 15.164 95.7754 17.216 98.4214 17.216ZM98.4214 16.01C96.5674 16.01 95.5234 14.426 95.5234 12.644C95.5234 10.88 96.5674 9.296 98.4214 9.296C100.275 9.296 101.301 10.88 101.301 12.644C101.301 14.426 100.275 16.01 98.4214 16.01ZM106.652 17V9.494H108.416V8.306H106.652V7.64C106.652 6.542 107.138 5.93 108.02 5.93C108.47 5.93 108.812 6.11 109.1 6.362L109.658 5.48C109.118 4.976 108.506 4.814 107.822 4.814C106.274 4.814 105.302 5.858 105.302 7.64V8.306H103.862V9.494H105.302V17H106.652ZM120.189 17C122.385 17 123.663 15.686 123.663 13.76C123.663 12.32 122.601 11.006 121.323 10.808C122.421 10.574 123.429 9.566 123.429 8.054C123.429 6.254 122.151 4.994 120.063 4.994H114.717V17H120.189ZM119.811 10.196H116.211V6.326H119.811C121.161 6.326 121.881 7.19 121.881 8.27C121.881 9.368 121.161 10.196 119.811 10.196ZM119.883 15.668H116.211V11.528H119.883C121.359 11.528 122.115 12.5 122.115 13.598C122.115 14.876 121.287 15.668 119.883 15.668ZM132.769 17V11.024C132.769 8.918 131.239 8.09 129.403 8.09C127.981 8.09 126.865 8.558 125.929 9.53L126.559 10.466C127.333 9.638 128.179 9.26 129.223 9.26C130.483 9.26 131.419 9.926 131.419 11.096V12.662C130.717 11.852 129.727 11.474 128.539 11.474C127.063 11.474 125.497 12.392 125.497 14.336C125.497 16.226 127.063 17.216 128.539 17.216C129.709 17.216 130.699 16.802 131.419 16.01V17H132.769ZM129.025 16.244C127.765 16.244 126.883 15.452 126.883 14.354C126.883 13.238 127.765 12.446 129.025 12.446C129.979 12.446 130.897 12.806 131.419 13.526V15.164C130.897 15.884 129.979 16.244 129.025 16.244ZM137.671 17.216C138.463 17.216 138.949 16.982 139.291 16.658L138.895 15.65C138.715 15.848 138.355 16.01 137.977 16.01C137.383 16.01 137.095 15.542 137.095 14.894V9.494H138.859V8.306H137.095V5.93H135.745V8.306H134.305V9.494H135.745V15.182C135.745 16.478 136.393 17.216 137.671 17.216ZM142.962 17.216C143.754 17.216 144.24 16.982 144.582 16.658L144.186 15.65C144.006 15.848 143.646 16.01 143.268 16.01C142.674 16.01 142.386 15.542 142.386 14.894V9.494H144.15V8.306H142.386V5.93H141.036V8.306H139.596V9.494H141.036V15.182C141.036 16.478 141.684 17.216 142.962 17.216ZM149.981 17.216C151.403 17.216 152.573 16.748 153.437 15.884L152.789 15.002C152.105 15.704 151.097 16.1 150.107 16.1C148.235 16.1 147.083 14.732 146.975 13.094H154.013V12.752C154.013 10.142 152.465 8.09 149.837 8.09C147.353 8.09 145.553 10.124 145.553 12.644C145.553 15.362 147.407 17.216 149.981 17.216ZM152.681 12.104H146.975C147.047 10.772 147.965 9.206 149.819 9.206C151.799 9.206 152.663 10.808 152.681 12.104ZM157.55 17V10.844C157.946 10.142 159.08 9.458 159.908 9.458C160.124 9.458 160.286 9.476 160.448 9.512V8.126C159.26 8.126 158.252 8.792 157.55 9.71V8.306H156.2V17H157.55ZM162.807 7.064C163.311 7.064 163.725 6.668 163.725 6.164C163.725 5.66 163.311 5.246 162.807 5.246C162.321 5.246 161.907 5.66 161.907 6.164C161.907 6.668 162.321 7.064 162.807 7.064ZM163.491 17V8.306H162.141V17H163.491ZM170.108 17.216C171.53 17.216 172.7 16.748 173.564 15.884L172.916 15.002C172.232 15.704 171.224 16.1 170.234 16.1C168.362 16.1 167.21 14.732 167.102 13.094H174.14V12.752C174.14 10.142 172.592 8.09 169.964 8.09C167.48 8.09 165.68 10.124 165.68 12.644C165.68 15.362 167.534 17.216 170.108 17.216ZM172.808 12.104H167.102C167.174 10.772 168.092 9.206 169.946 9.206C171.926 9.206 172.79 10.808 172.808 12.104ZM179.081 17.216C181.331 17.216 182.501 16.046 182.501 14.588C182.501 11.204 177.119 12.464 177.119 10.556C177.119 9.782 177.857 9.188 179.045 9.188C180.161 9.188 181.115 9.656 181.637 10.286L182.267 9.35C181.565 8.648 180.521 8.09 179.045 8.09C176.975 8.09 175.805 9.242 175.805 10.592C175.805 13.814 181.187 12.518 181.187 14.624C181.187 15.488 180.467 16.118 179.135 16.118C177.947 16.118 176.849 15.542 176.273 14.876L175.571 15.848C176.453 16.784 177.659 17.216 179.081 17.216Z" fill="#009EFF"/>
<rect x="4.25" y="16.751" width="11.5" height="0.5" rx="0.25" transform="rotate(-90 4.25 16.751)" fill="white" stroke="#009EFF" stroke-width="0.5"/>
<rect x="7.25" y="16.751" width="11.5" height="0.5" rx="0.25" transform="rotate(-90 7.25 16.751)" fill="white" stroke="#009EFF" stroke-width="0.5"/>
<rect x="10.25" y="16.751" width="11.5" height="0.5" rx="0.25" transform="rotate(-90 10.25 16.751)" fill="white" stroke="#009EFF" stroke-width="0.5"/>
<rect x="13.25" y="16.751" width="11.5" height="0.5" rx="0.25" transform="rotate(-90 13.25 16.751)" fill="white" stroke="#009EFF" stroke-width="0.5"/>
</svg>
