<svg width="136" height="22" viewBox="0 0 136 22" fill="none" xmlns="http://www.w3.org/2000/svg">
<path d="M28.898 17V12.23H32.228C34.604 12.23 35.99 10.574 35.99 8.612C35.99 6.65 34.64 4.994 32.228 4.994H27.404V17H28.898ZM32.048 10.898H28.898V6.326H32.048C33.47 6.326 34.442 7.262 34.442 8.612C34.442 9.962 33.47 10.898 32.048 10.898ZM41.4839 17.216C44.1299 17.216 45.7859 15.164 45.7859 12.644C45.7859 10.124 44.1299 8.09 41.4839 8.09C38.8379 8.09 37.1819 10.124 37.1819 12.644C37.1819 15.164 38.8379 17.216 41.4839 17.216ZM41.4839 16.01C39.6299 16.01 38.5859 14.426 38.5859 12.644C38.5859 10.88 39.6299 9.296 41.4839 9.296C43.3379 9.296 44.3639 10.88 44.3639 12.644C44.3639 14.426 43.3379 16.01 41.4839 16.01ZM56.8607 17L59.6327 8.306H58.2287L56.1047 15.236L53.8187 8.306H52.6667L50.3807 15.236L48.2567 8.306H46.8527L49.6247 17H50.9747L53.2427 10.016L55.5107 17H56.8607ZM65.1295 17.216C66.5515 17.216 67.7215 16.748 68.5855 15.884L67.9375 15.002C67.2535 15.704 66.2455 16.1 65.2555 16.1C63.3835 16.1 62.2315 14.732 62.1235 13.094H69.1615V12.752C69.1615 10.142 67.6135 8.09 64.9855 8.09C62.5015 8.09 60.7015 10.124 60.7015 12.644C60.7015 15.362 62.5555 17.216 65.1295 17.216ZM67.8295 12.104H62.1235C62.1955 10.772 63.1135 9.206 64.9675 9.206C66.9475 9.206 67.8115 10.808 67.8295 12.104ZM72.698 17V10.844C73.094 10.142 74.228 9.458 75.056 9.458C75.272 9.458 75.434 9.476 75.596 9.512V8.126C74.408 8.126 73.4 8.792 72.698 9.71V8.306H71.348V17H72.698ZM87.4561 17.216C91.0021 17.216 93.4141 14.552 93.4141 11.006C93.4141 7.46 91.0021 4.796 87.4561 4.796C83.8921 4.796 81.4981 7.46 81.4981 11.006C81.4981 14.552 83.8921 17.216 87.4561 17.216ZM87.4561 15.884C84.7561 15.884 83.0461 13.796 83.0461 11.006C83.0461 8.198 84.7561 6.128 87.4561 6.128C90.1381 6.128 91.8661 8.198 91.8661 11.006C91.8661 13.796 90.1381 15.884 87.4561 15.884ZM102.912 17V8.306H101.562V14.696C101.058 15.398 100.05 16.01 98.9878 16.01C97.8178 16.01 97.0438 15.56 97.0438 14.03V8.306H95.6938V14.444C95.6938 16.334 96.6478 17.216 98.4658 17.216C99.7618 17.216 100.896 16.532 101.562 15.776V17H102.912ZM107.804 17.216C108.596 17.216 109.082 16.982 109.424 16.658L109.028 15.65C108.848 15.848 108.488 16.01 108.11 16.01C107.516 16.01 107.228 15.542 107.228 14.894V9.494H108.992V8.306H107.228V5.93H105.878V8.306H104.438V9.494H105.878V15.182C105.878 16.478 106.526 17.216 107.804 17.216ZM115.183 17.216C117.469 17.216 119.053 15.452 119.053 12.644C119.053 9.818 117.469 8.09 115.183 8.09C113.959 8.09 112.879 8.72 112.249 9.602V8.306H110.899V20.312H112.249V15.686C112.951 16.658 113.995 17.216 115.183 17.216ZM114.841 16.01C113.779 16.01 112.717 15.362 112.249 14.606V10.682C112.717 9.926 113.779 9.296 114.841 9.296C116.587 9.296 117.631 10.718 117.631 12.644C117.631 14.57 116.587 16.01 114.841 16.01ZM128.418 17V8.306H127.068V14.696C126.564 15.398 125.556 16.01 124.494 16.01C123.324 16.01 122.55 15.56 122.55 14.03V8.306H121.2V14.444C121.2 16.334 122.154 17.216 123.972 17.216C125.268 17.216 126.402 16.532 127.068 15.776V17H128.418ZM133.31 17.216C134.102 17.216 134.588 16.982 134.93 16.658L134.534 15.65C134.354 15.848 133.994 16.01 133.616 16.01C133.022 16.01 132.734 15.542 132.734 14.894V9.494H134.498V8.306H132.734V5.93H131.384V8.306H129.944V9.494H131.384V15.182C131.384 16.478 132.032 17.216 133.31 17.216Z" fill="#009EFF"/>
<path d="M9 9.5V4M9 4L11.5 6.5M9 4L6.5 6.5" stroke="#009EFF" stroke-linecap="round" stroke-linejoin="round"/>
<path d="M5.80626 8.65254C5.01269 9.28095 4.42328 10.1306 4.11257 11.0939C3.80186 12.0573 3.78381 13.0912 4.06069 14.0649C4.33758 15.0385 4.89696 15.9082 5.66811 16.5639C6.43926 17.2196 7.38753 17.632 8.39302 17.7488C9.39851 17.8656 10.4161 17.6816 11.317 17.2201C12.2179 16.7585 12.9617 16.0402 13.4544 15.156C13.9471 14.2717 14.1665 13.2612 14.0849 12.2523C14.0307 11.5824 13.8451 10.9297 13.5387 10.3315C13.2322 9.73329 12.811 9.20131 12.299 8.76592" stroke="#009EFF" stroke-linecap="round"/>
</svg>
