<svg width="96" height="24" viewBox="0 0 96 24" fill="none" xmlns="http://www.w3.org/2000/svg">
<path d="M29.22 18V12.7H32.92C35.56 12.7 37.1 10.86 37.1 8.68C37.1 6.5 35.6 4.66 32.92 4.66H27.56V18H29.22ZM32.72 11.22H29.22V6.14H32.72C34.3 6.14 35.38 7.18 35.38 8.68C35.38 10.18 34.3 11.22 32.72 11.22ZM46.3877 18V11.36C46.3877 9.02 44.6877 8.1 42.6477 8.1C41.0677 8.1 39.8277 8.62 38.7877 9.7L39.4877 10.74C40.3477 9.82 41.2877 9.4 42.4477 9.4C43.8477 9.4 44.8877 10.14 44.8877 11.44V13.18C44.1077 12.28 43.0077 11.86 41.6877 11.86C40.0477 11.86 38.3077 12.88 38.3077 15.04C38.3077 17.14 40.0477 18.24 41.6877 18.24C42.9877 18.24 44.0877 17.78 44.8877 16.9V18H46.3877ZM42.2277 17.16C40.8277 17.16 39.8477 16.28 39.8477 15.06C39.8477 13.82 40.8277 12.94 42.2277 12.94C43.2877 12.94 44.3077 13.34 44.8877 14.14V15.96C44.3077 16.76 43.2877 17.16 42.2277 17.16ZM48.8545 21.78C49.1345 21.86 49.6345 21.92 49.9545 21.92C51.2345 21.9 52.2145 21.36 52.7945 19.96L57.6345 8.34H55.9945L52.7945 16.26L49.5745 8.34H47.9545L51.9945 18.1L51.3545 19.56C51.0145 20.36 50.5745 20.58 49.9145 20.58C49.6745 20.58 49.3145 20.52 49.0945 20.42L48.8545 21.78ZM60.6992 18V4.66H59.1992V18H60.6992ZM67.9114 18.24C70.8514 18.24 72.6914 15.96 72.6914 13.16C72.6914 10.36 70.8514 8.1 67.9114 8.1C64.9714 8.1 63.1314 10.36 63.1314 13.16C63.1314 15.96 64.9714 18.24 67.9114 18.24ZM67.9114 16.9C65.8514 16.9 64.6914 15.14 64.6914 13.16C64.6914 11.2 65.8514 9.44 67.9114 9.44C69.9714 9.44 71.1114 11.2 71.1114 13.16C71.1114 15.14 69.9714 16.9 67.9114 16.9ZM82.6767 18V11.36C82.6767 9.02 80.9767 8.1 78.9367 8.1C77.3567 8.1 76.1167 8.62 75.0767 9.7L75.7767 10.74C76.6367 9.82 77.5767 9.4 78.7367 9.4C80.1367 9.4 81.1767 10.14 81.1767 11.44V13.18C80.3967 12.28 79.2967 11.86 77.9767 11.86C76.3367 11.86 74.5967 12.88 74.5967 15.04C74.5967 17.14 76.3367 18.24 77.9767 18.24C79.2767 18.24 80.3767 17.78 81.1767 16.9V18H82.6767ZM78.5167 17.16C77.1167 17.16 76.1367 16.28 76.1367 15.06C76.1367 13.82 77.1167 12.94 78.5167 12.94C79.5767 12.94 80.5967 13.34 81.1767 14.14V15.96C80.5967 16.76 79.5767 17.16 78.5167 17.16ZM94.1836 18V4.66H92.6836V9.8C91.9036 8.74 90.7236 8.1 89.4236 8.1C86.8836 8.1 85.1236 10.1 85.1236 13.18C85.1236 16.32 86.9036 18.24 89.4236 18.24C90.7836 18.24 91.9636 17.54 92.6836 16.56V18H94.1836ZM89.7836 16.9C87.8436 16.9 86.6836 15.32 86.6836 13.18C86.6836 11.04 87.8436 9.44 89.7836 9.44C90.9836 9.44 92.1436 10.16 92.6836 11V15.38C92.1436 16.22 90.9836 16.9 89.7836 16.9Z" fill="#009EFF"/>
<mask id="path-2-inside-1_12748_5924" fill="white">
<path d="M4.83323 5.76398C6.0666 4.93987 7.51664 4.5 9 4.5C9.98492 4.5 10.9602 4.69399 11.8701 5.0709C12.7801 5.44781 13.6069 6.00026 14.3033 6.6967C14.9997 7.39314 15.5522 8.21993 15.9291 9.12987C16.306 10.0398 16.5 11.0151 16.5 12C16.5 13.4834 16.0601 14.9334 15.236 16.1668C14.4119 17.4001 13.2406 18.3614 11.8701 18.9291C10.4997 19.4968 8.99168 19.6453 7.53683 19.3559C6.08197 19.0665 4.7456 18.3522 3.6967 17.3033C2.64781 16.2544 1.9335 14.918 1.64411 13.4632C1.35472 12.0083 1.50325 10.5003 2.07091 9.12987C2.63856 7.75943 3.59986 6.58809 4.83323 5.76398Z"/>
</mask>
<path d="M8.5 15C8.5 15.2761 8.72386 15.5 9 15.5C9.27614 15.5 9.5 15.2761 9.5 15H8.5ZM9 9.5L9.35355 9.14645C9.15829 8.95118 8.84171 8.95118 8.64645 9.14645L9 9.5ZM11.1464 12.3536C11.3417 12.5488 11.6583 12.5488 11.8536 12.3536C12.0488 12.1583 12.0488 11.8417 11.8536 11.6464L11.1464 12.3536ZM6.14645 11.6464C5.95118 11.8417 5.95118 12.1583 6.14645 12.3536C6.34171 12.5488 6.65829 12.5488 6.85355 12.3536L6.14645 11.6464ZM9.5 15V9.5H8.5V15H9.5ZM8.64645 9.85355L11.1464 12.3536L11.8536 11.6464L9.35355 9.14645L8.64645 9.85355ZM8.64645 9.14645L6.14645 11.6464L6.85355 12.3536L9.35355 9.85355L8.64645 9.14645ZM4.83323 5.76398L5.3888 6.59545H5.3888L4.83323 5.76398ZM3.6967 17.3033L2.9896 18.0104L3.6967 17.3033ZM15.9291 9.12987L15.0052 9.51256L15.9291 9.12987ZM14.3033 6.6967L13.5962 7.40381L14.3033 6.6967ZM9 3.5C7.31886 3.5 5.67547 3.99852 4.27766 4.93251L5.3888 6.59545C6.45772 5.88122 7.71442 5.5 9 5.5V3.5ZM4.27766 4.93251C2.87984 5.8665 1.79037 7.19402 1.14703 8.74719L2.99479 9.51256C3.48676 8.32484 4.31988 7.30968 5.3888 6.59545L4.27766 4.93251ZM1.14703 8.74719C0.503682 10.3004 0.335354 12.0094 0.663328 13.6583L2.6249 13.2681C2.3741 12.0072 2.50282 10.7003 2.99479 9.51256L1.14703 8.74719ZM0.663328 13.6583C0.991303 15.3071 1.80085 16.8217 2.9896 18.0104L4.40381 16.5962C3.49477 15.6872 2.8757 14.529 2.6249 13.2681L0.663328 13.6583ZM2.9896 18.0104C4.17834 19.1992 5.6929 20.0087 7.34174 20.3367L7.73192 18.3751C6.47104 18.1243 5.31285 17.5052 4.40381 16.5962L2.9896 18.0104ZM7.34174 20.3367C8.99057 20.6646 10.6996 20.4963 12.2528 19.853L11.4874 18.0052C10.2997 18.4972 8.99279 18.6259 7.73192 18.3751L7.34174 20.3367ZM12.2528 19.853C13.806 19.2096 15.1335 18.1202 16.0675 16.7223L14.4046 15.6112C13.6903 16.6801 12.6752 17.5132 11.4874 18.0052L12.2528 19.853ZM16.0675 16.7223C17.0015 15.3245 17.5 13.6811 17.5 12H15.5C15.5 13.2856 15.1188 14.5423 14.4046 15.6112L16.0675 16.7223ZM17.5 12C17.5 10.8838 17.2801 9.77846 16.853 8.74719L15.0052 9.51256C15.3319 10.3012 15.5 11.1464 15.5 12H17.5ZM16.853 8.74719C16.4258 7.71592 15.7997 6.77889 15.0104 5.98959L13.5962 7.40381C14.1998 8.00739 14.6786 8.72394 15.0052 9.51256L16.853 8.74719ZM15.0104 5.98959C14.2211 5.20029 13.2841 4.57419 12.2528 4.14702L11.4874 5.99478C12.2761 6.32144 12.9926 6.80022 13.5962 7.40381L15.0104 5.98959ZM12.2528 4.14702C11.2215 3.71986 10.1162 3.5 9 3.5V5.5C9.8536 5.5 10.6988 5.66813 11.4874 5.99478L12.2528 4.14702Z" fill="#009EFF" mask="url(#path-2-inside-1_12748_5924)"/>
</svg>
