<svg width="127" height="22" viewBox="0 0 127 22" fill="none" xmlns="http://www.w3.org/2000/svg">
<path d="M39.158 17V4.994H37.016L33.272 14.03L29.546 4.994H27.404V17H28.898V7.118L32.966 17H33.578L37.664 7.118V17H39.158ZM45.7027 17.216C48.3487 17.216 50.0047 15.164 50.0047 12.644C50.0047 10.124 48.3487 8.09 45.7027 8.09C43.0567 8.09 41.4007 10.124 41.4007 12.644C41.4007 15.164 43.0567 17.216 45.7027 17.216ZM45.7027 16.01C43.8487 16.01 42.8047 14.426 42.8047 12.644C42.8047 10.88 43.8487 9.296 45.7027 9.296C47.5567 9.296 48.5827 10.88 48.5827 12.644C48.5827 14.426 47.5567 16.01 45.7027 16.01ZM54.4015 17.216C55.1935 17.216 55.6795 16.982 56.0215 16.658L55.6255 15.65C55.4455 15.848 55.0855 16.01 54.7075 16.01C54.1135 16.01 53.8255 15.542 53.8255 14.894V9.494H55.5895V8.306H53.8255V5.93H52.4755V8.306H51.0355V9.494H52.4755V15.182C52.4755 16.478 53.1235 17.216 54.4015 17.216ZM61.2945 17.216C63.9405 17.216 65.5965 15.164 65.5965 12.644C65.5965 10.124 63.9405 8.09 61.2945 8.09C58.6485 8.09 56.9925 10.124 56.9925 12.644C56.9925 15.164 58.6485 17.216 61.2945 17.216ZM61.2945 16.01C59.4405 16.01 58.3965 14.426 58.3965 12.644C58.3965 10.88 59.4405 9.296 61.2945 9.296C63.1485 9.296 64.1745 10.88 64.1745 12.644C64.1745 14.426 63.1485 16.01 61.2945 16.01ZM69.1473 17V10.844C69.5433 10.142 70.6773 9.458 71.5053 9.458C71.7213 9.458 71.8833 9.476 72.0453 9.512V8.126C70.8573 8.126 69.8493 8.792 69.1473 9.71V8.306H67.7973V17H69.1473ZM82.6633 17.216C84.9493 17.216 86.5333 15.452 86.5333 12.644C86.5333 9.818 84.9493 8.09 82.6633 8.09C81.4393 8.09 80.3593 8.72 79.7293 9.602V8.306H78.3793V20.312H79.7293V15.686C80.4313 16.658 81.4753 17.216 82.6633 17.216ZM82.3213 16.01C81.2593 16.01 80.1973 15.362 79.7293 14.606V10.682C80.1973 9.926 81.2593 9.296 82.3213 9.296C84.0673 9.296 85.1113 10.718 85.1113 12.644C85.1113 14.57 84.0673 16.01 82.3213 16.01ZM92.4781 17.216C95.1241 17.216 96.7801 15.164 96.7801 12.644C96.7801 10.124 95.1241 8.09 92.4781 8.09C89.8321 8.09 88.1761 10.124 88.1761 12.644C88.1761 15.164 89.8321 17.216 92.4781 17.216ZM92.4781 16.01C90.6241 16.01 89.5801 14.426 89.5801 12.644C89.5801 10.88 90.6241 9.296 92.4781 9.296C94.3321 9.296 95.3581 10.88 95.3581 12.644C95.3581 14.426 94.3321 16.01 92.4781 16.01ZM107.855 17L110.627 8.306H109.223L107.099 15.236L104.813 8.306H103.661L101.375 15.236L99.2509 8.306H97.8469L100.619 17H101.969L104.237 10.016L106.505 17H107.855ZM116.124 17.216C117.546 17.216 118.716 16.748 119.58 15.884L118.932 15.002C118.248 15.704 117.24 16.1 116.25 16.1C114.378 16.1 113.226 14.732 113.118 13.094H120.156V12.752C120.156 10.142 118.608 8.09 115.98 8.09C113.496 8.09 111.696 10.124 111.696 12.644C111.696 15.362 113.55 17.216 116.124 17.216ZM118.824 12.104H113.118C113.19 10.772 114.108 9.206 115.962 9.206C117.942 9.206 118.806 10.808 118.824 12.104ZM123.692 17V10.844C124.088 10.142 125.222 9.458 126.05 9.458C126.266 9.458 126.428 9.476 126.59 9.512V8.126C125.402 8.126 124.394 8.792 123.692 9.71V8.306H122.342V17H123.692Z" fill="#009EFF"/>
<path d="M13.6424 8.98926L13.6436 8.99154C13.661 9.02569 13.6687 9.06399 13.6658 9.10222C13.6628 9.14022 13.6495 9.17668 13.6273 9.20765C13.6272 9.20783 13.6271 9.20802 13.6269 9.2082L7.96192 16.9976C7.96187 16.9977 7.96182 16.9977 7.96176 16.9978C7.94239 17.0243 7.91705 17.0458 7.8878 17.0606C7.85964 17.0748 7.82863 17.0825 7.79711 17.083C7.77234 17.0821 7.74778 17.0781 7.72401 17.0711C7.68362 17.0572 7.64845 17.0312 7.62331 16.9966C7.59749 16.961 7.58357 16.9182 7.58354 16.8743V12.6247V12.1247H7.08354H3.55593C3.51812 12.1216 3.4818 12.1083 3.45092 12.0861C3.41799 12.0625 3.39268 12.0297 3.37811 11.9918L3.37108 11.9735L3.36263 11.9558C3.34681 11.9227 3.34002 11.886 3.34295 11.8494C3.34577 11.8142 3.35749 11.7803 3.37698 11.7509L9.03853 3.9663C9.0386 3.9662 9.03867 3.9661 9.03874 3.966C9.06471 3.93059 9.10119 3.90429 9.143 3.89085C9.18492 3.87738 9.23003 3.87753 9.27186 3.8913L9.27186 3.8913L9.27372 3.8919C9.31723 3.90603 9.35488 3.93408 9.38086 3.97174C9.40684 4.00939 9.41971 4.05455 9.41747 4.10024L9.41687 4.11245V4.12467V8.37467V8.87467H9.91687H13.4576C13.4959 8.87489 13.5333 8.88565 13.5659 8.90578C13.5986 8.92601 13.6251 8.9549 13.6424 8.98926Z" stroke="#009EFF"/>
</svg>
