<svg width="16" height="16" viewBox="0 0 16 16" fill="none" xmlns="http://www.w3.org/2000/svg">
<path d="M13 2V6.586L6 13.586L1.414 9L8.414 2H13ZM14 2C14 1.73478 13.8946 1.48043 13.7071 1.29289C13.5196 1.10536 13.2652 1 13 1H8.414C8.14881 1.00006 7.89449 1.10545 7.707 1.293L0.707 8.293C0.519529 8.48053 0.414213 8.73484 0.414213 9C0.414213 9.26516 0.519529 9.51947 0.707 9.707L5.293 14.293C5.48053 14.4805 5.73484 14.5858 6 14.5858C6.26516 14.5858 6.51947 14.4805 6.707 14.293L13.707 7.293C13.8945 7.10551 13.9999 6.85119 14 6.586V2Z" fill="#009EFF"/>
<path d="M10.5 5C10.6326 5 10.7598 4.94732 10.8536 4.85355C10.9473 4.75979 11 4.63261 11 4.5C11 4.36739 10.9473 4.24021 10.8536 4.14645C10.7598 4.05268 10.6326 4 10.5 4C10.3674 4 10.2402 4.05268 10.1464 4.14645C10.0527 4.24021 10 4.36739 10 4.5C10 4.63261 10.0527 4.75979 10.1464 4.85355C10.2402 4.94732 10.3674 5 10.5 5ZM10.5 6C10.1022 6 9.72064 5.84196 9.43934 5.56066C9.15804 5.27936 9 4.89782 9 4.5C9 4.10218 9.15804 3.72064 9.43934 3.43934C9.72064 3.15804 10.1022 3 10.5 3C10.8978 3 11.2794 3.15804 11.5607 3.43934C11.842 3.72064 12 4.10218 12 4.5C12 4.89782 11.842 5.27936 11.5607 5.56066C11.2794 5.84196 10.8978 6 10.5 6ZM15 7.086C14.9999 7.35119 14.8945 7.60551 14.707 7.793L7.25 15.25L7.293 15.293C7.48053 15.4805 7.73484 15.5858 8 15.5858C8.26516 15.5858 8.51947 15.4805 8.707 15.293L15.707 8.293C15.8945 8.10551 15.9999 7.85119 16 7.586V3C16 2.73478 15.8946 2.48043 15.7071 2.29289C15.5196 2.10536 15.2652 2 15 2V7.086Z" fill="#009EFF"/>
</svg>
