<svg width="140" height="24" viewBox="0 0 140 24" fill="none" xmlns="http://www.w3.org/2000/svg">
<path d="M34.24 18L30.64 12.56C32.46 12.4 34.1 11.08 34.1 8.68C34.1 6.22 32.36 4.66 29.92 4.66H24.56V18H26.22V12.7H28.88L32.28 18H34.24ZM29.72 11.24H26.22V6.14H29.72C31.3 6.14 32.38 7.18 32.38 8.68C32.38 10.18 31.3 11.24 29.72 11.24ZM43.8173 18V11.36C43.8173 9.02 42.1173 8.1 40.0773 8.1C38.4973 8.1 37.2573 8.62 36.2173 9.7L36.9173 10.74C37.7773 9.82 38.7173 9.4 39.8773 9.4C41.2773 9.4 42.3173 10.14 42.3173 11.44V13.18C41.5373 12.28 40.4373 11.86 39.1173 11.86C37.4773 11.86 35.7373 12.88 35.7373 15.04C35.7373 17.14 37.4773 18.24 39.1173 18.24C40.4173 18.24 41.5173 17.78 42.3173 16.9V18H43.8173ZM39.6573 17.16C38.2573 17.16 37.2773 16.28 37.2773 15.06C37.2773 13.82 38.2573 12.94 39.6573 12.94C40.7173 12.94 41.7373 13.34 42.3173 14.14V15.96C41.7373 16.76 40.7173 17.16 39.6573 17.16ZM54.8442 18V11.22C54.8442 9.12 53.7842 8.1 51.7642 8.1C50.3242 8.1 49.0042 8.94 48.3242 9.74V8.34H46.8242V18H48.3242V10.94C48.8842 10.16 50.0042 9.44 51.1842 9.44C52.4842 9.44 53.3442 9.98 53.3442 11.68V18H54.8442ZM61.7198 21.92C64.0798 21.92 66.3198 20.92 66.3198 17.72V8.34H64.8198V9.8C64.0398 8.74 62.8798 8.1 61.5798 8.1C59.0398 8.1 57.2798 10.02 57.2798 13.12C57.2798 16.24 59.0598 18.12 61.5798 18.12C62.9398 18.12 64.1198 17.38 64.8198 16.4V17.78C64.8198 19.9 63.3198 20.68 61.7198 20.68C60.3398 20.68 59.3798 20.32 58.5798 19.36L57.8198 20.48C58.9598 21.6 60.0798 21.92 61.7198 21.92ZM61.9398 16.8C59.9998 16.8 58.8398 15.24 58.8398 13.12C58.8398 10.98 59.9998 9.44 61.9398 9.44C63.1398 9.44 64.2998 10.16 64.8198 11V15.22C64.2998 16.06 63.1398 16.8 61.9398 16.8ZM73.6842 18.24C75.2642 18.24 76.5642 17.72 77.5242 16.76L76.8042 15.78C76.0442 16.56 74.9242 17 73.8242 17C71.7442 17 70.4642 15.48 70.3442 13.66H78.1642V13.28C78.1642 10.38 76.4442 8.1 73.5242 8.1C70.7642 8.1 68.7642 10.36 68.7642 13.16C68.7642 16.18 70.8242 18.24 73.6842 18.24ZM76.6842 12.56H70.3442C70.4242 11.08 71.4442 9.34 73.5042 9.34C75.7042 9.34 76.6642 11.12 76.6842 12.56ZM88.85 21.28C87.57 18.76 86.77 16.46 86.77 13.14C86.77 9.8 87.57 7.52 88.85 4.98L87.95 4.3C86.15 6.78 85.13 9.92 85.13 13.14C85.13 16.36 86.15 19.52 87.95 21.98L88.85 21.28ZM103.871 18V11.02C103.871 9.08 102.931 8.1 101.171 8.1C99.7709 8.1 98.4709 9.02 97.9309 9.9C97.6509 8.9 96.8109 8.1 95.3309 8.1C93.9109 8.1 92.6109 9.12 92.2109 9.74V8.34H90.7109V18H92.2109V10.94C92.7309 10.16 93.7709 9.44 94.7509 9.44C96.0109 9.44 96.5309 10.22 96.5309 11.44V18H98.0309V10.92C98.5309 10.16 99.5909 9.44 100.591 9.44C101.831 9.44 102.371 10.22 102.371 11.44V18H103.871ZM107.603 6.96C108.163 6.96 108.623 6.52 108.623 5.96C108.623 5.4 108.163 4.94 107.603 4.94C107.063 4.94 106.603 5.4 106.603 5.96C106.603 6.52 107.063 6.96 107.603 6.96ZM108.363 18V8.34H106.863V18H108.363ZM112.855 18V4.66H111.355V18H112.855ZM120.208 18.24C121.788 18.24 123.088 17.72 124.048 16.76L123.328 15.78C122.568 16.56 121.448 17 120.348 17C118.268 17 116.988 15.48 116.868 13.66H124.688V13.28C124.688 10.38 122.968 8.1 120.048 8.1C117.288 8.1 115.288 10.36 115.288 13.16C115.288 16.18 117.348 18.24 120.208 18.24ZM123.208 12.56H116.868C116.948 11.08 117.968 9.34 120.028 9.34C122.228 9.34 123.188 11.12 123.208 12.56ZM130.177 18.24C132.677 18.24 133.977 16.94 133.977 15.32C133.977 11.56 127.997 12.96 127.997 10.84C127.997 9.98 128.817 9.32 130.137 9.32C131.377 9.32 132.437 9.84 133.017 10.54L133.717 9.5C132.937 8.72 131.777 8.1 130.137 8.1C127.837 8.1 126.537 9.38 126.537 10.88C126.537 14.46 132.517 13.02 132.517 15.36C132.517 16.32 131.717 17.02 130.237 17.02C128.917 17.02 127.697 16.38 127.057 15.64L126.277 16.72C127.257 17.76 128.597 18.24 130.177 18.24ZM136.154 21.98C137.974 19.52 138.994 16.36 138.994 13.14C138.994 9.92 137.974 6.78 136.154 4.3L135.254 4.98C136.554 7.52 137.354 9.8 137.354 13.14C137.354 16.46 136.554 18.76 135.254 21.28L136.154 21.98Z" fill="#009EFF"/>
<g clip-path="url(#clip0_12748_5921)">
<path d="M2.84375 12.3125H10.1562C11.7244 12.3125 13 11.0369 13 9.46875C13 7.90062 11.7244 6.625 10.1562 6.625H3.25C3.25 5.72719 2.52281 5 1.625 5C0.727188 5 0 5.72719 0 6.625C0 7.52281 0.727188 8.25 1.625 8.25C2.22462 8.25 2.743 7.92094 3.02494 7.4375H10.1562C11.2759 7.4375 12.1875 8.34912 12.1875 9.46875C12.1875 10.5884 11.2759 11.5 10.1562 11.5H2.84375C1.27562 11.5 0 12.7756 0 14.3438C0 15.9119 1.27562 17.1875 2.84375 17.1875H9.97506C10.2562 17.6709 10.7746 18 11.375 18C12.2728 18 13 17.2728 13 16.375C13 15.4772 12.2728 14.75 11.375 14.75C10.4772 14.75 9.75 15.4772 9.75 16.375H2.84375C1.72413 16.375 0.8125 15.4634 0.8125 14.3438C0.8125 13.2241 1.72413 12.3125 2.84375 12.3125Z" fill="#009EFF"/>
</g>
<defs>
<clipPath id="clip0_12748_5921">
<rect width="13" height="13" fill="white" transform="translate(0 5)"/>
</clipPath>
</defs>
</svg>
