<svg width="164" height="22" viewBox="0 0 164 22" fill="none" xmlns="http://www.w3.org/2000/svg">
<path d="M28.292 17.216C31.532 17.216 32.72 15.434 32.72 13.688C32.72 9.206 25.61 10.754 25.61 8.054C25.61 6.92 26.636 6.146 28.076 6.146C29.39 6.146 30.65 6.596 31.55 7.586L32.45 6.488C31.442 5.426 30.02 4.814 28.184 4.814C25.826 4.814 24.062 6.164 24.062 8.144C24.062 12.428 31.172 10.718 31.172 13.814C31.172 14.732 30.488 15.884 28.346 15.884C26.654 15.884 25.358 15.056 24.566 14.174L23.684 15.308C24.674 16.424 26.204 17.216 28.292 17.216ZM42.1329 17V10.862C42.1329 8.972 41.1789 8.09 39.3609 8.09C38.0469 8.09 36.8589 8.846 36.2469 9.566V4.994H34.8969V17H36.2469V10.646C36.7689 9.944 37.7769 9.296 38.8209 9.296C39.9909 9.296 40.7829 9.746 40.7829 11.276V17H42.1329ZM48.6265 17.216C51.2725 17.216 52.9285 15.164 52.9285 12.644C52.9285 10.124 51.2725 8.09 48.6265 8.09C45.9805 8.09 44.3245 10.124 44.3245 12.644C44.3245 15.164 45.9805 17.216 48.6265 17.216ZM48.6265 16.01C46.7725 16.01 45.7285 14.426 45.7285 12.644C45.7285 10.88 46.7725 9.296 48.6265 9.296C50.4805 9.296 51.5065 10.88 51.5065 12.644C51.5065 14.426 50.4805 16.01 48.6265 16.01ZM58.9633 17.216C60.5473 17.216 61.4833 16.568 62.1493 15.704L61.2493 14.876C60.6733 15.65 59.9353 16.01 59.0353 16.01C57.1813 16.01 56.0293 14.57 56.0293 12.644C56.0293 10.718 57.1813 9.296 59.0353 9.296C59.9353 9.296 60.6733 9.638 61.2493 10.43L62.1493 9.602C61.4833 8.738 60.5473 8.09 58.9633 8.09C56.3713 8.09 54.6253 10.07 54.6253 12.644C54.6253 15.236 56.3713 17.216 58.9633 17.216ZM71.6914 17L67.8214 12.248L71.6734 8.306H69.9634L65.3914 12.932V4.994H64.0414V17H65.3914V14.516L66.8314 13.094L69.9634 17H71.6914ZM88.2601 17L83.4181 4.994H81.5641L76.7401 17H78.4501L79.5121 14.336H85.4881L86.5501 17H88.2601ZM85.0381 13.004H79.9441L82.5001 6.542L85.0381 13.004ZM91.1258 14.642V10.7C91.5938 9.944 92.6558 9.296 93.7178 9.296C95.4818 9.296 96.5258 10.736 96.5258 12.662C96.5258 14.588 95.4818 16.01 93.7178 16.01C92.6558 16.01 91.5938 15.398 91.1258 14.642ZM91.1258 17V15.704C91.7738 16.586 92.8358 17.216 94.0598 17.216C96.3278 17.216 97.9298 15.488 97.9298 12.662C97.9298 9.89 96.3278 8.09 94.0598 8.09C92.8718 8.09 91.8278 8.666 91.1258 9.62V4.994H89.7758V17H91.1258ZM102.883 17.216C105.133 17.216 106.303 16.046 106.303 14.588C106.303 11.204 100.921 12.464 100.921 10.556C100.921 9.782 101.659 9.188 102.847 9.188C103.963 9.188 104.917 9.656 105.439 10.286L106.069 9.35C105.367 8.648 104.323 8.09 102.847 8.09C100.777 8.09 99.6073 9.242 99.6073 10.592C99.6073 13.814 104.989 12.518 104.989 14.624C104.989 15.488 104.269 16.118 102.937 16.118C101.749 16.118 100.651 15.542 100.075 14.876L99.3733 15.848C100.255 16.784 101.461 17.216 102.883 17.216ZM112.294 17.216C114.94 17.216 116.596 15.164 116.596 12.644C116.596 10.124 114.94 8.09 112.294 8.09C109.648 8.09 107.992 10.124 107.992 12.644C107.992 15.164 109.648 17.216 112.294 17.216ZM112.294 16.01C110.44 16.01 109.396 14.426 109.396 12.644C109.396 10.88 110.44 9.296 112.294 9.296C114.148 9.296 115.174 10.88 115.174 12.644C115.174 14.426 114.148 16.01 112.294 16.01ZM120.147 17V10.844C120.543 10.142 121.677 9.458 122.505 9.458C122.721 9.458 122.883 9.476 123.045 9.512V8.126C121.857 8.126 120.849 8.792 120.147 9.71V8.306H118.797V17H120.147ZM129.023 17.216C131.309 17.216 132.893 15.452 132.893 12.644C132.893 9.818 131.309 8.09 129.023 8.09C127.799 8.09 126.719 8.72 126.089 9.602V8.306H124.739V20.312H126.089V15.686C126.791 16.658 127.835 17.216 129.023 17.216ZM128.681 16.01C127.619 16.01 126.557 15.362 126.089 14.606V10.682C126.557 9.926 127.619 9.296 128.681 9.296C130.427 9.296 131.471 10.718 131.471 12.644C131.471 14.57 130.427 16.01 128.681 16.01ZM137.235 17.216C138.027 17.216 138.513 16.982 138.855 16.658L138.459 15.65C138.279 15.848 137.919 16.01 137.541 16.01C136.947 16.01 136.659 15.542 136.659 14.894V9.494H138.423V8.306H136.659V5.93H135.309V8.306H133.869V9.494H135.309V15.182C135.309 16.478 135.957 17.216 137.235 17.216ZM140.996 7.064C141.5 7.064 141.914 6.668 141.914 6.164C141.914 5.66 141.5 5.246 140.996 5.246C140.51 5.246 140.096 5.66 140.096 6.164C140.096 6.668 140.51 7.064 140.996 7.064ZM141.68 17V8.306H140.33V17H141.68ZM148.171 17.216C150.817 17.216 152.473 15.164 152.473 12.644C152.473 10.124 150.817 8.09 148.171 8.09C145.525 8.09 143.869 10.124 143.869 12.644C143.869 15.164 145.525 17.216 148.171 17.216ZM148.171 16.01C146.317 16.01 145.273 14.426 145.273 12.644C145.273 10.88 146.317 9.296 148.171 9.296C150.025 9.296 151.051 10.88 151.051 12.644C151.051 14.426 150.025 16.01 148.171 16.01ZM161.892 17V10.898C161.892 9.008 160.938 8.09 159.12 8.09C157.824 8.09 156.636 8.846 156.024 9.566V8.306H154.674V17H156.024V10.646C156.528 9.944 157.536 9.296 158.598 9.296C159.768 9.296 160.542 9.782 160.542 11.312V17H161.892Z" fill="#009EFF"/>
<circle cx="8" cy="10" r="7.5" stroke="#009EFF"/>
<circle cx="8" cy="10" r="2.5" stroke="#009EFF"/>
</svg>
