<svg width="141" height="24" viewBox="0 0 141 24" fill="none" xmlns="http://www.w3.org/2000/svg">
<path d="M30.88 18.24C33.24 18.24 34.84 17.12 35.96 15.6L34.54 14.82C33.78 15.96 32.4 16.76 30.88 16.76C27.96 16.76 25.74 14.5 25.74 11.34C25.74 8.16 27.96 5.92 30.88 5.92C32.4 5.92 33.78 6.74 34.54 7.86L35.94 7.08C34.88 5.58 33.24 4.44 30.88 4.44C27.04 4.44 24.02 7.24 24.02 11.34C24.02 15.44 27.04 18.24 30.88 18.24ZM46.0556 18V11.18C46.0556 9.08 44.9956 8.1 42.9756 8.1C41.5156 8.1 40.1956 8.94 39.5156 9.74V4.66H38.0156V18H39.5156V10.94C40.0956 10.16 41.2156 9.44 42.3756 9.44C43.6756 9.44 44.5556 9.94 44.5556 11.64V18H46.0556ZM56.5908 18V11.36C56.5908 9.02 54.8908 8.1 52.8508 8.1C51.2708 8.1 50.0308 8.62 48.9908 9.7L49.6908 10.74C50.5508 9.82 51.4908 9.4 52.6508 9.4C54.0508 9.4 55.0908 10.14 55.0908 11.44V13.18C54.3108 12.28 53.2108 11.86 51.8908 11.86C50.2508 11.86 48.5108 12.88 48.5108 15.04C48.5108 17.14 50.2508 18.24 51.8908 18.24C53.1908 18.24 54.2908 17.78 55.0908 16.9V18H56.5908ZM52.4308 17.16C51.0308 17.16 50.0508 16.28 50.0508 15.06C50.0508 13.82 51.0308 12.94 52.4308 12.94C53.4908 12.94 54.5108 13.34 55.0908 14.14V15.96C54.5108 16.76 53.4908 17.16 52.4308 17.16ZM61.0977 18V11.16C61.5377 10.38 62.7977 9.62 63.7177 9.62C63.9577 9.62 64.1377 9.64 64.3177 9.68V8.14C62.9977 8.14 61.8777 8.88 61.0977 9.9V8.34H59.5977V18H61.0977ZM70.0792 21.92C72.4392 21.92 74.6792 20.92 74.6792 17.72V8.34H73.1792V9.8C72.3992 8.74 71.2392 8.1 69.9392 8.1C67.3992 8.1 65.6392 10.02 65.6392 13.12C65.6392 16.24 67.4192 18.12 69.9392 18.12C71.2992 18.12 72.4792 17.38 73.1792 16.4V17.78C73.1792 19.9 71.6792 20.68 70.0792 20.68C68.6992 20.68 67.7392 20.32 66.9392 19.36L66.1792 20.48C67.3192 21.6 68.4392 21.92 70.0792 21.92ZM70.2992 16.8C68.3592 16.8 67.1992 15.24 67.1992 13.12C67.1992 10.98 68.3592 9.44 70.2992 9.44C71.4992 9.44 72.6592 10.16 73.1792 11V15.22C72.6592 16.06 71.4992 16.8 70.2992 16.8ZM78.4236 6.96C78.9836 6.96 79.4436 6.52 79.4436 5.96C79.4436 5.4 78.9836 4.94 78.4236 4.94C77.8836 4.94 77.4236 5.4 77.4236 5.96C77.4236 6.52 77.8836 6.96 78.4236 6.96ZM79.1836 18V8.34H77.6836V18H79.1836ZM90.1958 18V11.22C90.1958 9.12 89.1358 8.1 87.1158 8.1C85.6758 8.1 84.3558 8.94 83.6758 9.74V8.34H82.1758V18H83.6758V10.94C84.2358 10.16 85.3558 9.44 86.5358 9.44C87.8358 9.44 88.6958 9.98 88.6958 11.68V18H90.1958ZM103.368 18V6.14H107.608V4.66H97.4877V6.14H101.708V18H103.368ZM110.494 6.96C111.054 6.96 111.514 6.52 111.514 5.96C111.514 5.4 111.054 4.94 110.494 4.94C109.954 4.94 109.494 5.4 109.494 5.96C109.494 6.52 109.954 6.96 110.494 6.96ZM111.254 18V8.34H109.754V18H111.254ZM127.406 18V11.02C127.406 9.08 126.466 8.1 124.706 8.1C123.306 8.1 122.006 9.02 121.466 9.9C121.186 8.9 120.346 8.1 118.866 8.1C117.446 8.1 116.146 9.12 115.746 9.74V8.34H114.246V18H115.746V10.94C116.266 10.16 117.306 9.44 118.286 9.44C119.546 9.44 120.066 10.22 120.066 11.44V18H121.566V10.92C122.066 10.16 123.126 9.44 124.126 9.44C125.366 9.44 125.906 10.22 125.906 11.44V18H127.406ZM134.758 18.24C136.338 18.24 137.638 17.72 138.598 16.76L137.878 15.78C137.118 16.56 135.998 17 134.898 17C132.818 17 131.538 15.48 131.418 13.66H139.238V13.28C139.238 10.38 137.518 8.1 134.598 8.1C131.838 8.1 129.838 10.36 129.838 13.16C129.838 16.18 131.898 18.24 134.758 18.24ZM137.758 12.56H131.418C131.498 11.08 132.518 9.34 134.578 9.34C136.778 9.34 137.738 11.12 137.758 12.56Z" fill="#009EFF"/>
<path d="M6.5 5C5.21442 5 3.95772 5.38122 2.8888 6.09545C1.81988 6.80968 0.986755 7.82484 0.494786 9.01256C0.00281635 10.2003 -0.125905 11.5072 0.124899 12.7681C0.375702 14.029 0.994767 15.1872 1.90381 16.0962C2.81285 17.0052 3.97104 17.6243 5.23191 17.8751C6.49279 18.1259 7.79972 17.9972 8.98744 17.5052C10.1752 17.0132 11.1903 16.1801 11.9046 15.1112C12.6188 14.0423 13 12.7856 13 11.5C12.998 9.7767 12.3126 8.12454 11.094 6.90598C9.87546 5.68742 8.2233 5.00197 6.5 5ZM6.5 16.7C5.47154 16.7 4.46617 16.395 3.61104 15.8236C2.7559 15.2523 2.0894 14.4401 1.69583 13.49C1.30225 12.5398 1.19928 11.4942 1.39992 10.4855C1.60056 9.47683 2.09581 8.55028 2.82305 7.82304C3.55028 7.09581 4.47683 6.60056 5.48553 6.39992C6.49423 6.19927 7.53978 6.30225 8.48995 6.69583C9.44013 7.0894 10.2523 7.7559 10.8236 8.61103C11.395 9.46617 11.7 10.4715 11.7 11.5C11.6984 12.8786 11.1501 14.2004 10.1752 15.1752C9.20037 16.1501 7.87864 16.6984 6.5 16.7ZM7.15 11.3368V8.25C7.15 8.07761 7.08152 7.91228 6.95962 7.79038C6.83772 7.66848 6.67239 7.6 6.5 7.6C6.32761 7.6 6.16228 7.66848 6.04038 7.79038C5.91848 7.91228 5.85 8.07761 5.85 8.25V11.5C5.85009 11.607 5.87647 11.7124 5.92681 11.8069L6.90181 13.6261C6.9832 13.7782 7.12166 13.8916 7.28671 13.9416C7.45176 13.9915 7.62989 13.9738 7.78191 13.8924C7.93393 13.811 8.04739 13.6726 8.09733 13.5075C8.14727 13.3425 8.12959 13.1643 8.0482 13.0123L7.15 11.3368Z" fill="#009EFF"/>
</svg>
