<svg width="111" height="86" viewBox="0 0 111 86" fill="none" xmlns="http://www.w3.org/2000/svg">
<path d="M17.8053 65V55.662H16.9933V59.834H11.0713V55.662H10.2733V65H11.0713V60.562H16.9933V65H17.8053ZM22.9451 65.168C24.9471 65.168 26.2071 63.586 26.2071 61.612C26.2071 59.638 24.9471 58.07 22.9451 58.07C20.9711 58.07 19.6971 59.638 19.6971 61.612C19.6971 63.586 20.9711 65.168 22.9451 65.168ZM22.9451 64.51C21.3771 64.51 20.4811 63.124 20.4811 61.612C20.4811 60.114 21.3771 58.728 22.9451 58.728C24.5411 58.728 25.4231 60.114 25.4231 61.612C25.4231 63.124 24.5411 64.51 22.9451 64.51ZM34.5831 65L36.7811 58.238H35.9971L34.2051 63.978L32.3011 58.238H31.6711L29.7671 63.978L27.9751 58.238H27.1911L29.3891 65H30.0891L31.9931 59.218L33.8831 65H34.5831ZM43.2427 65.168C43.8027 65.168 44.1247 65 44.3907 64.748L44.1107 64.188C43.9567 64.356 43.6767 64.51 43.3547 64.51C42.8787 64.51 42.6547 64.132 42.6547 63.586V58.882H44.0267V58.238H42.6547V56.39H41.9127V58.238H40.7927V58.882H41.9127V63.698C41.9127 64.622 42.3467 65.168 43.2427 65.168ZM48.4841 65.168C50.4861 65.168 51.7461 63.586 51.7461 61.612C51.7461 59.638 50.4861 58.07 48.4841 58.07C46.5101 58.07 45.2361 59.638 45.2361 61.612C45.2361 63.586 46.5101 65.168 48.4841 65.168ZM48.4841 64.51C46.9161 64.51 46.0201 63.124 46.0201 61.612C46.0201 60.114 46.9161 58.728 48.4841 58.728C50.0801 58.728 50.9621 60.114 50.9621 61.612C50.9621 63.124 50.0801 64.51 48.4841 64.51ZM60.1472 65.168C61.3232 65.168 61.9952 64.706 62.5412 64.006L62.0372 63.558C61.5472 64.23 60.9312 64.51 60.1892 64.51C58.6072 64.51 57.6412 63.236 57.6412 61.612C57.6412 59.988 58.6072 58.728 60.1892 58.728C60.9312 58.728 61.5472 58.994 62.0372 59.666L62.5412 59.218C61.9952 58.532 61.3232 58.07 60.1472 58.07C58.1592 58.07 56.8572 59.638 56.8572 61.612C56.8572 63.586 58.1592 65.168 60.1472 65.168ZM69.4592 65V60.24C69.4592 58.714 68.7032 58.07 67.3312 58.07C66.3512 58.07 65.3852 58.672 64.8952 59.26V55.662H64.1672V65H64.8952V59.89C65.3292 59.274 66.2252 58.728 67.0932 58.728C68.0732 58.728 68.7312 59.092 68.7312 60.394V65H69.4592ZM76.7538 65V60.24C76.7538 58.728 75.6618 58.07 74.2897 58.07C73.1698 58.07 72.3858 58.448 71.6858 59.204L72.0918 59.708C72.7078 59.008 73.3658 58.714 74.2058 58.714C75.2138 58.714 76.0258 59.26 76.0258 60.268V61.64C75.4378 60.982 74.6678 60.674 73.7298 60.674C72.5538 60.674 71.3638 61.444 71.3638 62.914C71.3638 64.37 72.5678 65.168 73.7298 65.168C74.6678 65.168 75.4238 64.86 76.0258 64.202V65H76.7538ZM73.9818 64.594C72.8618 64.594 72.1338 63.88 72.1338 62.928C72.1338 61.962 72.8618 61.248 73.9818 61.248C74.7938 61.248 75.5498 61.57 76.0258 62.186V63.67C75.5498 64.286 74.7938 64.594 73.9818 64.594ZM79.7565 65V60.072C80.0645 59.484 80.9885 58.868 81.6745 58.868C81.8145 58.868 81.9125 58.868 82.0385 58.896V58.098C81.1005 58.098 80.3305 58.644 79.7565 59.4V58.238H79.0285V65H79.7565ZM86.1459 67.744C87.7979 67.744 89.1979 67.002 89.1979 64.93V58.238H88.4559V59.33C87.9099 58.56 87.0699 58.07 86.1039 58.07C84.3119 58.07 83.0799 59.47 83.0799 61.612C83.0799 63.782 84.3119 65.14 86.1039 65.14C87.1119 65.14 87.9799 64.566 88.4559 63.88V64.944C88.4559 66.498 87.3779 67.114 86.1459 67.114C85.1379 67.114 84.4939 66.862 83.9059 66.162L83.4859 66.722C84.2839 67.534 85.0119 67.744 86.1459 67.744ZM86.2299 64.482C84.7319 64.482 83.8639 63.25 83.8639 61.612C83.8639 59.974 84.7319 58.728 86.2299 58.728C87.1679 58.728 88.0639 59.302 88.4559 59.96V63.25C88.0639 63.908 87.1679 64.482 86.2299 64.482ZM94.4523 65.168C95.5723 65.168 96.4263 64.776 97.0983 64.076L96.7203 63.6C96.1463 64.216 95.3623 64.538 94.5083 64.538C92.9123 64.538 91.9323 63.32 91.8623 61.85H97.5183V61.654C97.5183 59.708 96.3843 58.07 94.3263 58.07C92.4503 58.07 91.0643 59.652 91.0643 61.612C91.0643 63.698 92.4783 65.168 94.4523 65.168ZM96.7763 61.276H91.8623C91.9183 60.1 92.7163 58.7 94.3123 58.7C96.0063 58.7 96.7623 60.128 96.7763 61.276ZM33.4071 82V77.24C33.4071 75.728 32.3151 75.07 30.9431 75.07C29.8231 75.07 29.0391 75.448 28.3391 76.204L28.7451 76.708C29.3611 76.008 30.0191 75.714 30.8591 75.714C31.8671 75.714 32.6791 76.26 32.6791 77.268V78.64C32.0911 77.982 31.3211 77.674 30.3831 77.674C29.2071 77.674 28.0171 78.444 28.0171 79.914C28.0171 81.37 29.2211 82.168 30.3831 82.168C31.3211 82.168 32.0771 81.86 32.6791 81.202V82H33.4071ZM30.6351 81.594C29.5151 81.594 28.7871 80.88 28.7871 79.928C28.7871 78.962 29.5151 78.248 30.6351 78.248C31.4471 78.248 32.2031 78.57 32.6791 79.186V80.67C32.2031 81.286 31.4471 81.594 30.6351 81.594ZM41.3209 82.168C43.0149 82.168 43.8549 81.272 43.8549 80.18C43.8549 77.576 39.5849 78.612 39.5849 76.918C39.5849 76.218 40.2289 75.686 41.2789 75.686C42.1749 75.686 42.9029 76.05 43.2949 76.582L43.7009 76.064C43.2109 75.518 42.4409 75.07 41.2789 75.07C39.7529 75.07 38.8709 75.91 38.8709 76.946C38.8709 79.368 43.1409 78.332 43.1409 80.18C43.1409 80.964 42.4689 81.552 41.3349 81.552C40.3829 81.552 39.5849 81.104 39.1509 80.558L38.7169 81.104C39.3889 81.846 40.2289 82.168 41.3209 82.168ZM48.6287 82.168C49.8047 82.168 50.4767 81.706 51.0227 81.006L50.5187 80.558C50.0287 81.23 49.4127 81.51 48.6707 81.51C47.0887 81.51 46.1227 80.236 46.1227 78.612C46.1227 76.988 47.0887 75.728 48.6707 75.728C49.4127 75.728 50.0287 75.994 50.5187 76.666L51.0227 76.218C50.4767 75.532 49.8047 75.07 48.6287 75.07C46.6407 75.07 45.3387 76.638 45.3387 78.612C45.3387 80.586 46.6407 82.168 48.6287 82.168ZM55.5046 82.168C57.5066 82.168 58.7666 80.586 58.7666 78.612C58.7666 76.638 57.5066 75.07 55.5046 75.07C53.5306 75.07 52.2566 76.638 52.2566 78.612C52.2566 80.586 53.5306 82.168 55.5046 82.168ZM55.5046 81.51C53.9366 81.51 53.0406 80.124 53.0406 78.612C53.0406 77.114 53.9366 75.728 55.5046 75.728C57.1006 75.728 57.9826 77.114 57.9826 78.612C57.9826 80.124 57.1006 81.51 55.5046 81.51ZM63.5027 82.168C65.5047 82.168 66.7647 80.586 66.7647 78.612C66.7647 76.638 65.5047 75.07 63.5027 75.07C61.5287 75.07 60.2547 76.638 60.2547 78.612C60.2547 80.586 61.5287 82.168 63.5027 82.168ZM63.5027 81.51C61.9347 81.51 61.0387 80.124 61.0387 78.612C61.0387 77.114 61.9347 75.728 63.5027 75.728C65.0987 75.728 65.9807 77.114 65.9807 78.612C65.9807 80.124 65.0987 81.51 63.5027 81.51ZM70.1147 82.168C70.6747 82.168 70.9967 82 71.2627 81.748L70.9827 81.188C70.8287 81.356 70.5487 81.51 70.2267 81.51C69.7507 81.51 69.5267 81.132 69.5267 80.586V75.882H70.8987V75.238H69.5267V73.39H68.7847V75.238H67.6647V75.882H68.7847V80.698C68.7847 81.622 69.2187 82.168 70.1147 82.168ZM75.4962 82.168C76.6162 82.168 77.4702 81.776 78.1422 81.076L77.7642 80.6C77.1902 81.216 76.4062 81.538 75.5522 81.538C73.9562 81.538 72.9762 80.32 72.9062 78.85H78.5622V78.654C78.5622 76.708 77.4282 75.07 75.3702 75.07C73.4942 75.07 72.1082 76.652 72.1082 78.612C72.1082 80.698 73.5222 82.168 75.4962 82.168ZM77.8202 78.276H72.9062C72.9622 77.1 73.7602 75.7 75.3562 75.7C77.0502 75.7 77.8062 77.128 77.8202 78.276ZM81.1716 82V77.072C81.4796 76.484 82.4036 75.868 83.0896 75.868C83.2296 75.868 83.3276 75.868 83.4536 75.896V75.098C82.5156 75.098 81.7456 75.644 81.1716 76.4V75.238H80.4436V82H81.1716Z" fill="#323941"/>
<path d="M67.6665 10.6666C67.6665 9.53328 66.7999 8.66664 65.6665 8.66664H63.6665V2C63.6665 0.866641 62.7999 0 61.6665 0C60.5332 0 59.6665 0.866641 59.6665 2V8.66664H50.3333V2C50.3333 0.866641 49.4666 0 48.3333 0C47.1999 0 46.3333 0.866641 46.3333 2V8.66664H44.3333C43.1999 8.66664 42.3333 9.53328 42.3333 10.6666C42.3333 11.5644 42.8772 12.2942 43.6666 12.5591V24.6666C43.6666 28 46.3333 30.6666 49.6666 30.6666H51.6666V33.3333C51.6666 33.7333 51.9333 33.9999 52.3333 33.9999H52.9999V36.6666C52.9999 37.0666 53.2665 37.3332 53.6665 37.3332H54.3332V39.3332C54.3332 39.7332 54.5998 39.9998 54.9998 39.9998C55.3998 39.9998 55.6665 39.7332 55.6665 39.3332V37.3332H56.3331C56.7331 37.3332 56.9997 37.0666 56.9997 36.6666V34H57.6664C58.0664 34 58.333 33.7334 58.333 33.3334V30.6667H60.333C63.6664 30.6667 66.333 28.0001 66.333 24.6667V12.5592C67.1226 12.2943 67.6665 11.5644 67.6665 10.6666ZM60.9999 2C60.9999 1.6 61.2665 1.33336 61.6665 1.33336C62.0665 1.33336 62.3332 1.6 62.3332 2V8.66664H60.9999V2ZM47.6665 2C47.6665 1.66664 47.9332 1.33336 48.3332 1.33336C48.7332 1.33336 48.9998 1.6 48.9998 2V8.66664H47.6665V2H47.6665ZM55.6665 36H54.3332V34H55.6665V36ZM56.9999 32.6666H56.3333H53.6666H52.9999V30.6666H56.9999V32.6666ZM64.9999 24.6666C64.9999 27.2666 62.9333 29.3333 60.3333 29.3333H57.6666H52.3333H49.6666C47.0666 29.3333 45 27.2666 45 24.6666V12.6666H65V24.6666H64.9999ZM65.6665 11.3334H44.3333C43.9333 11.3334 43.6666 11.0667 43.6666 10.6667C43.6666 10.2667 43.9333 10.0001 44.3333 10.0001H46.9999H49.6665H60.3332H62.9999H65.6665C66.0665 10.0001 66.3332 10.2667 66.3332 10.6667C66.3332 11.0667 66.0665 11.3334 65.6665 11.3334Z" fill="#323941"/>
<path d="M52.3335 21.3335H56.0669L52.5335 24.8669C52.2669 25.1335 52.2669 25.5335 52.5335 25.8002C52.6669 25.9336 52.8002 26.0002 53.0002 26.0002C53.2002 26.0002 53.3335 25.9336 53.4668 25.8002L58.1335 21.1336C58.3335 20.9336 58.4001 20.6669 58.2668 20.4002C58.2002 20.1336 57.9335 20.0002 57.6668 20.0002H53.9335L57.4668 16.4669C57.7335 16.2002 57.7335 15.8002 57.4668 15.5335C57.2002 15.2668 56.8002 15.2669 56.5335 15.5335L51.8668 20.2001C51.6668 20.4001 51.6668 20.6668 51.7335 20.9335C51.8001 21.2002 52.0668 21.3335 52.3335 21.3335Z" fill="#323941"/>
</svg>
