<svg width="121" height="24" viewBox="0 0 121 24" fill="none" xmlns="http://www.w3.org/2000/svg">
<path d="M35.6 18V4.66H33.94V15.08L26.26 4.66H24.56V18H26.22V7.36L34 18H35.6ZM43.0202 18.24C44.6002 18.24 45.9002 17.72 46.8602 16.76L46.1402 15.78C45.3802 16.56 44.2602 17 43.1602 17C41.0802 17 39.8002 15.48 39.6802 13.66H47.5002V13.28C47.5002 10.38 45.7802 8.1 42.8602 8.1C40.1002 8.1 38.1002 10.36 38.1002 13.16C38.1002 16.18 40.1602 18.24 43.0202 18.24ZM46.0202 12.56H39.6802C39.7602 11.08 40.7802 9.34 42.8402 9.34C45.0402 9.34 46.0002 11.12 46.0202 12.56ZM52.3697 18.24C53.2497 18.24 53.7897 17.98 54.1697 17.62L53.7297 16.5C53.5297 16.72 53.1297 16.9 52.7097 16.9C52.0497 16.9 51.7297 16.38 51.7297 15.66V9.66H53.6897V8.34H51.7297V5.7H50.2297V8.34H48.6297V9.66H50.2297V15.98C50.2297 17.42 50.9497 18.24 52.3697 18.24ZM73.0248 18L76.8248 4.66H74.9848L72.0448 15.78L68.9848 4.66H67.6048L64.5448 15.78L61.5848 4.66H59.7448L63.5448 18H65.3448L68.2848 7.24L71.2248 18H73.0248ZM82.1803 18.24C83.7603 18.24 85.0603 17.72 86.0203 16.76L85.3003 15.78C84.5403 16.56 83.4203 17 82.3203 17C80.2403 17 78.9603 15.48 78.8403 13.66H86.6603V13.28C86.6603 10.38 84.9403 8.1 82.0203 8.1C79.2603 8.1 77.2603 10.36 77.2603 13.16C77.2603 16.18 79.3203 18.24 82.1803 18.24ZM85.1803 12.56H78.8403C78.9203 11.08 79.9403 9.34 82.0003 9.34C84.2003 9.34 85.1603 11.12 85.1803 12.56ZM89.8298 6.96C90.3898 6.96 90.8498 6.52 90.8498 5.96C90.8498 5.4 90.3898 4.94 89.8298 4.94C89.2898 4.94 88.8298 5.4 88.8298 5.96C88.8298 6.52 89.2898 6.96 89.8298 6.96ZM90.5898 18V8.34H89.0898V18H90.5898ZM97.462 21.92C99.822 21.92 102.062 20.92 102.062 17.72V8.34H100.562V9.8C99.782 8.74 98.622 8.1 97.322 8.1C94.782 8.1 93.022 10.02 93.022 13.12C93.022 16.24 94.802 18.12 97.322 18.12C98.682 18.12 99.862 17.38 100.562 16.4V17.78C100.562 19.9 99.062 20.68 97.462 20.68C96.082 20.68 95.122 20.32 94.322 19.36L93.562 20.48C94.702 21.6 95.822 21.92 97.462 21.92ZM97.682 16.8C95.742 16.8 94.582 15.24 94.582 13.12C94.582 10.98 95.742 9.44 97.682 9.44C98.882 9.44 100.042 10.16 100.562 11V15.22C100.042 16.06 98.882 16.8 97.682 16.8ZM113.106 18V11.18C113.106 9.08 112.046 8.1 110.026 8.1C108.566 8.1 107.246 8.94 106.566 9.74V4.66H105.066V18H106.566V10.94C107.146 10.16 108.266 9.44 109.426 9.44C110.726 9.44 111.606 9.94 111.606 11.64V18H113.106ZM118.542 18.24C119.422 18.24 119.962 17.98 120.342 17.62L119.902 16.5C119.702 16.72 119.302 16.9 118.882 16.9C118.222 16.9 117.902 16.38 117.902 15.66V9.66H119.862V8.34H117.902V5.7H116.402V8.34H114.802V9.66H116.402V15.98C116.402 17.42 117.122 18.24 118.542 18.24Z" fill="#009EFF"/>
<path d="M3.96805 9.68455C4.00954 9.713 4.05601 9.72723 4.10248 9.72723C4.14715 9.72723 4.19202 9.71393 4.23251 9.68758C4.83062 9.29603 5.5111 9.08894 6.20016 9.08894C6.88922 9.08894 7.5699 9.29603 8.16781 9.68758C8.25018 9.74145 8.3507 9.74029 8.43227 9.68455C8.51364 9.62881 8.5637 9.52667 8.5637 9.41636V8.13955C8.5637 7.06003 7.91106 6.77246 6.98787 6.77246H5.60915C4.68596 6.77246 3.83643 7.06003 3.83643 8.13955V9.4166C3.83663 9.52667 3.88668 9.62881 3.96805 9.68455Z" stroke="#009EFF"/>
<path d="M10.1681 9.99523V7.97641C10.1681 6.33526 8.7402 5 6.98517 5H5.41483C3.6598 5 2.23188 6.33526 2.23188 7.97641V9.99523C1.4366 10.8725 1 11.9841 1 13.1373C1 15.8187 3.33269 18 6.19989 18C9.06708 18 11.4 15.8187 11.4 13.1373C11.4 11.9841 10.9634 10.8725 10.1681 9.99523Z" stroke="#009EFF"/>
</svg>
