<svg width="139" height="44" viewBox="0 0 139 44" fill="none" xmlns="http://www.w3.org/2000/svg">
<g clip-path="url(#clip0_12748_5918)">
<path d="M35.8429 8.36829L33.604 6.14467C32.1444 4.69502 29.6843 4.61047 28.1199 5.95678L24.1863 9.34387C24.1361 9.38723 24.0924 9.43854 24.0582 9.49491L20.228 15.8312L17.7686 16.6449C17.5605 16.7135 17.4041 16.8848 17.3531 17.0958C17.3022 17.3068 17.3662 17.5301 17.5212 17.684L24.2234 24.3397C24.3435 24.4589 24.5043 24.5233 24.6702 24.5233C24.7189 24.5233 24.767 24.5175 24.815 24.5066C25.0282 24.4568 25.1999 24.3007 25.269 24.094L26.0891 21.6507L32.5621 17.7686C32.6188 17.7346 32.6705 17.6913 32.7134 17.6414L36.043 13.8092C37.3928 12.2591 37.3026 9.81793 35.8429 8.36829ZM35.0884 12.9904L31.8242 16.7468L25.2377 20.6968C25.1089 20.7741 25.0122 20.8941 24.9649 21.0357L24.3944 22.7347L22.8838 21.2345L22.8831 21.2337L20.6493 19.0152L20.6486 19.0145L19.138 17.5142L20.8487 16.9477C20.992 16.9 21.1128 16.8038 21.1907 16.6752L25.0893 10.2262L28.9479 6.90491C30.0212 5.98063 31.7093 6.03772 32.7105 7.03209L34.9494 9.25571C35.9514 10.2508 36.0132 11.9259 35.0884 12.9904Z" fill="white"/>
<path d="M34.0515 30.2149C32.1961 28.3729 29.466 27.7319 26.9921 28.529L13.5636 15.1923C14.3655 12.7353 13.7208 10.0232 11.8661 8.18113C9.91167 6.24007 6.98587 5.63232 4.41151 6.63464C4.21287 6.71197 4.06734 6.88324 4.02369 7.09064C3.98003 7.29804 4.04479 7.51267 4.19541 7.66298L8.21484 11.6549L5.53425 14.3172L1.51482 10.3245C1.3642 10.1749 1.14736 10.1106 0.938533 10.154C0.729703 10.1973 0.557255 10.3419 0.479399 10.5392C-0.529097 13.0952 0.0821124 16.001 2.03653 17.9428C3.89199 19.7848 6.62205 20.4258 9.096 19.6295L14.1174 24.6165L7.86412 30.827L3.88689 33.0355C3.77629 33.0969 3.68679 33.1901 3.63004 33.3028L1.84298 36.8525C1.72146 37.0939 1.76876 37.3858 1.96158 37.5766L4.19541 39.7952C4.31692 39.9159 4.47846 39.9787 4.64217 39.9787C4.73822 39.9787 4.83499 39.9571 4.92449 39.9123L8.49861 38.1374C8.61212 38.081 8.70599 37.9922 8.76784 37.8823L10.9915 33.9323L17.2447 27.7225L22.5244 32.9661C21.7226 35.4231 22.3672 38.1345 24.2227 39.9773C25.5514 41.2969 27.3297 42 29.1408 42C29.9935 42 30.8536 41.8439 31.6773 41.5238C31.8759 41.4465 32.0214 41.2752 32.0651 41.0678C32.1088 40.8604 32.044 40.6457 31.8934 40.4954L27.874 36.5035L30.5545 33.8412L34.574 37.8332C34.7246 37.9828 34.9414 38.0471 35.1503 38.0037C35.3591 37.9604 35.5315 37.8158 35.6094 37.6185C36.6172 35.0618 36.006 32.156 34.0515 30.2149ZM10.0361 33.1063C9.99462 33.1475 9.9597 33.193 9.93132 33.2436L7.76007 37.1011L4.76732 38.5876L3.17745 37.0086L4.67419 34.0363L8.55828 31.8799C8.60921 31.8517 8.65578 31.8171 8.69653 31.7759L15.0116 25.5039L16.3519 26.8351L10.0361 33.1063ZM34.7159 36.1992L31.0013 32.5101C30.7546 32.2651 30.3544 32.2651 30.1078 32.5101L26.5337 36.0598C26.4151 36.1776 26.3488 36.3373 26.3488 36.5035C26.3488 36.6697 26.4158 36.8294 26.5337 36.9472L30.2482 40.6364C28.4066 40.9999 26.4747 40.4383 25.1162 39.0899C23.5169 37.5015 23.017 35.1239 23.8422 33.0318C23.9338 32.7999 23.8785 32.5354 23.701 32.359L9.70721 18.4609C9.58642 18.341 9.42489 18.2774 9.26044 18.2774C9.18331 18.2774 9.10473 18.2918 9.02978 18.3207C6.92402 19.1402 4.52939 18.6437 2.93006 17.0554C1.57157 15.7062 1.0062 13.7875 1.37293 11.9585L5.08748 15.6476C5.33415 15.8926 5.73435 15.8926 5.98101 15.6476L9.55513 12.0979C9.8018 11.8529 9.8018 11.4555 9.55513 11.2105L5.84058 7.52134C7.68221 7.15712 9.61407 7.71935 10.9726 9.06783C12.5719 10.6562 13.0718 13.0338 12.2466 15.1259C12.155 15.3578 12.2103 15.6223 12.3878 15.7987L26.3816 29.6968C26.5591 29.8731 26.8254 29.928 27.059 29.837C29.1655 29.0175 31.5594 29.5139 33.1587 31.1023C34.5165 32.4515 35.0819 34.3702 34.7159 36.1992Z" fill="white"/>
</g>
<path d="M64.682 17L59.84 4.994H57.986L53.162 17H54.872L55.934 14.336H61.91L62.972 17H64.682ZM61.46 13.004H56.366L58.922 6.542L61.46 13.004ZM67.7675 17V9.494H69.5315V8.306H67.7675V7.64C67.7675 6.542 68.2535 5.93 69.1355 5.93C69.5855 5.93 69.9275 6.11 70.2155 6.362L70.7735 5.48C70.2335 4.976 69.6215 4.814 68.9375 4.814C67.3895 4.814 66.4175 5.858 66.4175 7.64V8.306H64.9775V9.494H66.4175V17H67.7675ZM73.3331 17.216C74.1251 17.216 74.6111 16.982 74.9531 16.658L74.5571 15.65C74.3771 15.848 74.0171 16.01 73.6391 16.01C73.0451 16.01 72.7571 15.542 72.7571 14.894V9.494H74.5211V8.306H72.7571V5.93H71.4071V8.306H69.9671V9.494H71.4071V15.182C71.4071 16.478 72.0551 17.216 73.3331 17.216ZM80.3521 17.216C81.7741 17.216 82.9441 16.748 83.8081 15.884L83.1601 15.002C82.4761 15.704 81.4681 16.1 80.4781 16.1C78.6061 16.1 77.4541 14.732 77.3461 13.094H84.3841V12.752C84.3841 10.142 82.8361 8.09 80.2081 8.09C77.7241 8.09 75.9241 10.124 75.9241 12.644C75.9241 15.362 77.7781 17.216 80.3521 17.216ZM83.0521 12.104H77.3461C77.4181 10.772 78.3361 9.206 80.1901 9.206C82.1701 9.206 83.0341 10.808 83.0521 12.104ZM87.9207 17V10.844C88.3167 10.142 89.4507 9.458 90.2787 9.458C90.4947 9.458 90.6567 9.476 90.8187 9.512V8.126C89.6307 8.126 88.6227 8.792 87.9207 9.71V8.306H86.5707V17H87.9207ZM101.095 17.216C104.335 17.216 105.523 15.434 105.523 13.688C105.523 9.206 98.4127 10.754 98.4127 8.054C98.4127 6.92 99.4387 6.146 100.879 6.146C102.193 6.146 103.453 6.596 104.353 7.586L105.253 6.488C104.245 5.426 102.823 4.814 100.987 4.814C98.6287 4.814 96.8647 6.164 96.8647 8.144C96.8647 12.428 103.975 10.718 103.975 13.814C103.975 14.732 103.291 15.884 101.149 15.884C99.4567 15.884 98.1607 15.056 97.3687 14.174L96.4867 15.308C97.4767 16.424 99.0067 17.216 101.095 17.216ZM114.486 17V11.024C114.486 8.918 112.956 8.09 111.12 8.09C109.698 8.09 108.582 8.558 107.646 9.53L108.276 10.466C109.05 9.638 109.896 9.26 110.94 9.26C112.2 9.26 113.136 9.926 113.136 11.096V12.662C112.434 11.852 111.444 11.474 110.256 11.474C108.78 11.474 107.214 12.392 107.214 14.336C107.214 16.226 108.78 17.216 110.256 17.216C111.426 17.216 112.416 16.802 113.136 16.01V17H114.486ZM110.742 16.244C109.482 16.244 108.6 15.452 108.6 14.354C108.6 13.238 109.482 12.446 110.742 12.446C111.696 12.446 112.614 12.806 113.136 13.526V15.164C112.614 15.884 111.696 16.244 110.742 16.244ZM118.542 17V4.994H117.192V17H118.542ZM125.159 17.216C126.581 17.216 127.751 16.748 128.615 15.884L127.967 15.002C127.283 15.704 126.275 16.1 125.285 16.1C123.413 16.1 122.261 14.732 122.153 13.094H129.191V12.752C129.191 10.142 127.643 8.09 125.015 8.09C122.531 8.09 120.731 10.124 120.731 12.644C120.731 15.362 122.585 17.216 125.159 17.216ZM127.859 12.104H122.153C122.225 10.772 123.143 9.206 124.997 9.206C126.977 9.206 127.841 10.808 127.859 12.104ZM134.131 17.216C136.381 17.216 137.551 16.046 137.551 14.588C137.551 11.204 132.169 12.464 132.169 10.556C132.169 9.782 132.907 9.188 134.095 9.188C135.211 9.188 136.165 9.656 136.687 10.286L137.317 9.35C136.615 8.648 135.571 8.09 134.095 8.09C132.025 8.09 130.855 9.242 130.855 10.592C130.855 13.814 136.237 12.518 136.237 14.624C136.237 15.488 135.517 16.118 134.185 16.118C132.997 16.118 131.899 15.542 131.323 14.876L130.621 15.848C131.503 16.784 132.709 17.216 134.131 17.216ZM58.292 39.216C61.532 39.216 62.72 37.434 62.72 35.688C62.72 31.206 55.61 32.754 55.61 30.054C55.61 28.92 56.636 28.146 58.076 28.146C59.39 28.146 60.65 28.596 61.55 29.586L62.45 28.488C61.442 27.426 60.02 26.814 58.184 26.814C55.826 26.814 54.062 28.164 54.062 30.144C54.062 34.428 61.172 32.718 61.172 35.814C61.172 36.732 60.488 37.884 58.346 37.884C56.654 37.884 55.358 37.056 54.566 36.174L53.684 37.308C54.674 38.424 56.204 39.216 58.292 39.216ZM72.1149 39V30.306H70.7649V36.696C70.2609 37.398 69.2529 38.01 68.1909 38.01C67.0209 38.01 66.2469 37.56 66.2469 36.03V30.306H64.8969V36.444C64.8969 38.334 65.8509 39.216 67.6689 39.216C68.9649 39.216 70.0989 38.532 70.7649 37.776V39H72.1149ZM79.0949 39.216C81.3809 39.216 82.9649 37.452 82.9649 34.644C82.9649 31.818 81.3809 30.09 79.0949 30.09C77.8709 30.09 76.7909 30.72 76.1609 31.602V30.306H74.8109V42.312H76.1609V37.686C76.8629 38.658 77.9069 39.216 79.0949 39.216ZM78.7529 38.01C77.6909 38.01 76.6289 37.362 76.1609 36.606V32.682C76.6289 31.926 77.6909 31.296 78.7529 31.296C80.4989 31.296 81.5429 32.718 81.5429 34.644C81.5429 36.57 80.4989 38.01 78.7529 38.01ZM89.3957 39.216C91.6817 39.216 93.2657 37.452 93.2657 34.644C93.2657 31.818 91.6817 30.09 89.3957 30.09C88.1717 30.09 87.0917 30.72 86.4617 31.602V30.306H85.1117V42.312H86.4617V37.686C87.1637 38.658 88.2077 39.216 89.3957 39.216ZM89.0537 38.01C87.9917 38.01 86.9297 37.362 86.4617 36.606V32.682C86.9297 31.926 87.9917 31.296 89.0537 31.296C90.7997 31.296 91.8437 32.718 91.8437 34.644C91.8437 36.57 90.7997 38.01 89.0537 38.01ZM99.2105 39.216C101.857 39.216 103.513 37.164 103.513 34.644C103.513 32.124 101.857 30.09 99.2105 30.09C96.5645 30.09 94.9085 32.124 94.9085 34.644C94.9085 37.164 96.5645 39.216 99.2105 39.216ZM99.2105 38.01C97.3565 38.01 96.3125 36.426 96.3125 34.644C96.3125 32.88 97.3565 31.296 99.2105 31.296C101.065 31.296 102.091 32.88 102.091 34.644C102.091 36.426 101.065 38.01 99.2105 38.01ZM107.063 39V32.844C107.459 32.142 108.593 31.458 109.421 31.458C109.637 31.458 109.799 31.476 109.961 31.512V30.126C108.773 30.126 107.765 30.792 107.063 31.71V30.306H105.713V39H107.063ZM113.851 39.216C114.643 39.216 115.129 38.982 115.471 38.658L115.075 37.65C114.895 37.848 114.535 38.01 114.157 38.01C113.563 38.01 113.275 37.542 113.275 36.894V31.494H115.039V30.306H113.275V27.93H111.925V30.306H110.485V31.494H111.925V37.182C111.925 38.478 112.573 39.216 113.851 39.216Z" fill="white"/>
<defs>
<clipPath id="clip0_12748_5918">
<rect width="37" height="37" fill="white" transform="translate(0 5)"/>
</clipPath>
</defs>
</svg>
