<svg width="87" height="63" viewBox="0 0 87 63" fill="none" xmlns="http://www.w3.org/2000/svg">
<rect width="87" height="63" fill="white"/>
<g clip-path="url(#clip0_405_7257)">
<path d="M59.8631 15.2639L57.7223 13.1378C56.3267 11.7517 53.9745 11.6709 52.4787 12.9581L48.7176 16.1967C48.6696 16.2382 48.6279 16.2872 48.5952 16.3411L44.9329 22.3995L42.5814 23.1775C42.3824 23.2432 42.2328 23.4069 42.1841 23.6087C42.1354 23.8105 42.1966 24.024 42.3448 24.1711L48.7531 30.5349C48.8679 30.6489 49.0217 30.7104 49.1803 30.7104C49.2269 30.7104 49.2728 30.7049 49.3187 30.6945C49.5226 30.6469 49.6868 30.4976 49.7529 30.3L50.5369 27.9638L56.7261 24.252C56.7803 24.2195 56.8297 24.178 56.8708 24.1304L60.0544 20.4662C61.345 18.9841 61.2587 16.65 59.8631 15.2639ZM59.1416 19.6833L56.0206 23.275L49.7229 27.0518C49.5998 27.1257 49.5073 27.2404 49.462 27.3758L48.9166 29.0003L47.4723 27.5658L47.4716 27.5652L45.3357 25.4439L45.335 25.4432L43.8907 24.0088L45.5263 23.467C45.6634 23.4214 45.7789 23.3295 45.8533 23.2065L49.581 17.0404L53.2704 13.8647C54.2966 12.981 55.9107 13.0355 56.868 13.9863L59.0087 16.1124C59.9667 17.0639 60.0259 18.6655 59.1416 19.6833Z" fill="#009EFF"/>
<path d="M58.1502 36.1525C56.3761 34.3912 53.7657 33.7784 51.4003 34.5405L38.5607 21.7887C39.3274 19.4394 38.711 16.8462 36.9376 15.085C35.0689 13.229 32.2714 12.6479 29.81 13.6063C29.62 13.6802 29.4809 13.844 29.4391 14.0423C29.3974 14.2406 29.4593 14.4458 29.6033 14.5895L33.4465 18.4064L30.8835 20.952L27.0403 17.1344C26.8963 16.9913 26.689 16.9298 26.4893 16.9713C26.2896 17.0128 26.1247 17.1509 26.0503 17.3396C25.086 19.7835 25.6704 22.5619 27.5391 24.4185C29.3132 26.1798 31.9236 26.7927 34.289 26.0312L39.0902 30.7996L33.1112 36.7378L29.3083 38.8493C29.2026 38.9081 29.117 38.9972 29.0628 39.105L27.3541 42.499C27.2379 42.7298 27.2831 43.009 27.4675 43.1914L29.6033 45.3126C29.7195 45.428 29.874 45.4882 30.0305 45.4882C30.1223 45.4882 30.2149 45.4674 30.3004 45.4246L33.7178 43.7276C33.8264 43.6737 33.9161 43.5887 33.9752 43.4837L36.1014 39.7068L42.0804 33.7694L47.1286 38.783C46.3619 41.1323 46.9783 43.7248 48.7524 45.4868C50.0228 46.7485 51.7231 47.4208 53.4548 47.4208C54.2701 47.4208 55.0925 47.2715 55.88 46.9654C56.07 46.8915 56.2091 46.7277 56.2509 46.5294C56.2926 46.3311 56.2307 46.1259 56.0867 45.9822L52.2435 42.1653L54.8065 39.6198L58.6497 43.4367C58.7937 43.5797 59.001 43.6412 59.2007 43.5997C59.4004 43.5583 59.5653 43.4201 59.6397 43.2315C60.6033 40.7868 60.0189 38.0084 58.1502 36.1525ZM35.1879 38.9171C35.1482 38.9564 35.1148 39 35.0877 39.0483L33.0117 42.7367L30.1502 44.158L28.63 42.6483L30.0611 39.8063L33.7749 37.7445C33.8236 37.7175 33.8681 37.6844 33.9071 37.645L39.9452 31.6481L41.2268 32.9209L35.1879 38.9171ZM58.7854 41.8744L55.2337 38.347C54.9979 38.1128 54.6152 38.1128 54.3794 38.347L50.962 41.741C50.8486 41.8537 50.7853 42.0064 50.7853 42.1653C50.7853 42.3242 50.8493 42.4769 50.962 42.5895L54.5136 46.1169C52.7528 46.4645 50.9056 45.9276 49.6067 44.6383C48.0775 43.1195 47.5996 40.8462 48.3885 38.8459C48.4762 38.6241 48.4233 38.3712 48.2535 38.2026L34.8734 24.914C34.7579 24.7993 34.6035 24.7384 34.4463 24.7384C34.3725 24.7384 34.2974 24.7523 34.2257 24.7799C32.2123 25.5635 29.9227 25.0888 28.3935 23.57C27.0946 22.28 26.554 20.4455 26.9046 18.6966L30.4563 22.224C30.6921 22.4583 31.0748 22.4583 31.3106 22.224L34.728 18.83C34.9639 18.5958 34.9639 18.2157 34.728 17.9815L31.1764 14.4541C32.9372 14.1059 34.7844 14.6434 36.0833 15.9328C37.6125 17.4515 38.0904 19.7248 37.3015 21.7251C37.2138 21.9469 37.2667 22.1998 37.4365 22.3684L50.8166 35.6571C50.9863 35.8257 51.241 35.8782 51.4643 35.7911C53.4784 35.0076 55.7673 35.4823 57.2965 37.001C58.5947 38.291 59.1353 40.1256 58.7854 41.8744Z" fill="#999999"/>
</g>
<defs>
<clipPath id="clip0_405_7257">
<rect width="35.3774" height="35.3774" fill="white" transform="translate(25.5919 12.0433)"/>
</clipPath>
</defs>
</svg>
