<svg width="138" height="39" viewBox="0 0 138 39" fill="none" xmlns="http://www.w3.org/2000/svg">
<path d="M64.682 13L59.84 0.993999H57.986L53.162 13H54.872L55.934 10.336H61.91L62.972 13H64.682ZM61.46 9.004H56.366L58.922 2.542L61.46 9.004ZM67.7675 13V5.494H69.5315V4.306H67.7675V3.64C67.7675 2.542 68.2535 1.93 69.1355 1.93C69.5855 1.93 69.9275 2.11 70.2155 2.362L70.7735 1.48C70.2335 0.975999 69.6215 0.813999 68.9375 0.813999C67.3895 0.813999 66.4175 1.858 66.4175 3.64V4.306H64.9775V5.494H66.4175V13H67.7675ZM73.3331 13.216C74.1251 13.216 74.6111 12.982 74.9531 12.658L74.5571 11.65C74.3771 11.848 74.0171 12.01 73.6391 12.01C73.0451 12.01 72.7571 11.542 72.7571 10.894V5.494H74.5211V4.306H72.7571V1.93H71.4071V4.306H69.9671V5.494H71.4071V11.182C71.4071 12.478 72.0551 13.216 73.3331 13.216ZM80.3521 13.216C81.7741 13.216 82.9441 12.748 83.8081 11.884L83.1601 11.002C82.4761 11.704 81.4681 12.1 80.4781 12.1C78.6061 12.1 77.4541 10.732 77.3461 9.094H84.3841V8.752C84.3841 6.142 82.8361 4.09 80.2081 4.09C77.7241 4.09 75.9241 6.124 75.9241 8.644C75.9241 11.362 77.7781 13.216 80.3521 13.216ZM83.0521 8.104H77.3461C77.4181 6.772 78.3361 5.206 80.1901 5.206C82.1701 5.206 83.0341 6.808 83.0521 8.104ZM87.9207 13V6.844C88.3167 6.142 89.4507 5.458 90.2787 5.458C90.4947 5.458 90.6567 5.476 90.8187 5.512V4.126C89.6307 4.126 88.6227 4.792 87.9207 5.71V4.306H86.5707V13H87.9207ZM101.095 13.216C104.335 13.216 105.523 11.434 105.523 9.688C105.523 5.206 98.4127 6.754 98.4127 4.054C98.4127 2.92 99.4387 2.146 100.879 2.146C102.193 2.146 103.453 2.596 104.353 3.586L105.253 2.488C104.245 1.426 102.823 0.813999 100.987 0.813999C98.6287 0.813999 96.8647 2.164 96.8647 4.144C96.8647 8.428 103.975 6.718 103.975 9.814C103.975 10.732 103.291 11.884 101.149 11.884C99.4567 11.884 98.1607 11.056 97.3687 10.174L96.4867 11.308C97.4767 12.424 99.0067 13.216 101.095 13.216ZM114.486 13V7.024C114.486 4.918 112.956 4.09 111.12 4.09C109.698 4.09 108.582 4.558 107.646 5.53L108.276 6.466C109.05 5.638 109.896 5.26 110.94 5.26C112.2 5.26 113.136 5.926 113.136 7.096V8.662C112.434 7.852 111.444 7.474 110.256 7.474C108.78 7.474 107.214 8.392 107.214 10.336C107.214 12.226 108.78 13.216 110.256 13.216C111.426 13.216 112.416 12.802 113.136 12.01V13H114.486ZM110.742 12.244C109.482 12.244 108.6 11.452 108.6 10.354C108.6 9.238 109.482 8.446 110.742 8.446C111.696 8.446 112.614 8.806 113.136 9.526V11.164C112.614 11.884 111.696 12.244 110.742 12.244ZM118.542 13V0.993999H117.192V13H118.542ZM125.159 13.216C126.581 13.216 127.751 12.748 128.615 11.884L127.967 11.002C127.283 11.704 126.275 12.1 125.285 12.1C123.413 12.1 122.261 10.732 122.153 9.094H129.191V8.752C129.191 6.142 127.643 4.09 125.015 4.09C122.531 4.09 120.731 6.124 120.731 8.644C120.731 11.362 122.585 13.216 125.159 13.216ZM127.859 8.104H122.153C122.225 6.772 123.143 5.206 124.997 5.206C126.977 5.206 127.841 6.808 127.859 8.104ZM134.131 13.216C136.381 13.216 137.551 12.046 137.551 10.588C137.551 7.204 132.169 8.464 132.169 6.556C132.169 5.782 132.907 5.188 134.095 5.188C135.211 5.188 136.165 5.656 136.687 6.286L137.317 5.35C136.615 4.648 135.571 4.09 134.095 4.09C132.025 4.09 130.855 5.242 130.855 6.592C130.855 9.814 136.237 8.518 136.237 10.624C136.237 11.488 135.517 12.118 134.185 12.118C132.997 12.118 131.899 11.542 131.323 10.876L130.621 11.848C131.503 12.784 132.709 13.216 134.131 13.216ZM58.292 35.216C61.532 35.216 62.72 33.434 62.72 31.688C62.72 27.206 55.61 28.754 55.61 26.054C55.61 24.92 56.636 24.146 58.076 24.146C59.39 24.146 60.65 24.596 61.55 25.586L62.45 24.488C61.442 23.426 60.02 22.814 58.184 22.814C55.826 22.814 54.062 24.164 54.062 26.144C54.062 30.428 61.172 28.718 61.172 31.814C61.172 32.732 60.488 33.884 58.346 33.884C56.654 33.884 55.358 33.056 54.566 32.174L53.684 33.308C54.674 34.424 56.204 35.216 58.292 35.216ZM72.1149 35V26.306H70.7649V32.696C70.2609 33.398 69.2529 34.01 68.1909 34.01C67.0209 34.01 66.2469 33.56 66.2469 32.03V26.306H64.8969V32.444C64.8969 34.334 65.8509 35.216 67.6689 35.216C68.9649 35.216 70.0989 34.532 70.7649 33.776V35H72.1149ZM79.0949 35.216C81.3809 35.216 82.9649 33.452 82.9649 30.644C82.9649 27.818 81.3809 26.09 79.0949 26.09C77.8709 26.09 76.7909 26.72 76.1609 27.602V26.306H74.8109V38.312H76.1609V33.686C76.8629 34.658 77.9069 35.216 79.0949 35.216ZM78.7529 34.01C77.6909 34.01 76.6289 33.362 76.1609 32.606V28.682C76.6289 27.926 77.6909 27.296 78.7529 27.296C80.4989 27.296 81.5429 28.718 81.5429 30.644C81.5429 32.57 80.4989 34.01 78.7529 34.01ZM89.3957 35.216C91.6817 35.216 93.2657 33.452 93.2657 30.644C93.2657 27.818 91.6817 26.09 89.3957 26.09C88.1717 26.09 87.0917 26.72 86.4617 27.602V26.306H85.1117V38.312H86.4617V33.686C87.1637 34.658 88.2077 35.216 89.3957 35.216ZM89.0537 34.01C87.9917 34.01 86.9297 33.362 86.4617 32.606V28.682C86.9297 27.926 87.9917 27.296 89.0537 27.296C90.7997 27.296 91.8437 28.718 91.8437 30.644C91.8437 32.57 90.7997 34.01 89.0537 34.01ZM99.2105 35.216C101.857 35.216 103.513 33.164 103.513 30.644C103.513 28.124 101.857 26.09 99.2105 26.09C96.5645 26.09 94.9085 28.124 94.9085 30.644C94.9085 33.164 96.5645 35.216 99.2105 35.216ZM99.2105 34.01C97.3565 34.01 96.3125 32.426 96.3125 30.644C96.3125 28.88 97.3565 27.296 99.2105 27.296C101.065 27.296 102.091 28.88 102.091 30.644C102.091 32.426 101.065 34.01 99.2105 34.01ZM107.063 35V28.844C107.459 28.142 108.593 27.458 109.421 27.458C109.637 27.458 109.799 27.476 109.961 27.512V26.126C108.773 26.126 107.765 26.792 107.063 27.71V26.306H105.713V35H107.063ZM113.851 35.216C114.643 35.216 115.129 34.982 115.471 34.658L115.075 33.65C114.895 33.848 114.535 34.01 114.157 34.01C113.563 34.01 113.275 33.542 113.275 32.894V27.494H115.039V26.306H113.275V23.93H111.925V26.306H110.485V27.494H111.925V33.182C111.925 34.478 112.573 35.216 113.851 35.216Z" fill="#999999"/>
<g clip-path="url(#clip0_12800_6053)">
<path d="M35.8429 4.36829L33.604 2.14467C32.1444 0.695025 29.6843 0.610474 28.1199 1.95678L24.1863 5.34387C24.1361 5.38723 24.0924 5.43854 24.0582 5.49491L20.228 11.8312L17.7686 12.6449C17.5605 12.7135 17.4041 12.8848 17.3531 13.0958C17.3022 13.3068 17.3662 13.5301 17.5212 13.684L24.2234 20.3397C24.3435 20.4589 24.5043 20.5233 24.6702 20.5233C24.7189 20.5233 24.767 20.5175 24.815 20.5066C25.0282 20.4568 25.1999 20.3007 25.269 20.094L26.0891 17.6507L32.5621 13.7686C32.6188 13.7346 32.6705 13.6913 32.7134 13.6414L36.043 9.80916C37.3928 8.25907 37.3026 5.81793 35.8429 4.36829ZM35.0884 8.99039L31.8242 12.7468L25.2377 16.6968C25.1089 16.7741 25.0122 16.8941 24.9649 17.0357L24.3944 18.7347L22.8838 17.2345L22.8831 17.2337L20.6493 15.0152L20.6486 15.0145L19.138 13.5142L20.8487 12.9477C20.992 12.9 21.1128 12.8038 21.1907 12.6752L25.0893 6.22623L28.9479 2.90491C30.0212 1.98063 31.7093 2.03772 32.7105 3.03209L34.9494 5.25571C35.9514 6.2508 36.0132 7.92592 35.0884 8.99039Z" fill="#00A0FF"/>
<path d="M34.0518 26.2149C32.1963 24.3729 29.4663 23.7319 26.9923 24.529L13.5639 11.1923C14.3657 8.73531 13.7211 6.02318 11.8663 4.18113C9.91192 2.24007 6.98611 1.63232 4.41176 2.63464C4.21311 2.71197 4.06759 2.88324 4.02393 3.09064C3.98027 3.29804 4.04503 3.51267 4.19565 3.66298L8.21508 7.65494L5.53449 10.3172L1.51506 6.32453C1.36444 6.17494 1.14761 6.11062 0.938778 6.15398C0.729948 6.19734 0.557499 6.34187 0.479643 6.53916C-0.528853 9.09519 0.0823565 12.001 2.03677 13.9428C3.89223 15.7848 6.6223 16.4258 9.09624 15.6295L14.1176 20.6165L7.86436 26.827L3.88714 29.0355C3.77654 29.0969 3.68704 29.1901 3.63028 29.3028L1.84322 32.8525C1.72171 33.0939 1.769 33.3858 1.96183 33.5766L4.19565 35.7952C4.31717 35.9159 4.4787 35.9787 4.64242 35.9787C4.73846 35.9787 4.83524 35.9571 4.92474 35.9123L8.49886 34.1374C8.61237 34.081 8.70623 33.9922 8.76808 33.8823L10.9917 29.9323L17.245 23.7225L22.5247 28.9661C21.7228 31.4231 22.3675 34.1345 24.223 35.9773C25.5516 37.2969 27.3299 38 29.141 38C29.9938 38 30.8538 37.8439 31.6775 37.5238C31.8762 37.4465 32.0217 37.2752 32.0654 37.0678C32.109 36.8604 32.0443 36.6457 31.8936 36.4954L27.8742 32.5035L30.5548 29.8412L34.5742 33.8332C34.7248 33.9828 34.9417 34.0471 35.1505 34.0037C35.3593 33.9604 35.5318 33.8158 35.6096 33.6185C36.6174 31.0618 36.0062 28.156 34.0518 26.2149ZM10.0363 29.1063C9.99487 29.1475 9.95994 29.193 9.93156 29.2436L7.76031 33.1011L4.76757 34.5876L3.1777 33.0086L4.67443 30.0363L8.55852 27.8799C8.60946 27.8517 8.65603 27.8171 8.69677 27.7759L15.0119 21.5039L16.3522 22.8351L10.0363 29.1063ZM34.7161 32.1992L31.0016 28.5101C30.7549 28.2651 30.3547 28.2651 30.108 28.5101L26.5339 32.0598C26.4153 32.1776 26.3491 32.3373 26.3491 32.5035C26.3491 32.6697 26.416 32.8294 26.5339 32.9472L30.2485 36.6364C28.4068 36.9999 26.475 36.4383 25.1165 35.0899C23.5171 33.5015 23.0173 31.1239 23.8424 29.0318C23.9341 28.7999 23.8788 28.5354 23.7012 28.359L9.70745 14.4609C9.58667 14.341 9.42513 14.2774 9.26069 14.2774C9.18356 14.2774 9.10497 14.2918 9.03003 14.3207C6.92427 15.1402 4.52963 14.6437 2.9303 13.0554C1.57182 11.7062 1.00645 9.7875 1.37317 7.95845L5.08773 11.6476C5.33439 11.8926 5.73459 11.8926 5.98126 11.6476L9.55538 8.09793C9.80204 7.85295 9.80204 7.45549 9.55538 7.2105L5.84082 3.52134C7.68246 3.15712 9.61432 3.71935 10.9728 5.06783C12.5721 6.65623 13.072 9.03377 12.2469 11.1259C12.1552 11.3578 12.2105 11.6223 12.388 11.7987L26.3818 25.6968C26.5594 25.8731 26.8257 25.928 27.0593 25.837C29.1657 25.0175 31.5596 25.5139 33.159 27.1023C34.5167 28.4515 35.0821 30.3702 34.7161 32.1992Z" fill="#999999"/>
</g>
<defs>
<clipPath id="clip0_12800_6053">
<rect width="37" height="37" fill="white" transform="translate(0 1)"/>
</clipPath>
</defs>
</svg>
