<svg width="87" height="63" viewBox="0 0 87 63" fill="none" xmlns="http://www.w3.org/2000/svg">
<g clip-path="url(#clip0_405_7099)">
<rect width="87" height="63" fill="white"/>
<rect x="-0.000106812" width="87" height="63" fill="#009EFF"/>
<g clip-path="url(#clip1_405_7099)">
<path d="M59.1106 15.2639L56.9699 13.1378C55.5743 11.7517 53.222 11.6709 51.7262 12.9581L47.9651 16.1967C47.9171 16.2382 47.8754 16.2872 47.8427 16.3411L44.1804 22.3995L41.8289 23.1775C41.6299 23.2432 41.4803 23.4069 41.4316 23.6087C41.3829 23.8105 41.4442 24.024 41.5923 24.1711L48.0006 30.5349C48.1154 30.6489 48.2692 30.7104 48.4278 30.7104C48.4744 30.7104 48.5203 30.7049 48.5663 30.6945C48.7701 30.6469 48.9343 30.4976 49.0004 30.3L49.7845 27.9638L55.9736 24.252C56.0279 24.2195 56.0773 24.178 56.1183 24.1304L59.3019 20.4662C60.5925 18.9841 60.5062 16.65 59.1106 15.2639ZM58.3891 19.6833L55.2681 23.275L48.9705 27.0518C48.8473 27.1257 48.7548 27.2404 48.7096 27.3758L48.1641 29.0003L46.7198 27.5658L46.7191 27.5652L44.5832 25.4439L44.5826 25.4432L43.1382 24.0088L44.7739 23.467C44.9109 23.4214 45.0264 23.3295 45.1009 23.2065L48.8285 17.0404L52.5179 13.8647C53.5441 12.981 55.1582 13.0355 56.1155 13.9863L58.2563 16.1124C59.2143 17.0639 59.2734 18.6655 58.3891 19.6833Z" fill="white"/>
<path d="M57.3979 36.1525C55.6238 34.3912 53.0134 33.7784 50.648 34.5405L37.8084 21.7887C38.5751 19.4394 37.9587 16.8462 36.1853 15.085C34.3166 13.229 31.5191 12.6479 29.0577 13.6063C28.8677 13.6802 28.7286 13.844 28.6868 14.0423C28.6451 14.2406 28.707 14.4458 28.851 14.5895L32.6942 18.4064L30.1312 20.952L26.288 17.1344C26.144 16.9913 25.9367 16.9298 25.737 16.9713C25.5373 17.0128 25.3724 17.1509 25.298 17.3396C24.3337 19.7835 24.9181 22.5619 26.7868 24.4185C28.5609 26.1798 31.1713 26.7927 33.5367 26.0312L38.3379 30.7996L32.3589 36.7378L28.556 38.8493C28.4503 38.9081 28.3647 38.9972 28.3105 39.105L26.6018 42.499C26.4856 42.7298 26.5308 43.009 26.7152 43.1914L28.851 45.3126C28.9672 45.428 29.1217 45.4882 29.2782 45.4882C29.37 45.4882 29.4626 45.4674 29.5481 45.4246L32.9655 43.7276C33.0741 43.6737 33.1638 43.5887 33.2229 43.4837L35.3491 39.7068L41.3281 33.7694L46.3763 38.783C45.6096 41.1323 46.226 43.7248 48.0001 45.4868C49.2705 46.7485 50.9708 47.4208 52.7025 47.4208C53.5178 47.4208 54.3402 47.2715 55.1277 46.9654C55.3177 46.8915 55.4568 46.7277 55.4986 46.5294C55.5403 46.3311 55.4784 46.1259 55.3344 45.9822L51.4912 42.1653L54.0542 39.6198L57.8974 43.4367C58.0414 43.5797 58.2487 43.6412 58.4484 43.5997C58.6481 43.5583 58.813 43.4201 58.8874 43.2315C59.851 40.7868 59.2666 38.0084 57.3979 36.1525ZM34.4356 38.9171C34.3959 38.9564 34.3625 39 34.3354 39.0483L32.2594 42.7367L29.3979 44.158L27.8777 42.6483L29.3088 39.8063L33.0226 37.7445C33.0713 37.7175 33.1158 37.6844 33.1548 37.645L39.1929 31.6481L40.4745 32.9209L34.4356 38.9171ZM58.0331 41.8744L54.4814 38.347C54.2456 38.1128 53.8629 38.1128 53.6271 38.347L50.2097 41.741C50.0963 41.8537 50.033 42.0064 50.033 42.1653C50.033 42.3242 50.097 42.4769 50.2097 42.5895L53.7613 46.1169C52.0005 46.4645 50.1533 45.9276 48.8544 44.6383C47.3252 43.1195 46.8473 40.8462 47.6362 38.8459C47.7239 38.6241 47.671 38.3712 47.5012 38.2026L34.1211 24.914C34.0056 24.7993 33.8512 24.7384 33.6939 24.7384C33.6202 24.7384 33.5451 24.7523 33.4734 24.7799C31.46 25.5635 29.1704 25.0888 27.6412 23.57C26.3423 22.28 25.8017 20.4455 26.1523 18.6966L29.704 22.224C29.9398 22.4583 30.3225 22.4583 30.5583 22.224L33.9757 18.83C34.2116 18.5958 34.2116 18.2157 33.9757 17.9815L30.4241 14.4541C32.1849 14.1059 34.0321 14.6434 35.331 15.9328C36.8602 17.4515 37.3381 19.7248 36.5492 21.7251C36.4615 21.9469 36.5144 22.1998 36.6842 22.3684L50.0643 35.6571C50.234 35.8257 50.4887 35.8782 50.712 35.7911C52.7261 35.0076 55.015 35.4823 56.5442 37.001C57.8424 38.291 58.383 40.1256 58.0331 41.8744Z" fill="white"/>
</g>
</g>
<defs>
<clipPath id="clip0_405_7099">
<rect width="87" height="63" fill="white"/>
</clipPath>
<clipPath id="clip1_405_7099">
<rect width="35.3774" height="35.3774" fill="white" transform="translate(24.8394 12.0433)"/>
</clipPath>
</defs>
</svg>
