<svg width="86" height="63" viewBox="0 0 86 63" fill="none" xmlns="http://www.w3.org/2000/svg">
<rect width="86" height="63" fill="white"/>
<rect width="86" height="63" fill="#009EFF"/>
<g clip-path="url(#clip0_405_6928)">
<path d="M55.0382 12.0433H32.2761C31.9105 12.0433 31.6138 12.3591 31.6138 12.7481V46.716C31.6138 47.105 31.9105 47.4208 32.2761 47.4208H49.584C49.7594 47.4208 49.9282 47.3461 50.0522 47.2142L55.5064 41.4101C55.6304 41.2781 55.7005 41.0984 55.7005 40.9119V12.7481C55.7005 12.3591 55.4038 12.0433 55.0382 12.0433ZM50.245 45.0162L50.2424 41.6125L53.4409 41.616L50.245 45.0162ZM54.3759 40.2071L49.5802 40.2023H49.5795C49.4042 40.2023 49.2354 40.2769 49.1113 40.4089C48.9873 40.5415 48.9172 40.7205 48.9172 40.9077L48.9218 46.0112H32.9384V13.4529H54.3759V40.2071Z" fill="white"/>
<path d="M38.3991 37.4695C36.7336 37.4695 35.3792 38.9108 35.3792 40.6832C35.3792 42.4555 36.7343 43.8968 38.3991 43.8968C40.0646 43.8968 41.419 42.4555 41.419 40.6832C41.4197 38.9108 40.0646 37.4695 38.3991 37.4695ZM38.3991 42.488C37.4641 42.488 36.7031 41.6782 36.7031 40.6832C36.7031 39.6882 37.4634 38.8791 38.3991 38.8791C39.3347 38.8791 40.0951 39.6882 40.0951 40.6832C40.0951 41.6782 39.3341 42.488 38.3991 42.488Z" fill="white"/>
<path d="M47.034 40.0917H43.3914C43.0259 40.0917 42.7291 40.4074 42.7291 40.7965C42.7291 41.1855 43.0259 41.5012 43.3914 41.5012H47.034C47.3996 41.5012 47.6963 41.1855 47.6963 40.7965C47.6963 40.4074 47.4003 40.0917 47.034 40.0917Z" fill="white"/>
<path d="M38.1599 16.2714H36.2399C35.8744 16.2714 35.5776 16.5871 35.5776 16.9761C35.5776 17.3652 35.8744 17.6809 36.2399 17.6809H38.1606C38.5262 17.6809 38.8229 17.3652 38.8229 16.9761C38.8229 16.5871 38.5262 16.2714 38.1599 16.2714Z" fill="white"/>
<path d="M51.3392 16.2714H45.5779C45.2123 16.2714 44.9156 16.5871 44.9156 16.9761C44.9156 17.3652 45.2123 17.6809 45.5779 17.6809H51.3392C51.7048 17.6809 52.0015 17.3652 52.0015 16.9761C52.0015 16.5871 51.7048 16.2714 51.3392 16.2714Z" fill="white"/>
<path d="M51.3393 19.302H41.5379C41.1724 19.302 40.8756 19.6178 40.8756 20.0068C40.8756 20.3958 41.1724 20.7116 41.5379 20.7116H51.3393C51.7048 20.7116 52.0015 20.3958 52.0015 20.0068C52.0015 19.6178 51.7048 19.302 51.3393 19.302Z" fill="white"/>
<path d="M51.3724 24.869H35.9422C35.5767 24.869 35.2799 25.1848 35.2799 25.5738C35.2799 25.9628 35.5767 26.2786 35.9422 26.2786H51.3724C51.738 26.2786 52.0347 25.9628 52.0347 25.5738C52.0347 25.1848 51.738 24.869 51.3724 24.869Z" fill="white"/>
<path d="M51.3724 27.2654H35.9422C35.5767 27.2654 35.2799 27.5812 35.2799 27.9702C35.2799 28.3592 35.5767 28.6749 35.9422 28.6749H51.3724C51.738 28.6749 52.0347 28.3592 52.0347 27.9702C52.0347 27.5812 51.738 27.2654 51.3724 27.2654Z" fill="white"/>
<path d="M51.3724 29.873H35.9422C35.5767 29.873 35.2799 30.1888 35.2799 30.5778C35.2799 30.9668 35.5767 31.2826 35.9422 31.2826H51.3724C51.738 31.2826 52.0347 30.9668 52.0347 30.5778C52.0347 30.1888 51.738 29.873 51.3724 29.873Z" fill="white"/>
<path d="M51.3721 32.2693H51.0078C50.6423 32.2693 50.3456 32.5851 50.3456 32.9741C50.3456 33.3631 50.6423 33.6789 51.0078 33.6789H51.3721C51.7377 33.6789 52.0344 33.3631 52.0344 32.9741C52.0344 32.5844 51.7377 32.2693 51.3721 32.2693Z" fill="white"/>
<path d="M48.6901 32.2693H35.9422C35.5767 32.2693 35.2799 32.5851 35.2799 32.9741C35.2799 33.3631 35.5767 33.6789 35.9422 33.6789H48.6908C49.0563 33.6789 49.3531 33.3631 49.3531 32.9741C49.3524 32.5844 49.0557 32.2693 48.6901 32.2693Z" fill="white"/>
</g>
<defs>
<clipPath id="clip0_405_6928">
<rect width="24.0868" height="35.3774" fill="white" transform="translate(31.6138 12.0433)"/>
</clipPath>
</defs>
</svg>
