<svg width="86" height="63" viewBox="0 0 86 63" fill="none" xmlns="http://www.w3.org/2000/svg">
<rect width="86" height="63" fill="white"/>
<g clip-path="url(#clip0_405_7251)">
<path d="M55.0384 12.0433H32.2762C31.9107 12.0433 31.614 12.3591 31.614 12.7481V46.716C31.614 47.105 31.9107 47.4208 32.2762 47.4208H49.5842C49.7595 47.4208 49.9284 47.3461 50.0524 47.2142L55.5066 41.4101C55.6306 41.2781 55.7007 41.0984 55.7007 40.9119V12.7481C55.7007 12.3591 55.404 12.0433 55.0384 12.0433ZM50.2452 45.0162L50.2426 41.6125L53.4411 41.616L50.2452 45.0162ZM54.3761 40.2071L49.5803 40.2023H49.5797C49.4044 40.2023 49.2355 40.2769 49.1115 40.4089C48.9875 40.5415 48.9174 40.7205 48.9174 40.9077L48.9219 46.0112H32.9385V13.4529H54.3761V40.2071Z" fill="#999999"/>
<path d="M38.3993 37.4695C36.7338 37.4695 35.3793 38.9108 35.3793 40.6832C35.3793 42.4555 36.7344 43.8968 38.3993 43.8968C40.0647 43.8968 41.4192 42.4555 41.4192 40.6832C41.4199 38.9108 40.0647 37.4695 38.3993 37.4695ZM38.3993 42.488C37.4643 42.488 36.7033 41.6782 36.7033 40.6832C36.7033 39.6882 37.4636 38.8791 38.3993 38.8791C39.3349 38.8791 40.0953 39.6882 40.0953 40.6832C40.0953 41.6782 39.3343 42.488 38.3993 42.488Z" fill="#00A0FF"/>
<path d="M47.0342 40.0917H43.3916C43.026 40.0917 42.7293 40.4074 42.7293 40.7965C42.7293 41.1855 43.026 41.5012 43.3916 41.5012H47.0342C47.3998 41.5012 47.6965 41.1855 47.6965 40.7965C47.6965 40.4074 47.4004 40.0917 47.0342 40.0917Z" fill="#999999"/>
<path d="M38.1601 16.2714H36.2401C35.8746 16.2714 35.5778 16.5871 35.5778 16.9761C35.5778 17.3652 35.8746 17.6809 36.2401 17.6809H38.1608C38.5263 17.6809 38.8231 17.3652 38.8231 16.9761C38.8231 16.5871 38.5263 16.2714 38.1601 16.2714Z" fill="#999999"/>
<path d="M51.3394 16.2714H45.5781C45.2125 16.2714 44.9158 16.5871 44.9158 16.9761C44.9158 17.3652 45.2125 17.6809 45.5781 17.6809H51.3394C51.705 17.6809 52.0017 17.3652 52.0017 16.9761C52.0017 16.5871 51.705 16.2714 51.3394 16.2714Z" fill="#00A0FF"/>
<path d="M51.3394 19.302H41.5381C41.1726 19.302 40.8758 19.6178 40.8758 20.0068C40.8758 20.3958 41.1726 20.7116 41.5381 20.7116H51.3394C51.705 20.7116 52.0017 20.3958 52.0017 20.0068C52.0017 19.6178 51.705 19.302 51.3394 19.302Z" fill="#00A0FF"/>
<path d="M51.3726 24.869H35.9424C35.5769 24.869 35.2801 25.1848 35.2801 25.5738C35.2801 25.9628 35.5769 26.2786 35.9424 26.2786H51.3726C51.7382 26.2786 52.0349 25.9628 52.0349 25.5738C52.0349 25.1848 51.7382 24.869 51.3726 24.869Z" fill="#999999"/>
<path d="M51.3726 27.2654H35.9424C35.5769 27.2654 35.2801 27.5812 35.2801 27.9702C35.2801 28.3592 35.5769 28.6749 35.9424 28.6749H51.3726C51.7382 28.6749 52.0349 28.3592 52.0349 27.9702C52.0349 27.5812 51.7382 27.2654 51.3726 27.2654Z" fill="#999999"/>
<path d="M51.3726 29.873H35.9424C35.5769 29.873 35.2801 30.1888 35.2801 30.5778C35.2801 30.9668 35.5769 31.2826 35.9424 31.2826H51.3726C51.7382 31.2826 52.0349 30.9668 52.0349 30.5778C52.0349 30.1888 51.7382 29.873 51.3726 29.873Z" fill="#999999"/>
<path d="M51.3723 32.2693H51.008C50.6425 32.2693 50.3457 32.5851 50.3457 32.9741C50.3457 33.3631 50.6425 33.6789 51.008 33.6789H51.3723C51.7379 33.6789 52.0346 33.3631 52.0346 32.9741C52.0346 32.5844 51.7379 32.2693 51.3723 32.2693Z" fill="#999999"/>
<path d="M48.6903 32.2693H35.9424C35.5769 32.2693 35.2801 32.5851 35.2801 32.9741C35.2801 33.3631 35.5769 33.6789 35.9424 33.6789H48.691C49.0565 33.6789 49.3532 33.3631 49.3532 32.9741C49.3526 32.5844 49.0559 32.2693 48.6903 32.2693Z" fill="#999999"/>
</g>
<defs>
<clipPath id="clip0_405_7251">
<rect width="24.0868" height="35.3774" fill="white" transform="translate(31.614 12.0433)"/>
</clipPath>
</defs>
</svg>
