<svg width="141" height="44" viewBox="0 0 141 44" fill="none" xmlns="http://www.w3.org/2000/svg">
<path d="M50.876 17C53.072 17 54.35 15.686 54.35 13.76C54.35 12.32 53.288 11.006 52.01 10.808C53.108 10.574 54.116 9.566 54.116 8.054C54.116 6.254 52.838 4.994 50.75 4.994H45.404V17H50.876ZM50.498 10.196H46.898V6.326H50.498C51.848 6.326 52.568 7.19 52.568 8.27C52.568 9.368 51.848 10.196 50.498 10.196ZM50.57 15.668H46.898V11.528H50.57C52.046 11.528 52.802 12.5 52.802 13.598C52.802 14.876 51.974 15.668 50.57 15.668ZM63.4563 17V11.024C63.4563 8.918 61.9263 8.09 60.0903 8.09C58.6683 8.09 57.5523 8.558 56.6163 9.53L57.2463 10.466C58.0203 9.638 58.8663 9.26 59.9103 9.26C61.1703 9.26 62.1063 9.926 62.1063 11.096V12.662C61.4043 11.852 60.4143 11.474 59.2263 11.474C57.7503 11.474 56.1843 12.392 56.1843 14.336C56.1843 16.226 57.7503 17.216 59.2263 17.216C60.3963 17.216 61.3863 16.802 62.1063 16.01V17H63.4563ZM59.7123 16.244C58.4523 16.244 57.5703 15.452 57.5703 14.354C57.5703 13.238 58.4523 12.446 59.7123 12.446C60.6663 12.446 61.5843 12.806 62.1063 13.526V15.164C61.5843 15.884 60.6663 16.244 59.7123 16.244ZM68.9165 17.216C71.1665 17.216 72.3365 16.046 72.3365 14.588C72.3365 11.204 66.9545 12.464 66.9545 10.556C66.9545 9.782 67.6925 9.188 68.8805 9.188C69.9965 9.188 70.9505 9.656 71.4725 10.286L72.1025 9.35C71.4005 8.648 70.3565 8.09 68.8805 8.09C66.8105 8.09 65.6405 9.242 65.6405 10.592C65.6405 13.814 71.0225 12.518 71.0225 14.624C71.0225 15.488 70.3025 16.118 68.9705 16.118C67.7825 16.118 66.6845 15.542 66.1085 14.876L65.4065 15.848C66.2885 16.784 67.4945 17.216 68.9165 17.216ZM75.1957 7.064C75.6997 7.064 76.1137 6.668 76.1137 6.164C76.1137 5.66 75.6997 5.246 75.1957 5.246C74.7097 5.246 74.2957 5.66 74.2957 6.164C74.2957 6.668 74.7097 7.064 75.1957 7.064ZM75.8797 17V8.306H74.5297V17H75.8797ZM82.4067 17.216C83.9907 17.216 84.9267 16.568 85.5927 15.704L84.6927 14.876C84.1167 15.65 83.3787 16.01 82.4787 16.01C80.6247 16.01 79.4727 14.57 79.4727 12.644C79.4727 10.718 80.6247 9.296 82.4787 9.296C83.3787 9.296 84.1167 9.638 84.6927 10.43L85.5927 9.602C84.9267 8.738 83.9907 8.09 82.4067 8.09C79.8147 8.09 78.0687 10.07 78.0687 12.644C78.0687 15.236 79.8147 17.216 82.4067 17.216ZM95.4734 17V4.994H94.1594L91.1534 8.09L92.0534 9.008L93.9794 6.974V17H95.4734ZM102.38 20.402C102.632 20.474 103.082 20.528 103.37 20.528C104.522 20.51 105.404 20.024 105.926 18.764L110.282 8.306H108.806L105.926 15.434L103.028 8.306H101.57L105.206 17.09L104.63 18.404C104.324 19.124 103.928 19.322 103.334 19.322C103.118 19.322 102.794 19.268 102.596 19.178L102.38 20.402ZM115.614 17.216C117.036 17.216 118.206 16.748 119.07 15.884L118.422 15.002C117.738 15.704 116.73 16.1 115.74 16.1C113.868 16.1 112.716 14.732 112.608 13.094H119.646V12.752C119.646 10.142 118.098 8.09 115.47 8.09C112.986 8.09 111.186 10.124 111.186 12.644C111.186 15.362 113.04 17.216 115.614 17.216ZM118.314 12.104H112.608C112.68 10.772 113.598 9.206 115.452 9.206C117.432 9.206 118.296 10.808 118.314 12.104ZM128.618 17V11.024C128.618 8.918 127.088 8.09 125.252 8.09C123.83 8.09 122.714 8.558 121.778 9.53L122.408 10.466C123.182 9.638 124.028 9.26 125.072 9.26C126.332 9.26 127.268 9.926 127.268 11.096V12.662C126.566 11.852 125.576 11.474 124.388 11.474C122.912 11.474 121.346 12.392 121.346 14.336C121.346 16.226 122.912 17.216 124.388 17.216C125.558 17.216 126.548 16.802 127.268 16.01V17H128.618ZM124.874 16.244C123.614 16.244 122.732 15.452 122.732 14.354C122.732 13.238 123.614 12.446 124.874 12.446C125.828 12.446 126.746 12.806 127.268 13.526V15.164C126.746 15.884 125.828 16.244 124.874 16.244ZM132.675 17V10.844C133.071 10.142 134.205 9.458 135.033 9.458C135.249 9.458 135.411 9.476 135.573 9.512V8.126C134.385 8.126 133.377 8.792 132.675 9.71V8.306H131.325V17H132.675ZM54.224 39L56.996 30.306H55.592L53.468 37.236L51.182 30.306H50.03L47.744 37.236L45.62 30.306H44.216L46.988 39H48.338L50.606 32.016L52.874 39H54.224ZM65.3548 39V33.024C65.3548 30.918 63.8248 30.09 61.9888 30.09C60.5668 30.09 59.4508 30.558 58.5148 31.53L59.1448 32.466C59.9188 31.638 60.7648 31.26 61.8088 31.26C63.0688 31.26 64.0048 31.926 64.0048 33.096V34.662C63.3028 33.852 62.3128 33.474 61.1248 33.474C59.6488 33.474 58.0828 34.392 58.0828 36.336C58.0828 38.226 59.6488 39.216 61.1248 39.216C62.2948 39.216 63.2848 38.802 64.0048 38.01V39H65.3548ZM61.6108 38.244C60.3508 38.244 59.4688 37.452 59.4688 36.354C59.4688 35.238 60.3508 34.446 61.6108 34.446C62.5648 34.446 63.4828 34.806 64.0048 35.526V37.164C63.4828 37.884 62.5648 38.244 61.6108 38.244ZM69.4109 39V32.844C69.8069 32.142 70.9409 31.458 71.7689 31.458C71.9849 31.458 72.1469 31.476 72.3089 31.512V30.126C71.1209 30.126 70.1129 30.792 69.4109 31.71V30.306H68.0609V39H69.4109ZM75.3523 39V32.844C75.7483 32.142 76.8823 31.458 77.7103 31.458C77.9263 31.458 78.0883 31.476 78.2503 31.512V30.126C77.0623 30.126 76.0543 30.792 75.3523 31.71V30.306H74.0023V39H75.3523ZM86.7298 39V33.024C86.7298 30.918 85.1998 30.09 83.3638 30.09C81.9418 30.09 80.8258 30.558 79.8898 31.53L80.5198 32.466C81.2938 31.638 82.1398 31.26 83.1838 31.26C84.4438 31.26 85.3798 31.926 85.3798 33.096V34.662C84.6778 33.852 83.6878 33.474 82.4998 33.474C81.0238 33.474 79.4578 34.392 79.4578 36.336C79.4578 38.226 81.0238 39.216 82.4998 39.216C83.6698 39.216 84.6598 38.802 85.3798 38.01V39H86.7298ZM82.9858 38.244C81.7258 38.244 80.8438 37.452 80.8438 36.354C80.8438 35.238 81.7258 34.446 82.9858 34.446C83.9398 34.446 84.8578 34.806 85.3798 35.526V37.164C84.8578 37.884 83.9398 38.244 82.9858 38.244ZM96.6539 39V32.898C96.6539 31.008 95.6999 30.09 93.8819 30.09C92.5859 30.09 91.3979 30.846 90.7859 31.566V30.306H89.4359V39H90.7859V32.646C91.2899 31.944 92.2979 31.296 93.3599 31.296C94.5299 31.296 95.3039 31.782 95.3039 33.312V39H96.6539ZM101.546 39.216C102.338 39.216 102.824 38.982 103.166 38.658L102.77 37.65C102.59 37.848 102.23 38.01 101.852 38.01C101.258 38.01 100.97 37.542 100.97 36.894V31.494H102.734V30.306H100.97V27.93H99.62V30.306H98.18V31.494H99.62V37.182C99.62 38.478 100.268 39.216 101.546 39.216ZM104.155 42.402C104.407 42.474 104.857 42.528 105.145 42.528C106.297 42.51 107.179 42.024 107.701 40.764L112.057 30.306H110.581L107.701 37.434L104.803 30.306H103.345L106.981 39.09L106.405 40.404C106.099 41.124 105.703 41.322 105.109 41.322C104.893 41.322 104.569 41.268 104.371 41.178L104.155 42.402Z" fill="white"/>
<g clip-path="url(#clip0_405_10462)">
<path d="M24.3126 6H0.687406C0.307985 6 0 6.3124 0 6.69727V40.3027C0 40.6876 0.307985 41 0.687406 41H18.6516C18.8336 41 19.0088 40.9262 19.1375 40.7956L24.7985 35.0534C24.9272 34.9229 25 34.7451 25 34.5605V6.69727C25 6.3124 24.692 6 24.3126 6ZM19.3377 38.6211L19.335 35.2537L22.6547 35.2571L19.3377 38.6211ZM23.6252 33.8633L18.6476 33.8585H18.6469C18.4649 33.8585 18.2897 33.9323 18.161 34.0629C18.0323 34.1941 17.9595 34.3712 17.9595 34.5564L17.9642 39.6055H1.37481V7.39453H23.6252V33.8633Z" fill="white"/>
<path d="M7.04264 31.1549C5.31402 31.1549 3.9082 32.5809 3.9082 34.3343C3.9082 36.0877 5.31469 37.5137 7.04264 37.5137C8.77126 37.5137 10.1771 36.0877 10.1771 34.3343C10.1777 32.5809 8.77126 31.1549 7.04264 31.1549ZM7.04264 36.1198C6.07218 36.1198 5.28234 35.3187 5.28234 34.3343C5.28234 33.3499 6.07151 32.5494 7.04264 32.5494C8.01377 32.5494 8.80294 33.3499 8.80294 34.3343C8.80294 35.3187 8.01309 36.1198 7.04264 36.1198Z" fill="white"/>
<path d="M16.005 33.7491H12.2243C11.8448 33.7491 11.5369 34.0615 11.5369 34.4464C11.5369 34.8312 11.8448 35.1436 12.2243 35.1436H16.005C16.3844 35.1436 16.6924 34.8312 16.6924 34.4464C16.6924 34.0615 16.3851 33.7491 16.005 33.7491Z" fill="white"/>
<path d="M6.79447 10.1829H4.80166C4.42224 10.1829 4.11426 10.4953 4.11426 10.8802C4.11426 11.2651 4.42224 11.5775 4.80166 11.5775H6.79514C7.17456 11.5775 7.48255 11.2651 7.48255 10.8802C7.48255 10.4953 7.17456 10.1829 6.79447 10.1829Z" fill="white"/>
<path d="M20.4733 10.1829H14.4936C14.1141 10.1829 13.8062 10.4953 13.8062 10.8802C13.8062 11.2651 14.1141 11.5775 14.4936 11.5775H20.4733C20.8527 11.5775 21.1607 11.2651 21.1607 10.8802C21.1607 10.4953 20.8527 10.1829 20.4733 10.1829Z" fill="white"/>
<path d="M20.4731 13.1812H10.3002C9.92078 13.1812 9.61279 13.4936 9.61279 13.8784C9.61279 14.2633 9.92078 14.5757 10.3002 14.5757H20.4731C20.8525 14.5757 21.1605 14.2633 21.1605 13.8784C21.1605 13.4936 20.8525 13.1812 20.4731 13.1812Z" fill="white"/>
<path d="M20.5075 18.6888H4.49234C4.11292 18.6888 3.80493 19.0012 3.80493 19.3861C3.80493 19.771 4.11292 20.0834 4.49234 20.0834H20.5075C20.887 20.0834 21.1949 19.771 21.1949 19.3861C21.1949 19.0012 20.887 18.6888 20.5075 18.6888Z" fill="white"/>
<path d="M20.5075 21.0596H4.49234C4.11292 21.0596 3.80493 21.372 3.80493 21.7568C3.80493 22.1417 4.11292 22.4541 4.49234 22.4541H20.5075C20.887 22.4541 21.1949 22.1417 21.1949 21.7568C21.1949 21.372 20.887 21.0596 20.5075 21.0596Z" fill="white"/>
<path d="M20.5075 23.6394H4.49234C4.11292 23.6394 3.80493 23.9518 3.80493 24.3367C3.80493 24.7215 4.11292 25.0339 4.49234 25.0339H20.5075C20.887 25.0339 21.1949 24.7215 21.1949 24.3367C21.1949 23.9518 20.887 23.6394 20.5075 23.6394Z" fill="white"/>
<path d="M20.5076 26.0102H20.1295C19.7501 26.0102 19.4421 26.3226 19.4421 26.7075C19.4421 27.0923 19.7501 27.4047 20.1295 27.4047H20.5076C20.887 27.4047 21.195 27.0923 21.195 26.7075C21.195 26.3219 20.887 26.0102 20.5076 26.0102Z" fill="white"/>
<path d="M17.7236 26.0102H4.49234C4.11292 26.0102 3.80493 26.3226 3.80493 26.7075C3.80493 27.0923 4.11292 27.4047 4.49234 27.4047H17.7242C18.1036 27.4047 18.4116 27.0923 18.4116 26.7075C18.411 26.3219 18.103 26.0102 17.7236 26.0102Z" fill="white"/>
</g>
<defs>
<clipPath id="clip0_405_10462">
<rect width="25" height="35" fill="white" transform="translate(0 6)"/>
</clipPath>
</defs>
</svg>
