<svg width="86" height="63" viewBox="0 0 86 63" fill="none" xmlns="http://www.w3.org/2000/svg">
<rect width="86" height="63" fill="white"/>
<g clip-path="url(#clip0_405_7244)">
<path d="M58.0457 37.8912C57.908 37.512 57.4938 37.3185 57.1212 37.4583L49.6362 40.2635C49.2629 40.4033 49.0724 40.824 49.21 41.2024C49.3173 41.4977 49.5925 41.6805 49.8853 41.6805C49.9679 41.6805 50.0519 41.6661 50.1344 41.6353L57.6194 38.8301C57.9927 38.6903 58.1833 38.2696 58.0457 37.8912Z" fill="#009EFF"/>
<path d="M48.5031 41.4677C48.3655 41.0886 47.9513 40.895 47.5787 41.0348L47.2619 41.1538C46.8893 41.2935 46.6981 41.7143 46.8357 42.0927C46.9429 42.388 47.2181 42.5707 47.511 42.5707C47.5935 42.5707 47.6775 42.5564 47.7601 42.5256L48.0769 42.4066C48.4495 42.2661 48.6407 41.8461 48.5031 41.4677Z" fill="#009EFF"/>
<path d="M58.0457 34.9118C57.9081 34.5326 57.4938 34.3391 57.1213 34.4789L51.2064 36.6957C50.8331 36.8355 50.6425 37.2562 50.7801 37.6346C50.8874 37.9299 51.1626 38.1127 51.4555 38.1127C51.538 38.1127 51.622 38.0983 51.7046 38.0675L57.6202 35.8507C57.9928 35.7109 58.1833 35.2909 58.0457 34.9118Z" fill="#009EFF"/>
<path d="M58.0457 31.9647C57.9081 31.5855 57.4938 31.392 57.1213 31.5318L51.2064 33.7486C50.8331 33.8883 50.6425 34.309 50.7801 34.6875C50.8874 34.9828 51.1626 35.1655 51.4555 35.1655C51.538 35.1655 51.622 35.1512 51.7046 35.1204L57.6202 32.9036C57.9928 32.7638 58.1833 32.3431 58.0457 31.9647Z" fill="#009EFF"/>
<path d="M60.4987 18.5892L43.1534 12.0885C42.9925 12.0283 42.8161 12.0283 42.6552 12.0885L25.3099 18.5892V18.5899C25.2535 18.6114 25.1984 18.6393 25.1476 18.6752C24.9543 18.8113 24.8393 19.0357 24.8393 19.2751V40.189C24.8393 40.4951 25.027 40.7689 25.3099 40.8749L42.6552 47.3756C42.7364 47.4057 42.8204 47.4208 42.9043 47.4208C42.989 47.4208 43.0737 47.405 43.1534 47.3749V47.3756L60.4987 40.8749C60.7817 40.7689 60.9694 40.4951 60.9694 40.189V19.2751C60.9694 18.9683 60.7817 18.6952 60.4987 18.5892ZM42.1846 45.6404L26.2788 39.6795V20.3236L29.5178 21.5378V30.395C29.5178 30.7011 29.7055 30.9749 29.9885 31.0809L37.7614 33.9937C37.8426 34.0238 37.9266 34.0388 38.0105 34.0388C38.1559 34.0388 38.2999 33.9944 38.4219 33.9077C38.6153 33.7708 38.7303 33.5472 38.7303 33.3078V24.9902L42.1853 26.2846L42.1846 45.6404ZM37.2908 24.4505V32.2585L30.9574 29.8847V22.0767L37.2908 24.4505ZM32.3165 21.0224L38.0105 18.8888L43.7046 21.0224L38.0105 23.1561L32.3165 21.0224ZM42.9043 24.9959L40.0817 23.9381L46.0326 21.7076C46.3155 21.6016 46.5032 21.3278 46.5032 21.0217C46.5032 20.7157 46.3155 20.4419 46.0326 20.3358L38.2596 17.4231C38.0987 17.3629 37.9223 17.3629 37.7614 17.4231L30.2291 20.2462L27.6379 19.2751L42.9043 13.5535L58.1707 19.2744L42.9043 24.9959ZM59.5299 39.6795L43.6241 45.6404V26.2846L59.5299 20.3236V39.6795Z" fill="#999999"/>
</g>
<defs>
<clipPath id="clip0_405_7244">
<rect width="36.1301" height="35.3774" fill="white" transform="translate(24.8393 12.0433)"/>
</clipPath>
</defs>
</svg>
