<svg width="86" height="63" viewBox="0 0 86 63" fill="none" xmlns="http://www.w3.org/2000/svg">
<g clip-path="url(#clip0_319_12636)">
<rect width="86" height="63" fill="white"/>
<rect y="0.0390625" width="86" height="63" fill="#009EFF"/>
<g clip-path="url(#clip1_319_12636)">
<path d="M58.0459 37.8913C57.9083 37.5121 57.4941 37.3186 57.1215 37.4584L49.6365 40.2636C49.2632 40.4034 49.0726 40.8241 49.2102 41.2025C49.3175 41.4978 49.5927 41.6806 49.8856 41.6806C49.9681 41.6806 50.0521 41.6663 50.1347 41.6354L57.6197 38.8302C57.993 38.6904 58.1835 38.2697 58.0459 37.8913Z" fill="white"/>
<path d="M48.5034 41.4678C48.3658 41.0887 47.9516 40.8952 47.579 41.0349L47.2621 41.1539C46.8895 41.2937 46.6983 41.7144 46.8359 42.0928C46.9432 42.3881 47.2184 42.5709 47.5112 42.5709C47.5938 42.5709 47.6778 42.5565 47.7603 42.5257L48.0772 42.4067C48.4498 42.2663 48.641 41.8463 48.5034 41.4678Z" fill="white"/>
<path d="M58.0459 34.9119C57.9083 34.5328 57.494 34.3393 57.1214 34.479L51.2065 36.6958C50.8332 36.8356 50.6427 37.2563 50.7803 37.6347C50.8876 37.93 51.1628 38.1128 51.4556 38.1128C51.5382 38.1128 51.6222 38.0985 51.7047 38.0677L57.6203 35.8508C57.9929 35.7111 58.1835 35.2911 58.0459 34.9119Z" fill="white"/>
<path d="M58.0459 31.9648C57.9083 31.5856 57.494 31.3921 57.1214 31.5319L51.2065 33.7487C50.8332 33.8885 50.6427 34.3092 50.7803 34.6876C50.8876 34.9829 51.1628 35.1657 51.4556 35.1657C51.5382 35.1657 51.6222 35.1513 51.7047 35.1205L57.6203 32.9037C57.9929 32.7639 58.1835 32.3432 58.0459 31.9648Z" fill="white"/>
<path d="M60.4989 18.5893L43.1537 12.0886C42.9928 12.0284 42.8163 12.0284 42.6555 12.0886L25.3102 18.5893V18.59C25.2537 18.6115 25.1987 18.6395 25.1479 18.6753C24.9545 18.8115 24.8395 19.0358 24.8395 19.2752V40.1892C24.8395 40.4952 25.0272 40.769 25.3102 40.8751L42.6555 47.3757C42.7366 47.4058 42.8206 47.4209 42.9046 47.4209C42.9892 47.4209 43.0739 47.4051 43.1537 47.375V47.3757L60.4989 40.8751C60.7819 40.769 60.9696 40.4952 60.9696 40.1892V19.2752C60.9696 18.9684 60.7819 18.6954 60.4989 18.5893ZM42.1848 45.6406L26.279 39.6796V20.3238L29.518 21.5379V30.3951C29.518 30.7012 29.7058 30.975 29.9887 31.081L37.7617 33.9938C37.8428 34.0239 37.9268 34.039 38.0108 34.039C38.1561 34.039 38.3001 33.9945 38.4222 33.9078C38.6155 33.7709 38.7305 33.5473 38.7305 33.3079V24.9903L42.1855 26.2847L42.1848 45.6406ZM37.291 24.4506V32.2586L30.9576 29.8848V22.0769L37.291 24.4506ZM32.3167 21.0226L38.0108 18.8889L43.7048 21.0226L38.0108 23.1562L32.3167 21.0226ZM42.9046 24.9961L40.0819 23.9382L46.0328 21.7077C46.3157 21.6017 46.5035 21.3279 46.5035 21.0218C46.5035 20.7158 46.3157 20.442 46.0328 20.3359L38.2599 17.4232C38.099 17.363 37.9225 17.363 37.7617 17.4232L30.2294 20.2463L27.6382 19.2752L42.9046 13.5536L58.171 19.2745L42.9046 24.9961ZM59.5301 39.6796L43.6243 45.6406V26.2847L59.5301 20.3238V39.6796Z" fill="white"/>
</g>
</g>
<defs>
<clipPath id="clip0_319_12636">
<rect width="86" height="63" fill="white"/>
</clipPath>
<clipPath id="clip1_319_12636">
<rect width="36.1301" height="35.3774" fill="white" transform="translate(24.8395 12.0435)"/>
</clipPath>
</defs>
</svg>
