<svg width="178" height="44" viewBox="0 0 178 44" fill="none" xmlns="http://www.w3.org/2000/svg">
<path d="M62.508 17C66.234 17 68.664 14.426 68.664 11.006C68.664 7.604 66.234 4.994 62.508 4.994H58.404V17H62.508ZM62.508 15.668H59.898V6.326H62.508C65.478 6.326 67.116 8.414 67.116 11.006C67.116 13.58 65.424 15.668 62.508 15.668ZM74.8775 17.216C76.2995 17.216 77.4695 16.748 78.3335 15.884L77.6855 15.002C77.0015 15.704 75.9935 16.1 75.0035 16.1C73.1315 16.1 71.9795 14.732 71.8715 13.094H78.9095V12.752C78.9095 10.142 77.3615 8.09 74.7335 8.09C72.2495 8.09 70.4495 10.124 70.4495 12.644C70.4495 15.362 72.3035 17.216 74.8775 17.216ZM77.5775 12.104H71.8715C71.9435 10.772 72.8615 9.206 74.7155 9.206C76.6955 9.206 77.5595 10.808 77.5775 12.104ZM82.4461 17V4.994H81.0961V17H82.4461ZM85.8051 7.064C86.3091 7.064 86.7231 6.668 86.7231 6.164C86.7231 5.66 86.3091 5.246 85.8051 5.246C85.3191 5.246 84.9051 5.66 84.9051 6.164C84.9051 6.668 85.3191 7.064 85.8051 7.064ZM86.4891 17V8.306H85.1391V17H86.4891ZM92.98 17L96.598 8.306H95.122L92.242 15.434L89.344 8.306H87.886L91.504 17H92.98ZM101.93 17.216C103.352 17.216 104.522 16.748 105.386 15.884L104.738 15.002C104.054 15.704 103.046 16.1 102.056 16.1C100.184 16.1 99.0322 14.732 98.9243 13.094H105.962V12.752C105.962 10.142 104.414 8.09 101.786 8.09C99.3022 8.09 97.5023 10.124 97.5023 12.644C97.5023 15.362 99.3563 17.216 101.93 17.216ZM104.63 12.104H98.9243C98.9963 10.772 99.9143 9.206 101.768 9.206C103.748 9.206 104.612 10.808 104.63 12.104ZM109.499 17V10.844C109.895 10.142 111.029 9.458 111.857 9.458C112.073 9.458 112.235 9.476 112.397 9.512V8.126C111.209 8.126 110.201 8.792 109.499 9.71V8.306H108.149V17H109.499ZM113.604 20.402C113.856 20.474 114.306 20.528 114.594 20.528C115.746 20.51 116.628 20.024 117.15 18.764L121.506 8.306H120.03L117.15 15.434L114.252 8.306H112.794L116.43 17.09L115.854 18.404C115.548 19.124 115.152 19.322 114.558 19.322C114.342 19.322 114.018 19.268 113.82 19.178L113.604 20.402ZM136.429 17L139.201 8.306H137.797L135.673 15.236L133.387 8.306H132.235L129.949 15.236L127.825 8.306H126.421L129.193 17H130.543L132.811 10.016L135.079 17H136.429ZM141.44 7.064C141.944 7.064 142.358 6.668 142.358 6.164C142.358 5.66 141.944 5.246 141.44 5.246C140.954 5.246 140.54 5.66 140.54 6.164C140.54 6.668 140.954 7.064 141.44 7.064ZM142.124 17V8.306H140.774V17H142.124ZM147.013 17.216C147.805 17.216 148.291 16.982 148.633 16.658L148.237 15.65C148.057 15.848 147.697 16.01 147.319 16.01C146.725 16.01 146.437 15.542 146.437 14.894V9.494H148.201V8.306H146.437V5.93H145.087V8.306H143.647V9.494H145.087V15.182C145.087 16.478 145.735 17.216 147.013 17.216ZM157.344 17V10.862C157.344 8.972 156.39 8.09 154.572 8.09C153.258 8.09 152.07 8.846 151.458 9.566V4.994H150.108V17H151.458V10.646C151.98 9.944 152.988 9.296 154.032 9.296C155.202 9.296 155.994 9.746 155.994 11.276V17H157.344ZM160.705 7.064C161.209 7.064 161.623 6.668 161.623 6.164C161.623 5.66 161.209 5.246 160.705 5.246C160.219 5.246 159.805 5.66 159.805 6.164C159.805 6.668 160.219 7.064 160.705 7.064ZM161.389 17V8.306H160.039V17H161.389ZM171.3 17V10.898C171.3 9.008 170.346 8.09 168.528 8.09C167.232 8.09 166.044 8.846 165.432 9.566V8.306H164.082V17H165.432V10.646C165.936 9.944 166.944 9.296 168.006 9.296C169.176 9.296 169.95 9.782 169.95 11.312V17H171.3ZM61.698 39V26.994H60.384L57.378 30.09L58.278 31.008L60.204 28.974V39H61.698ZM70.4402 36.642V32.7C70.9082 31.944 71.9702 31.296 73.0322 31.296C74.7962 31.296 75.8402 32.736 75.8402 34.662C75.8402 36.588 74.7962 38.01 73.0322 38.01C71.9702 38.01 70.9082 37.398 70.4402 36.642ZM70.4402 39V37.704C71.0882 38.586 72.1502 39.216 73.3742 39.216C75.6422 39.216 77.2442 37.488 77.2442 34.662C77.2442 31.89 75.6422 30.09 73.3742 30.09C72.1862 30.09 71.1422 30.666 70.4402 31.62V26.994H69.0902V39H70.4402ZM86.6618 39V30.306H85.3118V36.696C84.8078 37.398 83.7998 38.01 82.7378 38.01C81.5678 38.01 80.7938 37.56 80.7938 36.03V30.306H79.4438V36.444C79.4438 38.334 80.3978 39.216 82.2158 39.216C83.5118 39.216 84.6458 38.532 85.3118 37.776V39H86.6618ZM92.1118 39.216C94.3618 39.216 95.5318 38.046 95.5318 36.588C95.5318 33.204 90.1498 34.464 90.1498 32.556C90.1498 31.782 90.8878 31.188 92.0758 31.188C93.1918 31.188 94.1458 31.656 94.6678 32.286L95.2978 31.35C94.5958 30.648 93.5518 30.09 92.0758 30.09C90.0058 30.09 88.8358 31.242 88.8358 32.592C88.8358 35.814 94.2178 34.518 94.2178 36.624C94.2178 37.488 93.4978 38.118 92.1658 38.118C90.9778 38.118 89.8798 37.542 89.3038 36.876L88.6018 37.848C89.4838 38.784 90.6898 39.216 92.1118 39.216ZM98.391 29.064C98.895 29.064 99.309 28.668 99.309 28.164C99.309 27.66 98.895 27.246 98.391 27.246C97.905 27.246 97.491 27.66 97.491 28.164C97.491 28.668 97.905 29.064 98.391 29.064ZM99.075 39V30.306H97.725V39H99.075ZM108.986 39V32.898C108.986 31.008 108.032 30.09 106.214 30.09C104.918 30.09 103.73 30.846 103.118 31.566V30.306H101.768V39H103.118V32.646C103.622 31.944 104.63 31.296 105.692 31.296C106.862 31.296 107.636 31.782 107.636 33.312V39H108.986ZM115.606 39.216C117.028 39.216 118.198 38.748 119.062 37.884L118.414 37.002C117.73 37.704 116.722 38.1 115.732 38.1C113.86 38.1 112.708 36.732 112.6 35.094H119.638V34.752C119.638 32.142 118.09 30.09 115.462 30.09C112.978 30.09 111.178 32.124 111.178 34.644C111.178 37.362 113.032 39.216 115.606 39.216ZM118.306 34.104H112.6C112.672 32.772 113.59 31.206 115.444 31.206C117.424 31.206 118.288 32.808 118.306 34.104ZM124.579 39.216C126.829 39.216 127.999 38.046 127.999 36.588C127.999 33.204 122.617 34.464 122.617 32.556C122.617 31.782 123.355 31.188 124.543 31.188C125.659 31.188 126.613 31.656 127.135 32.286L127.765 31.35C127.063 30.648 126.019 30.09 124.543 30.09C122.473 30.09 121.303 31.242 121.303 32.592C121.303 35.814 126.685 34.518 126.685 36.624C126.685 37.488 125.965 38.118 124.633 38.118C123.445 38.118 122.347 37.542 121.771 36.876L121.069 37.848C121.951 38.784 123.157 39.216 124.579 39.216ZM132.946 39.216C135.196 39.216 136.366 38.046 136.366 36.588C136.366 33.204 130.984 34.464 130.984 32.556C130.984 31.782 131.722 31.188 132.91 31.188C134.026 31.188 134.98 31.656 135.502 32.286L136.132 31.35C135.43 30.648 134.386 30.09 132.91 30.09C130.84 30.09 129.67 31.242 129.67 32.592C129.67 35.814 135.052 34.518 135.052 36.624C135.052 37.488 134.332 38.118 133 38.118C131.812 38.118 130.714 37.542 130.138 36.876L129.436 37.848C130.318 38.784 131.524 39.216 132.946 39.216ZM150.85 39V26.994H149.5V31.62C148.798 30.666 147.736 30.09 146.566 30.09C144.28 30.09 142.696 31.89 142.696 34.662C142.696 37.488 144.298 39.216 146.566 39.216C147.79 39.216 148.852 38.586 149.5 37.704V39H150.85ZM146.89 38.01C145.144 38.01 144.1 36.588 144.1 34.662C144.1 32.736 145.144 31.296 146.89 31.296C147.97 31.296 149.014 31.944 149.5 32.7V36.642C149.014 37.398 147.97 38.01 146.89 38.01ZM160.339 39V33.024C160.339 30.918 158.809 30.09 156.973 30.09C155.551 30.09 154.435 30.558 153.499 31.53L154.129 32.466C154.903 31.638 155.749 31.26 156.793 31.26C158.053 31.26 158.989 31.926 158.989 33.096V34.662C158.287 33.852 157.297 33.474 156.109 33.474C154.633 33.474 153.067 34.392 153.067 36.336C153.067 38.226 154.633 39.216 156.109 39.216C157.279 39.216 158.269 38.802 158.989 38.01V39H160.339ZM156.595 38.244C155.335 38.244 154.453 37.452 154.453 36.354C154.453 35.238 155.335 34.446 156.595 34.446C157.549 34.446 158.467 34.806 158.989 35.526V37.164C158.467 37.884 157.549 38.244 156.595 38.244ZM162.559 42.402C162.811 42.474 163.261 42.528 163.549 42.528C164.701 42.51 165.583 42.024 166.105 40.764L170.461 30.306H168.985L166.105 37.434L163.207 30.306H161.749L165.385 39.09L164.809 40.404C164.503 41.124 164.107 41.322 163.513 41.322C163.297 41.322 162.973 41.268 162.775 41.178L162.559 42.402Z" fill="white"/>
<g clip-path="url(#clip0_405_9854)">
<path d="M34.9252 30.0334C34.7804 29.6369 34.3448 29.4345 33.9529 29.5806L26.0805 32.5146C25.6879 32.6607 25.4875 33.1007 25.6322 33.4965C25.7451 33.8054 26.0345 33.9965 26.3425 33.9965C26.4294 33.9965 26.5177 33.9815 26.6045 33.9493L34.4769 31.0154C34.8695 30.8692 35.0699 30.4292 34.9252 30.0334Z" fill="white"/>
<path d="M24.8885 33.7739C24.7438 33.3773 24.3081 33.175 23.9162 33.3211L23.583 33.4456C23.1911 33.5917 22.99 34.0317 23.1347 34.4275C23.2475 34.7364 23.537 34.9275 23.845 34.9275C23.9318 34.9275 24.0201 34.9125 24.107 34.8803L24.4402 34.7559C24.8321 34.6089 25.0332 34.1697 24.8885 33.7739Z" fill="white"/>
<path d="M34.9252 26.9173C34.7804 26.5208 34.3448 26.3184 33.9529 26.4646L27.7319 28.7831C27.3393 28.9292 27.1389 29.3692 27.2836 29.765C27.3964 30.0739 27.6859 30.265 27.9939 30.265C28.0807 30.265 28.169 30.25 28.2559 30.2178L34.4776 27.8993C34.8695 27.7531 35.0699 27.3139 34.9252 26.9173Z" fill="white"/>
<path d="M34.9252 23.835C34.7804 23.4384 34.3448 23.2361 33.9529 23.3822L27.7319 25.7007C27.3393 25.8469 27.1389 26.2869 27.2836 26.6827C27.3964 26.9915 27.6859 27.1827 27.9939 27.1827C28.0807 27.1827 28.169 27.1677 28.2559 27.1354L34.4776 24.8169C34.8695 24.6708 35.0699 24.2308 34.9252 23.835Z" fill="white"/>
<path d="M37.505 9.84605L19.262 3.04722C19.0928 2.98426 18.9072 2.98426 18.738 3.04722L0.495039 9.84605V9.8468C0.435664 9.86929 0.377773 9.89852 0.324336 9.936C0.120977 10.0784 0 10.313 0 10.5634V32.4366C0 32.7567 0.197422 33.043 0.495039 33.1539L18.738 39.9528C18.8234 39.9843 18.9117 40 19 40C19.0891 40 19.1781 39.9835 19.262 39.952V39.9528L37.505 33.1539C37.8026 33.043 38 32.7567 38 32.4366V10.5634C38 10.2426 37.8026 9.95699 37.505 9.84605ZM18.243 38.138L1.51406 31.9036V11.6601L4.9207 12.9299V22.1934C4.9207 22.5135 5.11813 22.7998 5.41574 22.9107L13.5909 25.9571C13.6763 25.9886 13.7646 26.0043 13.8529 26.0043C14.0058 26.0043 14.1572 25.9578 14.2856 25.8671C14.489 25.724 14.61 25.4901 14.61 25.2397V16.5407L18.2437 17.8944L18.243 38.138ZM13.0959 15.9762V24.1423L6.43477 21.6597V13.4936L13.0959 15.9762ZM7.86422 12.3909L13.8529 10.1594L19.8416 12.3909L13.8529 14.6225L7.86422 12.3909ZM19 16.5467L16.0312 15.4403L22.2901 13.1075C22.5877 12.9966 22.7852 12.7103 22.7852 12.3902C22.7852 12.0701 22.5877 11.7838 22.2901 11.6728L14.1149 8.62646C13.9457 8.56349 13.7602 8.56349 13.5909 8.62646L5.66883 11.5791L2.94352 10.5634L19 4.5794L35.0565 10.5627L19 16.5467ZM36.4859 31.9036L19.757 38.138V17.8944L36.4859 11.6601V31.9036Z" fill="white"/>
</g>
<defs>
<clipPath id="clip0_405_9854">
<rect width="38" height="37" fill="white" transform="translate(0 3)"/>
</clipPath>
</defs>
</svg>
