<svg width="170" height="44" viewBox="0 0 170 44" fill="none" xmlns="http://www.w3.org/2000/svg">
<path d="M56.3 17.216C59.558 17.216 61.196 15.308 61.196 12.32V4.994H59.702V12.302C59.702 14.498 58.514 15.884 56.3 15.884C54.086 15.884 52.898 14.498 52.898 12.302V4.994H51.404V12.338C51.404 15.29 53.042 17.216 56.3 17.216ZM68.2375 17.216C70.5235 17.216 72.1075 15.452 72.1075 12.644C72.1075 9.818 70.5235 8.09 68.2375 8.09C67.0135 8.09 65.9335 8.72 65.3035 9.602V8.306H63.9535V20.312H65.3035V15.686C66.0055 16.658 67.0495 17.216 68.2375 17.216ZM67.8955 16.01C66.8335 16.01 65.7715 15.362 65.3035 14.606V10.682C65.7715 9.926 66.8335 9.296 67.8955 9.296C69.6415 9.296 70.6855 10.718 70.6855 12.644C70.6855 14.57 69.6415 16.01 67.8955 16.01ZM81.0909 17.216C81.8829 17.216 82.3689 16.982 82.7109 16.658L82.3149 15.65C82.1349 15.848 81.7749 16.01 81.3969 16.01C80.8029 16.01 80.5149 15.542 80.5149 14.894V9.494H82.2789V8.306H80.5149V5.93H79.1649V8.306H77.7249V9.494H79.1649V15.182C79.1649 16.478 79.8129 17.216 81.0909 17.216ZM87.9839 17.216C90.6299 17.216 92.2859 15.164 92.2859 12.644C92.2859 10.124 90.6299 8.09 87.9839 8.09C85.3379 8.09 83.6819 10.124 83.6819 12.644C83.6819 15.164 85.3379 17.216 87.9839 17.216ZM87.9839 16.01C86.1299 16.01 85.0859 14.426 85.0859 12.644C85.0859 10.88 86.1299 9.296 87.9839 9.296C89.8379 9.296 90.8639 10.88 90.8639 12.644C90.8639 14.426 89.8379 16.01 87.9839 16.01ZM105.553 17V13.958H107.245V12.644H105.553V4.994H103.501L98.3533 12.716V13.958H104.059V17H105.553ZM104.059 12.644H99.8473L104.059 6.38V12.644ZM113.322 17.216C116.598 17.216 117.912 13.922 117.912 11.006C117.912 8.072 116.598 4.814 113.322 4.814C110.028 4.814 108.732 8.072 108.732 11.006C108.732 13.922 110.028 17.216 113.322 17.216ZM113.322 15.884C111.036 15.884 110.262 13.4 110.262 11.006C110.262 8.612 111.036 6.146 113.322 6.146C115.608 6.146 116.382 8.612 116.382 11.006C116.382 13.4 115.608 15.884 113.322 15.884ZM136.671 17V10.718C136.671 8.972 135.825 8.09 134.241 8.09C132.981 8.09 131.811 8.918 131.325 9.71C131.073 8.81 130.317 8.09 128.985 8.09C127.707 8.09 126.537 9.008 126.177 9.566V8.306H124.827V17H126.177V10.646C126.645 9.944 127.581 9.296 128.463 9.296C129.597 9.296 130.065 9.998 130.065 11.096V17H131.415V10.628C131.865 9.944 132.819 9.296 133.719 9.296C134.835 9.296 135.321 9.998 135.321 11.096V17H136.671ZM140.03 7.064C140.534 7.064 140.948 6.668 140.948 6.164C140.948 5.66 140.534 5.246 140.03 5.246C139.544 5.246 139.13 5.66 139.13 6.164C139.13 6.668 139.544 7.064 140.03 7.064ZM140.714 17V8.306H139.364V17H140.714ZM144.757 17V4.994H143.407V17H144.757ZM151.374 17.216C152.796 17.216 153.966 16.748 154.83 15.884L154.182 15.002C153.498 15.704 152.49 16.1 151.5 16.1C149.628 16.1 148.476 14.732 148.368 13.094H155.406V12.752C155.406 10.142 153.858 8.09 151.23 8.09C148.746 8.09 146.946 10.124 146.946 12.644C146.946 15.362 148.8 17.216 151.374 17.216ZM154.074 12.104H148.368C148.44 10.772 149.358 9.206 151.212 9.206C153.192 9.206 154.056 10.808 154.074 12.104ZM160.346 17.216C162.596 17.216 163.766 16.046 163.766 14.588C163.766 11.204 158.384 12.464 158.384 10.556C158.384 9.782 159.122 9.188 160.31 9.188C161.426 9.188 162.38 9.656 162.902 10.286L163.532 9.35C162.83 8.648 161.786 8.09 160.31 8.09C158.24 8.09 157.07 9.242 157.07 10.592C157.07 13.814 162.452 12.518 162.452 14.624C162.452 15.488 161.732 16.118 160.4 16.118C159.212 16.118 158.114 15.542 157.538 14.876L156.836 15.848C157.718 16.784 158.924 17.216 160.346 17.216ZM55.634 39.216C57.92 39.216 59.504 37.452 59.504 34.644C59.504 31.818 57.92 30.09 55.634 30.09C54.41 30.09 53.33 30.72 52.7 31.602V30.306H51.35V42.312H52.7V37.686C53.402 38.658 54.446 39.216 55.634 39.216ZM55.292 38.01C54.23 38.01 53.168 37.362 52.7 36.606V32.682C53.168 31.926 54.23 31.296 55.292 31.296C57.038 31.296 58.082 32.718 58.082 34.644C58.082 36.57 57.038 38.01 55.292 38.01ZM65.5748 39.216C66.9968 39.216 68.1668 38.748 69.0308 37.884L68.3828 37.002C67.6988 37.704 66.6908 38.1 65.7008 38.1C63.8288 38.1 62.6768 36.732 62.5688 35.094H69.6068V34.752C69.6068 32.142 68.0588 30.09 65.4308 30.09C62.9468 30.09 61.1468 32.124 61.1468 34.644C61.1468 37.362 63.0008 39.216 65.5748 39.216ZM68.2748 34.104H62.5688C62.6408 32.772 63.5588 31.206 65.4128 31.206C67.3928 31.206 68.2568 32.808 68.2748 34.104ZM73.1434 39V32.844C73.5394 32.142 74.6734 31.458 75.5014 31.458C75.7174 31.458 75.8794 31.476 76.0414 31.512V30.126C74.8534 30.126 73.8454 30.792 73.1434 31.71V30.306H71.7934V39H73.1434ZM86.2094 39.216C87.7934 39.216 88.7294 38.568 89.3954 37.704L88.4954 36.876C87.9194 37.65 87.1814 38.01 86.2814 38.01C84.4274 38.01 83.2754 36.57 83.2754 34.644C83.2754 32.718 84.4274 31.296 86.2814 31.296C87.1814 31.296 87.9194 31.638 88.4954 32.43L89.3954 31.602C88.7294 30.738 87.7934 30.09 86.2094 30.09C83.6174 30.09 81.8714 32.07 81.8714 34.644C81.8714 37.236 83.6174 39.216 86.2094 39.216ZM98.5235 39V32.862C98.5235 30.972 97.5695 30.09 95.7515 30.09C94.4375 30.09 93.2495 30.846 92.6375 31.566V26.994H91.2875V39H92.6375V32.646C93.1595 31.944 94.1675 31.296 95.2115 31.296C96.3815 31.296 97.1735 31.746 97.1735 33.276V39H98.5235ZM108.005 39V33.024C108.005 30.918 106.475 30.09 104.639 30.09C103.217 30.09 102.101 30.558 101.165 31.53L101.795 32.466C102.569 31.638 103.415 31.26 104.459 31.26C105.719 31.26 106.655 31.926 106.655 33.096V34.662C105.953 33.852 104.963 33.474 103.775 33.474C102.299 33.474 100.733 34.392 100.733 36.336C100.733 38.226 102.299 39.216 103.775 39.216C104.945 39.216 105.935 38.802 106.655 38.01V39H108.005ZM104.261 38.244C103.001 38.244 102.119 37.452 102.119 36.354C102.119 35.238 103.001 34.446 104.261 34.446C105.215 34.446 106.133 34.806 106.655 35.526V37.164C106.133 37.884 105.215 38.244 104.261 38.244ZM112.061 39V32.844C112.457 32.142 113.591 31.458 114.419 31.458C114.635 31.458 114.797 31.476 114.959 31.512V30.126C113.771 30.126 112.763 30.792 112.061 31.71V30.306H110.711V39H112.061ZM120.145 42.528C122.269 42.528 124.285 41.628 124.285 38.748V30.306H122.935V31.62C122.233 30.666 121.189 30.09 120.019 30.09C117.733 30.09 116.149 31.818 116.149 34.608C116.149 37.416 117.751 39.108 120.019 39.108C121.243 39.108 122.305 38.442 122.935 37.56V38.802C122.935 40.71 121.585 41.412 120.145 41.412C118.903 41.412 118.039 41.088 117.319 40.224L116.635 41.232C117.661 42.24 118.669 42.528 120.145 42.528ZM120.343 37.92C118.597 37.92 117.553 36.516 117.553 34.608C117.553 32.682 118.597 31.296 120.343 31.296C121.423 31.296 122.467 31.944 122.935 32.7V36.498C122.467 37.254 121.423 37.92 120.343 37.92ZM130.913 39.216C132.335 39.216 133.505 38.748 134.369 37.884L133.721 37.002C133.037 37.704 132.029 38.1 131.039 38.1C129.167 38.1 128.015 36.732 127.907 35.094H134.945V34.752C134.945 32.142 133.397 30.09 130.769 30.09C128.285 30.09 126.485 32.124 126.485 34.644C126.485 37.362 128.339 39.216 130.913 39.216ZM133.613 34.104H127.907C127.979 32.772 128.897 31.206 130.751 31.206C132.731 31.206 133.595 32.808 133.613 34.104Z" fill="#999999"/>
<path d="M3 12H23.4818C27.0717 12 29.9818 14.9101 29.9818 18.5V18.5C29.9818 22.0899 27.0717 25 23.4818 25H9.5C5.91015 25 3 27.9101 3 31.5V31.5C3 35.0899 5.91015 38 9.5 38H31" stroke="#999999"/>
<circle cx="4.5" cy="11.5" r="4" fill="white" stroke="#009EFF"/>
<circle cx="28.5" cy="38.5" r="4" fill="white" stroke="#009EFF"/>
</svg>
