<svg width="328" height="174" viewBox="0 0 328 174" fill="none" xmlns="http://www.w3.org/2000/svg">
<g clip-path="url(#clip0_405_7063)">
<rect x="58.4468" y="42.7912" width="266.752" height="88.5438" fill="#F7F7F7" stroke="#009EFF" stroke-width="5.60404"/>
<path d="M107.033 59.0195L107.033 57.4017L105.632 56.5929L56.3394 28.134L54.9384 27.3252L53.5374 28.134L4.2453 56.5929L2.84429 57.4017L2.84429 59.0195L2.84429 115.937L2.8443 117.555L4.2453 118.364L53.5374 146.823L54.9384 147.631L56.3394 146.823L105.632 118.364L107.033 117.555L107.033 115.937L107.033 59.0195Z" fill="#009EFF" stroke="#F7F7F7" stroke-width="5.60404"/>
<path d="M60.5679 109.193V62.0576H51.8183L37.0002 76.9685L42.7158 82.9752L50.5481 74.9898V109.193H60.5679Z" fill="white"/>
<path d="M128.259 79.3181V72.4931L134.634 62.6431H130.584L126.484 69.3431L122.334 62.6431H118.284L124.709 72.4931V79.3181H128.259ZM147.972 79.3181V76.1931H139.722V72.4181H147.797V69.2931H139.722V65.7681H147.972V62.6431H136.172V79.3181H147.972ZM166.297 79.3181L159.872 62.6431H155.422L148.972 79.3181H153.022L154.072 76.4931H161.222L162.247 79.3181H166.297ZM160.247 73.3681H155.047L157.647 66.1931L160.247 73.3681ZM181.337 79.3181L177.587 72.9681C179.387 72.5431 181.237 70.9681 181.237 68.0181C181.237 64.9181 179.112 62.6431 175.637 62.6431H167.837V79.3181H171.387V73.3931H173.987L177.262 79.3181H181.337ZM175.112 70.2681H171.387V65.7681H175.112C176.537 65.7681 177.612 66.6181 177.612 68.0181C177.612 69.4181 176.537 70.2681 175.112 70.2681ZM136.584 109.318L141.334 92.6431H137.334L134.434 104.693L131.284 92.6431H128.509L125.334 104.693L122.409 92.6431H118.434L123.209 109.318H126.984L129.884 97.8681L132.809 109.318H136.584ZM157.459 109.318L151.034 92.6431H146.584L140.134 109.318H144.184L145.234 106.493H152.384L153.409 109.318H157.459ZM151.409 103.368H146.209L148.809 96.1931L151.409 103.368ZM172.499 109.318L168.749 102.968C170.549 102.543 172.399 100.968 172.399 98.0181C172.399 94.9181 170.274 92.6431 166.799 92.6431H158.999V109.318H162.549V103.393H165.149L168.424 109.318H172.499ZM166.274 100.268H162.549V95.7681H166.274C167.699 95.7681 168.774 96.6181 168.774 98.0181C168.774 99.4181 167.699 100.268 166.274 100.268ZM188.563 109.318L184.813 102.968C186.613 102.543 188.463 100.968 188.463 98.0181C188.463 94.9181 186.338 92.6431 182.863 92.6431H175.063V109.318H178.613V103.393H181.213L184.488 109.318H188.563ZM182.338 100.268H178.613V95.7681H182.338C183.763 95.7681 184.838 96.6181 184.838 98.0181C184.838 99.4181 183.763 100.268 182.338 100.268ZM206.678 109.318L200.253 92.6431H195.803L189.353 109.318H193.403L194.453 106.493H201.603L202.628 109.318H206.678ZM200.628 103.368H195.428L198.028 96.1931L200.628 103.368ZM223.143 109.318V92.6431H219.593V103.118L211.868 92.6431H208.218V109.318H211.768V98.4431L219.718 109.318H223.143ZM233.856 109.318V95.7681H238.706V92.6431H225.406V95.7681H230.281V109.318H233.856ZM249.181 109.318V102.493L255.556 92.6431H251.506L247.406 99.3431L243.256 92.6431H239.206L245.631 102.493V109.318H249.181Z" fill="#323941"/>
</g>
<defs>
<clipPath id="clip0_405_7063">
<rect width="328" height="174" fill="white"/>
</clipPath>
</defs>
</svg>
