<svg width="328" height="174" viewBox="0 0 328 174" fill="none" xmlns="http://www.w3.org/2000/svg">
<g clip-path="url(#clip0_405_7270)">
<rect x="58.4468" y="42.7912" width="266.752" height="88.5438" fill="#F7F7F7" stroke="#009EFF" stroke-width="5.60404"/>
<path d="M107.448 58.6882L107.448 57.0705L106.047 56.2616L56.7547 27.8028L55.3537 26.9939L53.9527 27.8028L4.66058 56.2616L3.25957 57.0705L3.25957 58.6882L3.25958 115.606L3.25958 117.224L4.66059 118.033L53.9527 146.491L55.3537 147.3L56.7547 146.491L106.047 118.033L107.448 117.224L107.448 115.606L107.448 58.6882Z" fill="#009EFF" stroke="#F7F7F7" stroke-width="5.60404"/>
<path d="M48.4852 100.338V92.7271H53.2396V85.8331H48.4852V63.5515H37.6497L22.9998 86.5501V92.7271H40.635V100.338H48.4852ZM40.635 85.8331H30.6841L40.635 70.5007V85.8331Z" fill="white"/>
<path d="M71.7416 101C82.2454 101 86.9998 91.4586 86.9998 81.9724C86.9998 72.4862 82.2454 63 71.7416 63C61.1826 63 56.4835 72.4862 56.4835 81.9724C56.4835 91.4586 61.1826 101 71.7416 101ZM71.7416 94.0508C66.4345 94.0508 64.4443 88.7562 64.4443 81.9724C64.4443 75.1887 66.4345 69.9492 71.7416 69.9492C76.9935 69.9492 78.9837 75.1887 78.9837 81.9724C78.9837 88.7562 76.9935 94.0508 71.7416 94.0508Z" fill="white"/>
<path d="M48.2393 114V107.718C48.2393 105.936 47.2853 105.09 45.6833 105.09C44.3513 105.09 43.1993 105.882 42.6953 106.674C42.3713 105.684 41.5613 105.09 40.2833 105.09C38.9513 105.09 37.7993 105.918 37.4393 106.44V105.306H35.1533V114H37.4393V108.15C37.7813 107.664 38.4473 107.124 39.2393 107.124C40.1753 107.124 40.5353 107.7 40.5353 108.51V114H42.8393V108.132C43.1633 107.664 43.8293 107.124 44.6393 107.124C45.5753 107.124 45.9353 107.7 45.9353 108.51V114H48.2393ZM51.6154 104.37C52.3714 104.37 52.9834 103.758 52.9834 103.002C52.9834 102.246 52.3714 101.652 51.6154 101.652C50.8774 101.652 50.2474 102.246 50.2474 103.002C50.2474 103.758 50.8774 104.37 51.6154 104.37ZM52.7674 114V105.306H50.4814V114H52.7674ZM57.3201 114V101.994H55.0341V114H57.3201ZM63.6729 114.216C65.0229 114.216 66.3909 113.802 67.2549 113.01L66.2469 111.534C65.6889 112.074 64.6629 112.398 63.9249 112.398C62.4489 112.398 61.5669 111.48 61.4229 110.382H67.8849V109.878C67.8849 107.034 66.1209 105.09 63.5289 105.09C60.8829 105.09 59.0289 107.124 59.0289 109.644C59.0289 112.434 61.0269 114.216 63.6729 114.216ZM65.6709 108.834H61.3869C61.4949 107.97 62.1069 106.908 63.5289 106.908C65.0409 106.908 65.6169 108.006 65.6709 108.834ZM72.6681 114.216C75.0801 114.216 76.4301 113.01 76.4301 111.426C76.4301 107.916 71.2821 108.996 71.2821 107.7C71.2821 107.214 71.8221 106.836 72.6501 106.836C73.7121 106.836 74.7021 107.286 75.2241 107.844L76.1421 106.278C75.2781 105.594 74.1081 105.09 72.6321 105.09C70.3461 105.09 69.0681 106.368 69.0681 107.826C69.0681 111.246 74.2341 110.076 74.2341 111.516C74.2341 112.056 73.7661 112.452 72.7761 112.452C71.6961 112.452 70.4001 111.858 69.7701 111.264L68.7801 112.866C69.6981 113.712 71.1561 114.216 72.6681 114.216Z" fill="white"/>
<path d="M127.584 79.6181C132.659 79.6181 135.109 76.7931 135.109 72.6431V62.6431H131.484V72.5431C131.484 74.8681 130.159 76.4681 127.584 76.4681C125.009 76.4681 123.659 74.8681 123.659 72.5431V62.6431H120.059V72.6681C120.059 76.7681 122.509 79.6181 127.584 79.6181ZM141.944 79.3181V73.3931H146.194C149.794 73.3931 151.794 70.9181 151.794 68.0181C151.794 65.0931 149.819 62.6431 146.194 62.6431H138.394V79.3181H141.944ZM145.719 70.2681H141.944V65.7681H145.719C147.119 65.7681 148.169 66.6181 148.169 68.0181C148.169 69.3931 147.119 70.2681 145.719 70.2681ZM167.816 79.3181V65.7681H172.666V62.6431H159.366V65.7681H164.241V79.3181H167.816ZM182.231 79.6181C187.281 79.6181 190.956 76.0181 190.956 70.9931C190.956 65.9681 187.281 62.3681 182.231 62.3681C177.206 62.3681 173.531 65.9681 173.531 70.9931C173.531 76.0181 177.206 79.6181 182.231 79.6181ZM182.231 76.4681C179.156 76.4681 177.181 74.0931 177.181 70.9931C177.181 67.8681 179.156 65.5181 182.231 65.5181C185.306 65.5181 187.306 67.8681 187.306 70.9931C187.306 74.0931 185.306 76.4681 182.231 76.4681ZM210.344 79.3181V75.8681H212.494V72.7431H210.344V62.6431H205.444L198.819 73.0681V75.8681H206.794V79.3181H210.344ZM206.794 72.7431H202.294L206.794 65.7931V72.7431ZM220.861 79.6181C225.611 79.6181 227.761 75.2931 227.761 70.9931C227.761 66.6931 225.611 62.3931 220.861 62.3931C216.086 62.3931 213.961 66.6931 213.961 70.9931C213.961 75.2931 216.086 79.6181 220.861 79.6181ZM220.861 76.4681C218.461 76.4681 217.561 74.0681 217.561 70.9931C217.561 67.9181 218.461 65.5431 220.861 65.5431C223.236 65.5431 224.136 67.9181 224.136 70.9931C224.136 74.0681 223.236 76.4681 220.861 76.4681ZM254.735 79.3181V62.6431H249.735L245.685 72.7181L241.635 62.6431H236.66V79.3181H240.21V67.6431L244.91 79.3181H246.46L251.16 67.6431V79.3181H254.735ZM261.597 79.3181V62.6431H258.047V79.3181H261.597ZM275.507 79.3181V76.1931H268.457V62.6431H264.907V79.3181H275.507ZM289.793 79.3181V76.1931H281.543V72.4181H289.618V69.2931H281.543V65.7681H289.793V62.6431H277.993V79.3181H289.793ZM298.493 79.6181C302.993 79.6181 305.168 77.3181 305.168 74.2681C305.168 68.0431 295.593 69.8181 295.593 67.1681C295.593 66.1681 296.443 65.4931 297.968 65.4931C299.668 65.4931 301.468 66.0681 302.818 67.3181L304.793 64.7181C303.143 63.1931 300.943 62.3931 298.293 62.3931C294.368 62.3931 291.968 64.6931 291.968 67.4681C291.968 73.7431 301.568 71.7181 301.568 74.6681C301.568 75.6181 300.618 76.5181 298.668 76.5181C296.368 76.5181 294.543 75.4931 293.368 74.2681L291.443 76.9681C292.993 78.5431 295.293 79.6181 298.493 79.6181ZM127.959 109.618C133.009 109.618 136.684 106.018 136.684 100.993C136.684 95.9681 133.009 92.3681 127.959 92.3681C122.934 92.3681 119.259 95.9681 119.259 100.993C119.259 106.018 122.934 109.618 127.959 109.618ZM127.959 106.468C124.884 106.468 122.909 104.093 122.909 100.993C122.909 97.8681 124.884 95.5181 127.959 95.5181C131.034 95.5181 133.034 97.8681 133.034 100.993C133.034 104.093 131.034 106.468 127.959 106.468ZM142.725 109.318V102.418H150.8V99.2931H142.725V95.7681H150.975V92.6431H139.175V109.318H142.725ZM173.353 109.318L169.603 102.968C171.403 102.543 173.253 100.968 173.253 98.0181C173.253 94.9181 171.128 92.6431 167.653 92.6431H159.853V109.318H163.403V103.393H166.003L169.278 109.318H173.353ZM167.128 100.268H163.403V95.7681H167.128C168.553 95.7681 169.628 96.6181 169.628 98.0181C169.628 99.4181 168.553 100.268 167.128 100.268ZM191.468 109.318L185.043 92.6431H180.593L174.143 109.318H178.193L179.243 106.493H186.393L187.418 109.318H191.468ZM185.418 103.368H180.218L182.818 96.1931L185.418 103.368ZM207.933 109.318V92.6431H204.383V103.118L196.658 92.6431H193.008V109.318H196.558V98.4431L204.508 109.318H207.933ZM219.296 109.643C222.321 109.643 224.696 108.393 226.396 106.493V100.093H218.446V103.193H222.846V105.193C222.171 105.818 220.771 106.468 219.296 106.468C216.271 106.468 214.071 104.143 214.071 100.993C214.071 97.8431 216.271 95.5181 219.296 95.5181C221.071 95.5181 222.496 96.5181 223.246 97.6931L226.196 96.0931C224.946 94.1181 222.771 92.3681 219.296 92.3681C214.421 92.3681 210.421 95.7181 210.421 100.993C210.421 106.243 214.421 109.643 219.296 109.643ZM241.014 109.318V106.193H232.764V102.418H240.839V99.2931H232.764V95.7681H241.014V92.6431H229.214V109.318H241.014Z" fill="#323941"/>
</g>
<defs>
<clipPath id="clip0_405_7270">
<rect width="328" height="174" fill="white"/>
</clipPath>
</defs>
</svg>
