<svg width="328" height="174" viewBox="0 0 328 174" fill="none" xmlns="http://www.w3.org/2000/svg">
<g clip-path="url(#clip0_405_7112)">
<rect x="58.4468" y="42.7912" width="266.752" height="88.5438" fill="#F7F7F7" stroke="#009EFF" stroke-width="5.60404"/>
<path d="M107.033 59.0195L107.033 57.4017L105.632 56.5929L56.3395 28.134L54.9384 27.3252L53.5374 28.134L4.2453 56.5929L2.8443 57.4017L2.84429 59.0195L2.8443 115.937L2.84431 117.555L4.24531 118.364L53.5374 146.823L54.9384 147.631L56.3395 146.823L105.632 118.364L107.033 117.555L107.033 115.937L107.033 59.0195Z" fill="#009EFF" stroke="#F7F7F7" stroke-width="5.60404"/>
<path d="M83.9005 66.7516C83.8092 66.1144 83.3661 65.5833 82.7555 65.3793C82.1482 65.1736 81.4729 65.3344 81.0164 65.7892L78.6136 68.1936C77.3293 69.478 75.0907 69.478 73.8063 68.1936C72.4773 66.8646 72.478 64.7162 73.8063 63.3881L76.2091 60.9853C76.6638 60.5306 76.8231 59.8569 76.619 59.2462C76.4148 58.6355 75.8839 58.1925 75.2467 58.1013C72.0756 57.6532 68.8663 58.7185 66.5979 60.9836C64.0325 63.5506 63.0202 67.3241 63.9577 70.8336L38.8342 95.9561L38.8325 95.9544C35.3362 95.0268 31.5411 96.039 28.984 98.5961C26.7305 100.85 25.652 104.084 26.1 107.246C26.1913 107.884 26.6343 108.415 27.2449 108.619C27.8507 108.823 28.5276 108.664 28.984 108.209L31.3868 105.804C32.6712 104.52 34.9098 104.52 36.1942 105.804C37.5232 107.133 37.5225 109.282 36.1942 110.61L33.7914 113.013C33.3366 113.467 33.1774 114.141 33.3815 114.752C33.5856 115.362 34.1166 115.805 34.7538 115.897C37.9166 116.347 41.0991 115.316 43.4026 113.014C45.968 110.447 46.9803 106.674 46.0427 103.164L71.1663 78.0419L71.168 78.0436C74.6825 78.9745 78.4593 77.959 81.0164 75.4019C83.27 73.1484 84.3485 69.9144 83.9005 66.7516Z" fill="white"/>
<path d="M73.8048 95.6091C73 95.6091 72.172 95.7302 71.1996 95.9875L64.6136 89.4024L57.4029 96.6122L63.9878 103.198C63.7306 104.172 63.6095 105 63.6095 105.804C63.6095 111.426 68.1828 116 73.8048 116C79.4268 116 84.0001 111.426 84.0001 105.804C84.0001 100.182 79.4268 95.6091 73.8048 95.6091ZM79.3804 105.464L78.3698 109.234C78.2121 109.82 77.7541 110.278 77.1685 110.436L73.3983 111.446C72.8445 111.599 72.2046 111.454 71.7572 111.006L68.9977 108.247C68.5679 107.817 68.4004 107.192 68.5579 106.606L69.5685 102.836C69.7262 102.25 70.1842 101.792 70.7699 101.634L74.54 100.624C75.1225 100.461 75.7497 100.634 76.1811 101.064L78.9406 103.823C79.3704 104.253 79.538 104.878 79.3804 105.464Z" fill="white"/>
<path d="M46.0403 70.7374C46.9778 67.2278 45.9656 63.4528 43.4002 60.8873C39.5487 57.0376 32.8298 57.0376 28.9817 60.8873C25.0075 64.8632 25.0075 71.3314 28.9817 75.3056C31.5356 77.8594 35.3173 78.8865 38.8319 77.9457L45.3886 84.5962L52.5981 77.3876L46.0403 70.7374ZM41.5964 67.5862L40.5858 71.3563C40.4281 71.9421 39.9701 72.4001 39.3845 72.5577L35.6144 73.5682C35.0605 73.7209 34.4206 73.5759 33.9733 73.1285L31.2137 70.369C30.7839 69.9392 30.6164 69.3137 30.774 68.7279L31.7845 64.9578C31.9422 64.372 32.4002 63.914 32.9859 63.7565L36.756 62.7459C37.3418 62.5866 37.9673 62.7558 38.3971 63.1856L41.1567 65.9451C41.5864 66.3749 41.754 67.0005 41.5964 67.5862Z" fill="white"/>
<path d="M135.609 79.3181L129.184 62.6431H124.734L118.284 79.3181H122.334L123.384 76.4931H130.534L131.559 79.3181H135.609ZM129.559 73.3681H124.359L126.959 66.1931L129.559 73.3681ZM140.698 79.3181V72.4181H148.773V69.2931H140.698V65.7681H148.948V62.6431H137.148V79.3181H140.698ZM158.856 79.3181V65.7681H163.706V62.6431H150.406V65.7681H155.281V79.3181H158.856ZM177.781 79.3181V76.1931H169.531V72.4181H177.606V69.2931H169.531V65.7681H177.781V62.6431H165.981V79.3181H177.781ZM194.057 79.3181L190.307 72.9681C192.107 72.5431 193.957 70.9681 193.957 68.0181C193.957 64.9181 191.832 62.6431 188.357 62.6431H180.557V79.3181H184.107V73.3931H186.707L189.982 79.3181H194.057ZM187.832 70.2681H184.107V65.7681H187.832C189.257 65.7681 190.332 66.6181 190.332 68.0181C190.332 69.4181 189.257 70.2681 187.832 70.2681ZM208.943 79.6181C213.443 79.6181 215.618 77.3181 215.618 74.2681C215.618 68.0431 206.043 69.8181 206.043 67.1681C206.043 66.1681 206.893 65.4931 208.418 65.4931C210.118 65.4931 211.918 66.0681 213.268 67.3181L215.243 64.7181C213.593 63.1931 211.393 62.3931 208.743 62.3931C204.818 62.3931 202.418 64.6931 202.418 67.4681C202.418 73.7431 212.018 71.7181 212.018 74.6681C212.018 75.6181 211.068 76.5181 209.118 76.5181C206.818 76.5181 204.993 75.4931 203.818 74.2681L201.893 76.9681C203.443 78.5431 205.743 79.6181 208.943 79.6181ZM233.314 79.3181L226.889 62.6431H222.439L215.989 79.3181H220.039L221.089 76.4931H228.239L229.264 79.3181H233.314ZM227.264 73.3681H222.064L224.664 66.1931L227.264 73.3681ZM245.453 79.3181V76.1931H238.403V62.6431H234.853V79.3181H245.453ZM259.739 79.3181V76.1931H251.489V72.4181H259.564V69.2931H251.489V65.7681H259.739V62.6431H247.939V79.3181H259.739ZM268.44 79.6181C272.94 79.6181 275.115 77.3181 275.115 74.2681C275.115 68.0431 265.54 69.8181 265.54 67.1681C265.54 66.1681 266.39 65.4931 267.915 65.4931C269.615 65.4931 271.415 66.0681 272.765 67.3181L274.74 64.7181C273.09 63.1931 270.89 62.3931 268.24 62.3931C264.315 62.3931 261.915 64.6931 261.915 67.4681C261.915 73.7431 271.515 71.7181 271.515 74.6681C271.515 75.6181 270.565 76.5181 268.615 76.5181C266.315 76.5181 264.49 75.4931 263.315 74.2681L261.39 76.9681C262.94 78.5431 265.24 79.6181 268.44 79.6181ZM125.984 109.618C130.484 109.618 132.659 107.318 132.659 104.268C132.659 98.0431 123.084 99.8181 123.084 97.1681C123.084 96.1681 123.934 95.4931 125.459 95.4931C127.159 95.4931 128.959 96.0681 130.309 97.3181L132.284 94.7181C130.634 93.1931 128.434 92.3931 125.784 92.3931C121.859 92.3931 119.459 94.6931 119.459 97.4681C119.459 103.743 129.059 101.718 129.059 104.668C129.059 105.618 128.109 106.518 126.159 106.518C123.859 106.518 122.034 105.493 120.859 104.268L118.934 106.968C120.484 108.543 122.784 109.618 125.984 109.618ZM142.574 109.618C147.649 109.618 150.099 106.793 150.099 102.643V92.6431H146.474V102.543C146.474 104.868 145.149 106.468 142.574 106.468C139.999 106.468 138.649 104.868 138.649 102.543V92.6431H135.049V102.668C135.049 106.768 137.499 109.618 142.574 109.618ZM156.934 109.318V103.393H161.184C164.784 103.393 166.784 100.918 166.784 98.0181C166.784 95.0931 164.809 92.6431 161.184 92.6431H153.384V109.318H156.934ZM160.709 100.268H156.934V95.7681H160.709C162.109 95.7681 163.159 96.6181 163.159 98.0181C163.159 99.3931 162.109 100.268 160.709 100.268ZM172.534 109.318V103.393H176.784C180.384 103.393 182.384 100.918 182.384 98.0181C182.384 95.0931 180.409 92.6431 176.784 92.6431H168.984V109.318H172.534ZM176.309 100.268H172.534V95.7681H176.309C177.709 95.7681 178.759 96.6181 178.759 98.0181C178.759 99.3931 177.709 100.268 176.309 100.268ZM192.485 109.618C197.535 109.618 201.21 106.018 201.21 100.993C201.21 95.9681 197.535 92.3681 192.485 92.3681C187.46 92.3681 183.785 95.9681 183.785 100.993C183.785 106.018 187.46 109.618 192.485 109.618ZM192.485 106.468C189.41 106.468 187.435 104.093 187.435 100.993C187.435 97.8681 189.41 95.5181 192.485 95.5181C195.56 95.5181 197.56 97.8681 197.56 100.993C197.56 104.093 195.56 106.468 192.485 106.468ZM217.201 109.318L213.451 102.968C215.251 102.543 217.101 100.968 217.101 98.0181C217.101 94.9181 214.976 92.6431 211.501 92.6431H203.701V109.318H207.251V103.393H209.851L213.126 109.318H217.201ZM210.976 100.268H207.251V95.7681H210.976C212.401 95.7681 213.476 96.6181 213.476 98.0181C213.476 99.4181 212.401 100.268 210.976 100.268ZM226.946 109.318V95.7681H231.796V92.6431H218.496V95.7681H223.371V109.318H226.946Z" fill="#323941"/>
</g>
<defs>
<clipPath id="clip0_405_7112">
<rect width="328" height="174" fill="white"/>
</clipPath>
</defs>
</svg>
